<?xml version="1.0" standalone="no"?>
<!DOCTYPE svg PUBLIC "-//W3C//DTD SVG 1.1//EN" "http://www.w3.org/Graphics/SVG/1.1/DTD/svg11.dtd" >
<svg xmlns="http://www.w3.org/2000/svg" xmlns:xlink="http://www.w3.org/1999/xlink" version="1.1">
<metadata>
Created by FontForge 20201107 at Thu Dec  8 17:43:03 2022
 By 
Copyright 2022 The Inter Project Authors (https://github.com/rsms/inter-tight)
</metadata>
<defs>
<font id="InterTight-Light" horiz-adv-x="0" >
  <font-face 
    font-family="Inter Tight Light"
    font-weight="300"
    font-stretch="normal"
    units-per-em="2048"
    panose-1="0 0 0 0 0 0 0 0 0 0"
    ascent="1638"
    descent="-410"
    x-height="1118"
    cap-height="1490"
    bbox="-1513 -654 5258 2195"
    underline-thickness="140"
    underline-position="-407"
    unicode-range="U+0020-1F852"
  />
<missing-glyph horiz-adv-x="1024" 
d="M102 -494v2478h820v-2478h-820zM204 -392h616v2274h-616v-2274z" />
    <glyph glyph-name=".notdef" horiz-adv-x="1024" 
d="M102 -494v2478h820v-2478h-820zM204 -392h616v2274h-616v-2274z" />
    <glyph glyph-name=".null" 
 />
    <glyph glyph-name="nonmarkingreturn" horiz-adv-x="682" 
 />
    <glyph glyph-name="space" unicode=" " horiz-adv-x="512" 
 />
    <glyph glyph-name="exclam" unicode="!" horiz-adv-x="537" 
d="M204 467l-8 1023h145l-8 -1023h-129zM268 -11q-43 0 -74 31t-31 74t31 74t74 31q44 0 74.5 -31t30.5 -74t-30.5 -74t-74.5 -31z" />
    <glyph glyph-name="quotedbl" unicode="&#x22;" horiz-adv-x="831" 
d="M209 965l-16 525h141l-15 -525h-110zM513 965l-16 525h141l-15 -525h-110z" />
    <glyph glyph-name="numbersign" unicode="#" horiz-adv-x="1230" 
d="M698 0l245 1490h112l-244 -1490h-113zM6 430l19 112h1112l-19 -112h-1112zM175 0l244 1490h112l-244 -1490h-112zM93 947l19 112h1110l-17 -112h-1112z" />
    <glyph glyph-name="dollar" unicode="$" horiz-adv-x="1225" 
d="M566 -186v1862h94v-1862h-94zM610 -25q-152 0 -264 50t-176 140t-72 208h139q8 -89 58.5 -150t132.5 -92.5t182 -31.5q112 0 199 37.5t136.5 104.5t49.5 157q0 76 -39.5 127t-109.5 86t-163 62l-177 52q-175 51 -272 144t-97 236q0 120 64.5 211.5t174.5 143t247 51.5
q139 0 246 -51.5t170 -140t68 -201.5h-133q-12 124 -109 197.5t-246 73.5q-103 0 -182 -36t-123.5 -99t-44.5 -143q0 -78 44 -130.5t112 -85.5t140 -55l157 -45q71 -21 142 -51.5t130.5 -76.5t96 -112.5t36.5 -159.5q0 -118 -62 -213.5t-177.5 -151t-277.5 -55.5z" />
    <glyph glyph-name="percent" unicode="%" horiz-adv-x="1573" 
d="M887 277v68q1 83 34 150t95 106.5t147 39.5q86 0 147 -39.5t93.5 -106.5t32.5 -150v-68q0 -84 -33 -151t-94 -106.5t-146 -39.5q-86 0 -148 39.5t-94.5 106.5t-33.5 151zM1002 345v-68q0 -83 40.5 -140.5t120.5 -58.5q79 1 119 58.5t40 140.5v68q0 82 -39.5 139.5
t-119.5 57.5q-79 0 -120 -57.5t-41 -139.5zM137 1145v68q0 84 33.5 151t95 106.5t146.5 39.5q86 0 147.5 -39.5t94 -106.5t31.5 -151v-68q1 -82 -32 -149.5t-94 -107t-147 -39.5t-147.5 39.5t-94.5 107t-33 149.5zM251 1213v-68q0 -82 40.5 -140t120.5 -57q79 -1 119 57
t40 140v68q0 82 -39.5 140t-119.5 58q-79 0 -120 -58t-41 -140zM205 0l1022 1490h130l-1024 -1490h-128z" />
    <glyph glyph-name="ampersand" unicode="&#x26;" horiz-adv-x="1208" 
d="M537 -20q-137 0 -239.5 53t-159.5 145.5t-57 209.5q0 84 35.5 151.5t101 128.5t156.5 129l217 161q76 56 116.5 109t40.5 131q0 75 -56.5 134.5t-146.5 59.5q-62 0 -111.5 -31t-78 -80.5t-28.5 -105.5q0 -53 27 -104.5t71.5 -107t99.5 -123.5l680 -840h-158l-593 728
q-75 92 -133 163.5t-91.5 138.5t-33.5 146q0 97 44 171t122 116.5t179 42.5q104 0 180 -42t118 -112t42 -155q0 -100 -52 -177.5t-151 -152.5l-272 -202q-111 -83 -152 -155t-41 -122q0 -79 41 -145.5t113.5 -107t166.5 -40.5q92 0 174.5 37t147.5 105.5t104.5 164.5
t46.5 213l126 -2q-4 -119 -33 -202.5t-66.5 -137.5t-66.5 -86q-7 -9 -13 -17.5t-12 -17.5q-68 -79 -176 -125.5t-229 -46.5z" />
    <glyph glyph-name="quotesingle" unicode="'" horiz-adv-x="528" 
d="M209 965l-16 525h141l-15 -525h-110z" />
    <glyph glyph-name="parenleft" unicode="(" horiz-adv-x="643" 
d="M193 621q0 160 30 331.5t85 334t129 294.5h127q-76 -155 -130 -320.5t-82.5 -328t-28.5 -311.5q0 -139 26 -282t79 -295.5t136 -322.5h-127q-120 218 -182 447t-62 453z" />
    <glyph glyph-name="parenright" unicode=")" horiz-adv-x="643" 
d="M79 -279q83 170 136 323t79 296t26 282q0 148 -28.5 311t-82 328t-130.5 321h128q74 -132 128.5 -295t85 -334t30.5 -331q-1 -225 -63 -453.5t-181 -447.5h-128z" />
    <glyph glyph-name="asterisk" unicode="*" horiz-adv-x="960" 
d="M425 652l8 339l-289 -178l-55 96l300 161l-300 162l55 96l289 -177l-8 339h110l-8 -339l289 177l55 -96l-300 -162l300 -161l-55 -96l-289 178l8 -339h-110z" />
    <glyph glyph-name="plus" unicode="+" horiz-adv-x="1271" 
d="M573 121v922h124v-922h-124zM174 519v126h921v-126h-921z" />
    <glyph glyph-name="comma" unicode="," horiz-adv-x="527" 
d="M107 -336l92 525h148l-139 -525h-101z" />
    <glyph glyph-name="hyphen" unicode="-" horiz-adv-x="862" 
d="M741 699v-122h-620v122h620z" />
    <glyph glyph-name="period" unicode="." horiz-adv-x="509" 
d="M254 -11q-43 0 -74 31t-31 74t31 74t74 31q44 0 74.5 -31t30.5 -74t-30.5 -74t-74.5 -31z" />
    <glyph glyph-name="slash" unicode="/" horiz-adv-x="643" 
d="M623 1560l-480 -1784h-122l480 1784h122z" />
    <glyph glyph-name="zero" unicode="0" horiz-adv-x="1193" 
d="M597 -20q-157 0 -268.5 91t-170.5 261.5t-59 411.5t59 412.5t171 262.5t268 91t267 -91t170.5 -262.5t59.5 -412.5t-59 -411.5t-170 -261.5t-268 -91zM597 101q116 0 198 76.5t125.5 220.5t43.5 346q0 203 -43.5 347.5t-125.5 221t-198 76.5q-175 0 -271.5 -170.5
t-96.5 -474.5q0 -202 43.5 -346t126 -220.5t198.5 -76.5z" />
    <glyph glyph-name="one" unicode="1" horiz-adv-x="736" 
d="M571 1490v-1490h-133v1347h-9l-348 -232v140l351 235h139z" />
    <glyph glyph-name="two" unicode="2" horiz-adv-x="1187" 
d="M134 0v99l487 548q94 107 152 183.5t85 141t27 134.5q0 85 -40 149t-108.5 99t-155.5 35q-92 0 -160.5 -39t-106 -107.5t-37.5 -156.5h-130q0 123 57 219t156 150.5t225 54.5q125 0 221.5 -53.5t151.5 -145t55 -205.5q0 -82 -28.5 -158.5t-98.5 -171.5t-193 -231
l-370 -413v-10h737v-122h-926z" />
    <glyph glyph-name="three" unicode="3" horiz-adv-x="1224" 
d="M618 -20q-138 0 -246.5 49.5t-171.5 138t-67 204.5h137q4 -81 50.5 -142t123.5 -94.5t171 -33.5q104 0 183.5 38.5t124 105.5t44.5 152q0 91 -46 160t-131.5 107.5t-203.5 38.5h-87v123h87q96 0 170.5 35t117.5 98.5t43 150.5q0 82 -37 145t-104 98t-157 35
q-86 0 -158.5 -33.5t-116.5 -94t-46 -143.5h-132q3 116 64.5 204t163.5 138t227 50q131 0 227.5 -53.5t149 -143t51.5 -196.5q1 -128 -68 -218t-186 -125v-10q142 -28 223.5 -126t81.5 -240q0 -119 -62.5 -213.5t-171 -149.5t-248.5 -55z" />
    <glyph glyph-name="four" unicode="4" horiz-adv-x="1218" 
d="M99 321v110l663 1059h82v-185h-61l-533 -852v-10h871v-122h-1022zM793 0v355v51v1084h130v-1490h-130z" />
    <glyph glyph-name="five" unicode="5" horiz-adv-x="1143" 
d="M569 -20q-123 0 -221 50.5t-156 139.5t-61 202h131q7 -117 93 -193.5t214 -76.5q101 0 178 48t121 131t44 188q0 109 -46.5 192.5t-126 130.5t-178.5 47q-76 0 -147.5 -25.5t-118.5 -64.5l-137 17l89 724h736v-123h-621l-60 -498h7q50 42 120.5 68t151.5 26
q131 0 236 -63.5t166.5 -174t61.5 -255.5q0 -141 -61.5 -252t-169 -174.5t-245.5 -63.5z" />
    <glyph glyph-name="six" unicode="6" horiz-adv-x="1161" 
d="M591 -20q-92 0 -180 36.5t-158.5 118.5t-112 216.5t-41.5 330.5q0 182 32 333.5t96 262.5t160 171.5t225 60.5q120 0 212.5 -50t150 -138.5t71.5 -203.5h-133q-20 117 -96.5 193.5t-204.5 76.5q-183 0 -284 -170t-101 -483h10q36 67 92.5 116t128 75.5t151.5 26.5
q124 0 227 -63t165 -172t62 -249q0 -134 -58.5 -245t-164.5 -177.5t-249 -66.5zM591 102q98 0 174.5 49.5t121 133t44.5 184.5t-44.5 183t-121 130.5t-174.5 48.5q-99 0 -178.5 -52t-123.5 -136.5t-36 -182.5q8 -103 53.5 -184t119 -127.5t165.5 -46.5z" />
    <glyph glyph-name="seven" unicode="7" horiz-adv-x="1074" 
d="M176 0l679 1358v9h-782v123h926v-129l-679 -1361h-144z" />
    <glyph glyph-name="eight" unicode="8" horiz-adv-x="1181" 
d="M590 -20q-142 0 -253 54t-174.5 147t-63.5 211q0 92 38.5 172.5t105.5 135.5t152 72v7q-109 32 -176.5 126.5t-67.5 214.5q0 111 57.5 199.5t157 139.5t224.5 51q124 0 223 -51t157 -139t58 -200q0 -119 -67 -214t-176 -127v-7q84 -17 151 -72t106.5 -135.5t39.5 -172.5
q0 -118 -64 -211t-175 -147t-253 -54zM590 102q106 0 186.5 38t126 105t44.5 153q1 89 -46.5 160t-128 112t-182.5 41q-103 0 -184 -41t-127.5 -112t-47.5 -160q1 -86 46 -153t126 -105t187 -38zM590 827q87 0 156 37t110 101.5t41 146.5t-40 144t-109.5 97.5t-157.5 35.5
q-89 0 -158.5 -35.5t-109 -97.5t-39.5 -144t40 -146.5t109.5 -101.5t157.5 -37z" />
    <glyph glyph-name="nine" unicode="9" horiz-adv-x="1161" 
d="M570 1510q93 -1 181 -37.5t158.5 -118t112 -215.5t41.5 -329q0 -183 -31.5 -335t-95.5 -263t-160.5 -171.5t-224.5 -60.5q-120 0 -213.5 50t-150.5 139.5t-72 206.5h134q20 -120 97 -197t205 -77q182 0 283 170t101 485h-10q-35 -66 -91.5 -115t-127.5 -76t-151 -27
q-125 0 -228.5 63t-165.5 172.5t-62 249.5q0 133 58.5 243.5t164.5 177t248 65.5zM570 1388q-96 0 -173.5 -49t-121.5 -131.5t-44 -183.5t44 -183.5t121.5 -131t173.5 -48.5q99 0 179 52.5t124.5 137t37.5 182.5q-9 102 -54.5 182t-119.5 126.5t-167 46.5z" />
    <glyph glyph-name="colon" unicode=":" horiz-adv-x="509" 
d="M254 -11q-43 0 -74 31t-31 74t31 74t74 31q44 0 74.5 -31t30.5 -74t-30.5 -74t-74.5 -31zM254 850q-43 0 -74 31t-31 74t31 74t74 31q44 0 74.5 -31t30.5 -74t-30.5 -74t-74.5 -31z" />
    <glyph glyph-name="semicolon" unicode=";" horiz-adv-x="530" 
d="M107 -336l92 525h148l-139 -525h-101zM275 850q-43 0 -74 31t-31 74t31 74t74 31q44 0 74.5 -31t30.5 -74t-30.5 -74t-74.5 -31z" />
    <glyph glyph-name="less" unicode="&#x3c;" horiz-adv-x="1271" 
d="M190 535v94l891 490v-143l-732 -394l8 13v-26l-8 11l732 -393v-143z" />
    <glyph glyph-name="equal" unicode="=" horiz-adv-x="1271" 
d="M221 730v121h828v-121h-828zM221 313v121h828v-121h-828z" />
    <glyph glyph-name="greater" unicode="&#x3e;" horiz-adv-x="1271" 
d="M1081 535l-891 -491v143l731 393l-7 -11v26l7 -13l-731 394v143l891 -490v-94z" />
    <glyph glyph-name="question" unicode="?" horiz-adv-x="955" 
d="M364 446v41q0 115 24.5 182t73 111.5t120.5 90.5q80 51 123.5 114t43.5 148q0 78 -37 136.5t-99.5 91t-139.5 32.5q-73 0 -135.5 -31.5t-102.5 -92.5t-44 -151h-136q3 119 59 207.5t150 136.5t209 48q121 0 212.5 -49.5t143 -136t51.5 -197.5t-52 -192.5t-155 -149.5
q-65 -42 -104 -80.5t-56 -88.5t-17 -129v-41h-132zM431 -11q-43 0 -74 31t-31 74t31 74t74 31q44 0 74.5 -31t30.5 -74t-30.5 -74t-74.5 -31z" />
    <glyph glyph-name="at" unicode="@" horiz-adv-x="1854" 
d="M965 -393q-208 0 -373.5 64t-282.5 184t-179.5 289.5t-62.5 378.5q0 206 63 373t179.5 287.5t279 185t362.5 64.5q195 0 349.5 -68t263 -185t165 -266.5t56.5 -312.5q0 -103 -15.5 -203.5t-53 -181.5t-104.5 -129t-171 -48q-52 0 -104.5 17.5t-89 58.5t-42.5 110h-7
q-23 -51 -64 -94t-100 -68.5t-136 -25.5q-126 0 -217 65.5t-139.5 177t-48.5 250.5q0 133 54 240t147.5 169t210.5 62q104 0 178 -46t108 -106h9v132h118v-674q0 -77 30 -119.5t96 -42.5q79 0 128.5 52t73 154t23.5 252q0 114 -31.5 220t-91.5 197.5t-148.5 160.5
t-201.5 107.5t-251 38.5q-170 0 -309 -57.5t-239 -164.5t-154 -255.5t-54 -330.5q0 -183 54 -331.5t156 -254t246 -162.5t324 -57q80 0 157.5 16t141 39t102.5 44l37 -102q-53 -29 -126.5 -52.5t-155.5 -37.5t-160 -14zM901 151q99 0 167 46t102.5 132t34.5 206
q0 122 -36.5 200.5t-104 116.5t-159.5 38q-88 0 -155 -48.5t-104.5 -129t-37.5 -177.5q0 -102 33.5 -189.5t98.5 -141t161 -53.5z" />
    <glyph glyph-name="A" unicode="A" horiz-adv-x="1279" 
d="M168 0h-143l543 1490h145l542 -1490h-142l-468 1313h-10zM271 571h739v-122h-739v122z" />
    <glyph glyph-name="B" unicode="B" horiz-adv-x="1261" 
d="M165 0v1490h504q145 0 242 -51t145.5 -139t48.5 -200q0 -93 -31.5 -159t-85 -107t-119.5 -59v-12q73 -5 140 -50.5t110.5 -127t43.5 -194.5t-50 -201t-153 -139t-264 -51h-531zM301 122h395q173 0 255 77t82 192q0 85 -41 154.5t-115.5 110.5t-173.5 41h-402v-575z
M301 816h380q88 0 154.5 37t103 101t36.5 146q0 118 -76.5 192.5t-229.5 74.5h-368v-551z" />
    <glyph glyph-name="C" unicode="C" horiz-adv-x="1423" 
d="M743 -20q-187 0 -333 94t-228.5 265.5t-82.5 404.5q0 234 82.5 406t228.5 266t333 94q119 0 218.5 -37t176.5 -103t126.5 -154.5t67.5 -191.5h-137q-15 77 -55 142t-99.5 114t-134.5 76t-163 27q-141 0 -257.5 -73.5t-186 -216t-69.5 -349.5t69.5 -349t186 -215
t257.5 -73q88 0 163 27t134.5 76t99.5 114t55 142h137q-18 -103 -67.5 -191.5t-126.5 -154.5t-176.5 -103t-218.5 -37z" />
    <glyph glyph-name="D" unicode="D" horiz-adv-x="1405" 
d="M602 0h-361v122h353q192 0 321.5 75.5t194.5 216t65 335.5q0 192 -63.5 330.5t-187 213t-304.5 74.5h-384v123h392q213 0 365 -89t232.5 -255t80.5 -397q0 -235 -82.5 -402.5t-240 -257t-381.5 -89.5zM301 1490v-1490h-136v1490h136z" />
    <glyph glyph-name="E" unicode="E" horiz-adv-x="1151" 
d="M165 0v1490h865v-123h-729v-556h683v-122h-683v-567h743v-122h-879z" />
    <glyph glyph-name="F" unicode="F" horiz-adv-x="1137" 
d="M165 0v1490h863v-123h-727v-571h658v-122h-658v-674h-136z" />
    <glyph glyph-name="G" unicode="G" horiz-adv-x="1455" 
d="M749 -20q-195 0 -341.5 94t-227.5 266t-81 404q0 234 81.5 406t225.5 266t333 94q122 0 223.5 -38.5t178.5 -106t127 -155t68 -186.5h-140q-20 75 -59.5 139.5t-97.5 114t-133 77.5t-167 28q-145 0 -260 -76t-182 -219t-67 -344q0 -199 67 -342t184 -219t268 -76
q137 0 241.5 61t163.5 174t59 271l44 -14h-476v122h565v-122q0 -191 -76.5 -329.5t-211.5 -214t-309 -75.5z" />
    <glyph glyph-name="H" unicode="H" horiz-adv-x="1447" 
d="M165 0v1490h136v-683h846v683h135v-1490h-135v685h-846v-685h-136z" />
    <glyph glyph-name="I" unicode="I" horiz-adv-x="467" 
d="M301 1490v-1490h-136v1490h136z" />
    <glyph glyph-name="J" unicode="J" horiz-adv-x="1031" 
d="M463 -20q-116 0 -207 42.5t-143 120.5t-52 184v25h134v-25q0 -67 35 -117.5t95.5 -79t137.5 -28.5q79 0 139 33.5t94 102.5t34 177v1075h135v-1075q0 -145 -51.5 -242t-142 -145t-208.5 -48z" />
    <glyph glyph-name="K" unicode="K" horiz-adv-x="1247" 
d="M165 0v1490h136v-803h14l728 803h177l-635 -689l632 -801h-166l-551 706l-199 -223v-483h-136z" />
    <glyph glyph-name="L" unicode="L" horiz-adv-x="1088" 
d="M165 0v1490h136v-1368h711v-122h-847z" />
    <glyph glyph-name="M" unicode="M" horiz-adv-x="1745" 
d="M165 1490h158l540 -1297h14l540 1297h162v-1490h-133v1203h-11l-505 -1203h-123l-501 1203h-11v-1203h-130v1490z" />
    <glyph glyph-name="N" unicode="N" horiz-adv-x="1493" 
d="M1327 1490v-1490h-134l-879 1247h-13v-1247h-136v1490h132l884 -1249h11v1249h135z" />
    <glyph glyph-name="O" unicode="O" horiz-adv-x="1486" 
d="M744 -20q-188 0 -334 94t-228.5 266t-82.5 404q0 233 83 405.5t228.5 266.5t333.5 94t333 -94t227.5 -266.5t82.5 -405.5q0 -232 -82.5 -404t-227.5 -266t-333 -94zM744 107q146 0 262 76t183 218.5t67 342.5q0 201 -67 344t-183 219t-262 76t-262.5 -76t-184 -219
t-67.5 -344q0 -199 67 -342t183.5 -219t263.5 -76z" />
    <glyph glyph-name="P" unicode="P" horiz-adv-x="1217" 
d="M165 0v1490h482q159 0 265 -60.5t160.5 -165t54.5 -234.5t-54 -234.5t-160.5 -165.5t-263.5 -61h-378v122h374q117 0 194 44t115.5 121t38.5 174q0 98 -38.5 174t-116 119.5t-195.5 43.5h-342v-1367h-136z" />
    <glyph glyph-name="Q" unicode="Q" horiz-adv-x="1486" 
d="M724 466h151l191 -252l31 -43l234 -311h-151l-171 229l-31 41zM744 -20q-188 0 -334 94t-228.5 266t-82.5 404q0 233 83 405.5t228.5 266.5t333.5 94t333 -94t227.5 -266.5t82.5 -405.5q0 -232 -82.5 -404t-227.5 -266t-333 -94zM744 107q146 0 262 76t183 218.5
t67 342.5q0 201 -67 344t-183 219t-262 76t-262.5 -76t-184 -219t-67.5 -344q0 -199 67 -342t183.5 -219t263.5 -76z" />
    <glyph glyph-name="R" unicode="R" horiz-adv-x="1229" 
d="M165 0v1490h482q159 0 265 -57.5t160.5 -158.5t54.5 -231t-54 -229.5t-160.5 -155.5t-263.5 -56h-409v124h405q117 0 194 39t115.5 110t38.5 168q0 98 -39 171t-116 113t-195 40h-342v-1367h-136zM1031 0l-362 673h154l366 -673h-158z" />
    <glyph glyph-name="S" unicode="S" horiz-adv-x="1225" 
d="M610 -25q-152 0 -264 50t-176 140t-72 208h139q8 -89 58.5 -150t132.5 -92.5t182 -31.5q112 0 199 37.5t136.5 104.5t49.5 157q0 76 -39.5 127t-109.5 86t-163 62l-177 52q-175 51 -272 144t-97 236q0 120 64.5 211.5t174.5 143t247 51.5q139 0 246 -51.5t170 -140
t68 -201.5h-133q-12 124 -109 197.5t-246 73.5q-103 0 -182 -36t-123.5 -99t-44.5 -143q0 -78 44 -130.5t112 -85.5t140 -55l157 -45q71 -21 142 -51.5t130.5 -76.5t96 -112.5t36.5 -159.5q0 -118 -62 -213.5t-177.5 -151t-277.5 -55.5z" />
    <glyph glyph-name="T" unicode="T" horiz-adv-x="1231" 
d="M75 1367v123h1081v-123h-472v-1367h-135v1367h-474z" />
    <glyph glyph-name="U" unicode="U" horiz-adv-x="1460" 
d="M1159 1490h136v-986q0 -152 -71 -271.5t-198.5 -188.5t-294.5 -69q-168 0 -295.5 69t-199 188.5t-71.5 271.5v986h136v-977q0 -118 53.5 -211t150 -146t226.5 -53q129 0 225 53t149.5 146t53.5 211v977z" />
    <glyph glyph-name="V" unicode="V" horiz-adv-x="1279" 
d="M168 1490l465 -1313h14l466 1313h142l-542 -1490h-145l-543 1490h143z" />
    <glyph glyph-name="W" unicode="W" horiz-adv-x="1847" 
d="M427 0l-407 1490h138l338 -1282h11l338 1282h158l336 -1282h13l337 1282h138l-408 -1490h-146l-344 1263h-10l-345 -1263h-147z" />
    <glyph glyph-name="X" unicode="X" horiz-adv-x="1211" 
d="M189 1490l412 -647h10l412 647h161l-479 -746l479 -744h-161l-412 639h-10l-412 -639h-160l486 744l-486 746h160z" />
    <glyph glyph-name="Y" unicode="Y" horiz-adv-x="1263" 
d="M26 1490h157l442 -707h14l440 707h158l-538 -845v-645h-136v645z" />
    <glyph glyph-name="Z" unicode="Z" horiz-adv-x="1203" 
d="M106 0v102l828 1265h-831v123h994v-104l-828 -1264h834v-122h-997z" />
    <glyph glyph-name="bracketleft" unicode="[" horiz-adv-x="643" 
d="M204 -279v1860h337v-112h-214v-1636h214v-112h-337z" />
    <glyph glyph-name="backslash" unicode="\" horiz-adv-x="643" 
d="M501 -224l-480 1784h121l480 -1784h-121z" />
    <glyph glyph-name="bracketright" unicode="]" horiz-adv-x="643" 
d="M102 -279v112h214v1635h-214v113h337v-1860h-337z" />
    <glyph glyph-name="asciicircum" unicode="^" horiz-adv-x="849" 
d="M403 1379h44v-64h-44v64zM55 814l298 628h143l299 -628h-132l-248 530h19l-246 -530h-133z" />
    <glyph glyph-name="underscore" unicode="_" horiz-adv-x="845" 
d="M879 0v-122h-914v122h914z" />
    <glyph glyph-name="grave" unicode="`" horiz-adv-x="787" 
d="M445 1265l-200 288h149l161 -288h-110z" />
    <glyph glyph-name="a" unicode="a" horiz-adv-x="1074" 
d="M451 -25q-101 0 -185 39.5t-133.5 115t-49.5 183.5q0 83 31 139t89 92.5t136.5 58t173.5 32.5q94 12 159 20.5t99 27.5t34 61v26q0 115 -68 180.5t-195 65.5q-121 0 -197 -53t-106 -125l-124 45q38 91 105 146t150 79.5t168 24.5q64 0 133 -17t129 -58t97.5 -114.5
t37.5 -185.5v-758h-130v177h-8q-22 -49 -68 -95.5t-115 -76.5t-163 -30zM469 93q103 0 178.5 45.5t116.5 122.5t41 168v161q-15 -14 -48.5 -25t-77 -19t-88 -14t-78.5 -10q-94 -12 -161.5 -37t-103 -68t-35.5 -111q0 -101 72.5 -157t183.5 -56z" />
    <glyph glyph-name="b" unicode="b" horiz-adv-x="1163" 
d="M623 -24q-101 0 -169.5 36.5t-110 90.5t-64.5 105h-15v-208h-125v1490h129v-586h11q23 50 64 103t109 89.5t170 36.5q138 0 241.5 -72.5t161.5 -202.5t58 -302q0 -173 -57.5 -304t-161 -203.5t-241.5 -72.5zM609 94q110 0 187 62t117 167t40 234t-40 232.5t-116 164.5
t-188 61q-110 0 -186 -58.5t-116 -161.5t-40 -238q0 -134 40 -238.5t116.5 -164.5t185.5 -60z" />
    <glyph glyph-name="c" unicode="c" horiz-adv-x="1078" 
d="M575 -24q-150 0 -261 75t-172 205.5t-61 296.5q0 169 62 299.5t173 205.5t257 75q112 0 203 -43.5t150.5 -122t74.5 -182.5h-130q-14 63 -53.5 115t-101 83.5t-141.5 31.5q-107 0 -189 -58t-128.5 -161t-46.5 -239q0 -135 45 -240t127.5 -164t191.5 -59q111 0 192 63
t104 169h130q-14 -101 -71.5 -180t-148 -124.5t-206.5 -45.5z" />
    <glyph glyph-name="d" unicode="d" horiz-adv-x="1163" 
d="M540 -24q-137 0 -240.5 72.5t-161 203.5t-57.5 304q0 172 58 302t161.5 202.5t240.5 72.5q103 0 170.5 -36.5t109 -89.5t63.5 -103h11v586h129v-1490h-125v208h-15q-22 -51 -64 -105t-110 -90.5t-170 -36.5zM555 94q109 0 185 60t116.5 164.5t40.5 238.5q0 135 -40 238
t-116.5 161.5t-185.5 58.5q-111 0 -188 -61t-116.5 -164.5t-39.5 -232.5t40 -234t116.5 -167t187.5 -62z" />
    <glyph glyph-name="e" unicode="e" horiz-adv-x="1119" 
d="M591 -24q-156 0 -271 73.5t-177 203.5t-62 299t61.5 300t171.5 206t255 75q90 0 175 -33.5t153 -101.5t107 -172.5t39 -248.5v-58h-873v114h803l-59 -44q0 122 -41.5 218t-118.5 152t-185 56q-107 0 -188 -56.5t-125.5 -150t-44.5 -204.5v-67q0 -134 46.5 -233.5
t132 -154.5t201.5 -55q79 0 139 25t101 67.5t62 92.5l123 -41q-26 -70 -83.5 -129.5t-144 -96t-197.5 -36.5z" />
    <glyph glyph-name="f" unicode="f" horiz-adv-x="654" 
d="M598 1118v-113h-549v113h549zM221 0v1281q0 91 42 152.5t109.5 93.5t142.5 32q52 0 86 -8.5t53 -17.5l-38 -113q-15 6 -35.5 11.5t-53.5 5.5q-84 0 -131 -48t-47 -136v-1253h-128z" />
    <glyph glyph-name="g" unicode="g" horiz-adv-x="1165" 
d="M565 -442q-171 0 -279 64t-157 160l106 70q23 -43 64 -83.5t106 -67t160 -26.5q149 0 240.5 74t91.5 230v252h-13q-22 -51 -64 -101.5t-110 -84t-169 -33.5q-134 0 -237.5 66t-163 189.5t-59.5 293.5t58 298.5t162 201t242 72.5q103 0 171 -36.5t109 -89.5t64 -103h14
v214h124v-1147q0 -142 -59.5 -233.5t-163.5 -135.5t-237 -44zM557 130q161 0 251 116t90 318q0 131 -39.5 232.5t-116 160t-185.5 58.5q-113 0 -190 -60.5t-116.5 -162.5t-39.5 -228q0 -128 40 -226t117.5 -153t188.5 -55z" />
    <glyph glyph-name="h" unicode="h" horiz-adv-x="1132" 
d="M268 698v-698h-129v1490h129v-549h13q39 87 121 139t209 52q113 0 199 -46.5t134.5 -137.5t48.5 -225v-723h-130v715q0 139 -77.5 219t-208.5 80q-89 0 -158.5 -38.5t-110 -109t-40.5 -168.5z" />
    <glyph glyph-name="i" unicode="i" horiz-adv-x="407" 
d="M139 0v1118h129v-1118h-129zM204 1309q-40 0 -68.5 27.5t-28.5 66.5q0 38 28.5 65t68.5 27t68 -27t28 -65q0 -39 -28 -66.5t-68 -27.5z" />
    <glyph glyph-name="j" unicode="j" horiz-adv-x="409" 
d="M141 1118h129v-1227q1 -95 -34.5 -164.5t-102.5 -107t-162 -37.5h-28v122h27q80 0 125.5 49t45.5 138v1227zM205 1309q-40 0 -68.5 27.5t-28.5 66.5q0 38 28.5 65t68.5 27t68 -27t28 -65q0 -39 -28 -66.5t-68 -27.5z" />
    <glyph glyph-name="k" unicode="k" horiz-adv-x="1011" 
d="M257 422l-2 170h30l523 526h163l-516 -519l-12 -2zM139 0v1490h129v-1490h-129zM834 0l-453 573l93 90l527 -663h-167z" />
    <glyph glyph-name="l" unicode="l" horiz-adv-x="407" 
d="M268 1490v-1490h-129v1490h129z" />
    <glyph glyph-name="m" unicode="m" horiz-adv-x="1694" 
d="M139 0v1118h125v-173h13q33 87 111.5 137t188.5 50q115 0 189 -54.5t111 -148.5h10q38 92 123.5 147.5t206.5 55.5q156 0 247 -98t91 -285v-749h-130v749q0 132 -67.5 198.5t-178.5 66.5q-128 0 -197 -79.5t-69 -199.5v-735h-133v761q0 113 -63 183t-178 70
q-77 0 -138.5 -38.5t-97 -105.5t-35.5 -155v-715h-129z" />
    <glyph glyph-name="n" unicode="n" horiz-adv-x="1124" 
d="M268 698v-698h-129v1118h125v-177h13q39 87 122 139t206 52q113 0 198.5 -47t133.5 -138t48 -224v-723h-129v715q0 137 -77 218t-206 81q-88 0 -157 -38.5t-108.5 -109t-39.5 -168.5z" />
    <glyph glyph-name="o" unicode="o" horiz-adv-x="1146" 
d="M573 -24q-145 0 -256 73.5t-173.5 204t-62.5 299.5q0 172 62.5 302.5t173.5 204t256 73.5t255.5 -73.5t173.5 -204t63 -302.5q0 -169 -62.5 -299.5t-173.5 -204t-256 -73.5zM573 94q117 0 197.5 62.5t122.5 167.5t42 229q0 126 -42 231t-123 168t-197 63t-196.5 -63.5
t-123 -168t-42.5 -230.5q0 -124 42 -229t123 -167.5t197 -62.5z" />
    <glyph glyph-name="p" unicode="p" horiz-adv-x="1163" 
d="M139 -418v1536h125v-214h15q23 50 64 103t109 89.5t170 36.5q138 0 241.5 -72.5t161.5 -202.5t58 -302q0 -173 -57.5 -304t-161 -203.5t-241.5 -72.5q-101 0 -169.5 36.5t-110 90.5t-64.5 105h-11v-626h-129zM609 94q110 0 187 62t117 167t40 234t-40 232.5t-116 164.5
t-188 61q-110 0 -186 -58.5t-116 -161.5t-40 -238q0 -134 40 -238.5t116.5 -164.5t185.5 -60z" />
    <glyph glyph-name="q" unicode="q" horiz-adv-x="1163" 
d="M895 -418v626h-11q-22 -51 -64 -105t-110 -90.5t-170 -36.5q-137 0 -240.5 72.5t-161 203.5t-57.5 304q0 172 58 302t161.5 202.5t240.5 72.5q103 0 170.5 -36.5t109 -89.5t63.5 -103h15v214h125v-1536h-129zM555 94q109 0 185 60t116.5 164.5t40.5 238.5q0 135 -40 238
t-116.5 161.5t-185.5 58.5q-111 0 -188 -61t-116.5 -164.5t-39.5 -232.5t40 -234t116.5 -167t187.5 -62z" />
    <glyph glyph-name="r" unicode="r" horiz-adv-x="666" 
d="M139 0v1118h125v-173h10q34 85 117.5 136.5t188.5 51.5h35.5t32.5 -1v-131q-8 1 -30 3.5t-49 2.5q-86 0 -154.5 -37t-107.5 -101.5t-39 -147.5v-721h-129z" />
    <glyph glyph-name="s" unicode="s" horiz-adv-x="986" 
d="M889 871l-118 -32q-26 75 -86.5 127.5t-173.5 52.5t-186 -54.5t-73 -139.5q0 -71 49.5 -116.5t153.5 -71.5l169 -41q140 -35 210.5 -108.5t70.5 -185.5q0 -94 -52.5 -168t-145.5 -116t-216 -42q-164 0 -270 74.5t-136 213.5l124 30q23 -99 94 -150t186 -51q128 0 206 58
t78 144q0 138 -183 183l-182 44q-146 35 -216 110t-70 187q0 92 50.5 163t138.5 111t200 40q154 0 246 -70.5t132 -191.5z" />
    <glyph glyph-name="t" unicode="t" horiz-adv-x="669" 
d="M578 1118v-113h-533v113h533zM212 1384h129v-1092q0 -91 45 -136.5t125 -45.5q18 0 36.5 2.5t39.5 7.5l28 -117q-23 -9 -53 -14t-62 -5q-124 0 -206 76.5t-82 200.5v1123z" />
    <glyph glyph-name="u" unicode="u" horiz-adv-x="1117" 
d="M849 426v692h129v-1118h-129v186h-10q-40 -86 -125 -143.5t-208 -56.5q-107 0 -189.5 46.5t-130 138t-47.5 223.5v724h129v-717q0 -130 77.5 -210t197.5 -79q76 0 146 36t115 106t45 172z" />
    <glyph glyph-name="v" unicode="v" horiz-adv-x="1053" 
d="M1003 1118l-407 -1118h-139l-408 1118h141l331 -948h10l332 948h140z" />
    <glyph glyph-name="w" unicode="w" horiz-adv-x="1585" 
d="M387 0l-338 1118h137l265 -922h10l264 922h138l260 -921h10l266 921h136l-337 -1118h-133l-266 915h-13l-266 -915h-133z" />
    <glyph glyph-name="x" unicode="x" horiz-adv-x="1015" 
d="M220 1118l287 -478l288 478h150l-358 -560l358 -558h-150l-288 461l-287 -461h-151l355 558l-355 560h151z" />
    <glyph glyph-name="y" unicode="y" horiz-adv-x="1053" 
d="M229 -418q-38 -1 -71.5 6t-53.5 17l35 113l15 -4q92 -27 156.5 6.5t108.5 154.5l41 114l-411 1129h141l331 -948h10l332 948h140l-472 -1294q-30 -81 -73.5 -135t-100.5 -80.5t-128 -26.5z" />
    <glyph glyph-name="z" unicode="z" horiz-adv-x="1022" 
d="M105 0v102l645 883v10h-618v123h784v-108l-633 -878v-10h656v-122h-834z" />
    <glyph glyph-name="braceleft" unicode="{" horiz-adv-x="781" 
d="M121 641v75q124 0 171 49t47 169v284q0 93 18 161.5t58 113t105 66.5t159 22v-111q-123 1 -172 -59.5t-49 -192.5v-322q0 -62 -14.5 -109.5t-51 -80t-102.5 -49t-169 -16.5zM679 -279q-94 0 -159 22t-105 66.5t-58 113t-18 161.5v282q0 121 -47 170.5t-171 49.5v76
q103 0 169 -17t102.5 -50t51 -81t14.5 -109v-321q0 -131 49 -192t172 -61v-110zM121 586v131h167v-131h-167z" />
    <glyph glyph-name="bar" unicode="|" horiz-adv-x="569" 
d="M341 1970v-2450h-113v2450h113z" />
    <glyph glyph-name="braceright" unicode="}" horiz-adv-x="781" 
d="M659 641q-103 0 -168.5 16.5t-102 49t-51 80t-14.5 109.5v322q0 132 -49 192.5t-172 59.5v111q94 0 159 -22t105 -66.5t58 -113t18 -161.5v-284q0 -120 47.5 -169t169.5 -49v-75zM102 -279v110q123 0 172 61t49 192v321q0 61 14.5 109t51 81t102 50t168.5 17v-76
q-122 0 -169.5 -49.5t-47.5 -170.5v-282q0 -93 -18 -161.5t-58 -113t-105 -66.5t-159 -22zM659 586h-166v131l166 -1v-130z" />
    <glyph glyph-name="asciitilde" unicode="~" horiz-adv-x="1271" 
d="M144 457q2 101 41.5 165t102.5 95t135 30q75 1 134 -30.5t127 -87.5q50 -40 85 -60t78 -20q67 0 110.5 44.5t47.5 125.5l122 -4q-4 -98 -44 -162t-101.5 -94t-131.5 -30q-71 0 -128 30t-125 86q-50 41 -87 61.5t-84 20.5q-68 1 -113 -42t-48 -130z" />
    <glyph glyph-name="uni00A0" unicode="&#xa0;" horiz-adv-x="512" 
 />
    <glyph glyph-name="exclamdown" unicode="&#xa1;" horiz-adv-x="537" 
d="M195 -378l9 1064h129l9 -1064h-147zM267 1123q44 0 74.5 -31t31.5 -75q-1 -42 -31.5 -73t-74.5 -31q-43 0 -73.5 31t-30.5 73q0 44 30.5 75t73.5 31z" />
    <glyph glyph-name="cent" unicode="&#xa2;" horiz-adv-x="1078" 
d="M520 0v1490h94v-1490h-94zM575 166q-150 0 -261 75t-172 205.5t-61 296.5q0 169 62 299.5t173 205.5t257 75q112 0 203 -43.5t150.5 -122t74.5 -182.5h-130q-14 63 -53.5 115t-101 83.5t-141.5 31.5q-107 0 -189 -58t-128.5 -161t-46.5 -239q0 -135 45 -239.5t127.5 -164
t191.5 -59.5q111 0 192 63t104 169h130q-14 -101 -71.5 -180t-148 -124.5t-206.5 -45.5z" />
    <glyph glyph-name="sterling" unicode="&#xa3;" horiz-adv-x="1228" 
d="M1071 0h-960v122h960v-122zM769 592h-662v126h662v-126zM401 1057l22 -688q4 -101 -23.5 -179t-98.5 -109l-126 41q48 0 74 40t36 97.5t8 109.5l-21 688q-4 147 54.5 248t156.5 153t212 52q97 0 177.5 -34.5t135.5 -93.5t77.5 -134t3.5 -155l-127 34q12 79 -22 137.5
t-98.5 91t-140.5 32.5q-80 0 -149 -37.5t-110.5 -111t-40.5 -182.5z" />
    <glyph glyph-name="currency" unicode="&#xa4;" horiz-adv-x="1387" 
d="M690 -20q-123 0 -230 47.5t-187 133t-126 200t-46 247.5t46 247t126 199t187 132.5t230 47.5t230.5 -47.5t188 -132.5t126.5 -199t46 -247t-46 -247.5t-126.5 -200t-188 -133t-230.5 -47.5zM690 102q130 0 235.5 68t167.5 183t62 255q1 142 -61.5 256t-168 181.5
t-235.5 67.5q-129 0 -234.5 -67.5t-168.5 -181.5t-64 -256q1 -140 63.5 -255t168.5 -183t235 -68zM1110 952l-87 93l191 197l90 -93zM1214 -9l-191 197l87 91l194 -196zM171 -9l-88 92l192 196l90 -91zM275 952l-192 197l88 93l194 -197z" />
    <glyph glyph-name="yen" unicode="&#xa5;" horiz-adv-x="1041" 
d="M153 1490l408 -836l-110 -39l-448 875h150zM480 654l409 836h150l-448 -875zM589 752v-752h-136v752h136zM923 717v-104h-804v104h804zM923 465v-103h-804v103h804z" />
    <glyph glyph-name="brokenbar" unicode="&#xa6;" horiz-adv-x="426" 
d="M152 397h122v-677h-122v677zM274 1490v-673h-122v673h122z" />
    <glyph glyph-name="section" unicode="&#xa7;" horiz-adv-x="1050" 
d="M874 1155h-126q-3 101 -58.5 169t-165.5 68q-71 0 -120 -28.5t-74 -72.5t-25 -93q0 -52 27 -93t68.5 -73t85.5 -58l229 -135q38 -23 82 -53t83 -69.5t63.5 -91t24.5 -118.5q0 -57 -30.5 -110t-80.5 -90t-110 -49v-3q74 -56 103.5 -116t30.5 -131q0 -103 -50.5 -172
t-133 -103.5t-180.5 -34.5q-110 0 -196.5 43.5t-136 124t-51.5 190.5h127q3 -112 74.5 -176t182.5 -64q96 0 166.5 49t70.5 143q0 53 -23 91t-64.5 69.5t-97.5 64.5l-230 133q-50 29 -96.5 62t-82.5 72.5t-57 89t-21 110.5q1 58 28.5 112t76.5 92.5t114 48.5v6
q-56 48 -88.5 105.5t-33.5 133.5q1 89 45 159.5t122 111.5t178 41q106 0 184 -45.5t121 -125.5t45 -184zM845 507q1 52 -27.5 93.5t-73 75t-91.5 61.5l-241 140q-52 15 -99.5 -5t-77.5 -65t-31 -105q1 -76 54.5 -128.5t143.5 -106.5l224 -129q45 -14 96 4t87.5 61t35.5 104z
" />
    <glyph glyph-name="dieresis" unicode="&#xa8;" horiz-adv-x="1193" 
d="M411 1309q-37 0 -65.5 28.5t-28.5 65.5q0 39 28.5 65.5t65.5 26.5q39 0 65.5 -26.5t26.5 -65.5q0 -37 -26.5 -65.5t-65.5 -28.5zM782 1309q-37 0 -65 28.5t-28 65.5q0 39 28 65.5t65 26.5q40 0 67 -26.5t26 -65.5q1 -37 -26 -65.5t-67 -28.5z" />
    <glyph glyph-name="copyright" unicode="&#xa9;" horiz-adv-x="1810" 
d="M485 744q0 120 58 218t156.5 156.5t217.5 57.5q98 1 180 -39t137.5 -109.5t74.5 -158.5h-135q-23 79 -94 129.5t-163 50.5q-84 0 -153 -41t-110 -110t-42 -154q1 -83 42 -152.5t110 -110t153 -40.5q92 -1 158 49.5t88 130.5h135q-18 -89 -71.5 -158.5t-132.5 -109.5
t-177 -41q-119 1 -217.5 59t-156.5 156t-58 217zM904 -24q-158 0 -297.5 60t-245.5 165.5t-165.5 244.5t-59.5 298q1 159 61 298.5t165.5 245t244.5 165t297 59.5q160 0 299 -59.5t244.5 -165t165 -245t59.5 -298.5q1 -159 -58.5 -298t-165 -244.5t-245 -165.5t-299.5 -60z
M904 105q133 0 249.5 49.5t204.5 137.5t137.5 204t49.5 248q0 133 -50.5 249t-138 204t-203.5 138t-249 50q-131 0 -247 -50t-203.5 -138t-138 -204t-50.5 -249q-1 -131 49 -247t138 -204t204 -138t248 -50z" />
    <glyph glyph-name="ordfeminine" unicode="&#xaa;" horiz-adv-x="795" 
d="M543 862v340q0 82 -33.5 121.5t-103.5 40.5q-77 -1 -120 -33.5t-46 -95.5l-130 12q2 101 82 166t214 65q126 0 197.5 -68.5t71.5 -207.5v-314q0 -50 5.5 -94.5t19.5 -86.5h-133q-12 35 -18 75t-6 80zM576 1143v-92h-155q-99 0 -146 -37t-47 -95q0 -53 33.5 -83.5
t99.5 -30.5q42 0 84 16t74.5 42.5t44.5 55.5l17 -88q-39 -55 -98.5 -97t-151.5 -42q-111 0 -174 61t-64 162q2 110 84 169t244 59h155z" />
    <glyph glyph-name="guillemotleft" unicode="&#xab;" horiz-adv-x="1070" 
d="M529 160h-120l-294 436v14h126zM529 1054l-288 -452h-126v14l294 438h120zM939 160h-120l-294 436v14h126zM939 1054l-288 -452h-126v14l294 438h120z" />
    <glyph glyph-name="logicalnot" unicode="&#xac;" horiz-adv-x="1015" 
d="M923 806v-130h-828v130h828zM923 747v-371h-151v371h151z" />
    <glyph glyph-name="uni00AD" unicode="&#xad;" horiz-adv-x="862" 
d="M741 699v-122h-620v122h620z" />
    <glyph glyph-name="registered" unicode="&#xae;" horiz-adv-x="1310" 
d="M457 666v536h258q40 1 78.5 -18t64 -56.5t25.5 -92.5q0 -54 -26.5 -94t-65.5 -61t-82 -21h-199v74h175q37 -1 66 25.5t29 76.5q0 51 -29.5 72.5t-64.5 21.5h-135v-463h-94zM771 916l134 -250h-105l-131 250h102zM654 346q-120 0 -225.5 45.5t-185.5 125.5t-125.5 185.5
t-45.5 225.5t45.5 225.5t125.5 185.5t185.5 125.5t225.5 45.5q121 0 226.5 -45.5t185.5 -125.5t125 -185.5t45 -225.5t-45 -225.5t-125 -185.5t-185.5 -125.5t-226.5 -45.5zM654 455q132 0 239.5 63.5t171 171t62.5 238.5q1 131 -62.5 238.5t-171 171t-239.5 63.5
q-130 0 -237.5 -63.5t-171.5 -171t-64 -238.5t64 -238.5t171.5 -171t237.5 -63.5z" />
    <glyph glyph-name="macron" unicode="&#xaf;" horiz-adv-x="749" 
d="M679 1457v-113h-609v113h609z" />
    <glyph glyph-name="degree" unicode="&#xb0;" horiz-adv-x="866" 
d="M434 856q-89 0 -163 43.5t-117.5 117.5t-44.5 163q1 90 44.5 163.5t117.5 117.5t163 44t162.5 -44t117 -117.5t43.5 -163.5q0 -89 -43.5 -163t-117 -117.5t-162.5 -43.5zM434 969q58 0 106 28t76.5 76.5t28.5 106.5q0 59 -28.5 107t-76.5 76.5t-106 28.5t-106.5 -28.5
t-77 -76.5t-28.5 -107q0 -58 28.5 -106.5t77 -76.5t106.5 -28z" />
    <glyph glyph-name="plusminus" unicode="&#xb1;" horiz-adv-x="1271" 
d="M182 93v124h907v-124h-907zM182 671v124h907v-124h-907zM573 349v769h124v-769h-124z" />
    <glyph glyph-name="two.sups" unicode="&#xb2;" horiz-adv-x="792" 
d="M77 744v88l333 313q86 81 125.5 134t39.5 114q0 71 -54.5 115t-135.5 44q-86 0 -138.5 -47t-51.5 -120h-118q1 117 88 190.5t222 74.5q90 0 158.5 -33.5t107.5 -91.5t38 -130q1 -56 -21.5 -105t-71 -104t-127.5 -129l-221 -208v-5h475v-100h-648z" />
    <glyph glyph-name="three.sups" unicode="&#xb3;" horiz-adv-x="804" 
d="M403 734q-95 0 -171 32t-120 89t-45 130h122q2 -67 63 -108.5t151 -41.5q94 0 154.5 46t59.5 115q1 71 -64.5 116t-173.5 45h-57v92h57q90 0 150.5 41.5t59.5 112.5q1 64 -51 106.5t-135 42.5q-82 0 -139.5 -42t-60.5 -112h-114q1 75 42.5 131.5t112.5 88.5t159 32
q90 0 158.5 -32t107.5 -86t39 -124q0 -79 -52.5 -130.5t-132.5 -67.5v-6q104 -16 161 -75t57 -141q0 -72 -43.5 -130t-119.5 -91t-175 -33z" />
    <glyph glyph-name="acute" unicode="&#xb4;" horiz-adv-x="787" 
d="M232 1265l161 288h149l-200 -288h-110z" />
    <glyph glyph-name="uni00B5" unicode="&#xb5;" horiz-adv-x="1170" 
d="M137 -423v1541h129v-692q1 -92 41 -163.5t112 -111t167 -39.5t167 40t112 111t40 163v692h130v-1118h-130v170h-8q-44 -88 -127.5 -136.5t-183.5 -47.5q-101 -1 -184 47.5t-127 136.5h-9v-593h-129z" />
    <glyph glyph-name="paragraph" unicode="&#xb6;" horiz-adv-x="1133" 
d="M967 1367h-303v-815h-84q-158 1 -268 62t-166.5 167t-57.5 241q1 134 57.5 239.5t166.5 167t268 61.5h387v-123zM831 0v1490h136v-1490h-136z" />
    <glyph glyph-name="periodcentered" unicode="&#xb7;" horiz-adv-x="509" 
d="M254 538q-43 0 -74 31t-31 74t31 74t74 31q44 0 74.5 -31t30.5 -74t-30.5 -74t-74.5 -31z" />
    <glyph glyph-name="cedilla" unicode="&#xb8;" horiz-adv-x="439" 
d="M167 6h111l-12 -58q63 -10 107.5 -51t44.5 -120q0 -88 -68.5 -140t-200.5 -53l-5 92q73 0 114.5 23t41.5 74q0 54 -38.5 77t-120.5 27z" />
    <glyph glyph-name="one.sups" unicode="&#xb9;" horiz-adv-x="550" 
d="M283 744v772h-7l-223 -149v122l224 149h122v-894h-116z" />
    <glyph glyph-name="ordmasculine" unicode="&#xba;" horiz-adv-x="816" 
d="M73 1045v80q0 106 40.5 185t116 123.5t179.5 44.5q156 0 245 -97.5t89 -255.5v-80q0 -159 -88.5 -255.5t-245.5 -96.5q-156 0 -246.5 97t-89.5 255zM203 1125v-80q1 -107 53.5 -173.5t152.5 -66.5t151.5 66t52.5 174v80q-1 106 -53 172.5t-151 67.5q-99 -1 -152 -67.5
t-54 -172.5z" />
    <glyph glyph-name="guillemotright" unicode="&#xbb;" horiz-adv-x="1075" 
d="M121 160l287 450h127v-14l-294 -436h-120zM121 1054h120l294 -438v-14h-127zM536 160l287 450h127v-14l-294 -436h-120zM536 1054h120l294 -438v-14h-127z" />
    <glyph glyph-name="onequarter" unicode="&#xbc;" horiz-adv-x="1676" 
d="M231 0l1022 1490h130l-1024 -1490h-128zM241 698v669h-8l-198 -132v121l200 134h123v-792h-117zM994 154v93l390 545h78v-135h-51l-292 -404v-3h520v-96h-645zM1416 0v184l1 39v569h111v-792h-112z" />
    <glyph glyph-name="onehalf" unicode="&#xbd;" horiz-adv-x="1786" 
d="M231 0l1022 1490h130l-1024 -1490h-128zM241 698v669h-8l-198 -132v121l200 134h123v-792h-117zM1140 0v85l302 274q79 72 112.5 116.5t33.5 94.5q0 62 -48.5 100.5t-120.5 38.5q-73 0 -121 -41t-48 -104h-113q0 105 79.5 172t203.5 66q125 1 202.5 -65.5t77.5 -163.5
q0 -50 -20 -93.5t-64 -92.5t-118 -115l-190 -171v-5h425v-96h-593z" />
    <glyph glyph-name="threequarters" unicode="&#xbe;" horiz-adv-x="1843" 
d="M398 0l1022 1490h130l-1024 -1490h-128zM1162 154v93l390 545h78v-135h-51l-292 -404v-3h520v-96h-645zM1584 0v184l1 39v569h111v-792h-112zM361 686q-131 0 -218 65.5t-88 165.5h119q0 -58 54 -95.5t133 -36.5q83 -1 135.5 39.5t52.5 98.5q0 61 -58 99t-151 38h-51v85
h51q80 0 134 36.5t53 95.5q1 55 -45.5 92.5t-120.5 37.5q-73 0 -123 -37t-49 -95h-115q1 65 38.5 116t102.5 80.5t146 28.5q123 1 202 -60.5t80 -154.5q-1 -67 -48 -113.5t-124 -60.5v-5q95 -15 147 -66.5t52 -123.5q0 -66 -39.5 -118t-108.5 -82t-161 -30z" />
    <glyph glyph-name="questiondown" unicode="&#xbf;" horiz-adv-x="955" 
d="M591 672v-41q0 -114 -24.5 -181.5t-73 -111.5t-120.5 -91q-80 -51 -123.5 -114t-43.5 -148q0 -78 37 -136.5t99.5 -91t139.5 -32.5q72 0 135 31.5t102.5 93t43.5 150.5h137q-3 -119 -59 -207t-149.5 -136.5t-209.5 -48.5q-121 0 -213 50t-143 136t-51 197
q0 112 51.5 193.5t154.5 148.5q67 43 105.5 81t55.5 88t17 129v41h132zM523 1129q44 0 74.5 -31t30.5 -74t-30.5 -74t-74.5 -31q-43 0 -74 31t-31 74t31 74t74 31z" />
    <glyph glyph-name="Agrave" unicode="&#xc0;" horiz-adv-x="1279" 
d="M168 0h-143l543 1490h145l542 -1490h-142l-468 1313h-10zM271 571h739v-122h-739v122zM594 1637l-200 288h149l161 -288h-110z" />
    <glyph glyph-name="Aacute" unicode="&#xc1;" horiz-adv-x="1279" 
d="M168 0h-143l543 1490h145l542 -1490h-142l-468 1313h-10zM271 571h739v-122h-739v122zM576 1637l161 288h149l-200 -288h-110z" />
    <glyph glyph-name="Acircumflex" unicode="&#xc2;" horiz-adv-x="1279" 
d="M168 0h-143l543 1490h145l542 -1490h-142l-468 1313h-10zM271 571h739v-122h-739v122zM813 1617l-174 210l-172 -210h-128v10l246 294h110l244 -294v-10h-126z" />
    <glyph glyph-name="Atilde" unicode="&#xc3;" horiz-adv-x="1279" 
d="M168 0h-143l543 1490h145l542 -1490h-142l-468 1313h-10zM271 571h739v-122h-739v122zM775 1674q-39 0 -73.5 14t-66 33t-60 33t-56.5 14q-36 0 -57.5 -27.5t-24.5 -62.5l-98 2q5 81 48.5 134t120.5 53q42 0 76 -14t63.5 -33.5t57.5 -34t58 -14.5q34 1 56 24t30 68l94 -4
q-7 -84 -52.5 -134.5t-115.5 -50.5z" />
    <glyph glyph-name="Adieresis" unicode="&#xc4;" horiz-adv-x="1279" 
d="M168 0h-143l543 1490h145l542 -1490h-142l-468 1313h-10zM271 571h739v-122h-739v122zM454 1681q-37 0 -65.5 28.5t-28.5 65.5q0 39 28.5 65.5t65.5 26.5q39 0 65.5 -26.5t26.5 -65.5q0 -37 -26.5 -65.5t-65.5 -28.5zM825 1681q-37 0 -65 28.5t-28 65.5q0 39 28 65.5
t65 26.5q40 0 67 -26.5t26 -65.5q1 -37 -26 -65.5t-67 -28.5z" />
    <glyph glyph-name="Aring" unicode="&#xc5;" horiz-adv-x="1279" 
d="M168 0h-143l543 1490h145l542 -1490h-142l-468 1313h-10zM271 571h739v-122h-739v122zM640 1582q-81 -1 -138.5 56.5t-57.5 138.5q0 82 57.5 139t138.5 58q81 -1 138.5 -58t56.5 -139q1 -81 -56.5 -138.5t-138.5 -56.5zM640 1667q46 0 78 32.5t31 77.5q1 46 -31 78.5
t-78 32.5q-47 0 -78.5 -32.5t-30.5 -78.5q-1 -46 30.5 -78t78.5 -32z" />
    <glyph glyph-name="AE" unicode="&#xc6;" horiz-adv-x="1943" 
d="M25 0l734 1490h1062v-123h-728v-560h683v-122h-683v-563h743v-122h-879v1367h-120l-662 -1367h-150zM350 449v122h676v-122h-676z" />
    <glyph glyph-name="Ccedilla" unicode="&#xc7;" horiz-adv-x="1423" 
d="M743 -20q-187 0 -333 94t-228.5 265.5t-82.5 404.5q0 234 82.5 406t228.5 266t333 94q119 0 218.5 -37t176.5 -103t126.5 -154.5t67.5 -191.5h-137q-15 77 -55 142t-99.5 114t-134.5 76t-163 27q-141 0 -257.5 -73.5t-186 -216t-69.5 -349.5t69.5 -349t186 -215
t257.5 -73q88 0 163 27t134.5 76t99.5 114t55 142h137q-18 -103 -67.5 -191.5t-126.5 -154.5t-176.5 -103t-218.5 -37zM684 -2h111l-12 -58q63 -10 107.5 -51t44.5 -120q0 -88 -68.5 -140t-200.5 -53l-5 92q73 0 114.5 23t41.5 74q0 54 -38.5 77t-120.5 27z" />
    <glyph glyph-name="Egrave" unicode="&#xc8;" horiz-adv-x="1151" 
d="M165 0v1490h865v-123h-729v-556h683v-122h-683v-567h743v-122h-879zM552 1637l-200 288h149l161 -288h-110z" />
    <glyph glyph-name="Eacute" unicode="&#xc9;" horiz-adv-x="1151" 
d="M165 0v1490h865v-123h-729v-556h683v-122h-683v-567h743v-122h-879zM534 1637l161 288h149l-200 -288h-110z" />
    <glyph glyph-name="Ecircumflex" unicode="&#xca;" horiz-adv-x="1151" 
d="M165 0v1490h865v-123h-729v-556h683v-122h-683v-567h743v-122h-879zM771 1617l-174 210l-172 -210h-128v10l246 294h110l244 -294v-10h-126z" />
    <glyph glyph-name="Edieresis" unicode="&#xcb;" horiz-adv-x="1151" 
d="M165 0v1490h865v-123h-729v-556h683v-122h-683v-567h743v-122h-879zM412 1681q-37 0 -65.5 28.5t-28.5 65.5q0 39 28.5 65.5t65.5 26.5q39 0 65.5 -26.5t26.5 -65.5q0 -37 -26.5 -65.5t-65.5 -28.5zM783 1681q-37 0 -65 28.5t-28 65.5q0 39 28 65.5t65 26.5
q40 0 67 -26.5t26 -65.5q1 -37 -26 -65.5t-67 -28.5z" />
    <glyph glyph-name="Igrave" unicode="&#xcc;" horiz-adv-x="467" 
d="M301 1490v-1490h-136v1490h136zM187 1637l-200 288h149l161 -288h-110z" />
    <glyph glyph-name="Iacute" unicode="&#xcd;" horiz-adv-x="467" 
d="M301 1490v-1490h-136v1490h136zM169 1637l161 288h149l-200 -288h-110z" />
    <glyph glyph-name="Icircumflex" unicode="&#xce;" horiz-adv-x="467" 
d="M301 1490v-1490h-136v1490h136zM407 1617l-174 210l-173 -210h-128v10l247 294h109l245 -294v-10h-126z" />
    <glyph glyph-name="Idieresis" unicode="&#xcf;" horiz-adv-x="467" 
d="M301 1490v-1490h-136v1490h136zM48 1681q-37 0 -65.5 28.5t-28.5 65.5q0 39 28.5 65.5t65.5 26.5q39 0 65.5 -26.5t26.5 -65.5q0 -37 -26.5 -65.5t-65.5 -28.5zM419 1681q-37 0 -65 28.5t-28 65.5q0 39 28 65.5t65 26.5q40 0 67 -26.5t26 -65.5q1 -37 -26 -65.5
t-67 -28.5z" />
    <glyph glyph-name="Eth" unicode="&#xd0;" horiz-adv-x="1405" 
d="M602 0h-361v122h353q192 0 321.5 75.5t194.5 216t65 335.5q0 192 -63.5 330.5t-187 213t-304.5 74.5h-384v123h392q213 0 365 -89t232.5 -255t80.5 -397q0 -235 -82.5 -402.5t-240 -257t-381.5 -89.5zM301 1490v-1490h-136v1490h136zM-72 711v104h611v-104h-611z" />
    <glyph glyph-name="Ntilde" unicode="&#xd1;" horiz-adv-x="1493" 
d="M1327 1490v-1490h-134l-879 1247h-13v-1247h-136v1490h132l884 -1249h11v1249h135zM879 1658q-39 0 -73.5 14t-66 33t-60 33t-56.5 14q-36 0 -57.5 -27.5t-24.5 -62.5l-98 2q5 81 48.5 134t120.5 53q42 0 76 -14t63.5 -33.5t57.5 -34t58 -14.5q34 1 56 24t30 68l94 -4
q-7 -84 -52.5 -134.5t-115.5 -50.5z" />
    <glyph glyph-name="Ograve" unicode="&#xd2;" horiz-adv-x="1486" 
d="M744 -20q-188 0 -334 94t-228.5 266t-82.5 404q0 233 83 405.5t228.5 266.5t333.5 94t333 -94t227.5 -266.5t82.5 -405.5q0 -232 -82.5 -404t-227.5 -266t-333 -94zM744 107q146 0 262 76t183 218.5t67 342.5q0 201 -67 344t-183 219t-262 76t-262.5 -76t-184 -219
t-67.5 -344q0 -199 67 -342t183.5 -219t263.5 -76zM698 1637l-200 288h149l161 -288h-110z" />
    <glyph glyph-name="Oacute" unicode="&#xd3;" horiz-adv-x="1486" 
d="M744 -20q-188 0 -334 94t-228.5 266t-82.5 404q0 233 83 405.5t228.5 266.5t333.5 94t333 -94t227.5 -266.5t82.5 -405.5q0 -232 -82.5 -404t-227.5 -266t-333 -94zM744 107q146 0 262 76t183 218.5t67 342.5q0 201 -67 344t-183 219t-262 76t-262.5 -76t-184 -219
t-67.5 -344q0 -199 67 -342t183.5 -219t263.5 -76zM680 1637l161 288h149l-200 -288h-110z" />
    <glyph glyph-name="Ocircumflex" unicode="&#xd4;" horiz-adv-x="1486" 
d="M744 -20q-188 0 -334 94t-228.5 266t-82.5 404q0 233 83 405.5t228.5 266.5t333.5 94t333 -94t227.5 -266.5t82.5 -405.5q0 -232 -82.5 -404t-227.5 -266t-333 -94zM744 107q146 0 262 76t183 218.5t67 342.5q0 201 -67 344t-183 219t-262 76t-262.5 -76t-184 -219
t-67.5 -344q0 -199 67 -342t183.5 -219t263.5 -76zM917 1617l-174 210l-172 -210h-128v10l246 294h110l244 -294v-10h-126z" />
    <glyph glyph-name="Otilde" unicode="&#xd5;" horiz-adv-x="1486" 
d="M744 -20q-188 0 -334 94t-228.5 266t-82.5 404q0 233 83 405.5t228.5 266.5t333.5 94t333 -94t227.5 -266.5t82.5 -405.5q0 -232 -82.5 -404t-227.5 -266t-333 -94zM744 107q146 0 262 76t183 218.5t67 342.5q0 201 -67 344t-183 219t-262 76t-262.5 -76t-184 -219
t-67.5 -344q0 -199 67 -342t183.5 -219t263.5 -76zM879 1674q-39 0 -73.5 14t-66 33t-60 33t-56.5 14q-36 0 -57.5 -27.5t-24.5 -62.5l-98 2q5 81 48.5 134t120.5 53q42 0 76 -14t63.5 -33.5t57.5 -34t58 -14.5q34 1 56 24t30 68l94 -4q-7 -84 -52.5 -134.5t-115.5 -50.5z
" />
    <glyph glyph-name="Odieresis" unicode="&#xd6;" horiz-adv-x="1486" 
d="M744 -20q-188 0 -334 94t-228.5 266t-82.5 404q0 233 83 405.5t228.5 266.5t333.5 94t333 -94t227.5 -266.5t82.5 -405.5q0 -232 -82.5 -404t-227.5 -266t-333 -94zM744 107q146 0 262 76t183 218.5t67 342.5q0 201 -67 344t-183 219t-262 76t-262.5 -76t-184 -219
t-67.5 -344q0 -199 67 -342t183.5 -219t263.5 -76zM558 1681q-37 0 -65.5 28.5t-28.5 65.5q0 39 28.5 65.5t65.5 26.5q39 0 65.5 -26.5t26.5 -65.5q0 -37 -26.5 -65.5t-65.5 -28.5zM929 1681q-37 0 -65 28.5t-28 65.5q0 39 28 65.5t65 26.5q40 0 67 -26.5t26 -65.5
q1 -37 -26 -65.5t-67 -28.5z" />
    <glyph glyph-name="multiply" unicode="&#xd7;" horiz-adv-x="1271" 
d="M1003 129l-820 820l84 86l820 -822zM267 129l-84 84l820 822l84 -86z" />
    <glyph glyph-name="Oslash" unicode="&#xd8;" horiz-adv-x="1486" 
d="M271 -53l-86 60l1026 1533l86 -59zM744 -20q-188 0 -334 94t-228.5 266t-82.5 404q0 233 83 405.5t228.5 266.5t333.5 94t333 -94t227.5 -266.5t82.5 -405.5q0 -232 -82.5 -404t-227.5 -266t-333 -94zM744 107q146 0 262 76t183 218.5t67 342.5q0 201 -67 344t-183 219
t-262 76t-262.5 -76t-184 -219t-67.5 -344q0 -199 67 -342t183.5 -219t263.5 -76z" />
    <glyph glyph-name="Ugrave" unicode="&#xd9;" horiz-adv-x="1460" 
d="M1159 1490h136v-986q0 -152 -71 -271.5t-198.5 -188.5t-294.5 -69q-168 0 -295.5 69t-199 188.5t-71.5 271.5v986h136v-977q0 -118 53.5 -211t150 -146t226.5 -53q129 0 225 53t149.5 146t53.5 211v977zM684 1637l-200 288h149l161 -288h-110z" />
    <glyph glyph-name="Uacute" unicode="&#xda;" horiz-adv-x="1460" 
d="M1159 1490h136v-986q0 -152 -71 -271.5t-198.5 -188.5t-294.5 -69q-168 0 -295.5 69t-199 188.5t-71.5 271.5v986h136v-977q0 -118 53.5 -211t150 -146t226.5 -53q129 0 225 53t149.5 146t53.5 211v977zM667 1637l161 288h149l-200 -288h-110z" />
    <glyph glyph-name="Ucircumflex" unicode="&#xdb;" horiz-adv-x="1460" 
d="M1159 1490h136v-986q0 -152 -71 -271.5t-198.5 -188.5t-294.5 -69q-168 0 -295.5 69t-199 188.5t-71.5 271.5v986h136v-977q0 -118 53.5 -211t150 -146t226.5 -53q129 0 225 53t149.5 146t53.5 211v977zM904 1617l-174 210l-173 -210h-128v10l247 294h109l245 -294v-10
h-126z" />
    <glyph glyph-name="Udieresis" unicode="&#xdc;" horiz-adv-x="1460" 
d="M1159 1490h136v-986q0 -152 -71 -271.5t-198.5 -188.5t-294.5 -69q-168 0 -295.5 69t-199 188.5t-71.5 271.5v986h136v-977q0 -118 53.5 -211t150 -146t226.5 -53q129 0 225 53t149.5 146t53.5 211v977zM545 1681q-37 0 -65.5 28.5t-28.5 65.5q0 39 28.5 65.5t65.5 26.5
q39 0 65.5 -26.5t26.5 -65.5q0 -37 -26.5 -65.5t-65.5 -28.5zM916 1681q-37 0 -65 28.5t-28 65.5q0 39 28 65.5t65 26.5q40 0 67 -26.5t26 -65.5q1 -37 -26 -65.5t-67 -28.5z" />
    <glyph glyph-name="Yacute" unicode="&#xdd;" horiz-adv-x="1263" 
d="M26 1490h157l442 -707h14l440 707h158l-538 -845v-645h-136v645zM567 1637l161 288h149l-200 -288h-110z" />
    <glyph glyph-name="Thorn" unicode="&#xde;" horiz-adv-x="1201" 
d="M151 1490h136v-1490h-136v1490zM216 1165h382q150 0 255 -54t161 -147.5t55 -211.5q1 -119 -54.5 -212.5t-160.5 -147.5t-256 -54h-382v122h382q110 0 186 34t116 98t40 156q0 93 -40.5 158.5t-116.5 101t-185 35.5h-382v122z" />
    <glyph glyph-name="germandbls" unicode="&#xdf;" horiz-adv-x="1161" 
d="M165 0v1123q0 120 51.5 206.5t143 133.5t212.5 47q120 0 212 -45.5t144.5 -129.5t52.5 -200q0 -133 -67.5 -224t-182.5 -127v-11q147 -18 239.5 -117.5t92.5 -253.5q0 -116 -54 -207t-151.5 -143t-228.5 -52h-142v122h145q137 0 219 78t82 202q0 132 -93 214.5t-253 82.5
h-94v123h69q90 0 154.5 39.5t99.5 106.5t35 149q0 119 -73.5 195t-202.5 76q-125 0 -202.5 -72.5t-77.5 -192.5v-1123h-130z" />
    <glyph glyph-name="agrave" unicode="&#xe0;" horiz-adv-x="1074" 
d="M451 -25q-101 0 -185 39.5t-133.5 115t-49.5 183.5q0 83 31 139t89 92.5t136.5 58t173.5 32.5q94 12 159 20.5t99 27.5t34 61v26q0 115 -68 180.5t-195 65.5q-121 0 -197 -53t-106 -125l-124 45q38 91 105 146t150 79.5t168 24.5q64 0 133 -17t129 -58t97.5 -114.5
t37.5 -185.5v-758h-130v177h-8q-22 -49 -68 -95.5t-115 -76.5t-163 -30zM469 93q103 0 178.5 45.5t116.5 122.5t41 168v161q-15 -14 -48.5 -25t-77 -19t-88 -14t-78.5 -10q-94 -12 -161.5 -37t-103 -68t-35.5 -111q0 -101 72.5 -157t183.5 -56zM503 1265l-200 288h149
l161 -288h-110z" />
    <glyph glyph-name="aacute" unicode="&#xe1;" horiz-adv-x="1074" 
d="M451 -25q-101 0 -185 39.5t-133.5 115t-49.5 183.5q0 83 31 139t89 92.5t136.5 58t173.5 32.5q94 12 159 20.5t99 27.5t34 61v26q0 115 -68 180.5t-195 65.5q-121 0 -197 -53t-106 -125l-124 45q38 91 105 146t150 79.5t168 24.5q64 0 133 -17t129 -58t97.5 -114.5
t37.5 -185.5v-758h-130v177h-8q-22 -49 -68 -95.5t-115 -76.5t-163 -30zM469 93q103 0 178.5 45.5t116.5 122.5t41 168v161q-15 -14 -48.5 -25t-77 -19t-88 -14t-78.5 -10q-94 -12 -161.5 -37t-103 -68t-35.5 -111q0 -101 72.5 -157t183.5 -56zM485 1265l161 288h149
l-200 -288h-110z" />
    <glyph glyph-name="acircumflex" unicode="&#xe2;" horiz-adv-x="1074" 
d="M451 -25q-101 0 -185 39.5t-133.5 115t-49.5 183.5q0 83 31 139t89 92.5t136.5 58t173.5 32.5q94 12 159 20.5t99 27.5t34 61v26q0 115 -68 180.5t-195 65.5q-121 0 -197 -53t-106 -125l-124 45q38 91 105 146t150 79.5t168 24.5q64 0 133 -17t129 -58t97.5 -114.5
t37.5 -185.5v-758h-130v177h-8q-22 -49 -68 -95.5t-115 -76.5t-163 -30zM469 93q103 0 178.5 45.5t116.5 122.5t41 168v161q-15 -14 -48.5 -25t-77 -19t-88 -14t-78.5 -10q-94 -12 -161.5 -37t-103 -68t-35.5 -111q0 -101 72.5 -157t183.5 -56zM723 1245l-174 210l-173 -210
h-128v10l247 294h109l245 -294v-10h-126z" />
    <glyph glyph-name="atilde" unicode="&#xe3;" horiz-adv-x="1074" 
d="M451 -25q-101 0 -185 39.5t-133.5 115t-49.5 183.5q0 83 31 139t89 92.5t136.5 58t173.5 32.5q94 12 159 20.5t99 27.5t34 61v26q0 115 -68 180.5t-195 65.5q-121 0 -197 -53t-106 -125l-124 45q38 91 105 146t150 79.5t168 24.5q64 0 133 -17t129 -58t97.5 -114.5
t37.5 -185.5v-758h-130v177h-8q-22 -49 -68 -95.5t-115 -76.5t-163 -30zM469 93q103 0 178.5 45.5t116.5 122.5t41 168v161q-15 -14 -48.5 -25t-77 -19t-88 -14t-78.5 -10q-94 -12 -161.5 -37t-103 -68t-35.5 -111q0 -101 72.5 -157t183.5 -56zM683 1286q-39 0 -73.5 14
t-66 33t-60 33t-56.5 14q-36 0 -57.5 -27.5t-24.5 -62.5l-98 2q5 81 48.5 134t120.5 53q42 0 76 -14t63.5 -33.5t57.5 -34t58 -14.5q34 1 56 24t30 68l94 -4q-7 -84 -52.5 -134.5t-115.5 -50.5z" />
    <glyph glyph-name="adieresis" unicode="&#xe4;" horiz-adv-x="1074" 
d="M451 -25q-101 0 -185 39.5t-133.5 115t-49.5 183.5q0 83 31 139t89 92.5t136.5 58t173.5 32.5q94 12 159 20.5t99 27.5t34 61v26q0 115 -68 180.5t-195 65.5q-121 0 -197 -53t-106 -125l-124 45q38 91 105 146t150 79.5t168 24.5q64 0 133 -17t129 -58t97.5 -114.5
t37.5 -185.5v-758h-130v177h-8q-22 -49 -68 -95.5t-115 -76.5t-163 -30zM469 93q103 0 178.5 45.5t116.5 122.5t41 168v161q-15 -14 -48.5 -25t-77 -19t-88 -14t-78.5 -10q-94 -12 -161.5 -37t-103 -68t-35.5 -111q0 -101 72.5 -157t183.5 -56zM364 1309q-37 0 -65.5 28.5
t-28.5 65.5q0 39 28.5 65.5t65.5 26.5q39 0 65.5 -26.5t26.5 -65.5q0 -37 -26.5 -65.5t-65.5 -28.5zM735 1309q-37 0 -65 28.5t-28 65.5q0 39 28 65.5t65 26.5q40 0 67 -26.5t26 -65.5q1 -37 -26 -65.5t-67 -28.5z" />
    <glyph glyph-name="aring" unicode="&#xe5;" horiz-adv-x="1074" 
d="M451 -25q-101 0 -185 39.5t-133.5 115t-49.5 183.5q0 83 31 139t89 92.5t136.5 58t173.5 32.5q94 12 159 20.5t99 27.5t34 61v26q0 115 -68 180.5t-195 65.5q-121 0 -197 -53t-106 -125l-124 45q38 91 105 146t150 79.5t168 24.5q64 0 133 -17t129 -58t97.5 -114.5
t37.5 -185.5v-758h-130v177h-8q-22 -49 -68 -95.5t-115 -76.5t-163 -30zM469 93q103 0 178.5 45.5t116.5 122.5t41 168v161q-15 -14 -48.5 -25t-77 -19t-88 -14t-78.5 -10q-94 -12 -161.5 -37t-103 -68t-35.5 -111q0 -101 72.5 -157t183.5 -56zM550 1247q-65 0 -117.5 29.5
t-83 79t-31.5 111.5q1 63 31.5 114t83 81.5t117.5 30.5t117 -30.5t82.5 -81.5t30.5 -114q0 -62 -30.5 -111.5t-82.5 -79t-117 -29.5zM550 1336q57 0 95 40t38 91q0 53 -38 94t-95 41q-58 0 -95.5 -41t-37.5 -94q0 -51 38 -91t95 -40z" />
    <glyph glyph-name="ae" unicode="&#xe6;" horiz-adv-x="1823" 
d="M1293 -24q-179 0 -300.5 94.5t-157.5 244.5l26 532q56 132 161.5 209t252.5 77q90 0 174.5 -33.5t152 -101t106.5 -170.5t39 -243v-66h-870v115h737q0 108 -43.5 194t-119.5 136.5t-176 50.5q-107 0 -188 -56.5t-126.5 -150t-45.5 -204.5v-67q0 -133 46 -232.5
t131.5 -154.5t200.5 -55q80 0 140 25t101 67t62 92l123 -41q-25 -70 -83 -129.5t-144 -96t-199 -36.5zM469 93q103 0 178.5 46t116.5 122.5t41 167.5v161q-15 -14 -48.5 -25t-77 -19t-88 -14t-78.5 -10q-94 -12 -161.5 -37t-103 -68t-35.5 -111q0 -101 72.5 -157t183.5 -56z
M451 -25q-101 0 -185 39.5t-133.5 115t-49.5 183.5q0 83 31 139.5t89 92.5t136.5 57.5t173.5 32.5q94 12 159 21t99 27.5t34 60.5v26q0 115 -68 180.5t-195 65.5q-120 0 -196.5 -53t-106.5 -125l-124 45q38 91 105 146t150 79.5t168 24.5q58 0 118.5 -14t114.5 -45.5t94 -84
t56 -130.5l-45 -606h-12q-26 -87 -88 -149t-146.5 -95.5t-178.5 -33.5z" />
    <glyph glyph-name="ccedilla" unicode="&#xe7;" horiz-adv-x="1078" 
d="M575 -24q-150 0 -261 75t-172 205.5t-61 296.5q0 169 62 299.5t173 205.5t257 75q112 0 203 -43.5t150.5 -122t74.5 -182.5h-130q-14 63 -53.5 115t-101 83.5t-141.5 31.5q-107 0 -189 -58t-128.5 -161t-46.5 -239q0 -135 45 -240t127.5 -164t191.5 -59q111 0 192 63
t104 169h130q-14 -101 -71.5 -180t-148 -124.5t-206.5 -45.5zM509 6h111l-12 -58q63 -10 107.5 -51t44.5 -120q0 -88 -68.5 -140t-200.5 -53l-5 92q73 0 114.5 23t41.5 74q0 54 -38.5 77t-120.5 27z" />
    <glyph glyph-name="egrave" unicode="&#xe8;" horiz-adv-x="1119" 
d="M591 -24q-156 0 -271 73.5t-177 203.5t-62 299t61.5 300t171.5 206t255 75q90 0 175 -33.5t153 -101.5t107 -172.5t39 -248.5v-58h-873v114h803l-59 -44q0 122 -41.5 218t-118.5 152t-185 56q-107 0 -188 -56.5t-125.5 -150t-44.5 -204.5v-67q0 -134 46.5 -233.5
t132 -154.5t201.5 -55q79 0 139 25t101 67.5t62 92.5l123 -41q-26 -70 -83.5 -129.5t-144 -96t-197.5 -36.5zM518 1265l-200 288h149l161 -288h-110z" />
    <glyph glyph-name="eacute" unicode="&#xe9;" horiz-adv-x="1119" 
d="M591 -24q-156 0 -271 73.5t-177 203.5t-62 299t61.5 300t171.5 206t255 75q90 0 175 -33.5t153 -101.5t107 -172.5t39 -248.5v-58h-873v114h803l-59 -44q0 122 -41.5 218t-118.5 152t-185 56q-107 0 -188 -56.5t-125.5 -150t-44.5 -204.5v-67q0 -134 46.5 -233.5
t132 -154.5t201.5 -55q79 0 139 25t101 67.5t62 92.5l123 -41q-26 -70 -83.5 -129.5t-144 -96t-197.5 -36.5zM501 1265l161 288h149l-200 -288h-110z" />
    <glyph glyph-name="ecircumflex" unicode="&#xea;" horiz-adv-x="1119" 
d="M591 -24q-156 0 -271 73.5t-177 203.5t-62 299t61.5 300t171.5 206t255 75q90 0 175 -33.5t153 -101.5t107 -172.5t39 -248.5v-58h-873v114h803l-59 -44q0 122 -41.5 218t-118.5 152t-185 56q-107 0 -188 -56.5t-125.5 -150t-44.5 -204.5v-67q0 -134 46.5 -233.5
t132 -154.5t201.5 -55q79 0 139 25t101 67.5t62 92.5l123 -41q-26 -70 -83.5 -129.5t-144 -96t-197.5 -36.5zM738 1245l-174 210l-173 -210h-128v10l247 294h109l245 -294v-10h-126z" />
    <glyph glyph-name="edieresis" unicode="&#xeb;" horiz-adv-x="1119" 
d="M591 -24q-156 0 -271 73.5t-177 203.5t-62 299t61.5 300t171.5 206t255 75q90 0 175 -33.5t153 -101.5t107 -172.5t39 -248.5v-58h-873v114h803l-59 -44q0 122 -41.5 218t-118.5 152t-185 56q-107 0 -188 -56.5t-125.5 -150t-44.5 -204.5v-67q0 -134 46.5 -233.5
t132 -154.5t201.5 -55q79 0 139 25t101 67.5t62 92.5l123 -41q-26 -70 -83.5 -129.5t-144 -96t-197.5 -36.5zM379 1309q-37 0 -65.5 28.5t-28.5 65.5q0 39 28.5 65.5t65.5 26.5q39 0 65.5 -26.5t26.5 -65.5q0 -37 -26.5 -65.5t-65.5 -28.5zM750 1309q-37 0 -65 28.5
t-28 65.5q0 39 28 65.5t65 26.5q40 0 67 -26.5t26 -65.5q1 -37 -26 -65.5t-67 -28.5z" />
    <glyph glyph-name="igrave" unicode="&#xec;" horiz-adv-x="407" 
d="M139 0v1118h129v-1118h-129zM158 1265l-200 288h149l161 -288h-110z" />
    <glyph glyph-name="iacute" unicode="&#xed;" horiz-adv-x="407" 
d="M139 0v1118h129v-1118h-129zM140 1265l161 288h149l-200 -288h-110z" />
    <glyph glyph-name="icircumflex" unicode="&#xee;" horiz-adv-x="407" 
d="M139 0v1118h129v-1118h-129zM377 1245l-174 210l-172 -210h-128v10l246 294h110l244 -294v-10h-126z" />
    <glyph glyph-name="idieresis" unicode="&#xef;" horiz-adv-x="407" 
d="M139 0v1118h129v-1118h-129zM18 1309q-37 0 -65.5 28.5t-28.5 65.5q0 39 28.5 65.5t65.5 26.5q39 0 65.5 -26.5t26.5 -65.5q0 -37 -26.5 -65.5t-65.5 -28.5zM389 1309q-37 0 -65 28.5t-28 65.5q0 39 28 65.5t65 26.5q40 0 67 -26.5t26 -65.5q1 -37 -26 -65.5t-67 -28.5z
" />
    <glyph glyph-name="eth" unicode="&#xf0;" horiz-adv-x="1131" 
d="M939 1431l-588 -278l-37 87l587 278zM567 -24q-145 1 -254.5 71t-170 192t-61.5 276q1 156 61.5 277.5t164.5 191t230 69.5q85 0 151 -29t114.5 -76t79.5 -103h13q-37 111 -107.5 226t-183.5 222t-277 192l56 97q132 -69 252 -172t213.5 -235.5t147.5 -290.5t55 -337
q0 -178 -62 -306t-171 -196t-251 -69zM567 95q111 0 191 55t123.5 148.5t43.5 208.5q0 109 -41 208.5t-120.5 163t-196.5 62.5q-111 1 -191 -57.5t-122.5 -155.5t-42.5 -213q0 -113 41 -208.5t120.5 -153.5t194.5 -58z" />
    <glyph glyph-name="ntilde" unicode="&#xf1;" horiz-adv-x="1124" 
d="M268 698v-698h-129v1118h125v-177h13q39 87 122 139t206 52q113 0 198.5 -47t133.5 -138t48 -224v-723h-129v715q0 137 -77 218t-206 81q-88 0 -157 -38.5t-108.5 -109t-39.5 -168.5zM696 1286q-39 0 -73.5 14t-66 33t-60 33t-56.5 14q-36 0 -57.5 -27.5t-24.5 -62.5
l-98 2q5 81 48.5 134t120.5 53q42 0 76 -14t63.5 -33.5t57.5 -34t58 -14.5q34 1 56 24t30 68l94 -4q-7 -84 -52.5 -134.5t-115.5 -50.5z" />
    <glyph glyph-name="ograve" unicode="&#xf2;" horiz-adv-x="1146" 
d="M573 -24q-145 0 -256 73.5t-173.5 204t-62.5 299.5q0 172 62.5 302.5t173.5 204t256 73.5t255.5 -73.5t173.5 -204t63 -302.5q0 -169 -62.5 -299.5t-173.5 -204t-256 -73.5zM573 94q117 0 197.5 62.5t122.5 167.5t42 229q0 126 -42 231t-123 168t-197 63t-196.5 -63.5
t-123 -168t-42.5 -230.5q0 -124 42 -229t123 -167.5t197 -62.5zM526 1265l-200 288h149l161 -288h-110z" />
    <glyph glyph-name="oacute" unicode="&#xf3;" horiz-adv-x="1146" 
d="M573 -24q-145 0 -256 73.5t-173.5 204t-62.5 299.5q0 172 62.5 302.5t173.5 204t256 73.5t255.5 -73.5t173.5 -204t63 -302.5q0 -169 -62.5 -299.5t-173.5 -204t-256 -73.5zM573 94q117 0 197.5 62.5t122.5 167.5t42 229q0 126 -42 231t-123 168t-197 63t-196.5 -63.5
t-123 -168t-42.5 -230.5q0 -124 42 -229t123 -167.5t197 -62.5zM509 1265l161 288h149l-200 -288h-110z" />
    <glyph glyph-name="ocircumflex" unicode="&#xf4;" horiz-adv-x="1146" 
d="M573 -24q-145 0 -256 73.5t-173.5 204t-62.5 299.5q0 172 62.5 302.5t173.5 204t256 73.5t255.5 -73.5t173.5 -204t63 -302.5q0 -169 -62.5 -299.5t-173.5 -204t-256 -73.5zM573 94q117 0 197.5 62.5t122.5 167.5t42 229q0 126 -42 231t-123 168t-197 63t-196.5 -63.5
t-123 -168t-42.5 -230.5q0 -124 42 -229t123 -167.5t197 -62.5zM746 1245l-174 210l-173 -210h-128v10l247 294h109l245 -294v-10h-126z" />
    <glyph glyph-name="otilde" unicode="&#xf5;" horiz-adv-x="1146" 
d="M573 -24q-145 0 -256 73.5t-173.5 204t-62.5 299.5q0 172 62.5 302.5t173.5 204t256 73.5t255.5 -73.5t173.5 -204t63 -302.5q0 -169 -62.5 -299.5t-173.5 -204t-256 -73.5zM573 94q117 0 197.5 62.5t122.5 167.5t42 229q0 126 -42 231t-123 168t-197 63t-196.5 -63.5
t-123 -168t-42.5 -230.5q0 -124 42 -229t123 -167.5t197 -62.5zM706 1286q-39 0 -73.5 14t-66 33t-60 33t-56.5 14q-36 0 -57.5 -27.5t-24.5 -62.5l-98 2q5 81 48.5 134t120.5 53q42 0 76 -14t63.5 -33.5t57.5 -34t58 -14.5q34 1 56 24t30 68l94 -4q-7 -84 -52.5 -134.5
t-115.5 -50.5z" />
    <glyph glyph-name="odieresis" unicode="&#xf6;" horiz-adv-x="1146" 
d="M573 -24q-145 0 -256 73.5t-173.5 204t-62.5 299.5q0 172 62.5 302.5t173.5 204t256 73.5t255.5 -73.5t173.5 -204t63 -302.5q0 -169 -62.5 -299.5t-173.5 -204t-256 -73.5zM573 94q117 0 197.5 62.5t122.5 167.5t42 229q0 126 -42 231t-123 168t-197 63t-196.5 -63.5
t-123 -168t-42.5 -230.5q0 -124 42 -229t123 -167.5t197 -62.5zM387 1309q-37 0 -65.5 28.5t-28.5 65.5q0 39 28.5 65.5t65.5 26.5q39 0 65.5 -26.5t26.5 -65.5q0 -37 -26.5 -65.5t-65.5 -28.5zM758 1309q-37 0 -65 28.5t-28 65.5q0 39 28 65.5t65 26.5q40 0 67 -26.5
t26 -65.5q1 -37 -26 -65.5t-67 -28.5z" />
    <glyph glyph-name="divide" unicode="&#xf7;" horiz-adv-x="1271" 
d="M1086 645v-126h-901v126h901zM635 117q-44 0 -74.5 30t-29.5 74q-1 42 29.5 72.5t74.5 29.5q42 1 72.5 -29.5t29.5 -72.5q1 -44 -29.5 -74t-72.5 -30zM635 841q-44 -1 -74.5 29.5t-29.5 74.5q-1 42 29.5 72t74.5 30q42 0 72.5 -30t29.5 -72q1 -44 -29.5 -74.5
t-72.5 -29.5z" />
    <glyph glyph-name="oslash" unicode="&#xf8;" horiz-adv-x="1146" 
d="M227 -51l-86 60l778 1153l86 -59zM573 -23q-145 0 -256 73.5t-173.5 203.5t-62.5 300q0 172 62.5 302.5t173.5 203.5t256 73t255.5 -73t173.5 -204t63 -302q0 -170 -62.5 -300t-173.5 -203.5t-256 -73.5zM573 95q117 0 197.5 62.5t122.5 167t42 229.5q0 126 -42 230.5
t-123 167.5t-197 63t-196.5 -63t-123 -167.5t-42.5 -230.5q0 -125 42 -229.5t123 -167t197 -62.5z" />
    <glyph glyph-name="ugrave" unicode="&#xf9;" horiz-adv-x="1117" 
d="M849 426v692h129v-1118h-129v186h-10q-40 -86 -125 -143.5t-208 -56.5q-107 0 -189.5 46.5t-130 138t-47.5 223.5v724h129v-717q0 -130 77.5 -210t197.5 -79q76 0 146 36t115 106t45 172zM513 1265l-200 288h149l161 -288h-110z" />
    <glyph glyph-name="uacute" unicode="&#xfa;" horiz-adv-x="1117" 
d="M849 426v692h129v-1118h-129v186h-10q-40 -86 -125 -143.5t-208 -56.5q-107 0 -189.5 46.5t-130 138t-47.5 223.5v724h129v-717q0 -130 77.5 -210t197.5 -79q76 0 146 36t115 106t45 172zM495 1265l161 288h149l-200 -288h-110z" />
    <glyph glyph-name="ucircumflex" unicode="&#xfb;" horiz-adv-x="1117" 
d="M849 426v692h129v-1118h-129v186h-10q-40 -86 -125 -143.5t-208 -56.5q-107 0 -189.5 46.5t-130 138t-47.5 223.5v724h129v-717q0 -130 77.5 -210t197.5 -79q76 0 146 36t115 106t45 172zM733 1245l-174 210l-173 -210h-128v10l247 294h109l245 -294v-10h-126z" />
    <glyph glyph-name="udieresis" unicode="&#xfc;" horiz-adv-x="1117" 
d="M849 426v692h129v-1118h-129v186h-10q-40 -86 -125 -143.5t-208 -56.5q-107 0 -189.5 46.5t-130 138t-47.5 223.5v724h129v-717q0 -130 77.5 -210t197.5 -79q76 0 146 36t115 106t45 172zM374 1309q-37 0 -65.5 28.5t-28.5 65.5q0 39 28.5 65.5t65.5 26.5
q39 0 65.5 -26.5t26.5 -65.5q0 -37 -26.5 -65.5t-65.5 -28.5zM745 1309q-37 0 -65 28.5t-28 65.5q0 39 28 65.5t65 26.5q40 0 67 -26.5t26 -65.5q1 -37 -26 -65.5t-67 -28.5z" />
    <glyph glyph-name="yacute" unicode="&#xfd;" horiz-adv-x="1053" 
d="M229 -418q-38 -1 -71.5 6t-53.5 17l35 113l15 -4q92 -27 156.5 6.5t108.5 154.5l41 114l-411 1129h141l331 -948h10l332 948h140l-472 -1294q-30 -81 -73.5 -135t-100.5 -80.5t-128 -26.5zM463 1265l161 288h149l-200 -288h-110z" />
    <glyph glyph-name="thorn" unicode="&#xfe;" horiz-adv-x="1163" 
d="M623 -24q-101 0 -169.5 36.5t-110 90.5t-64.5 105h-11v-626h-129v1908h129v-586h11q23 50 64 103t109 89.5t170 36.5q138 0 241.5 -72.5t161.5 -202.5t58 -302q0 -173 -57.5 -304t-161 -203.5t-241.5 -72.5zM609 94q110 0 187 62t117 167t40 234t-40 232.5t-116 164.5
t-188 61q-110 0 -186 -58.5t-116 -161.5t-40 -238q0 -134 40 -238.5t116.5 -164.5t185.5 -60z" />
    <glyph glyph-name="ydieresis" unicode="&#xff;" horiz-adv-x="1053" 
d="M229 -418q-38 -1 -71.5 6t-53.5 17l35 113l15 -4q92 -27 156.5 6.5t108.5 154.5l41 114l-411 1129h141l331 -948h10l332 948h140l-472 -1294q-30 -81 -73.5 -135t-100.5 -80.5t-128 -26.5zM341 1309q-37 0 -65.5 28.5t-28.5 65.5q0 39 28.5 65.5t65.5 26.5
q39 0 65.5 -26.5t26.5 -65.5q0 -37 -26.5 -65.5t-65.5 -28.5zM712 1309q-37 0 -65 28.5t-28 65.5q0 39 28 65.5t65 26.5q40 0 67 -26.5t26 -65.5q1 -37 -26 -65.5t-67 -28.5z" />
    <glyph glyph-name="Amacron" unicode="&#x100;" horiz-adv-x="1279" 
d="M168 0h-143l543 1490h145l542 -1490h-142l-468 1313h-10zM271 571h739v-122h-739v122zM944 1829v-113h-609v113h609z" />
    <glyph glyph-name="amacron" unicode="&#x101;" horiz-adv-x="1074" 
d="M451 -25q-101 0 -185 39.5t-133.5 115t-49.5 183.5q0 83 31 139t89 92.5t136.5 58t173.5 32.5q94 12 159 20.5t99 27.5t34 61v26q0 115 -68 180.5t-195 65.5q-121 0 -197 -53t-106 -125l-124 45q38 91 105 146t150 79.5t168 24.5q64 0 133 -17t129 -58t97.5 -114.5
t37.5 -185.5v-758h-130v177h-8q-22 -49 -68 -95.5t-115 -76.5t-163 -30zM469 93q103 0 178.5 45.5t116.5 122.5t41 168v161q-15 -14 -48.5 -25t-77 -19t-88 -14t-78.5 -10q-94 -12 -161.5 -37t-103 -68t-35.5 -111q0 -101 72.5 -157t183.5 -56zM854 1457v-113h-609v113h609z
" />
    <glyph glyph-name="Abreve" unicode="&#x102;" horiz-adv-x="1279" 
d="M168 0h-143l543 1490h145l542 -1490h-142l-468 1313h-10zM271 571h739v-122h-739v122zM640 1632q-114 0 -184.5 65.5t-70.5 170.5h122q0 -62 36.5 -100t96.5 -38q61 0 97 38t36 100h122q0 -105 -70.5 -170.5t-184.5 -65.5z" />
    <glyph glyph-name="abreve" unicode="&#x103;" horiz-adv-x="1074" 
d="M451 -25q-101 0 -185 39.5t-133.5 115t-49.5 183.5q0 83 31 139t89 92.5t136.5 58t173.5 32.5q94 12 159 20.5t99 27.5t34 61v26q0 115 -68 180.5t-195 65.5q-121 0 -197 -53t-106 -125l-124 45q38 91 105 146t150 79.5t168 24.5q64 0 133 -17t129 -58t97.5 -114.5
t37.5 -185.5v-758h-130v177h-8q-22 -49 -68 -95.5t-115 -76.5t-163 -30zM469 93q103 0 178.5 45.5t116.5 122.5t41 168v161q-15 -14 -48.5 -25t-77 -19t-88 -14t-78.5 -10q-94 -12 -161.5 -37t-103 -68t-35.5 -111q0 -101 72.5 -157t183.5 -56zM549 1260q-114 0 -184.5 65.5
t-70.5 170.5h122q0 -62 36.5 -100t96.5 -38q61 0 97 38t36 100h122q0 -105 -70.5 -170.5t-184.5 -65.5z" />
    <glyph glyph-name="Aogonek" unicode="&#x104;" horiz-adv-x="1279" 
d="M168 0h-143l543 1490h145l542 -1490h-142l-468 1313h-10zM271 571h739v-122h-739v122zM1152 -438q-85 0 -140 47t-54 138q0 53 24 104t74.5 98.5t130.5 91.5l67 -41q-68 -57 -116.5 -114.5t-48.5 -124.5q0 -42 22.5 -64.5t70.5 -21.5q32 -1 56.5 8t43.5 22l17 -98
q-26 -18 -62.5 -31.5t-84.5 -13.5z" />
    <glyph glyph-name="aogonek" unicode="&#x105;" horiz-adv-x="1074" 
d="M451 -25q-101 0 -185 39.5t-133.5 115t-49.5 183.5q0 83 31 139t89 92.5t136.5 58t173.5 32.5q94 12 159 20.5t99 27.5t34 61v26q0 115 -68 180.5t-195 65.5q-121 0 -197 -53t-106 -125l-124 45q38 91 105 146t150 79.5t168 24.5q64 0 133 -17t129 -58t97.5 -114.5
t37.5 -185.5v-758h-130v177h-8q-22 -49 -68 -95.5t-115 -76.5t-163 -30zM469 93q103 0 178.5 45.5t116.5 122.5t41 168v161q-15 -14 -48.5 -25t-77 -19t-88 -14t-78.5 -10q-94 -12 -161.5 -37t-103 -68t-35.5 -111q0 -101 72.5 -157t183.5 -56zM832 -438q-85 0 -140 47
t-54 138q0 53 24 104t74.5 98.5t130.5 91.5l67 -41q-68 -57 -116.5 -114.5t-48.5 -124.5q0 -42 22.5 -64.5t70.5 -21.5q32 -1 56.5 8t43.5 22l17 -98q-26 -18 -62.5 -31.5t-84.5 -13.5z" />
    <glyph glyph-name="Cacute" unicode="&#x106;" horiz-adv-x="1423" 
d="M743 -20q-187 0 -333 94t-228.5 265.5t-82.5 404.5q0 234 82.5 406t228.5 266t333 94q119 0 218.5 -37t176.5 -103t126.5 -154.5t67.5 -191.5h-137q-15 77 -55 142t-99.5 114t-134.5 76t-163 27q-141 0 -257.5 -73.5t-186 -216t-69.5 -349.5t69.5 -349t186 -215
t257.5 -73q88 0 163 27t134.5 76t99.5 114t55 142h137q-18 -103 -67.5 -191.5t-126.5 -154.5t-176.5 -103t-218.5 -37zM679 1637l161 288h149l-200 -288h-110z" />
    <glyph glyph-name="cacute" unicode="&#x107;" horiz-adv-x="1078" 
d="M575 -24q-150 0 -261 75t-172 205.5t-61 296.5q0 169 62 299.5t173 205.5t257 75q112 0 203 -43.5t150.5 -122t74.5 -182.5h-130q-14 63 -53.5 115t-101 83.5t-141.5 31.5q-107 0 -189 -58t-128.5 -161t-46.5 -239q0 -135 45 -240t127.5 -164t191.5 -59q111 0 192 63
t104 169h130q-14 -101 -71.5 -180t-148 -124.5t-206.5 -45.5zM504 1265l161 288h149l-200 -288h-110z" />
    <glyph glyph-name="Ccircumflex" unicode="&#x108;" horiz-adv-x="1423" 
d="M743 -20q-187 0 -333 94t-228.5 265.5t-82.5 404.5q0 234 82.5 406t228.5 266t333 94q119 0 218.5 -37t176.5 -103t126.5 -154.5t67.5 -191.5h-137q-15 77 -55 142t-99.5 114t-134.5 76t-163 27q-141 0 -257.5 -73.5t-186 -216t-69.5 -349.5t69.5 -349t186 -215
t257.5 -73q88 0 163 27t134.5 76t99.5 114t55 142h137q-18 -103 -67.5 -191.5t-126.5 -154.5t-176.5 -103t-218.5 -37zM917 1617l-174 210l-173 -210h-128v10l247 294h109l245 -294v-10h-126z" />
    <glyph glyph-name="ccircumflex" unicode="&#x109;" horiz-adv-x="1078" 
d="M575 -24q-150 0 -261 75t-172 205.5t-61 296.5q0 169 62 299.5t173 205.5t257 75q112 0 203 -43.5t150.5 -122t74.5 -182.5h-130q-14 63 -53.5 115t-101 83.5t-141.5 31.5q-107 0 -189 -58t-128.5 -161t-46.5 -239q0 -135 45 -240t127.5 -164t191.5 -59q111 0 192 63
t104 169h130q-14 -101 -71.5 -180t-148 -124.5t-206.5 -45.5zM741 1245l-174 210l-172 -210h-128v10l246 294h110l244 -294v-10h-126z" />
    <glyph glyph-name="Cdotaccent" unicode="&#x10a;" horiz-adv-x="1423" 
d="M743 -20q-187 0 -333 94t-228.5 265.5t-82.5 404.5q0 234 82.5 406t228.5 266t333 94q119 0 218.5 -37t176.5 -103t126.5 -154.5t67.5 -191.5h-137q-15 77 -55 142t-99.5 114t-134.5 76t-163 27q-141 0 -257.5 -73.5t-186 -216t-69.5 -349.5t69.5 -349t186 -215
t257.5 -73q88 0 163 27t134.5 76t99.5 114t55 142h137q-18 -103 -67.5 -191.5t-126.5 -154.5t-176.5 -103t-218.5 -37zM744 1681q-40 0 -68.5 27.5t-28.5 66.5q0 38 28.5 65t68.5 27t68 -27t28 -65q0 -39 -28 -66.5t-68 -27.5z" />
    <glyph glyph-name="cdotaccent" unicode="&#x10b;" horiz-adv-x="1078" 
d="M575 -24q-150 0 -261 75t-172 205.5t-61 296.5q0 169 62 299.5t173 205.5t257 75q112 0 203 -43.5t150.5 -122t74.5 -182.5h-130q-14 63 -53.5 115t-101 83.5t-141.5 31.5q-107 0 -189 -58t-128.5 -161t-46.5 -239q0 -135 45 -240t127.5 -164t191.5 -59q111 0 192 63
t104 169h130q-14 -101 -71.5 -180t-148 -124.5t-206.5 -45.5zM568 1309q-40 0 -68.5 27.5t-28.5 66.5q0 38 28.5 65t68.5 27t68 -27t28 -65q0 -39 -28 -66.5t-68 -27.5z" />
    <glyph glyph-name="Ccaron" unicode="&#x10c;" horiz-adv-x="1423" 
d="M743 -20q-187 0 -333 94t-228.5 265.5t-82.5 404.5q0 234 82.5 406t228.5 266t333 94q119 0 218.5 -37t176.5 -103t126.5 -154.5t67.5 -191.5h-137q-15 77 -55 142t-99.5 114t-134.5 76t-163 27q-141 0 -257.5 -73.5t-186 -216t-69.5 -349.5t69.5 -349t186 -215
t257.5 -73q88 0 163 27t134.5 76t99.5 114t55 142h137q-18 -103 -67.5 -191.5t-126.5 -154.5t-176.5 -103t-218.5 -37zM569 1933l174 -211l173 211h128v-10l-247 -294h-109l-245 294v10h126z" />
    <glyph glyph-name="ccaron" unicode="&#x10d;" horiz-adv-x="1078" 
d="M575 -24q-150 0 -261 75t-172 205.5t-61 296.5q0 169 62 299.5t173 205.5t257 75q112 0 203 -43.5t150.5 -122t74.5 -182.5h-130q-14 63 -53.5 115t-101 83.5t-141.5 31.5q-107 0 -189 -58t-128.5 -161t-46.5 -239q0 -135 45 -240t127.5 -164t191.5 -59q111 0 192 63
t104 169h130q-14 -101 -71.5 -180t-148 -124.5t-206.5 -45.5zM394 1561l174 -211l173 211h128v-10l-247 -294h-109l-245 294v10h126z" />
    <glyph glyph-name="Dcaron" unicode="&#x10e;" horiz-adv-x="1405" 
d="M602 0h-361v122h353q192 0 321.5 75.5t194.5 216t65 335.5q0 192 -63.5 330.5t-187 213t-304.5 74.5h-384v123h392q213 0 365 -89t232.5 -255t80.5 -397q0 -235 -82.5 -402.5t-240 -257t-381.5 -89.5zM301 1490v-1490h-136v1490h136zM415 1933l174 -211l173 211h128v-10
l-247 -294h-109l-245 294v10h126z" />
    <glyph glyph-name="dcaron" unicode="&#x10f;" horiz-adv-x="1243" 
d="M540 -24q-137 0 -240.5 72.5t-161 203.5t-57.5 304q0 172 58 302t161.5 202.5t240.5 72.5q103 0 170.5 -36.5t109 -89.5t63.5 -103h11v586h129v-1490h-125v208h-15q-22 -51 -64 -105t-110 -90.5t-170 -36.5zM555 94q109 0 185 60t116.5 164.5t40.5 238.5q0 135 -40 238
t-116.5 161.5t-185.5 58.5q-111 0 -188 -61t-116.5 -164.5t-39.5 -232.5t40 -234t116.5 -167t187.5 -62zM1164 1182v378h134l-39 -378h-95z" />
    <glyph glyph-name="Dcroat" unicode="&#x110;" horiz-adv-x="1405" 
d="M602 0h-361v122h353q192 0 321.5 75.5t194.5 216t65 335.5q0 192 -63.5 330.5t-187 213t-304.5 74.5h-384v123h392q213 0 365 -89t232.5 -255t80.5 -397q0 -235 -82.5 -402.5t-240 -257t-381.5 -89.5zM301 1490v-1490h-136v1490h136zM-72 711v104h611v-104h-611z" />
    <glyph glyph-name="dcroat" unicode="&#x111;" horiz-adv-x="1163" 
d="M540 -24q-137 0 -240.5 72.5t-161 203.5t-57.5 304q0 172 58 302t161.5 202.5t240.5 72.5q103 0 170.5 -36.5t109 -89.5t63.5 -103h11v586h129v-1490h-125v208h-15q-22 -51 -64 -105t-110 -90.5t-170 -36.5zM555 94q109 0 185 60t116.5 164.5t40.5 238.5q0 135 -40 238
t-116.5 161.5t-185.5 58.5q-111 0 -188 -61t-116.5 -164.5t-39.5 -232.5t40 -234t116.5 -167t187.5 -62zM585 1227v104h611v-104h-611z" />
    <glyph glyph-name="Emacron" unicode="&#x112;" horiz-adv-x="1151" 
d="M165 0v1490h865v-123h-729v-556h683v-122h-683v-567h743v-122h-879zM902 1829v-113h-609v113h609z" />
    <glyph glyph-name="emacron" unicode="&#x113;" horiz-adv-x="1119" 
d="M591 -24q-156 0 -271 73.5t-177 203.5t-62 299t61.5 300t171.5 206t255 75q90 0 175 -33.5t153 -101.5t107 -172.5t39 -248.5v-58h-873v114h803l-59 -44q0 122 -41.5 218t-118.5 152t-185 56q-107 0 -188 -56.5t-125.5 -150t-44.5 -204.5v-67q0 -134 46.5 -233.5
t132 -154.5t201.5 -55q79 0 139 25t101 67.5t62 92.5l123 -41q-26 -70 -83.5 -129.5t-144 -96t-197.5 -36.5zM869 1457v-113h-609v113h609z" />
    <glyph glyph-name="Ebreve" unicode="&#x114;" horiz-adv-x="1151" 
d="M165 0v1490h865v-123h-729v-556h683v-122h-683v-567h743v-122h-879zM598 1632q-114 0 -184.5 65.5t-70.5 170.5h122q0 -62 36.5 -100t96.5 -38q61 0 97 38t36 100h122q0 -105 -70.5 -170.5t-184.5 -65.5z" />
    <glyph glyph-name="ebreve" unicode="&#x115;" horiz-adv-x="1119" 
d="M591 -24q-156 0 -271 73.5t-177 203.5t-62 299t61.5 300t171.5 206t255 75q90 0 175 -33.5t153 -101.5t107 -172.5t39 -248.5v-58h-873v114h803l-59 -44q0 122 -41.5 218t-118.5 152t-185 56q-107 0 -188 -56.5t-125.5 -150t-44.5 -204.5v-67q0 -134 46.5 -233.5
t132 -154.5t201.5 -55q79 0 139 25t101 67.5t62 92.5l123 -41q-26 -70 -83.5 -129.5t-144 -96t-197.5 -36.5zM564 1260q-114 0 -184.5 65.5t-70.5 170.5h122q0 -62 36.5 -100t96.5 -38q61 0 97 38t36 100h122q0 -105 -70.5 -170.5t-184.5 -65.5z" />
    <glyph glyph-name="Edotaccent" unicode="&#x116;" horiz-adv-x="1151" 
d="M165 0v1490h865v-123h-729v-556h683v-122h-683v-567h743v-122h-879zM598 1681q-40 0 -68.5 27.5t-28.5 66.5q0 38 28.5 65t68.5 27t68 -27t28 -65q0 -39 -28 -66.5t-68 -27.5z" />
    <glyph glyph-name="edotaccent" unicode="&#x117;" horiz-adv-x="1119" 
d="M591 -24q-156 0 -271 73.5t-177 203.5t-62 299t61.5 300t171.5 206t255 75q90 0 175 -33.5t153 -101.5t107 -172.5t39 -248.5v-58h-873v114h803l-59 -44q0 122 -41.5 218t-118.5 152t-185 56q-107 0 -188 -56.5t-125.5 -150t-44.5 -204.5v-67q0 -134 46.5 -233.5
t132 -154.5t201.5 -55q79 0 139 25t101 67.5t62 92.5l123 -41q-26 -70 -83.5 -129.5t-144 -96t-197.5 -36.5zM565 1309q-40 0 -68.5 27.5t-28.5 66.5q0 38 28.5 65t68.5 27t68 -27t28 -65q0 -39 -28 -66.5t-68 -27.5z" />
    <glyph glyph-name="Eogonek" unicode="&#x118;" horiz-adv-x="1151" 
d="M165 0v1490h865v-123h-729v-556h683v-122h-683v-567h743v-122h-879zM942 -438q-85 0 -140 47t-54 138q0 53 24 104t74.5 98.5t130.5 91.5l67 -41q-68 -57 -116.5 -114.5t-48.5 -124.5q0 -42 22.5 -64.5t70.5 -21.5q32 -1 56.5 8t43.5 22l17 -98q-26 -18 -62.5 -31.5
t-84.5 -13.5z" />
    <glyph glyph-name="eogonek" unicode="&#x119;" horiz-adv-x="1119" 
d="M591 -24q-156 0 -271 73.5t-177 203.5t-62 299t61.5 300t171.5 206t255 75q90 0 175 -33.5t153 -101.5t107 -172.5t39 -248.5v-58h-873v114h803l-59 -44q0 122 -41.5 218t-118.5 152t-185 56q-107 0 -188 -56.5t-125.5 -150t-44.5 -204.5v-67q0 -134 46.5 -233.5
t132 -154.5t201.5 -55q79 0 139 25t101 67.5t62 92.5l123 -41q-26 -70 -83.5 -129.5t-144 -96t-197.5 -36.5zM591 -438q-85 0 -140 47t-54 138q0 53 24 104t74.5 98.5t130.5 91.5l67 -41q-68 -57 -116.5 -114.5t-48.5 -124.5q0 -42 22.5 -64.5t70.5 -21.5q32 -1 56.5 8
t43.5 22l17 -98q-26 -18 -62.5 -31.5t-84.5 -13.5z" />
    <glyph glyph-name="Ecaron" unicode="&#x11a;" horiz-adv-x="1151" 
d="M165 0v1490h865v-123h-729v-556h683v-122h-683v-567h743v-122h-879zM424 1933l174 -211l173 211h128v-10l-247 -294h-109l-245 294v10h126z" />
    <glyph glyph-name="ecaron" unicode="&#x11b;" horiz-adv-x="1119" 
d="M591 -24q-156 0 -271 73.5t-177 203.5t-62 299t61.5 300t171.5 206t255 75q90 0 175 -33.5t153 -101.5t107 -172.5t39 -248.5v-58h-873v114h803l-59 -44q0 122 -41.5 218t-118.5 152t-185 56q-107 0 -188 -56.5t-125.5 -150t-44.5 -204.5v-67q0 -134 46.5 -233.5
t132 -154.5t201.5 -55q79 0 139 25t101 67.5t62 92.5l123 -41q-26 -70 -83.5 -129.5t-144 -96t-197.5 -36.5zM391 1561l174 -211l173 211h128v-10l-247 -294h-109l-245 294v10h126z" />
    <glyph glyph-name="Gcircumflex" unicode="&#x11c;" horiz-adv-x="1455" 
d="M749 -20q-195 0 -341.5 94t-227.5 266t-81 404q0 234 81.5 406t225.5 266t333 94q122 0 223.5 -38.5t178.5 -106t127 -155t68 -186.5h-140q-20 75 -59.5 139.5t-97.5 114t-133 77.5t-167 28q-145 0 -260 -76t-182 -219t-67 -344q0 -199 67 -342t184 -219t268 -76
q137 0 241.5 61t163.5 174t59 271l44 -14h-476v122h565v-122q0 -191 -76.5 -329.5t-211.5 -214t-309 -75.5zM909 1617l-174 210l-172 -210h-128v10l246 294h110l244 -294v-10h-126z" />
    <glyph glyph-name="gcircumflex" unicode="&#x11d;" horiz-adv-x="1165" 
d="M565 -442q-171 0 -279 64t-157 160l106 70q23 -43 64 -83.5t106 -67t160 -26.5q149 0 240.5 74t91.5 230v252h-13q-22 -51 -64 -101.5t-110 -84t-169 -33.5q-134 0 -237.5 66t-163 189.5t-59.5 293.5t58 298.5t162 201t242 72.5q103 0 171 -36.5t109 -89.5t64 -103h14
v214h124v-1147q0 -142 -59.5 -233.5t-163.5 -135.5t-237 -44zM557 130q161 0 251 116t90 318q0 131 -39.5 232.5t-116 160t-185.5 58.5q-113 0 -190 -60.5t-116.5 -162.5t-39.5 -228q0 -128 40 -226t117.5 -153t188.5 -55zM757 1245l-174 210l-172 -210h-128v10l246 294h110
l244 -294v-10h-126z" />
    <glyph glyph-name="Gbreve" unicode="&#x11e;" horiz-adv-x="1455" 
d="M749 -20q-195 0 -341.5 94t-227.5 266t-81 404q0 234 81.5 406t225.5 266t333 94q122 0 223.5 -38.5t178.5 -106t127 -155t68 -186.5h-140q-20 75 -59.5 139.5t-97.5 114t-133 77.5t-167 28q-145 0 -260 -76t-182 -219t-67 -344q0 -199 67 -342t184 -219t268 -76
q137 0 241.5 61t163.5 174t59 271l44 -14h-476v122h565v-122q0 -191 -76.5 -329.5t-211.5 -214t-309 -75.5zM736 1632q-114 0 -184.5 65.5t-70.5 170.5h122q0 -62 36.5 -100t96.5 -38q61 0 97 38t36 100h122q0 -105 -70.5 -170.5t-184.5 -65.5z" />
    <glyph glyph-name="gbreve" unicode="&#x11f;" horiz-adv-x="1165" 
d="M565 -442q-171 0 -279 64t-157 160l106 70q23 -43 64 -83.5t106 -67t160 -26.5q149 0 240.5 74t91.5 230v252h-13q-22 -51 -64 -101.5t-110 -84t-169 -33.5q-134 0 -237.5 66t-163 189.5t-59.5 293.5t58 298.5t162 201t242 72.5q103 0 171 -36.5t109 -89.5t64 -103h14
v214h124v-1147q0 -142 -59.5 -233.5t-163.5 -135.5t-237 -44zM557 130q161 0 251 116t90 318q0 131 -39.5 232.5t-116 160t-185.5 58.5q-113 0 -190 -60.5t-116.5 -162.5t-39.5 -228q0 -128 40 -226t117.5 -153t188.5 -55zM584 1260q-114 0 -184.5 65.5t-70.5 170.5h122
q0 -62 36.5 -100t96.5 -38q61 0 97 38t36 100h122q0 -105 -70.5 -170.5t-184.5 -65.5z" />
    <glyph glyph-name="Gdotaccent" unicode="&#x120;" horiz-adv-x="1455" 
d="M749 -20q-195 0 -341.5 94t-227.5 266t-81 404q0 234 81.5 406t225.5 266t333 94q122 0 223.5 -38.5t178.5 -106t127 -155t68 -186.5h-140q-20 75 -59.5 139.5t-97.5 114t-133 77.5t-167 28q-145 0 -260 -76t-182 -219t-67 -344q0 -199 67 -342t184 -219t268 -76
q137 0 241.5 61t163.5 174t59 271l44 -14h-476v122h565v-122q0 -191 -76.5 -329.5t-211.5 -214t-309 -75.5zM736 1681q-40 0 -68.5 27.5t-28.5 66.5q0 38 28.5 65t68.5 27t68 -27t28 -65q0 -39 -28 -66.5t-68 -27.5z" />
    <glyph glyph-name="gdotaccent" unicode="&#x121;" horiz-adv-x="1165" 
d="M565 -442q-171 0 -279 64t-157 160l106 70q23 -43 64 -83.5t106 -67t160 -26.5q149 0 240.5 74t91.5 230v252h-13q-22 -51 -64 -101.5t-110 -84t-169 -33.5q-134 0 -237.5 66t-163 189.5t-59.5 293.5t58 298.5t162 201t242 72.5q103 0 171 -36.5t109 -89.5t64 -103h14
v214h124v-1147q0 -142 -59.5 -233.5t-163.5 -135.5t-237 -44zM557 130q161 0 251 116t90 318q0 131 -39.5 232.5t-116 160t-185.5 58.5q-113 0 -190 -60.5t-116.5 -162.5t-39.5 -228q0 -128 40 -226t117.5 -153t188.5 -55zM584 1309q-40 0 -68.5 27.5t-28.5 66.5
q0 38 28.5 65t68.5 27t68 -27t28 -65q0 -39 -28 -66.5t-68 -27.5z" />
    <glyph glyph-name="uni0122" unicode="&#x122;" horiz-adv-x="1455" 
d="M749 -20q-195 0 -341.5 94t-227.5 266t-81 404q0 234 81.5 406t225.5 266t333 94q122 0 223.5 -38.5t178.5 -106t127 -155t68 -186.5h-140q-20 75 -59.5 139.5t-97.5 114t-133 77.5t-167 28q-145 0 -260 -76t-182 -219t-67 -344q0 -199 67 -342t184 -219t268 -76
q137 0 241.5 61t163.5 174t59 271l44 -14h-476v122h565v-122q0 -191 -76.5 -329.5t-211.5 -214t-309 -75.5zM578 -494l86 376h134l-119 -376h-101z" />
    <glyph glyph-name="uni0123" unicode="&#x123;" horiz-adv-x="1165" 
d="M565 -442q-171 0 -279 64t-157 160l106 70q23 -43 64 -83.5t106 -67t160 -26.5q149 0 240.5 74t91.5 230v252h-13q-22 -51 -64 -101.5t-110 -84t-169 -33.5q-134 0 -237.5 66t-163 189.5t-59.5 293.5t58 298.5t162 201t242 72.5q103 0 171 -36.5t109 -89.5t64 -103h14
v214h124v-1147q0 -142 -59.5 -233.5t-163.5 -135.5t-237 -44zM557 130q161 0 251 116t90 318q0 131 -39.5 232.5t-116 160t-185.5 58.5q-113 0 -190 -60.5t-116.5 -162.5t-39.5 -228q0 -128 40 -226t117.5 -153t188.5 -55zM504 1264v98q1 64 20 121.5t52 107t72 86.5l83 -69
q-44 -67 -60.5 -123.5t-15.5 -130.5v-90h-151z" />
    <glyph glyph-name="Hcircumflex" unicode="&#x124;" horiz-adv-x="1447" 
d="M165 0v1490h136v-683h846v683h135v-1490h-135v685h-846v-685h-136zM897 1617l-174 210l-173 -210h-128v10l247 294h109l245 -294v-10h-126z" />
    <glyph glyph-name="hcircumflex" unicode="&#x125;" horiz-adv-x="1132" 
d="M268 698v-698h-129v1490h129v-549h13q39 87 121 139t209 52q113 0 199 -46.5t134.5 -137.5t48.5 -225v-723h-130v715q0 139 -77.5 219t-208.5 80q-89 0 -158.5 -38.5t-110 -109t-40.5 -168.5zM378 1617l-174 210l-173 -210h-128v10l247 294h109l245 -294v-10h-126z" />
    <glyph glyph-name="Hbar" unicode="&#x126;" horiz-adv-x="1504" 
d="M1429 1144v-117h-1354v117h1354zM195 0v1490h136v-683h845v683h135v-1490h-135v685h-845v-685h-136z" />
    <glyph glyph-name="hbar" unicode="&#x127;" horiz-adv-x="1132" 
d="M268 698v-698h-129v1490h129v-549h13q39 87 121 139t209 52q113 0 199 -46.5t134.5 -137.5t48.5 -225v-723h-130v715q0 139 -77.5 219t-208.5 80q-89 0 -158.5 -38.5t-110 -109t-40.5 -168.5zM-100 1258v104h611v-104h-611z" />
    <glyph glyph-name="Itilde" unicode="&#x128;" horiz-adv-x="467" 
d="M301 1490v-1490h-136v1490h136zM367 1658q-39 0 -73.5 14t-66 33t-60 33t-56.5 14q-36 0 -57.5 -27.5t-24.5 -62.5l-98 2q5 81 48.5 134t120.5 53q42 0 76 -14t63.5 -33.5t57.5 -34t58 -14.5q34 1 56 24t30 68l94 -4q-7 -84 -52.5 -134.5t-115.5 -50.5z" />
    <glyph glyph-name="itilde" unicode="&#x129;" horiz-adv-x="463" 
d="M168 0v1118h129v-1118h-129zM367 1286q-39 0 -73.5 14t-66 33t-60 33t-56.5 14q-36 0 -57.5 -27.5t-24.5 -62.5l-98 2q5 81 48.5 134t120.5 53q42 0 76 -14t63.5 -33.5t57.5 -34t58 -14.5q34 1 56 24t30 68l94 -4q-7 -84 -52.5 -134.5t-115.5 -50.5z" />
    <glyph glyph-name="Imacron" unicode="&#x12a;" horiz-adv-x="467" 
d="M301 1490v-1490h-136v1490h136zM538 1829v-113h-609v113h609z" />
    <glyph glyph-name="imacron" unicode="&#x12b;" horiz-adv-x="407" 
d="M139 0v1118h129v-1118h-129zM508 1457v-113h-609v113h609z" />
    <glyph glyph-name="Ibreve" unicode="&#x12c;" horiz-adv-x="467" 
d="M301 1490v-1490h-136v1490h136zM233 1632q-114 0 -184.5 65.5t-70.5 170.5h122q0 -62 36.5 -100t96.5 -38q61 0 97 38t36 100h122q0 -105 -70.5 -170.5t-184.5 -65.5z" />
    <glyph glyph-name="ibreve" unicode="&#x12d;" horiz-adv-x="407" 
d="M139 0v1118h129v-1118h-129zM204 1260q-114 0 -184.5 65.5t-70.5 170.5h122q0 -62 36.5 -100t96.5 -38q61 0 97 38t36 100h122q0 -105 -70.5 -170.5t-184.5 -65.5z" />
    <glyph glyph-name="Iogonek" unicode="&#x12e;" horiz-adv-x="467" 
d="M301 1490v-1490h-136v1490h136zM199 -438q-85 0 -140 47t-54 138q0 53 24 104t74.5 98.5t130.5 91.5l67 -41q-68 -57 -116.5 -114.5t-48.5 -124.5q0 -42 22.5 -64.5t70.5 -21.5q32 -1 56.5 8t43.5 22l17 -98q-26 -18 -62.5 -31.5t-84.5 -13.5z" />
    <glyph glyph-name="iogonek" unicode="&#x12f;" horiz-adv-x="394" 
d="M112 0v1118h129v-1118h-129zM138 -438q-85 0 -140 47t-54 138q0 53 24 104t74.5 98.5t130.5 91.5l67 -41q-68 -57 -116.5 -114.5t-48.5 -124.5q0 -42 22.5 -64.5t70.5 -21.5q32 -1 56.5 8t43.5 22l17 -98q-26 -18 -62.5 -31.5t-84.5 -13.5zM167 1309q-40 0 -68.5 27.5
t-28.5 66.5q0 38 28.5 65t68.5 27t68 -27t28 -65q0 -39 -28 -66.5t-68 -27.5z" />
    <glyph glyph-name="Idotaccent" unicode="&#x130;" horiz-adv-x="467" 
d="M301 1490v-1490h-136v1490h136zM234 1681q-40 0 -68.5 27.5t-28.5 66.5q0 38 28.5 65t68.5 27t68 -27t28 -65q0 -39 -28 -66.5t-68 -27.5z" />
    <glyph glyph-name="dotlessi" unicode="&#x131;" horiz-adv-x="407" 
d="M139 0v1118h129v-1118h-129z" />
    <glyph glyph-name="IJ" unicode="&#x132;" horiz-adv-x="1497" 
d="M301 1490v-1490h-136v1490h136zM930 -20q-116 0 -207 42.5t-143 120.5t-52 184v25h134v-25q0 -67 35 -117.5t95.5 -79t137.5 -28.5q79 0 139 33.5t94 102.5t34 177v1075h135v-1075q0 -145 -51.5 -242t-142 -145t-208.5 -48z" />
    <glyph glyph-name="ij" unicode="&#x133;" horiz-adv-x="817" 
d="M139 0v1118h129v-1118h-129zM204 1309q-40 0 -68.5 27.5t-28.5 66.5q0 38 28.5 65t68.5 27t68 -27t28 -65q0 -39 -28 -66.5t-68 -27.5zM548 1118h129v-1227q1 -95 -34.5 -164.5t-102.5 -107t-162 -37.5h-28v122h27q80 0 125.5 49t45.5 138v1227zM612 1309
q-40 0 -68.5 27.5t-28.5 66.5q0 38 28.5 65t68.5 27t68 -27t28 -65q0 -39 -28 -66.5t-68 -27.5z" />
    <glyph glyph-name="Jcircumflex" unicode="&#x134;" horiz-adv-x="1031" 
d="M463 -20q-116 0 -207 42.5t-143 120.5t-52 184v25h134v-25q0 -67 35 -117.5t95.5 -79t137.5 -28.5q79 0 139 33.5t94 102.5t34 177v1075h135v-1075q0 -145 -51.5 -242t-142 -145t-208.5 -48zM971 1617l-174 210l-173 -210h-128v10l247 294h109l245 -294v-10h-126z" />
    <glyph glyph-name="jcircumflex" unicode="&#x135;" horiz-adv-x="409" 
d="M141 1118h129v-1227q1 -95 -34.5 -164.5t-102.5 -107t-162 -37.5h-28v122h27q80 0 125.5 49t45.5 138v1227zM378 1245l-174 210l-173 -210h-128v10l247 294h109l245 -294v-10h-126z" />
    <glyph glyph-name="uni0136" unicode="&#x136;" horiz-adv-x="1247" 
d="M165 0v1490h136v-803h14l728 803h177l-635 -689l632 -801h-166l-551 706l-199 -223v-483h-136zM471 -494l86 376h134l-119 -376h-101z" />
    <glyph glyph-name="uni0137" unicode="&#x137;" horiz-adv-x="1011" 
d="M257 422l-2 170h30l523 526h163l-516 -519l-12 -2zM139 0v1490h129v-1490h-129zM834 0l-453 573l93 90l527 -663h-167zM376 -494l86 376h134l-119 -376h-101z" />
    <glyph glyph-name="kgreenlandic" unicode="&#x138;" horiz-adv-x="1181" 
d="M297 1118v-1118h-150v1118h150zM1025 1118l-556 -619h-227l-21 130h181l441 489h182zM837 0l-466 508l103 98l555 -606h-192z" />
    <glyph glyph-name="Lacute" unicode="&#x139;" horiz-adv-x="1088" 
d="M165 0v1490h136v-1368h711v-122h-847zM169 1637l161 288h149l-200 -288h-110z" />
    <glyph glyph-name="lacute" unicode="&#x13a;" horiz-adv-x="407" 
d="M268 1490v-1490h-129v1490h129zM139 1637l161 288h149l-200 -288h-110z" />
    <glyph glyph-name="uni013B" unicode="&#x13b;" horiz-adv-x="1088" 
d="M165 0v1490h136v-1368h711v-122h-847zM433 -494l86 376h134l-119 -376h-101z" />
    <glyph glyph-name="uni013C" unicode="&#x13c;" horiz-adv-x="407" 
d="M268 1490v-1490h-129v1490h129zM48 -494l86 376h134l-119 -376h-101z" />
    <glyph glyph-name="Lcaron" unicode="&#x13d;" horiz-adv-x="1085" 
d="M165 0v1490h136v-1368h711v-122h-847zM576 1182v378h134l-39 -378h-95z" />
    <glyph glyph-name="lcaron" unicode="&#x13e;" horiz-adv-x="499" 
d="M268 1490v-1490h-129v1490h129zM410 1182v378h134l-39 -378h-95z" />
    <glyph glyph-name="Ldot" unicode="&#x13f;" horiz-adv-x="1077" 
d="M163 0v1490h136v-1368h711v-122h-847zM658 724q-40 0 -68.5 27.5t-28.5 66.5q0 38 28.5 65t68.5 27t68 -27t28 -65q0 -39 -28 -66.5t-68 -27.5z" />
    <glyph glyph-name="ldot" unicode="&#x140;" horiz-adv-x="516" 
d="M265 1490v-1490h-129v1490h129zM459 725q-40 0 -68.5 27.5t-28.5 66.5q0 38 28.5 65t68.5 27t68 -27t28 -65q0 -39 -28 -66.5t-68 -27.5z" />
    <glyph glyph-name="Lslash" unicode="&#x141;" horiz-adv-x="1072" 
d="M559 907v-102l-562 -187v104zM144 0v1490h136v-1368h711v-122h-847z" />
    <glyph glyph-name="lslash" unicode="&#x142;" horiz-adv-x="395" 
d="M427 912v-103l-459 -184v102zM261 1490v-1490h-128v1490h128z" />
    <glyph glyph-name="Nacute" unicode="&#x143;" horiz-adv-x="1493" 
d="M1327 1490v-1490h-134l-879 1247h-13v-1247h-136v1490h132l884 -1249h11v1249h135zM681 1637l161 288h149l-200 -288h-110z" />
    <glyph glyph-name="nacute" unicode="&#x144;" horiz-adv-x="1124" 
d="M268 698v-698h-129v1118h125v-177h13q39 87 122 139t206 52q113 0 198.5 -47t133.5 -138t48 -224v-723h-129v715q0 137 -77 218t-206 81q-88 0 -157 -38.5t-108.5 -109t-39.5 -168.5zM499 1265l161 288h149l-200 -288h-110z" />
    <glyph glyph-name="uni0145" unicode="&#x145;" horiz-adv-x="1493" 
d="M1327 1490v-1490h-134l-879 1247h-13v-1247h-136v1490h132l884 -1249h11v1249h135zM590 -494l86 376h134l-119 -376h-101z" />
    <glyph glyph-name="uni0146" unicode="&#x146;" horiz-adv-x="1124" 
d="M268 698v-698h-129v1118h125v-177h13q39 87 122 139t206 52q113 0 198.5 -47t133.5 -138t48 -224v-723h-129v715q0 137 -77 218t-206 81q-88 0 -157 -38.5t-108.5 -109t-39.5 -168.5zM407 -494l86 376h134l-119 -376h-101z" />
    <glyph glyph-name="Ncaron" unicode="&#x147;" horiz-adv-x="1493" 
d="M1327 1490v-1490h-134l-879 1247h-13v-1247h-136v1490h132l884 -1249h11v1249h135zM571 1933l174 -211l173 211h128v-10l-247 -294h-109l-245 294v10h126z" />
    <glyph glyph-name="ncaron" unicode="&#x148;" horiz-adv-x="1124" 
d="M268 698v-698h-129v1118h125v-177h13q39 87 122 139t206 52q113 0 198.5 -47t133.5 -138t48 -224v-723h-129v715q0 137 -77 218t-206 81q-88 0 -157 -38.5t-108.5 -109t-39.5 -168.5zM389 1561l174 -211l173 211h128v-10l-247 -294h-109l-245 294v10h126z" />
    <glyph glyph-name="Eng" unicode="&#x14a;" horiz-adv-x="1493" 
d="M1193 0h133v-136q0 -90 -34.5 -153t-94.5 -95.5t-136 -32.5q-22 -1 -44.5 0t-39.5 7v114q11 -2 25 -4t30 -2q72 0 117 38t44 131v133zM1327 1490v-1490h-134l-879 1247h-13v-1247h-136v1490h132l884 -1249h11v1249h135z" />
    <glyph glyph-name="eng" unicode="&#x14b;" horiz-adv-x="1124" 
d="M855 0h130v-137q-1 -136 -74.5 -209t-186.5 -72q-24 -1 -48 0.5t-41 8.5v112q12 -3 27.5 -5.5t31.5 -1.5q73 -1 116.5 37t44.5 130v137zM268 698v-698h-129v1118h125v-177h13q39 87 122 139t206 52q113 0 198.5 -47t133.5 -138t48 -224v-723h-129v715q0 137 -77 218
t-206 81q-88 0 -157 -38.5t-108.5 -109t-39.5 -168.5z" />
    <glyph glyph-name="Omacron" unicode="&#x14c;" horiz-adv-x="1486" 
d="M744 -20q-188 0 -334 94t-228.5 266t-82.5 404q0 233 83 405.5t228.5 266.5t333.5 94t333 -94t227.5 -266.5t82.5 -405.5q0 -232 -82.5 -404t-227.5 -266t-333 -94zM744 107q146 0 262 76t183 218.5t67 342.5q0 201 -67 344t-183 219t-262 76t-262.5 -76t-184 -219
t-67.5 -344q0 -199 67 -342t183.5 -219t263.5 -76zM1048 1829v-113h-609v113h609z" />
    <glyph glyph-name="omacron" unicode="&#x14d;" horiz-adv-x="1146" 
d="M573 -24q-145 0 -256 73.5t-173.5 204t-62.5 299.5q0 172 62.5 302.5t173.5 204t256 73.5t255.5 -73.5t173.5 -204t63 -302.5q0 -169 -62.5 -299.5t-173.5 -204t-256 -73.5zM573 94q117 0 197.5 62.5t122.5 167.5t42 229q0 126 -42 231t-123 168t-197 63t-196.5 -63.5
t-123 -168t-42.5 -230.5q0 -124 42 -229t123 -167.5t197 -62.5zM877 1457v-113h-609v113h609z" />
    <glyph glyph-name="Obreve" unicode="&#x14e;" horiz-adv-x="1486" 
d="M744 -20q-188 0 -334 94t-228.5 266t-82.5 404q0 233 83 405.5t228.5 266.5t333.5 94t333 -94t227.5 -266.5t82.5 -405.5q0 -232 -82.5 -404t-227.5 -266t-333 -94zM744 107q146 0 262 76t183 218.5t67 342.5q0 201 -67 344t-183 219t-262 76t-262.5 -76t-184 -219
t-67.5 -344q0 -199 67 -342t183.5 -219t263.5 -76zM744 1632q-114 0 -184.5 65.5t-70.5 170.5h122q0 -62 36.5 -100t96.5 -38q61 0 97 38t36 100h122q0 -105 -70.5 -170.5t-184.5 -65.5z" />
    <glyph glyph-name="obreve" unicode="&#x14f;" horiz-adv-x="1146" 
d="M573 -24q-145 0 -256 73.5t-173.5 204t-62.5 299.5q0 172 62.5 302.5t173.5 204t256 73.5t255.5 -73.5t173.5 -204t63 -302.5q0 -169 -62.5 -299.5t-173.5 -204t-256 -73.5zM573 94q117 0 197.5 62.5t122.5 167.5t42 229q0 126 -42 231t-123 168t-197 63t-196.5 -63.5
t-123 -168t-42.5 -230.5q0 -124 42 -229t123 -167.5t197 -62.5zM572 1260q-114 0 -184.5 65.5t-70.5 170.5h122q0 -62 36.5 -100t96.5 -38q61 0 97 38t36 100h122q0 -105 -70.5 -170.5t-184.5 -65.5z" />
    <glyph glyph-name="Ohungarumlaut" unicode="&#x150;" horiz-adv-x="1486" 
d="M744 -20q-188 0 -334 94t-228.5 266t-82.5 404q0 233 83 405.5t228.5 266.5t333.5 94t333 -94t227.5 -266.5t82.5 -405.5q0 -232 -82.5 -404t-227.5 -266t-333 -94zM744 107q146 0 262 76t183 218.5t67 342.5q0 201 -67 344t-183 219t-262 76t-262.5 -76t-184 -219
t-67.5 -344q0 -199 67 -342t183.5 -219t263.5 -76zM786 1610l236 310h148l-269 -310h-115zM515 1610l175 310h147l-216 -310h-106z" />
    <glyph glyph-name="ohungarumlaut" unicode="&#x151;" horiz-adv-x="1146" 
d="M573 -24q-145 0 -256 73.5t-173.5 204t-62.5 299.5q0 172 62.5 302.5t173.5 204t256 73.5t255.5 -73.5t173.5 -204t63 -302.5q0 -169 -62.5 -299.5t-173.5 -204t-256 -73.5zM573 94q117 0 197.5 62.5t122.5 167.5t42 229q0 126 -42 231t-123 168t-197 63t-196.5 -63.5
t-123 -168t-42.5 -230.5q0 -124 42 -229t123 -167.5t197 -62.5zM615 1238l236 310h148l-269 -310h-115zM344 1238l175 310h147l-216 -310h-106z" />
    <glyph glyph-name="OE" unicode="&#x152;" horiz-adv-x="1925" 
d="M743 0q-192 0 -337.5 93.5t-226 261.5t-80.5 389q0 224 81 391.5t226 261t337 93.5h253v-123h-253q-152 1 -267.5 -77t-180 -218t-65.5 -328q1 -185 65 -325t179.5 -218.5t268.5 -78.5h253v-122h-253zM940 0v1490h865v-123h-729v-556h683v-122h-683v-567h743v-122h-879z
" />
    <glyph glyph-name="oe" unicode="&#x153;" horiz-adv-x="1981" 
d="M573 -24q-145 0 -256 73.5t-173.5 204t-62.5 299.5q0 172 62.5 302.5t173.5 204t256 73.5t255.5 -73.5t173.5 -204t63 -302.5q0 -169 -62.5 -299.5t-173.5 -204t-256 -73.5zM573 94q117 0 197.5 62.5t122.5 167.5t42 229q0 126 -42 231t-123 168t-197 63t-196.5 -63.5
t-123 -168t-42.5 -230.5q0 -124 42 -229t123 -167.5t197 -62.5zM1453 -24q-156 0 -271 73.5t-177 203.5t-62 299t61.5 300t171.5 206t255 75q90 0 175 -33.5t153 -101.5t107 -172.5t39 -248.5v-58h-873v114h803l-59 -44q0 122 -41.5 218t-118.5 152t-185 56
q-107 0 -188 -56.5t-125.5 -150t-44.5 -204.5v-67q0 -134 46.5 -233.5t132 -154.5t201.5 -55q79 0 139 25t101 67.5t62 92.5l123 -41q-26 -70 -83.5 -129.5t-144 -96t-197.5 -36.5z" />
    <glyph glyph-name="Racute" unicode="&#x154;" horiz-adv-x="1229" 
d="M165 0v1490h482q159 0 265 -57.5t160.5 -158.5t54.5 -231t-54 -229.5t-160.5 -155.5t-263.5 -56h-409v124h405q117 0 194 39t115.5 110t38.5 168q0 98 -39 171t-116 113t-195 40h-342v-1367h-136zM1031 0l-362 673h154l366 -673h-158zM543 1637l161 288h149l-200 -288
h-110z" />
    <glyph glyph-name="racute" unicode="&#x155;" horiz-adv-x="666" 
d="M139 0v1118h125v-173h10q34 85 117.5 136.5t188.5 51.5h35.5t32.5 -1v-131q-8 1 -30 3.5t-49 2.5q-86 0 -154.5 -37t-107.5 -101.5t-39 -147.5v-721h-129zM328 1265l161 288h149l-200 -288h-110z" />
    <glyph glyph-name="uni0156" unicode="&#x156;" horiz-adv-x="1229" 
d="M165 0v1490h482q159 0 265 -57.5t160.5 -158.5t54.5 -231t-54 -229.5t-160.5 -155.5t-263.5 -56h-409v124h405q117 0 194 39t115.5 110t38.5 168q0 98 -39 171t-116 113t-195 40h-342v-1367h-136zM1031 0l-362 673h154l366 -673h-158zM476 -494l86 376h134l-119 -376
h-101z" />
    <glyph glyph-name="uni0157" unicode="&#x157;" horiz-adv-x="666" 
d="M139 0v1118h125v-173h10q34 85 117.5 136.5t188.5 51.5h35.5t32.5 -1v-131q-8 1 -30 3.5t-49 2.5q-86 0 -154.5 -37t-107.5 -101.5t-39 -147.5v-721h-129zM48 -494l86 376h134l-119 -376h-101z" />
    <glyph glyph-name="Rcaron" unicode="&#x158;" horiz-adv-x="1229" 
d="M165 0v1490h482q159 0 265 -57.5t160.5 -158.5t54.5 -231t-54 -229.5t-160.5 -155.5t-263.5 -56h-409v124h405q117 0 194 39t115.5 110t38.5 168q0 98 -39 171t-116 113t-195 40h-342v-1367h-136zM1031 0l-362 673h154l366 -673h-158zM433 1933l174 -211l173 211h128v-10
l-247 -294h-109l-245 294v10h126z" />
    <glyph glyph-name="rcaron" unicode="&#x159;" horiz-adv-x="666" 
d="M139 0v1118h125v-173h10q34 85 117.5 136.5t188.5 51.5h35.5t32.5 -1v-131q-8 1 -30 3.5t-49 2.5q-86 0 -154.5 -37t-107.5 -101.5t-39 -147.5v-721h-129zM218 1561l174 -211l173 211h128v-10l-247 -294h-109l-245 294v10h126z" />
    <glyph glyph-name="Sacute" unicode="&#x15a;" horiz-adv-x="1225" 
d="M610 -25q-152 0 -264 50t-176 140t-72 208h139q8 -89 58.5 -150t132.5 -92.5t182 -31.5q112 0 199 37.5t136.5 104.5t49.5 157q0 76 -39.5 127t-109.5 86t-163 62l-177 52q-175 51 -272 144t-97 236q0 120 64.5 211.5t174.5 143t247 51.5q139 0 246 -51.5t170 -140
t68 -201.5h-133q-12 124 -109 197.5t-246 73.5q-103 0 -182 -36t-123.5 -99t-44.5 -143q0 -78 44 -130.5t112 -85.5t140 -55l157 -45q71 -21 142 -51.5t130.5 -76.5t96 -112.5t36.5 -159.5q0 -118 -62 -213.5t-177.5 -151t-277.5 -55.5zM548 1637l161 288h149l-200 -288
h-110z" />
    <glyph glyph-name="sacute" unicode="&#x15b;" horiz-adv-x="986" 
d="M889 871l-118 -32q-26 75 -86.5 127.5t-173.5 52.5t-186 -54.5t-73 -139.5q0 -71 49.5 -116.5t153.5 -71.5l169 -41q140 -35 210.5 -108.5t70.5 -185.5q0 -94 -52.5 -168t-145.5 -116t-216 -42q-164 0 -270 74.5t-136 213.5l124 30q23 -99 94 -150t186 -51q128 0 206 58
t78 144q0 138 -183 183l-182 44q-146 35 -216 110t-70 187q0 92 50.5 163t138.5 111t200 40q154 0 246 -70.5t132 -191.5zM445 1265l161 288h149l-200 -288h-110z" />
    <glyph glyph-name="Scircumflex" unicode="&#x15c;" horiz-adv-x="1225" 
d="M610 -25q-152 0 -264 50t-176 140t-72 208h139q8 -89 58.5 -150t132.5 -92.5t182 -31.5q112 0 199 37.5t136.5 104.5t49.5 157q0 76 -39.5 127t-109.5 86t-163 62l-177 52q-175 51 -272 144t-97 236q0 120 64.5 211.5t174.5 143t247 51.5q139 0 246 -51.5t170 -140
t68 -201.5h-133q-12 124 -109 197.5t-246 73.5q-103 0 -182 -36t-123.5 -99t-44.5 -143q0 -78 44 -130.5t112 -85.5t140 -55l157 -45q71 -21 142 -51.5t130.5 -76.5t96 -112.5t36.5 -159.5q0 -118 -62 -213.5t-177.5 -151t-277.5 -55.5zM785 1617l-174 210l-172 -210h-128
v10l246 294h110l244 -294v-10h-126z" />
    <glyph glyph-name="scircumflex" unicode="&#x15d;" horiz-adv-x="986" 
d="M889 871l-118 -32q-26 75 -86.5 127.5t-173.5 52.5t-186 -54.5t-73 -139.5q0 -71 49.5 -116.5t153.5 -71.5l169 -41q140 -35 210.5 -108.5t70.5 -185.5q0 -94 -52.5 -168t-145.5 -116t-216 -42q-164 0 -270 74.5t-136 213.5l124 30q23 -99 94 -150t186 -51q128 0 206 58
t78 144q0 138 -183 183l-182 44q-146 35 -216 110t-70 187q0 92 50.5 163t138.5 111t200 40q154 0 246 -70.5t132 -191.5zM682 1245l-174 210l-173 -210h-128v10l247 294h109l245 -294v-10h-126z" />
    <glyph glyph-name="Scedilla" unicode="&#x15e;" horiz-adv-x="1225" 
d="M610 -25q-152 0 -264 50t-176 140t-72 208h139q8 -89 58.5 -150t132.5 -92.5t182 -31.5q112 0 199 37.5t136.5 104.5t49.5 157q0 76 -39.5 127t-109.5 86t-163 62l-177 52q-175 51 -272 144t-97 236q0 120 64.5 211.5t174.5 143t247 51.5q139 0 246 -51.5t170 -140
t68 -201.5h-133q-12 124 -109 197.5t-246 73.5q-103 0 -182 -36t-123.5 -99t-44.5 -143q0 -78 44 -130.5t112 -85.5t140 -55l157 -45q71 -21 142 -51.5t130.5 -76.5t96 -112.5t36.5 -159.5q0 -118 -62 -213.5t-177.5 -151t-277.5 -55.5zM554 6h111l-12 -58q63 -10 107.5 -51
t44.5 -120q0 -88 -68.5 -140t-200.5 -53l-5 92q73 0 114.5 23t41.5 74q0 54 -38.5 77t-120.5 27z" />
    <glyph glyph-name="scedilla" unicode="&#x15f;" horiz-adv-x="986" 
d="M889 871l-118 -32q-26 75 -86.5 127.5t-173.5 52.5t-186 -54.5t-73 -139.5q0 -71 49.5 -116.5t153.5 -71.5l169 -41q140 -35 210.5 -108.5t70.5 -185.5q0 -94 -52.5 -168t-145.5 -116t-216 -42q-164 0 -270 74.5t-136 213.5l124 30q23 -99 94 -150t186 -51q128 0 206 58
t78 144q0 138 -183 183l-182 44q-146 35 -216 110t-70 187q0 92 50.5 163t138.5 111t200 40q154 0 246 -70.5t132 -191.5zM442 6h111l-12 -58q63 -10 107.5 -51t44.5 -120q0 -88 -68.5 -140t-200.5 -53l-5 92q73 0 114.5 23t41.5 74q0 54 -38.5 77t-120.5 27z" />
    <glyph glyph-name="Scaron" unicode="&#x160;" horiz-adv-x="1225" 
d="M610 -25q-152 0 -264 50t-176 140t-72 208h139q8 -89 58.5 -150t132.5 -92.5t182 -31.5q112 0 199 37.5t136.5 104.5t49.5 157q0 76 -39.5 127t-109.5 86t-163 62l-177 52q-175 51 -272 144t-97 236q0 120 64.5 211.5t174.5 143t247 51.5q139 0 246 -51.5t170 -140
t68 -201.5h-133q-12 124 -109 197.5t-246 73.5q-103 0 -182 -36t-123.5 -99t-44.5 -143q0 -78 44 -130.5t112 -85.5t140 -55l157 -45q71 -21 142 -51.5t130.5 -76.5t96 -112.5t36.5 -159.5q0 -118 -62 -213.5t-177.5 -151t-277.5 -55.5zM438 1933l174 -211l173 211h128v-10
l-247 -294h-109l-245 294v10h126z" />
    <glyph glyph-name="scaron" unicode="&#x161;" horiz-adv-x="986" 
d="M889 871l-118 -32q-26 75 -86.5 127.5t-173.5 52.5t-186 -54.5t-73 -139.5q0 -71 49.5 -116.5t153.5 -71.5l169 -41q140 -35 210.5 -108.5t70.5 -185.5q0 -94 -52.5 -168t-145.5 -116t-216 -42q-164 0 -270 74.5t-136 213.5l124 30q23 -99 94 -150t186 -51q128 0 206 58
t78 144q0 138 -183 183l-182 44q-146 35 -216 110t-70 187q0 92 50.5 163t138.5 111t200 40q154 0 246 -70.5t132 -191.5zM335 1561l174 -211l173 211h128v-10l-247 -294h-109l-245 294v10h126z" />
    <glyph glyph-name="uni021A" unicode="&#x162;" horiz-adv-x="1231" 
d="M75 1367v123h1081v-123h-472v-1367h-135v1367h-474zM572 4h111l-12 -58q63 -10 107.5 -51t44.5 -120q0 -88 -68.5 -140t-200.5 -53l-5 92q73 0 114.5 23t41.5 74q0 54 -38.5 77t-120.5 27z" />
    <glyph glyph-name="uni0163" unicode="&#x163;" horiz-adv-x="669" 
d="M578 1118v-113h-533v113h533zM212 1384h129v-1092q0 -91 45 -136.5t125 -45.5q18 0 36.5 2.5t39.5 7.5l28 -117q-23 -9 -53 -14t-62 -5q-124 0 -206 76.5t-82 200.5v1123zM396 6h111l-12 -58q63 -10 107.5 -51t44.5 -120q0 -88 -68.5 -140t-200.5 -53l-5 92
q73 0 114.5 23t41.5 74q0 54 -38.5 77t-120.5 27z" />
    <glyph glyph-name="Tcaron" unicode="&#x164;" horiz-adv-x="1231" 
d="M75 1367v123h1081v-123h-472v-1367h-135v1367h-474zM442 1933l174 -211l173 211h128v-10l-247 -294h-109l-245 294v10h126z" />
    <glyph glyph-name="tcaron" unicode="&#x165;" horiz-adv-x="669" 
d="M578 1118v-113h-533v113h533zM212 1384h129v-1092q0 -91 45 -136.5t125 -45.5q18 0 36.5 2.5t39.5 7.5l28 -117q-23 -9 -53 -14t-62 -5q-124 0 -206 76.5t-82 200.5v1123zM472 1254v378h134l-39 -378h-95z" />
    <glyph glyph-name="Tbar" unicode="&#x166;" horiz-adv-x="1231" 
d="M75 1367v123h1081v-123h-472v-1367h-135v1367h-474zM311 715v104h611v-104h-611z" />
    <glyph glyph-name="tbar" unicode="&#x167;" horiz-adv-x="676" 
d="M45 640v105h547v-105h-547zM219 1384h128v-1092q0 -91 45 -136.5t125 -45.5q19 0 37 2.5t39 7.5l29 -117q-23 -9 -53 -14t-62 -5q-125 0 -206.5 76.5t-81.5 200.5v1123zM585 1118v-113h-533v113h533z" />
    <glyph glyph-name="Utilde" unicode="&#x168;" horiz-adv-x="1460" 
d="M1159 1490h136v-986q0 -152 -71 -271.5t-198.5 -188.5t-294.5 -69q-168 0 -295.5 69t-199 188.5t-71.5 271.5v986h136v-977q0 -118 53.5 -211t150 -146t226.5 -53q129 0 225 53t149.5 146t53.5 211v977zM864 1658q-39 0 -73.5 14t-66 33t-60 33t-56.5 14
q-36 0 -57.5 -27.5t-24.5 -62.5l-98 2q5 81 48.5 134t120.5 53q42 0 76 -14t63.5 -33.5t57.5 -34t58 -14.5q34 1 56 24t30 68l94 -4q-7 -84 -52.5 -134.5t-115.5 -50.5z" />
    <glyph glyph-name="utilde" unicode="&#x169;" horiz-adv-x="1117" 
d="M849 426v692h129v-1118h-129v186h-10q-40 -86 -125 -143.5t-208 -56.5q-107 0 -189.5 46.5t-130 138t-47.5 223.5v724h129v-717q0 -130 77.5 -210t197.5 -79q76 0 146 36t115 106t45 172zM693 1286q-39 0 -73.5 14t-66 33t-60 33t-56.5 14q-36 0 -57.5 -27.5t-24.5 -62.5
l-98 2q5 81 48.5 134t120.5 53q42 0 76 -14t63.5 -33.5t57.5 -34t58 -14.5q34 1 56 24t30 68l94 -4q-7 -84 -52.5 -134.5t-115.5 -50.5z" />
    <glyph glyph-name="Umacron" unicode="&#x16a;" horiz-adv-x="1460" 
d="M1159 1490h136v-986q0 -152 -71 -271.5t-198.5 -188.5t-294.5 -69q-168 0 -295.5 69t-199 188.5t-71.5 271.5v986h136v-977q0 -118 53.5 -211t150 -146t226.5 -53q129 0 225 53t149.5 146t53.5 211v977zM1035 1829v-113h-609v113h609z" />
    <glyph glyph-name="umacron" unicode="&#x16b;" horiz-adv-x="1117" 
d="M849 426v692h129v-1118h-129v186h-10q-40 -86 -125 -143.5t-208 -56.5q-107 0 -189.5 46.5t-130 138t-47.5 223.5v724h129v-717q0 -130 77.5 -210t197.5 -79q76 0 146 36t115 106t45 172zM864 1457v-113h-609v113h609z" />
    <glyph glyph-name="Ubreve" unicode="&#x16c;" horiz-adv-x="1460" 
d="M1159 1490h136v-986q0 -152 -71 -271.5t-198.5 -188.5t-294.5 -69q-168 0 -295.5 69t-199 188.5t-71.5 271.5v986h136v-977q0 -118 53.5 -211t150 -146t226.5 -53q129 0 225 53t149.5 146t53.5 211v977zM730 1632q-114 0 -184.5 65.5t-70.5 170.5h122q0 -62 36.5 -100
t96.5 -38q61 0 97 38t36 100h122q0 -105 -70.5 -170.5t-184.5 -65.5z" />
    <glyph glyph-name="ubreve" unicode="&#x16d;" horiz-adv-x="1117" 
d="M849 426v692h129v-1118h-129v186h-10q-40 -86 -125 -143.5t-208 -56.5q-107 0 -189.5 46.5t-130 138t-47.5 223.5v724h129v-717q0 -130 77.5 -210t197.5 -79q76 0 146 36t115 106t45 172zM559 1260q-114 0 -184.5 65.5t-70.5 170.5h122q0 -62 36.5 -100t96.5 -38
q61 0 97 38t36 100h122q0 -105 -70.5 -170.5t-184.5 -65.5z" />
    <glyph glyph-name="Uring" unicode="&#x16e;" horiz-adv-x="1460" 
d="M1159 1490h136v-986q0 -152 -71 -271.5t-198.5 -188.5t-294.5 -69q-168 0 -295.5 69t-199 188.5t-71.5 271.5v986h136v-977q0 -118 53.5 -211t150 -146t226.5 -53q129 0 225 53t149.5 146t53.5 211v977zM731 1582q-81 -1 -138.5 56.5t-57.5 138.5q0 82 57.5 139t138.5 58
q81 -1 138.5 -58t56.5 -139q1 -81 -56.5 -138.5t-138.5 -56.5zM731 1667q46 0 78 32.5t31 77.5q1 46 -31 78.5t-78 32.5q-47 0 -78.5 -32.5t-30.5 -78.5q-1 -46 30.5 -78t78.5 -32z" />
    <glyph glyph-name="uring" unicode="&#x16f;" horiz-adv-x="1117" 
d="M849 426v692h129v-1118h-129v186h-10q-40 -86 -125 -143.5t-208 -56.5q-107 0 -189.5 46.5t-130 138t-47.5 223.5v724h129v-717q0 -130 77.5 -210t197.5 -79q76 0 146 36t115 106t45 172zM560 1247q-65 0 -117.5 29.5t-83 79t-31.5 111.5q1 63 31.5 114t83 81.5
t117.5 30.5t117 -30.5t82.5 -81.5t30.5 -114q0 -62 -30.5 -111.5t-82.5 -79t-117 -29.5zM560 1336q57 0 95 40t38 91q0 53 -38 94t-95 41q-58 0 -95.5 -41t-37.5 -94q0 -51 38 -91t95 -40z" />
    <glyph glyph-name="Uhungarumlaut" unicode="&#x170;" horiz-adv-x="1460" 
d="M1159 1490h136v-986q0 -152 -71 -271.5t-198.5 -188.5t-294.5 -69q-168 0 -295.5 69t-199 188.5t-71.5 271.5v986h136v-977q0 -118 53.5 -211t150 -146t226.5 -53q129 0 225 53t149.5 146t53.5 211v977zM773 1610l236 310h148l-269 -310h-115zM502 1610l175 310h147
l-216 -310h-106z" />
    <glyph glyph-name="uhungarumlaut" unicode="&#x171;" horiz-adv-x="1117" 
d="M849 426v692h129v-1118h-129v186h-10q-40 -86 -125 -143.5t-208 -56.5q-107 0 -189.5 46.5t-130 138t-47.5 223.5v724h129v-717q0 -130 77.5 -210t197.5 -79q76 0 146 36t115 106t45 172zM601 1238l236 310h148l-269 -310h-115zM330 1238l175 310h147l-216 -310h-106z
" />
    <glyph glyph-name="Uogonek" unicode="&#x172;" horiz-adv-x="1460" 
d="M1159 1490h136v-986q0 -152 -71 -271.5t-198.5 -188.5t-294.5 -69q-168 0 -295.5 69t-199 188.5t-71.5 271.5v986h136v-977q0 -118 53.5 -211t150 -146t226.5 -53q129 0 225 53t149.5 146t53.5 211v977zM744 -437q-85 0 -140 47t-54 138q0 53 24 104t74.5 98.5
t130.5 91.5l67 -41q-68 -57 -116.5 -114.5t-48.5 -124.5q0 -42 22.5 -64.5t70.5 -21.5q32 -1 56.5 8t43.5 22l17 -98q-26 -18 -62.5 -31.5t-84.5 -13.5z" />
    <glyph glyph-name="uogonek" unicode="&#x173;" horiz-adv-x="1117" 
d="M849 426v692h129v-1118h-129v186h-10q-40 -86 -125 -143.5t-208 -56.5q-107 0 -189.5 46.5t-130 138t-47.5 223.5v724h129v-717q0 -130 77.5 -210t197.5 -79q76 0 146 36t115 106t45 172zM876 -438q-85 0 -140 47t-54 138q0 53 24 104t74.5 98.5t130.5 91.5l67 -41
q-68 -57 -116.5 -114.5t-48.5 -124.5q0 -42 22.5 -64.5t70.5 -21.5q32 -1 56.5 8t43.5 22l17 -98q-26 -18 -62.5 -31.5t-84.5 -13.5z" />
    <glyph glyph-name="Wcircumflex" unicode="&#x174;" horiz-adv-x="1847" 
d="M427 0l-407 1490h138l338 -1282h11l338 1282h158l336 -1282h13l337 1282h138l-408 -1490h-146l-344 1263h-10l-345 -1263h-147zM1097 1617l-174 210l-172 -210h-128v10l246 294h110l244 -294v-10h-126z" />
    <glyph glyph-name="wcircumflex" unicode="&#x175;" horiz-adv-x="1585" 
d="M387 0l-338 1118h137l265 -922h10l264 922h138l260 -921h10l266 921h136l-337 -1118h-133l-266 915h-13l-266 -915h-133zM965 1245l-174 210l-172 -210h-128v10l246 294h110l244 -294v-10h-126z" />
    <glyph glyph-name="Ycircumflex" unicode="&#x176;" horiz-adv-x="1263" 
d="M26 1490h157l442 -707h14l440 707h158l-538 -845v-645h-136v645zM804 1617l-174 210l-173 -210h-128v10l247 294h109l245 -294v-10h-126z" />
    <glyph glyph-name="ycircumflex" unicode="&#x177;" horiz-adv-x="1053" 
d="M229 -418q-38 -1 -71.5 6t-53.5 17l35 113l15 -4q92 -27 156.5 6.5t108.5 154.5l41 114l-411 1129h141l331 -948h10l332 948h140l-472 -1294q-30 -81 -73.5 -135t-100.5 -80.5t-128 -26.5zM700 1245l-174 210l-173 -210h-128v10l247 294h109l245 -294v-10h-126z" />
    <glyph glyph-name="Ydieresis" unicode="&#x178;" horiz-adv-x="1263" 
d="M26 1490h157l442 -707h14l440 707h158l-538 -845v-645h-136v645zM445 1681q-37 0 -65.5 28.5t-28.5 65.5q0 39 28.5 65.5t65.5 26.5q39 0 65.5 -26.5t26.5 -65.5q0 -37 -26.5 -65.5t-65.5 -28.5zM816 1681q-37 0 -65 28.5t-28 65.5q0 39 28 65.5t65 26.5q40 0 67 -26.5
t26 -65.5q1 -37 -26 -65.5t-67 -28.5z" />
    <glyph glyph-name="Zacute" unicode="&#x179;" horiz-adv-x="1203" 
d="M106 0v102l828 1265h-831v123h994v-104l-828 -1264h834v-122h-997zM537 1637l161 288h149l-200 -288h-110z" />
    <glyph glyph-name="zacute" unicode="&#x17a;" horiz-adv-x="1022" 
d="M105 0v102l645 883v10h-618v123h784v-108l-633 -878v-10h656v-122h-834zM445 1265l161 288h149l-200 -288h-110z" />
    <glyph glyph-name="Zdotaccent" unicode="&#x17b;" horiz-adv-x="1203" 
d="M106 0v102l828 1265h-831v123h994v-104l-828 -1264h834v-122h-997zM602 1681q-40 0 -68.5 27.5t-28.5 66.5q0 38 28.5 65t68.5 27t68 -27t28 -65q0 -39 -28 -66.5t-68 -27.5z" />
    <glyph glyph-name="zdotaccent" unicode="&#x17c;" horiz-adv-x="1022" 
d="M105 0v102l645 883v10h-618v123h784v-108l-633 -878v-10h656v-122h-834zM510 1309q-40 0 -68.5 27.5t-28.5 66.5q0 38 28.5 65t68.5 27t68 -27t28 -65q0 -39 -28 -66.5t-68 -27.5z" />
    <glyph glyph-name="Zcaron" unicode="&#x17d;" horiz-adv-x="1203" 
d="M106 0v102l828 1265h-831v123h994v-104l-828 -1264h834v-122h-997zM427 1933l174 -211l173 211h128v-10l-247 -294h-109l-245 294v10h126z" />
    <glyph glyph-name="zcaron" unicode="&#x17e;" horiz-adv-x="1022" 
d="M105 0v102l645 883v10h-618v123h784v-108l-633 -878v-10h656v-122h-834zM335 1561l174 -211l173 211h128v-10l-247 -294h-109l-245 294v10h126z" />
    <glyph glyph-name="longs" unicode="&#x17f;" horiz-adv-x="449" 
d="M154 0h-149v1229q0 158 87 243t231 85q30 0 61.5 -5t61.5 -12l-19 -113q-19 4 -39 6t-42 2q-89 0 -140.5 -54t-51.5 -152v-1229z" />
    <glyph glyph-name="bbar" unicode="&#x180;" horiz-adv-x="1163" 
d="M623 -24q-101 0 -169.5 36.5t-110 90.5t-64.5 105h-15v-208h-125v1490h129v-586h11q23 50 64 103t109 89.5t170 36.5q138 0 241.5 -72.5t161.5 -202.5t58 -302q0 -173 -57.5 -304t-161 -203.5t-241.5 -72.5zM609 94q110 0 187 62t117 167t40 234t-40 232.5t-116 164.5
t-188 61q-110 0 -186 -58.5t-116 -161.5t-40 -238q0 -134 40 -238.5t116.5 -164.5t185.5 -60zM-37 1251v104h611v-104h-611z" />
    <glyph glyph-name="uni0181" unicode="&#x181;" horiz-adv-x="1536" 
d="M481 1367h-139q-57 1 -86.5 -22.5t-40.5 -65t-11 -94.5v-46h-129v82q1 116 69 192t195 77h142v-123zM440 0v1490h503q145 0 242 -51t146 -139t49 -200q0 -93 -31.5 -159t-85 -107t-120.5 -59v-12q73 -5 140.5 -50.5t111 -127t43.5 -194.5t-50 -201t-153.5 -139
t-263.5 -51h-531zM576 122h395q172 0 254.5 77t82.5 192q0 85 -41 154.5t-115.5 110.5t-174.5 41h-401v-575zM576 816h380q88 0 154.5 37t103 101t36.5 146q0 118 -77 192.5t-230 74.5h-367v-551z" />
    <glyph glyph-name="uni0182" unicode="&#x182;" horiz-adv-x="1274" 
d="M165 0v1490h870v-123h-734v-532h423q149 0 253.5 -50t160 -141.5t55.5 -215.5q0 -128 -55 -224.5t-159.5 -150t-254.5 -53.5h-559zM301 121h423q107 0 181.5 41t114 112t39.5 157q0 120 -88.5 201t-246.5 81h-423v-592z" />
    <glyph glyph-name="uni0183" unicode="&#x183;" horiz-adv-x="1163" 
d="M206 1377l-67 113h785v-113h-718zM623 -24q-101 0 -169.5 36.5t-110 90.5t-64.5 105h-15v-208h-125v1490h129v-586h11q23 50 64 103t109 89.5t170 36.5q138 0 241.5 -72.5t161.5 -202.5t58 -302q0 -173 -57.5 -304t-161 -203.5t-241.5 -72.5zM609 94q110 0 187 62
t117 167t40 234t-40 232.5t-116 164.5t-188 61q-110 0 -186 -58.5t-116 -161.5t-40 -238q0 -134 40 -238.5t116.5 -164.5t185.5 -60z" />
    <glyph glyph-name="uni0184" unicode="&#x184;" horiz-adv-x="1342" 
d="M469 1490v-123h-482v123h482zM431 835h460q149 0 254 -50t160 -141.5t54 -215.5q1 -128 -54 -224.5t-159.5 -150t-254.5 -53.5h-558v1490h136v-1369h422q107 0 182 41t114 112t39 157q0 120 -88.5 201t-246.5 81h-460v122z" />
    <glyph glyph-name="uni0185" unicode="&#x185;" horiz-adv-x="1167" 
d="M186 1536h47v-488h-47l-143 214v59zM276 904h68q23 50 63.5 103t108 89.5t169.5 36.5q138 0 241.5 -72.5t162 -202.5t58.5 -302q0 -173 -58 -304t-161.5 -203t-240.5 -73q-101 1 -169.5 37.5t-109.5 90t-64 104.5h-68v696zM1017 557q0 129 -39.5 232.5t-116.5 164.5
t-190 61q-109 0 -185 -59t-116 -161.5t-40 -237.5q0 -134 40.5 -238.5t116.5 -164t184 -59.5q112 0 189 61.5t117 166.5t40 234zM203 1490h128v-645l-42 -279l38 -333v-233h-124v1490z" />
    <glyph glyph-name="uni0186" unicode="&#x186;" horiz-adv-x="1423" 
d="M679 1510q189 0 334.5 -94t228 -265.5t82.5 -404.5t-82.5 -405.5t-228 -266.5t-334.5 -94q-118 0 -218 37t-176.5 103t-126 155t-67.5 191h136q16 -77 55.5 -142t99 -114t135 -76t162.5 -27q142 0 258.5 73.5t186 216.5t69.5 349q0 207 -69.5 349t-186 215t-258.5 73
q-87 0 -162.5 -27t-135 -76t-99 -114t-55.5 -142h-136q18 103 67.5 191.5t126 154.5t176.5 103t218 37z" />
    <glyph glyph-name="uni0187" unicode="&#x187;" horiz-adv-x="1471" 
d="M1332 1024h-129v207q0 88 32 148.5t88.5 91.5t130.5 31q21 0 42 -0.5t37 -5.5v-113q-10 2 -23 3t-27 2q-46 0 -80 -15t-52 -49t-19 -93v-207zM743 -20q-187 0 -333 94t-228.5 265.5t-82.5 404.5q0 234 82.5 406t228.5 266t333 94q119 0 218.5 -37t176.5 -103
t126.5 -154.5t67.5 -191.5h-137q-15 77 -55 142t-99.5 114t-134.5 76t-163 27q-141 0 -257.5 -73.5t-186 -216t-69.5 -349.5t69.5 -349t186 -215t257.5 -73q88 0 163 27t134.5 76t99.5 114t55 142h137q-18 -103 -67.5 -191.5t-126.5 -154.5t-176.5 -103t-218.5 -37z" />
    <glyph glyph-name="uni0188" unicode="&#x188;" horiz-adv-x="1164" 
d="M1001 785h-130v154q0 90 32 150.5t90 91t134 30.5q22 0 46 -1t43 -7v-111q-13 2 -29.5 3.5t-30.5 1.5q-72 0 -113.5 -34.5t-41.5 -123.5v-154zM575 -24q-150 0 -261 75t-172 205.5t-61 296.5q0 169 62 299.5t173 205.5t257 75q112 0 203 -43.5t150.5 -122t74.5 -182.5
h-130q-14 63 -53.5 115t-101 83.5t-141.5 31.5q-107 0 -189 -58t-128.5 -161t-46.5 -239q0 -135 45 -240t127.5 -164t191.5 -59q111 0 192 63t104 169h130q-14 -101 -71.5 -180t-148 -124.5t-206.5 -45.5z" />
    <glyph glyph-name="Dbar1" unicode="&#x189;" horiz-adv-x="1405" 
d="M602 0h-361v122h353q192 0 321.5 75.5t194.5 216t65 335.5q0 192 -63.5 330.5t-187 213t-304.5 74.5h-384v123h392q213 0 365 -89t232.5 -255t80.5 -397q0 -235 -82.5 -402.5t-240 -257t-381.5 -89.5zM301 1490v-1490h-136v1490h136zM-72 711v104h611v-104h-611z" />
    <glyph glyph-name="uni018A" unicode="&#x18a;" horiz-adv-x="1692" 
d="M75 1139v82q1 116 69 192t195 77h146v-123h-143q-57 1 -86.5 -22.5t-40.5 -65t-11 -94.5v-46h-129zM889 0h-360v122h352q193 0 322 75.5t194 216t65 335.5q0 192 -63 330.5t-186.5 213t-305.5 74.5h-384v123h392q214 0 365.5 -89t232 -255t80.5 -397q0 -235 -82.5 -402.5
t-239.5 -257t-382 -89.5zM589 1490v-1490h-136v1490h136z" />
    <glyph glyph-name="uni018B" unicode="&#x18b;" horiz-adv-x="1201" 
d="M1113 0h-556q-149 0 -254 53.5t-160.5 150t-55.5 224.5q0 124 55.5 216.5t161 143.5t253.5 51h404v500h-714v130h866v-1469zM961 126v585h-404q-159 0 -237 -80t-79 -200q1 -86 35 -155t103.5 -109.5t177.5 -40.5h404z" />
    <glyph glyph-name="uni018C" unicode="&#x18c;" horiz-adv-x="1163" 
d="M957 1377h-718v113h785zM540 -24q-137 0 -240.5 72.5t-161 203.5t-57.5 304q0 172 58 302t161.5 202.5t240.5 72.5q103 0 170.5 -36.5t109 -89.5t63.5 -103h11v586h129v-1490h-125v208h-15q-22 -51 -64 -105t-110 -90.5t-170 -36.5zM555 94q109 0 185 60t116.5 164.5
t40.5 238.5q0 135 -40 238t-116.5 161.5t-185.5 58.5q-111 0 -188 -61t-116.5 -164.5t-39.5 -232.5t40 -234t116.5 -167t187.5 -62z" />
    <glyph glyph-name="deltaturn" unicode="&#x18d;" horiz-adv-x="991" 
d="M823 -376h-672v119l472 -1q-30 35 -75.5 81.5t-96.5 96.5t-97 92q-150 136 -237.5 266.5t-87.5 285.5v16q0 166 56.5 290.5t161 193.5t248.5 69q146 0 251 -69t161.5 -193.5t55.5 -290.5v-17q1 -127 -53 -232.5t-153.5 -171.5t-237.5 -78q-19 -2 -32.5 -1t-33.5 3
q45 -43 92.5 -87.5t95.5 -91.5t94 -94t88 -95v-91zM815 563v17q0 128 -35.5 225t-106.5 151.5t-178 54.5q-104 0 -175 -54.5t-107 -151.5t-36 -225v-16q0 -115 52.5 -207.5t135.5 -162.5q31 -9 59 -12.5t58 -4.5q109 1 183 53t112 139.5t38 193.5z" />
    <glyph glyph-name="Eturn" unicode="&#x18e;" horiz-adv-x="1151" 
d="M985 1490v-1490h-864v123h728v556h-682v122h682v567h-742v122h878z" />
    <glyph glyph-name="uni018F" unicode="&#x18f;" horiz-adv-x="1385" 
d="M679 -20q-173 0 -303 82t-201.5 235.5t-72.5 368.5v91h1088v-120h-933v-23q0 -160 51.5 -273.5t146 -173.5t221.5 -60q143 0 244.5 72.5t155.5 202.5t53 306v93q1 190 -56.5 323.5t-167 204.5t-269.5 71q-57 0 -115 -9t-117 -27.5t-120 -48.5l-40 116q51 30 115.5 52.5
t137 34.5t146.5 12q197 0 341 -88t222.5 -251.5t78.5 -389.5v-94q0 -207 -74.5 -366.5t-210.5 -250t-321 -90.5z" />
    <glyph glyph-name="Epsilon1" unicode="&#x190;" horiz-adv-x="1193" 
d="M751 730h-194q-135 9 -234.5 57.5t-154 132t-55.5 193.5q1 121 64 210t172.5 138t247.5 49q142 0 249 -49.5t168 -139t65 -210.5h-152q-8 120 -92.5 195.5t-237.5 76.5q-158 -1 -244 -78t-86 -198q0 -77 37.5 -141.5t114.5 -102.5t192 -39h140v-94zM553 792h198v-95h-140
q-117 1 -199 -34t-125 -101.5t-44 -161.5q1 -96 45.5 -161.5t123 -99t181.5 -33.5q173 -1 264.5 83t98.5 204h153q-5 -136 -75 -227.5t-185.5 -138.5t-255.5 -47q-139 0 -254 46t-182.5 137.5t-67.5 227.5q-1 182 121.5 284.5t342.5 116.5z" />
    <glyph glyph-name="uni0191" unicode="&#x191;" horiz-adv-x="1121" 
d="M150 0h135v-136q0 -68 -18.5 -120.5t-55.5 -88.5t-91.5 -54t-126.5 -18q-11 -1 -20.5 0t-34.5 7v114q11 -2 24.5 -4t28.5 -2q73 0 116 38t43 131v133zM150 0v1490h863v-123h-727v-571h658v-122h-658v-674h-136z" />
    <glyph glyph-name="florin" unicode="&#x192;" horiz-adv-x="667" 
d="M586 1079v-114h-202v-1067q0 -152 -80.5 -234.5t-216.5 -81.5q-29 -1 -54 2.5t-51 12.5l14 118q16 -6 45.5 -9t45.5 -2q67 -1 114 50.5t47 143.5v1067h-187v114h187v149q0 157 84 242.5t208 85.5q37 0 78 -6.5t67 -16.5l-35 -118q-15 5 -34 8.5t-44 2.5q-86 1 -137 -50
t-51 -148v-149h202z" />
    <glyph glyph-name="uni0193" unicode="&#x193;" horiz-adv-x="1476" 
d="M1335 1024h-139l7 161q2 67 19 117.5t49.5 85t79.5 51.5t110 17q22 1 46 0t42 -7v-112q-13 2 -29 3.5t-31 1.5q-48 0 -82.5 -14.5t-53 -48.5t-18.5 -94v-161zM749 -20q-195 0 -341.5 94t-227.5 266t-81 404q0 234 81.5 406t225.5 266t333 94q122 0 223.5 -38.5
t178.5 -106t127 -155t68 -186.5h-140q-20 75 -59.5 139.5t-97.5 114t-133 77.5t-167 28q-145 0 -260 -76t-182 -219t-67 -344q0 -199 67 -342t184 -219t268 -76q137 0 241.5 61t163.5 174t59 271l44 -14h-476v122h565v-122q0 -191 -76.5 -329.5t-211.5 -214t-309 -75.5z" />
    <glyph glyph-name="Gamma1" unicode="&#x194;" horiz-adv-x="1150" 
d="M-33 1490h148l528 -1278q55 -129 92.5 -212.5t56.5 -136t19 -91.5q0 -66 -28.5 -114t-81 -74t-126.5 -26q-73 0 -126.5 26t-81.5 74t-28 114q0 24 6 51.5t19 61.5t32.5 79t45.5 104.5t59 136.5l536 1285h148l-584 -1383q-41 -99 -69 -164t-42 -106t-15 -67
q1 -37 28 -62.5t72 -26.5q44 1 71.5 27t28.5 62q0 26 -13.5 66t-41 106.5t-71.5 170.5z" />
    <glyph glyph-name="uni0195" unicode="&#x195;" horiz-adv-x="1855" 
d="M139 0v1490h129v-549h13q39 88 121.5 139.5t208.5 51.5q113 0 199 -46.5t134.5 -137.5t48.5 -225v-186h-130v178q-1 139 -78 218.5t-208 80.5q-89 0 -158.5 -38.5t-109.5 -109t-41 -168.5v-698h-129zM1213 -19q-103 0 -182.5 48.5t-123.5 150.5t-44 261v138h130v-138
q0 -135 32 -210t85 -104.5t111 -30.5q107 1 189 91.5t129 287t46 513.5v130h130v-135q0 -347 -63 -569t-175.5 -327.5t-263.5 -105.5z" />
    <glyph glyph-name="Iota" unicode="&#x196;" horiz-adv-x="439" 
d="M139 1490h129v-1237q1 -86 29.5 -116.5t92.5 -22.5q22 1 32.5 3.5t18.5 5.5l28 -115q-15 -4 -40 -8.5t-52 -4.5q-115 -7 -176.5 51.5t-61.5 176.5v1267z" />
    <glyph glyph-name="uni0197" unicode="&#x197;" horiz-adv-x="467" 
d="M301 1490v-1490h-136v1490h136zM-72 715v104h611v-104h-611z" />
    <glyph glyph-name="uni0198" unicode="&#x198;" horiz-adv-x="1301" 
d="M165 0v1490h136v-803h14l653 721q51 57 112.5 79.5t123 13t111.5 -49.5l-59 -99q-49 33 -98.5 25t-101.5 -65l-471 -511l656 -801h-166l-575 706l-199 -223v-483h-136z" />
    <glyph glyph-name="uni0199" unicode="&#x199;" horiz-adv-x="1011" 
d="M257 422l-2 170h30l523 526h163l-516 -519l-12 -2zM139 0v1118h129v-1118h-129zM834 0l-453 573l93 90l527 -663h-167zM139 1118v149q0 115 64 173.5t187 58.5q27 0 51.5 -1.5t39.5 -3.5v-111q-16 1 -32.5 1.5t-29.5 0.5q-80 0 -115.5 -28t-35.5 -90v-149h-129z" />
    <glyph glyph-name="uni019A" unicode="&#x19a;" horiz-adv-x="407" 
d="M268 1490v-1490h-129v1490h129zM-102 715v104h611v-104h-611z" />
    <glyph glyph-name="lambdabar" unicode="&#x19b;" horiz-adv-x="1207" 
d="M618 1425v-132l-459 -186v130zM557 879l-314 -879h-164l414 1111l103 -20zM281 1510q103 -1 156.5 -44.5t87.5 -132.5l418 -1100q18 -47 33.5 -72.5t33.5 -36t41 -10.5q8 0 18.5 1t19.5 2l10 -122q-12 -4 -31.5 -7t-40.5 -4q-53 1 -92 15t-71 57t-65 129l-305 802
l-109 283q-25 66 -58 92t-81 26q-12 0 -28.5 -1t-29.5 -5l-5 115q16 6 45.5 9.5t52.5 3.5z" />
    <glyph glyph-name="mcapturn" unicode="&#x19c;" horiz-adv-x="1737" 
d="M1454 217v1273h148v-1490h-139zM1465 458l72 1q2 -137 -40.5 -245t-129 -170t-217.5 -62q-108 0 -188 45t-123.5 141t-43.5 249v1073h148v-1073q0 -112 30 -180.5t82 -98.5t116 -30q100 0 165 46t97 125.5t32 178.5zM807 458l72 1q3 -137 -40 -245t-130.5 -170
t-219.5 -62q-108 0 -187.5 45t-122.5 141t-43 249v1073h149v-1073q0 -112 30 -180.5t81 -98.5t115 -30q100 0 165.5 46t98 125.5t32.5 178.5z" />
    <glyph glyph-name="Nhook" unicode="&#x19d;" horiz-adv-x="1483" 
d="M156 0h136v-136q0 -68 -20 -120.5t-55.5 -88.5t-84 -54t-105.5 -18q-22 -1 -44.5 0t-39.5 7v114q10 -2 24 -4t30 -2q73 0 115.5 38t43.5 131v133zM1318 1490v-1490h-134l-879 1247h-13v-1247h-136v1490h132l883 -1249h12v1249h135z" />
    <glyph glyph-name="uni019E" unicode="&#x19e;" horiz-adv-x="1124" 
d="M268 698v-698h-129v1118h125v-177h13q39 87 122 139t206 52q113 0 198.5 -47t133.5 -138t48 -224v-1141h-130v1133q-1 137 -77 217.5t-206 81.5q-87 0 -155.5 -38.5t-108 -109t-40.5 -168.5z" />
    <glyph glyph-name="Obar" unicode="&#x19f;" horiz-adv-x="1486" 
d="M1280 805v-122h-1074v122h1074zM744 -20q-188 0 -334 94t-228.5 266t-82.5 404q0 233 83 405.5t228.5 266.5t333.5 94t333 -94t227.5 -266.5t82.5 -405.5q0 -232 -82.5 -404t-227.5 -266t-333 -94zM744 107q146 0 262 76t183 218.5t67 342.5q0 201 -67 344t-183 219
t-262 76t-262.5 -76t-184 -219t-67.5 -344q0 -199 67 -342t183.5 -219t263.5 -76z" />
    <glyph glyph-name="Ohorn" unicode="&#x1a0;" horiz-adv-x="1486" 
d="M1175 1222l-42 97q101 9 144.5 68.5t43.5 185.5h122q0 -167 -70.5 -247.5t-197.5 -103.5zM744 -20q-188 0 -334 94t-228.5 266t-82.5 404q0 233 83 405.5t228.5 266.5t333.5 94t333 -94t227.5 -266.5t82.5 -405.5q0 -232 -82.5 -404t-227.5 -266t-333 -94zM744 107
q146 0 262 76t183 218.5t67 342.5q0 201 -67 344t-183 219t-262 76t-262.5 -76t-184 -219t-67.5 -344q0 -199 67 -342t183.5 -219t263.5 -76z" />
    <glyph glyph-name="ohorn" unicode="&#x1a1;" horiz-adv-x="1146" 
d="M907 858l-42 97q101 9 144.5 68.5t43.5 185.5h122q0 -167 -70.5 -247.5t-197.5 -103.5zM573 -24q-145 0 -256 73.5t-173.5 204t-62.5 299.5q0 172 62.5 302.5t173.5 204t256 73.5t255.5 -73.5t173.5 -204t63 -302.5q0 -169 -62.5 -299.5t-173.5 -204t-256 -73.5zM573 94
q117 0 197.5 62.5t122.5 167.5t42 229q0 126 -42 231t-123 168t-197 63t-196.5 -63.5t-123 -168t-42.5 -230.5q0 -124 42 -229t123 -167.5t197 -62.5z" />
    <glyph glyph-name="OI" unicode="&#x1a2;" horiz-adv-x="1642" 
d="M1174 769v-579q-44 -66 -115 -113.5t-160.5 -72t-189.5 -24.5q-138 0 -250 49.5t-193 141t-124 219.5t-43 286v97l152 2v-99q1 -175 57.5 -303t161 -197.5t248.5 -69.5q95 -1 177.5 31.5t131.5 90.5v541h147zM1174 1305v-587h-147v542q-47 57 -129 89.5t-178 33.5
q-146 0 -251 -70t-161 -199.5t-57 -310.5v-105h-152v105q0 161 43.5 291.5t125 223t196.5 142.5t257 50q95 0 182 -25t157 -71t114 -109zM1476 1490v-1908h-149v1761l-226 -112v132l250 127h125z" />
    <glyph glyph-name="uni01A3" unicode="&#x1a3;" horiz-adv-x="1151" 
d="M507 101q50 0 89.5 13t74.5 36v459h149v-499q-39 -40 -88 -69t-106.5 -45.5t-124.5 -16.5q-148 0 -252.5 74t-159.5 198.5t-55 274.5v29q0 166 54.5 296.5t160 206t258.5 75.5q66 0 122.5 -15t104.5 -43.5t86 -68.5v-518h-149v474q-33 23 -75 36t-93 13
q-111 0 -182 -61.5t-104 -165t-34 -229.5v-29q1 -130 41 -225.5t113 -147.5t170 -52zM1117 1118v-1536h-147v1348l-218 -133v187l239 134h126z" />
    <glyph glyph-name="uni01A4" unicode="&#x1a4;" horiz-adv-x="1465" 
d="M204 1139h-129v82q1 116 69 192t195 77h142v-123h-139q-57 1 -86.5 -22.5t-40.5 -65t-11 -94.5v-46zM413 0v1490h482q159 0 265 -60.5t160.5 -165t54.5 -234.5t-54 -234.5t-160.5 -165.5t-263.5 -61h-378v122h374q117 0 194 44t115.5 121t38.5 174q0 98 -38.5 174
t-116 119.5t-195.5 43.5h-342v-1367h-136z" />
    <glyph glyph-name="uni01A5" unicode="&#x1a5;" horiz-adv-x="1163" 
d="M139 1118v149q0 115 64 173.5t187 58.5q27 0 51.5 -1.5t39.5 -3.5v-111q-16 1 -32.5 1.5t-29.5 0.5q-80 0 -117 -28t-38 -90v-149h-125zM139 -418v1536h125v-214h15q23 50 64 103t109 89.5t170 36.5q138 0 241.5 -72.5t161.5 -202.5t58 -302q0 -173 -57.5 -304
t-161 -203.5t-241.5 -72.5q-101 0 -169.5 36.5t-110 90.5t-64.5 105h-11v-626h-129zM609 94q110 0 187 62t117 167t40 234t-40 232.5t-116 164.5t-188 61q-110 0 -186 -58.5t-116 -161.5t-40 -238q0 -134 40 -238.5t116.5 -164.5t185.5 -60z" />
    <glyph glyph-name="YR" unicode="&#x1a6;" horiz-adv-x="1372" 
d="M78 1388v203h155v-203h-155zM78 1490h469q153 1 261 -50.5t165.5 -148.5t57.5 -235q0 -102 -39.5 -185.5t-113.5 -141.5t-177 -85l-40 -15h-466v125h370q96 1 166.5 39.5t108.5 107t38 155.5q0 93 -37 161.5t-110 106.5t-184 38h-314v-1362h-155v1490zM1124 -364
l-549 1028h162l551 -1019v-9h-164z" />
    <glyph glyph-name="uni01A7" unicode="&#x1a7;" horiz-adv-x="1225" 
d="M251 1118h-133q6 113 68.5 201.5t169.5 140t245 51.5t248 -51.5t175 -143t65 -211.5q-1 -143 -97.5 -235.5t-272.5 -144.5l-178 -52q-92 -27 -162 -62t-109.5 -86t-40.5 -127q1 -90 51 -157t136.5 -104.5t198.5 -37.5q100 0 181.5 31.5t132.5 92.5t58 150h140
q-9 -118 -73 -208t-175.5 -140t-263.5 -50q-162 0 -277.5 55.5t-177.5 151t-62 213.5q0 93 36 160t95.5 113t131 76.5t142.5 50.5l156 45q73 20 141 53.5t112.5 86.5t43.5 131q1 80 -44 143t-124 99t-183 36q-148 0 -245 -73.5t-109 -197.5z" />
    <glyph glyph-name="uni01A8" unicode="&#x1a8;" horiz-adv-x="986" 
d="M97 871q41 121 133 191.5t245 70.5q113 0 200.5 -40t138 -111t50.5 -163q0 -112 -70 -187t-216 -110l-182 -44q-183 -45 -183 -183q0 -86 78 -144t206 -58q115 0 186 51t94 150l124 -30q-30 -139 -136 -213.5t-270 -74.5q-123 0 -216 42t-145.5 116t-52.5 168
q0 112 70.5 185.5t210.5 108.5l169 41q104 26 153.5 71.5t49.5 116.5q0 85 -73 139.5t-186 54.5t-173 -52.5t-87 -127.5z" />
    <glyph glyph-name="uni01A9" unicode="&#x1a9;" horiz-adv-x="1199" 
d="M1111 127v-127h-971l6 127h965zM1067 1469v-130h-953v130h953zM766 731v-21l-594 -710h-91v115l520 605l-520 632v117h91z" />
    <glyph glyph-name="eshlooprev" unicode="&#x1aa;" horiz-adv-x="977" 
d="M557 1177l149 66v-1344q0 -105 33 -148.5t98 -43.5q14 0 32 2.5t33 6.5v-121q-19 -6 -47.5 -10t-51.5 -3q-124 -1 -185.5 80t-60.5 237v1278zM75 1242q0 88 42.5 159.5t114.5 113.5t159 42q86 0 157.5 -42t114.5 -113.5t43 -159.5q0 -86 -43 -157.5t-114.5 -114
t-157.5 -43.5q-87 0 -159 42.5t-114.5 114.5t-42.5 158zM391 1065q72 0 123 47.5t51 132.5q-1 83 -51.5 131.5t-122.5 48.5q-74 0 -125 -48.5t-51 -131.5q0 -85 51 -132.5t125 -47.5z" />
    <glyph glyph-name="uni01AB" unicode="&#x1ab;" horiz-adv-x="673" 
d="M489 99l130 28v-263q0 -136 -73.5 -209t-186.5 -72q-25 -1 -49 1t-41 9v111q12 -3 27.5 -5.5t31.5 -1.5q49 0 85 16t56 53t20 98v235zM212 1384h129v-1092q0 -91 45 -136.5t125 -45.5q18 0 36.5 2.5t39.5 7.5l28 -117q-23 -9 -53 -14t-62 -5q-124 0 -206 76.5t-82 200.5
v1123zM578 1118v-113h-533v113h533z" />
    <glyph glyph-name="uni01AC" unicode="&#x1ac;" horiz-adv-x="1285" 
d="M611 1490v-123h-270q-53 1 -84 -21.5t-44 -61.5t-13 -90v-46h-125v76q1 121 71 193t193 73h272zM1211 1490v-123h-472v-1367h-137v1367h-173v123h782z" />
    <glyph glyph-name="uni01AD" unicode="&#x1ad;" horiz-adv-x="569" 
d="M351 1118h-149v171q0 66 20 116.5t56 84t84.5 50.5t106.5 17q19 0 44 -3t46 -7v-105q-15 3 -32 5t-29 2q-48 0 -80.5 -15.5t-49.5 -50.5t-17 -94v-171zM560 1094v-115h-543v115h543zM202 1200h149v-921q0 -93 37.5 -132.5t93.5 -39.5q23 0 46.5 4.5t37.5 7.5v-122
q-19 -6 -49.5 -11.5t-73.5 -5.5q-104 0 -172.5 72t-68.5 227v921z" />
    <glyph glyph-name="Trthook" unicode="&#x1ae;" horiz-adv-x="1231" 
d="M684 0v-136q0 -92 47.5 -126t120.5 -33h52v-122h-83q-57 0 -106 18t-87 53.5t-58.5 87.5t-20.5 121v137h135zM75 1367v123h1081v-123h-472v-1367h-135v1367h-474z" />
    <glyph glyph-name="Uhorn" unicode="&#x1af;" horiz-adv-x="1460" 
d="M1202 1412l-43 78q123 0 178.5 67.5t55.5 217.5h122q0 -175 -80.5 -269t-232.5 -94zM1159 1490h136v-986q0 -152 -71 -271.5t-198.5 -188.5t-294.5 -69q-168 0 -295.5 69t-199 188.5t-71.5 271.5v986h136v-977q0 -118 53.5 -211t150 -146t226.5 -53q129 0 225 53
t149.5 146t53.5 211v977z" />
    <glyph glyph-name="uhorn" unicode="&#x1b0;" horiz-adv-x="1117" 
d="M893 1040l-44 78q123 0 179 67.5t56 217.5h122q0 -175 -80.5 -269t-232.5 -94zM849 426v692h129v-1118h-129v186h-10q-40 -86 -125 -143.5t-208 -56.5q-107 0 -189.5 46.5t-130 138t-47.5 223.5v724h129v-717q0 -130 77.5 -210t197.5 -79q76 0 146 36t115 106t45 172z
" />
    <glyph glyph-name="Upsilon2" unicode="&#x1b1;" horiz-adv-x="1484" 
d="M100 712q0 220 90 382t259 262v11h-349v123h509v-159q-103 -48 -189 -135t-137 -208.5t-52 -274.5q1 -169 65.5 -307t180 -218.5t265.5 -80.5q150 1 265 81.5t180 218t64 306.5q1 153 -50 274.5t-137 208.5t-189 135v159h510v-123h-349v-11q169 -98 258.5 -261t90.5 -383
q0 -214 -83 -379t-228 -259t-332 -94q-140 0 -257.5 54t-203.5 152t-133.5 232t-47.5 294z" />
    <glyph glyph-name="Vcursive" unicode="&#x1b2;" horiz-adv-x="1203" 
d="M599 -21q-148 0 -264 55.5t-182 165.5t-66 273v1017h152v-1017q1 -186 99 -277.5t261 -90.5q165 -1 264.5 91t98.5 277v721q1 102 -41 144t-123 42q-16 0 -36 -1.5t-37 -7.5v122q23 8 52.5 12.5t59.5 4.5q125 0 202.5 -81t77.5 -235v-721q0 -162 -70 -272t-187.5 -166
t-260.5 -56z" />
    <glyph glyph-name="uni01B3" unicode="&#x1b3;" horiz-adv-x="1325" 
d="M601 748v35h36v-35h-36zM14 1490h157l448 -718l377 601q43 69 101 102t121 33.5t118 -31.5l-43 -107q-47 22 -95.5 11t-88.5 -72l-422 -664v-645h-136v645z" />
    <glyph glyph-name="uni01B4" unicode="&#x1b4;" horiz-adv-x="1167" 
d="M229 -418q-38 -1 -71.5 6t-53.5 17l35 113q66 -20 117.5 -14t91.5 47t71 124l41 114l-411 1129h141l331 -948h10l317 903q29 84 67.5 151t93.5 106.5t132 38.5q47 1 87.5 -13t70.5 -37l-30 -95q-24 13 -53.5 21.5t-58.5 8.5q-66 0 -104.5 -51.5t-81.5 -169.5l-440 -1209
q-45 -122 -121 -182.5t-181 -59.5z" />
    <glyph glyph-name="Zbar" unicode="&#x1b5;" horiz-adv-x="1203" 
d="M106 0v102l828 1265h-831v123h994v-104l-828 -1264h834v-122h-997zM306 707v104h611v-104h-611z" />
    <glyph glyph-name="zbar" unicode="&#x1b6;" horiz-adv-x="1022" 
d="M105 0v102l645 883v10h-618v123h784v-108l-633 -878v-10h656v-122h-834zM204 505v104h611v-104h-611z" />
    <glyph glyph-name="uni01B7" unicode="&#x1b7;" horiz-adv-x="1340" 
d="M75 67h138q5 -113 66 -200t160 -135.5t220 -48.5q135 0 236 63.5t157.5 173t55.5 247.5q1 151 -68.5 264.5t-191.5 177.5t-281 66h-97v116l548 575v-1h-859v125h1042v-101l-560 -592v-12q178 -7 313.5 -88t211.5 -217.5t76 -311.5q0 -128 -41 -238.5t-117.5 -194
t-184.5 -130t-243 -46.5q-159 0 -288.5 64.5t-208 179t-84.5 264.5z" />
    <glyph glyph-name="uni01B8" unicode="&#x1b8;" horiz-adv-x="1340" 
d="M1265 67q-5 -150 -84 -264.5t-208.5 -179t-288.5 -64.5q-134 0 -242.5 46.5t-185 130t-117.5 194t-41 238.5q0 175 76.5 311.5t212 217.5t312.5 88v12l-560 592v101h1044v-125h-861v1l548 -575v-116h-96q-159 -2 -281.5 -66t-191.5 -177.5t-69 -264.5q0 -138 56.5 -247.5
t157.5 -173t235 -63.5q121 0 220.5 48.5t160 135.5t65.5 200h138z" />
    <glyph glyph-name="uni01B9" unicode="&#x1b9;" horiz-adv-x="1202" 
d="M1093 1q-5 -121 -71 -209t-173 -136t-238 -48q-145 0 -254.5 57.5t-170.5 156.5t-62 223q1 127 63 224t170 154t244 64v10l-426 520v101h850v-122h-661v-10l404 -495v-112h-79q-150 0 -245 -45.5t-140.5 -121t-45.5 -167.5q0 -96 44.5 -166.5t124 -109t182.5 -38.5
q95 0 171.5 32.5t123.5 93t53 144.5h136z" />
    <glyph glyph-name="uni01BA" unicode="&#x1ba;" horiz-adv-x="1008" 
d="M99 1119l858 -1v-100l-578 -507h-74v100l438 385h-643zM203 -142q1 -87 65.5 -133t180.5 -46q75 0 138.5 24t104.5 76t46 132h148q-3 -95 -55 -175.5t-146.5 -129.5t-228.5 -49q-122 0 -212 37.5t-138.5 107t-48.5 164.5q-1 127 93.5 204t285.5 120q101 23 157 46.5
t78.5 55.5t22.5 79q0 70 -60.5 105t-200.5 35h-60l9 122h51q131 1 223 -31t140 -91.5t48 -143.5q0 -85 -44 -141.5t-129.5 -93t-210.5 -66.5q-150 -34 -203 -86.5t-54 -121.5z" />
    <glyph glyph-name="uni01BB" unicode="&#x1bb;" horiz-adv-x="1187" 
d="M134 0v99l487 548q94 107 152 183.5t85 141t27 134.5q0 85 -40 149t-108.5 99t-155.5 35q-92 0 -160.5 -39t-106 -107.5t-37.5 -156.5h-130q0 123 57 219t156 150.5t225 54.5q125 0 221.5 -53.5t151.5 -145t55 -205.5q0 -82 -28.5 -158.5t-98.5 -171.5t-193 -231
l-370 -413v-10h737v-122h-926zM494 707v104h611v-104h-611z" />
    <glyph glyph-name="uni01BC" unicode="&#x1bc;" horiz-adv-x="1131" 
d="M329 1490v-123h-296v123h296zM558 -20q-124 0 -221.5 50.5t-155.5 139.5t-62 202h132q6 -117 92 -193.5t215 -76.5q101 0 178 48t121 131t44 188q0 109 -47 192.5t-126.5 130.5t-178.5 47q-75 0 -146.5 -25.5t-119.5 -64.5l-136 17l88 724h737v-123h-621l-60 -498h7
q49 42 120 68t151 26q132 0 237 -63.5t166 -174t61 -255.5q0 -141 -61.5 -252t-168.5 -174.5t-245 -63.5z" />
    <glyph glyph-name="uni01BD" unicode="&#x1bd;" horiz-adv-x="951" 
d="M289 489l-130 11l66 582h635v-130h-509l-35 -299q37 32 99.5 54t124.5 24q113 2 195.5 -42.5t127 -128t44.5 -200.5q1 -109 -42.5 -194.5t-134.5 -134t-231 -49.5q-70 0 -139 20.5t-125 61t-90 99.5t-34 137l144 15q-1 -94 67 -151.5t177 -56.5q131 -1 196.5 69t65.5 181
q0 113 -63.5 182t-181.5 70q-85 0 -141 -35t-86 -85zM328 1082v-130h-284v130h284z" />
    <glyph glyph-name="glottalstopbarinv" unicode="&#x1be;" horiz-adv-x="1017" 
d="M781 287q0 54 -26.5 89.5t-68.5 62.5t-89.5 55.5t-90 66t-69 93.5t-26.5 139v546h150v-542q0 -68 26.5 -111.5t69 -73t89.5 -56t89.5 -58t69 -78.5t26.5 -121q1 -94 -51.5 -166t-145.5 -112t-215 -40q-138 0 -233.5 51t-145 133t-49.5 173h148q3 -76 41.5 -129
t101.5 -79.5t137 -26.5q122 0 192 52t70 132zM775 1078v-115h-576v115h576z" />
    <glyph glyph-name="uni01BF" unicode="&#x1bf;" horiz-adv-x="1178" 
d="M287 924v-1340h-149v1534h135zM249 753l-72 -41q23 99 59.5 177t89.5 132.5t122.5 83t156.5 28.5q135 0 229 -66.5t143.5 -186.5t49.5 -281v-47q0 -151 -52 -263.5t-153 -196.5t-248.5 -148.5t-339.5 -118.5v122q204 56 347.5 133t219.5 191.5t76 279.5v49
q0 116 -34.5 208t-104.5 145.5t-174 53.5q-80 0 -140.5 -34t-103.5 -91.5t-71 -128.5z" />
    <glyph glyph-name="pipe" unicode="&#x1c0;" horiz-adv-x="426" 
d="M275 1499v-1499h-123v1499h123z" />
    <glyph glyph-name="pipedbl" unicode="&#x1c1;" horiz-adv-x="645" 
d="M212 1499v-1499h-123v1499h123zM484 1499v-1499h-123v1499h123z" />
    <glyph glyph-name="pipedblbar" unicode="&#x1c2;" horiz-adv-x="453" 
d="M288 1499v-1499h-123v1499h123zM-80 952v104h611v-104h-611zM-78 447v104h611v-104h-611z" />
    <glyph glyph-name="exclam1" unicode="&#x1c3;" horiz-adv-x="537" 
d="M204 467l-8 1023h145l-8 -1023h-129zM268 -11q-43 0 -74 31t-31 74t31 74t74 31q44 0 74.5 -31t30.5 -74t-30.5 -74t-74.5 -31z" />
    <glyph glyph-name="Dzcaron_" unicode="&#x1c5;" horiz-adv-x="2427" 
d="M602 0h-361v122h353q192 0 321.5 75.5t194.5 216t65 335.5q0 192 -63.5 330.5t-187 213t-304.5 74.5h-384v123h392q213 0 365 -89t232.5 -255t80.5 -397q0 -235 -82.5 -402.5t-240 -257t-381.5 -89.5zM301 1490v-1490h-136v1490h136zM1510 0v102l645 883v10h-618v123h784
v-108l-633 -878v-10h656v-122h-834zM1740 1561l174 -211l173 211h128v-10l-247 -294h-109l-245 294v10h126z" />
    <glyph glyph-name="uni01C6" unicode="&#x1c6;" horiz-adv-x="2052" 
d="M540 -24q-137 0 -240.5 72.5t-161 203.5t-57.5 304q0 172 58 302t161.5 202.5t240.5 72.5q103 0 170.5 -36.5t109 -89.5t63.5 -103h11v586h129v-1490h-125v208h-15q-22 -51 -64 -105t-110 -90.5t-170 -36.5zM555 94q109 0 185 60t116.5 164.5t40.5 238.5q0 135 -40 238
t-116.5 161.5t-185.5 58.5q-111 0 -188 -61t-116.5 -164.5t-39.5 -232.5t40 -234t116.5 -167t187.5 -62zM1135 0v102l645 883v10h-618v123h784v-108l-633 -878v-10h656v-122h-834zM1365 1561l174 -211l173 211h128v-10l-247 -294h-109l-245 294v10h126z" />
    <glyph glyph-name="uni01C7" unicode="&#x1c7;" horiz-adv-x="2119" 
d="M165 0v1490h136v-1368h711v-122h-847zM1551 -20q-116 0 -207 42.5t-143 120.5t-52 184v25h134v-25q0 -67 35 -117.5t95.5 -79t137.5 -28.5q79 0 139 33.5t94 102.5t34 177v1075h135v-1075q0 -145 -51.5 -242t-142 -145t-208.5 -48z" />
    <glyph glyph-name="uni01C8" unicode="&#x1c8;" horiz-adv-x="1497" 
d="M165 0v1490h136v-1368h711v-122h-847zM1229 1118h129v-1227q1 -95 -34.5 -164.5t-102.5 -107t-162 -37.5h-28v122h27q80 0 125.5 49t45.5 138v1227zM1293 1309q-40 0 -68.5 27.5t-28.5 66.5q0 38 28.5 65t68.5 27t68 -27t28 -65q0 -39 -28 -66.5t-68 -27.5z" />
    <glyph glyph-name="uni01C9" unicode="&#x1c9;" horiz-adv-x="821" 
d="M268 1490v-1490h-129v1490h129zM585 1118h129v-1227q1 -95 -34.5 -164.5t-102.5 -107t-162 -37.5h-28v122h27q80 0 125.5 49t45.5 138v1227zM649 1309q-40 0 -68.5 27.5t-28.5 66.5q0 38 28.5 65t68.5 27t68 -27t28 -65q0 -39 -28 -66.5t-68 -27.5z" />
    <glyph glyph-name="uni01CA" unicode="&#x1ca;" horiz-adv-x="2523" 
d="M1327 1490v-1490h-134l-879 1247h-13v-1247h-136v1490h132l884 -1249h11v1249h135zM1956 -20q-116 0 -207 42.5t-143 120.5t-52 184v25h134v-25q0 -67 35 -117.5t95.5 -79t137.5 -28.5q79 0 139 33.5t94 102.5t34 177v1075h135v-1075q0 -145 -51.5 -242t-142 -145
t-208.5 -48z" />
    <glyph glyph-name="uni01CB" unicode="&#x1cb;" horiz-adv-x="1878" 
d="M1327 1490v-1490h-134l-879 1247h-13v-1247h-136v1490h132l884 -1249h11v1249h135zM1642 1118h129v-1227q1 -95 -34.5 -164.5t-102.5 -107t-162 -37.5h-28v122h27q80 0 125.5 49t45.5 138v1227zM1706 1309q-40 0 -68.5 27.5t-28.5 66.5q0 38 28.5 65t68.5 27t68 -27
t28 -65q0 -39 -28 -66.5t-68 -27.5z" />
    <glyph glyph-name="uni01CC" unicode="&#x1cc;" horiz-adv-x="1533" 
d="M268 698v-698h-129v1118h125v-177h13q39 87 122 139t206 52q113 0 198.5 -47t133.5 -138t48 -224v-723h-129v715q0 137 -77 218t-206 81q-88 0 -157 -38.5t-108.5 -109t-39.5 -168.5zM1265 1118h129v-1227q1 -95 -34.5 -164.5t-102.5 -107t-162 -37.5h-28v122h27
q80 0 125.5 49t45.5 138v1227zM1329 1309q-40 0 -68.5 27.5t-28.5 66.5q0 38 28.5 65t68.5 27t68 -27t28 -65q0 -39 -28 -66.5t-68 -27.5z" />
    <glyph glyph-name="uni01CD" unicode="&#x1cd;" horiz-adv-x="1279" 
d="M168 0h-143l543 1490h145l542 -1490h-142l-468 1313h-10zM271 571h739v-122h-739v122zM466 1933l174 -211l173 211h128v-10l-247 -294h-109l-245 294v10h126z" />
    <glyph glyph-name="uni01CE" unicode="&#x1ce;" horiz-adv-x="1074" 
d="M451 -25q-101 0 -185 39.5t-133.5 115t-49.5 183.5q0 83 31 139t89 92.5t136.5 58t173.5 32.5q94 12 159 20.5t99 27.5t34 61v26q0 115 -68 180.5t-195 65.5q-121 0 -197 -53t-106 -125l-124 45q38 91 105 146t150 79.5t168 24.5q64 0 133 -17t129 -58t97.5 -114.5
t37.5 -185.5v-758h-130v177h-8q-22 -49 -68 -95.5t-115 -76.5t-163 -30zM469 93q103 0 178.5 45.5t116.5 122.5t41 168v161q-15 -14 -48.5 -25t-77 -19t-88 -14t-78.5 -10q-94 -12 -161.5 -37t-103 -68t-35.5 -111q0 -101 72.5 -157t183.5 -56zM375 1561l174 -211l173 211
h128v-10l-247 -294h-109l-245 294v10h126z" />
    <glyph glyph-name="uni01CF" unicode="&#x1cf;" horiz-adv-x="467" 
d="M301 1490v-1490h-136v1490h136zM59 1933l174 -211l173 211h128v-10l-247 -294h-109l-245 294v10h126z" />
    <glyph glyph-name="uni01D0" unicode="&#x1d0;" horiz-adv-x="407" 
d="M139 0v1118h129v-1118h-129zM30 1561l174 -211l173 211h128v-10l-247 -294h-109l-245 294v10h126z" />
    <glyph glyph-name="uni01D1" unicode="&#x1d1;" horiz-adv-x="1486" 
d="M744 -20q-188 0 -334 94t-228.5 266t-82.5 404q0 233 83 405.5t228.5 266.5t333.5 94t333 -94t227.5 -266.5t82.5 -405.5q0 -232 -82.5 -404t-227.5 -266t-333 -94zM744 107q146 0 262 76t183 218.5t67 342.5q0 201 -67 344t-183 219t-262 76t-262.5 -76t-184 -219
t-67.5 -344q0 -199 67 -342t183.5 -219t263.5 -76zM570 1933l174 -211l173 211h128v-10l-247 -294h-109l-245 294v10h126z" />
    <glyph glyph-name="uni01D2" unicode="&#x1d2;" horiz-adv-x="1146" 
d="M573 -24q-145 0 -256 73.5t-173.5 204t-62.5 299.5q0 172 62.5 302.5t173.5 204t256 73.5t255.5 -73.5t173.5 -204t63 -302.5q0 -169 -62.5 -299.5t-173.5 -204t-256 -73.5zM573 94q117 0 197.5 62.5t122.5 167.5t42 229q0 126 -42 231t-123 168t-197 63t-196.5 -63.5
t-123 -168t-42.5 -230.5q0 -124 42 -229t123 -167.5t197 -62.5zM399 1561l174 -211l173 211h128v-10l-247 -294h-109l-245 294v10h126z" />
    <glyph glyph-name="uni01D3" unicode="&#x1d3;" horiz-adv-x="1460" 
d="M1159 1490h136v-986q0 -152 -71 -271.5t-198.5 -188.5t-294.5 -69q-168 0 -295.5 69t-199 188.5t-71.5 271.5v986h136v-977q0 -118 53.5 -211t150 -146t226.5 -53q129 0 225 53t149.5 146t53.5 211v977zM557 1933l174 -211l173 211h128v-10l-247 -294h-109l-245 294v10
h126z" />
    <glyph glyph-name="uni01D4" unicode="&#x1d4;" horiz-adv-x="1117" 
d="M849 426v692h129v-1118h-129v186h-10q-40 -86 -125 -143.5t-208 -56.5q-107 0 -189.5 46.5t-130 138t-47.5 223.5v724h129v-717q0 -130 77.5 -210t197.5 -79q76 0 146 36t115 106t45 172zM385 1561l174 -211l173 211h128v-10l-247 -294h-109l-245 294v10h126z" />
    <glyph glyph-name="uni01D5" unicode="&#x1d5;" horiz-adv-x="1460" 
d="M1159 1490h136v-986q0 -152 -71 -271.5t-198.5 -188.5t-294.5 -69q-168 0 -295.5 69t-199 188.5t-71.5 271.5v986h136v-977q0 -118 53.5 -211t150 -146t226.5 -53q129 0 225 53t149.5 146t53.5 211v977zM546 1681q-37 0 -65.5 28.5t-28.5 65.5q0 39 28.5 65.5t65.5 26.5
q39 0 65.5 -26.5t26.5 -65.5q0 -37 -26.5 -65.5t-65.5 -28.5zM917 1681q-37 0 -65 28.5t-28 65.5q0 39 28 65.5t65 26.5q40 0 67 -26.5t26 -65.5q1 -37 -26 -65.5t-67 -28.5zM1036 2172v-113h-609v113h609z" />
    <glyph glyph-name="uni01D6" unicode="&#x1d6;" horiz-adv-x="1117" 
d="M849 426v692h129v-1118h-129v186h-10q-40 -86 -125 -143.5t-208 -56.5q-107 0 -189.5 46.5t-130 138t-47.5 223.5v724h129v-717q0 -130 77.5 -210t197.5 -79q76 0 146 36t115 106t45 172zM374 1309q-37 0 -65.5 28.5t-28.5 65.5q0 39 28.5 65.5t65.5 26.5
q39 0 65.5 -26.5t26.5 -65.5q0 -37 -26.5 -65.5t-65.5 -28.5zM745 1309q-37 0 -65 28.5t-28 65.5q0 39 28 65.5t65 26.5q40 0 67 -26.5t26 -65.5q1 -37 -26 -65.5t-67 -28.5zM865 1800v-113h-609v113h609z" />
    <glyph glyph-name="uni01D7" unicode="&#x1d7;" horiz-adv-x="1460" 
d="M1159 1490h136v-986q0 -152 -71 -271.5t-198.5 -188.5t-294.5 -69q-168 0 -295.5 69t-199 188.5t-71.5 271.5v986h136v-977q0 -118 53.5 -211t150 -146t226.5 -53q129 0 225 53t149.5 146t53.5 211v977zM670 1909l198 208h158l-236 -208h-120zM544 1613q-37 0 -65 28.5
t-28 65.5q0 39 28 65.5t65 26.5q40 0 66.5 -26.5t26.5 -65.5q0 -37 -26.5 -65.5t-66.5 -28.5zM916 1613q-37 0 -65 28.5t-28 65.5q0 39 28 65.5t65 26.5q40 0 66.5 -26.5t26.5 -65.5q0 -37 -26.5 -65.5t-66.5 -28.5z" />
    <glyph glyph-name="uni01D8" unicode="&#x1d8;" horiz-adv-x="1117" 
d="M849 426v692h129v-1118h-129v186h-10q-40 -86 -125 -143.5t-208 -56.5q-107 0 -189.5 46.5t-130 138t-47.5 223.5v724h129v-717q0 -130 77.5 -210t197.5 -79q76 0 146 36t115 106t45 172zM374 1309q-37 0 -65.5 28.5t-28.5 65.5q0 39 28.5 65.5t65.5 26.5
q39 0 65.5 -26.5t26.5 -65.5q0 -37 -26.5 -65.5t-65.5 -28.5zM745 1309q-37 0 -65 28.5t-28 65.5q0 39 28 65.5t65 26.5q40 0 67 -26.5t26 -65.5q1 -37 -26 -65.5t-67 -28.5zM331 1588l161 288h149l-200 -288h-110z" />
    <glyph glyph-name="uni01D9" unicode="&#x1d9;" horiz-adv-x="1460" 
d="M1159 1490h136v-986q0 -152 -71 -271.5t-198.5 -188.5t-294.5 -69q-168 0 -295.5 69t-199 188.5t-71.5 271.5v986h136v-977q0 -118 53.5 -211t150 -146t226.5 -53q129 0 225 53t149.5 146t53.5 211v977zM422 1750q-7 32 8 58.5t52 33.5q37 6 62 -11.5t32 -49.5
q5 -30 -10 -55.5t-52 -31.5q-39 -6 -62.5 11t-29.5 45zM886 1750q-7 31 8 57.5t54 31.5q36 7 60 -10t31 -48q6 -28 -8.5 -55.5t-52.5 -32.5q-38 -7 -62 10t-30 47zM558 2090l170 -149l169 149h133v-13l-260 -228h-85l-257 226v15h130z" />
    <glyph glyph-name="uni01DA" unicode="&#x1da;" horiz-adv-x="1117" 
d="M849 426v692h129v-1118h-129v186h-10q-40 -86 -125 -143.5t-208 -56.5q-107 0 -189.5 46.5t-130 138t-47.5 223.5v724h129v-717q0 -130 77.5 -210t197.5 -79q76 0 146 36t115 106t45 172zM251 1380q0 35 23.5 62t68.5 27q43 0 67.5 -26.5t24.5 -62.5q0 -37 -24.5 -62.5
t-67.5 -25.5t-67.5 25.5t-24.5 62.5zM688 1377q-1 37 23.5 64.5t69.5 27.5q43 0 67.5 -27.5t24.5 -64.5q0 -35 -24.5 -61t-67.5 -27q-45 1 -69.5 27t-23.5 61zM389 1833l170 -186l169 186h133v-10l-260 -275h-85l-257 275v10h130z" />
    <glyph glyph-name="uni01DB" unicode="&#x1db;" horiz-adv-x="1460" 
d="M1159 1490h136v-986q0 -152 -71 -271.5t-198.5 -188.5t-294.5 -69q-168 0 -295.5 69t-199 188.5t-71.5 271.5v986h136v-977q0 -118 53.5 -211t150 -146t226.5 -53q129 0 225 53t149.5 146t53.5 211v977zM664 2017l128 -218h-100l-170 218h142zM438 1751q-1 39 23 65
t67 27q44 -1 68.5 -27t25.5 -65q-1 -37 -25 -62t-68 -25q-45 0 -68.5 26t-22.5 61zM842 1751q0 37 24.5 63.5t68.5 25.5q43 1 67 -25.5t25 -63.5q-1 -35 -24 -62t-68 -26q-44 -1 -68.5 25t-24.5 63z" />
    <glyph glyph-name="uni01DC" unicode="&#x1dc;" horiz-adv-x="1117" 
d="M849 426v692h129v-1118h-129v186h-10q-40 -86 -125 -143.5t-208 -56.5q-107 0 -189.5 46.5t-130 138t-47.5 223.5v724h129v-717q0 -130 77.5 -210t197.5 -79q76 0 146 36t115 106t45 172zM281 1380q0 35 23 62t68 27q44 0 68 -26.5t25 -62.5q-1 -37 -25 -62.5t-68 -25.5
q-43 0 -67 25.5t-24 62.5zM659 1377q-1 37 23.5 64.5t69.5 27.5q44 0 68.5 -27.5t24.5 -64.5q0 -35 -24.5 -61t-68.5 -27q-45 1 -69.5 27t-23.5 61zM458 1775l187 -278h-129l-239 278h181z" />
    <glyph glyph-name="eturn" unicode="&#x1dd;" horiz-adv-x="1119" 
d="M528 1142q157 0 271.5 -73.5t176.5 -203t62 -299.5q0 -169 -61.5 -300t-171 -206t-255.5 -75q-91 0 -176 33.5t-152.5 101.5t-107 172.5t-39.5 248.5v58h874v-114h-803l59 44q0 -122 41 -218t118.5 -152t185.5 -56q107 0 187.5 56.5t125.5 150t45 204.5v67
q0 134 -46.5 233.5t-131.5 154.5t-202 55q-79 0 -139 -25t-100.5 -67t-62.5 -93l-123 41q25 70 83 129.5t144 96t198 36.5z" />
    <glyph glyph-name="uni01DE" unicode="&#x1de;" horiz-adv-x="1279" 
d="M168 0h-143l543 1490h145l542 -1490h-142l-468 1313h-10zM271 571h739v-122h-739v122zM455 1681q-37 0 -65.5 28.5t-28.5 65.5q0 39 28.5 65.5t65.5 26.5q39 0 65.5 -26.5t26.5 -65.5q0 -37 -26.5 -65.5t-65.5 -28.5zM826 1681q-37 0 -65 28.5t-28 65.5q0 39 28 65.5
t65 26.5q40 0 67 -26.5t26 -65.5q1 -37 -26 -65.5t-67 -28.5zM946 2172v-113h-609v113h609z" />
    <glyph glyph-name="uni01DF" unicode="&#x1df;" horiz-adv-x="1074" 
d="M451 -25q-101 0 -185 39.5t-133.5 115t-49.5 183.5q0 83 31 139t89 92.5t136.5 58t173.5 32.5q94 12 159 20.5t99 27.5t34 61v26q0 115 -68 180.5t-195 65.5q-121 0 -197 -53t-106 -125l-124 45q38 91 105 146t150 79.5t168 24.5q64 0 133 -17t129 -58t97.5 -114.5
t37.5 -185.5v-758h-130v177h-8q-22 -49 -68 -95.5t-115 -76.5t-163 -30zM469 93q103 0 178.5 45.5t116.5 122.5t41 168v161q-15 -14 -48.5 -25t-77 -19t-88 -14t-78.5 -10q-94 -12 -161.5 -37t-103 -68t-35.5 -111q0 -101 72.5 -157t183.5 -56zM364 1309q-37 0 -65.5 28.5
t-28.5 65.5q0 39 28.5 65.5t65.5 26.5q39 0 65.5 -26.5t26.5 -65.5q0 -37 -26.5 -65.5t-65.5 -28.5zM735 1309q-37 0 -65 28.5t-28 65.5q0 39 28 65.5t65 26.5q40 0 67 -26.5t26 -65.5q1 -37 -26 -65.5t-67 -28.5zM855 1800v-113h-609v113h609z" />
    <glyph glyph-name="uni01E0" unicode="&#x1e0;" horiz-adv-x="1279" 
d="M168 0h-143l543 1490h145l542 -1490h-142l-468 1313h-10zM271 571h739v-122h-739v122zM640 1682q-39 0 -68 27t-29 66q0 38 29 65t68 27q40 0 68.5 -27t28.5 -65q0 -39 -28.5 -66t-68.5 -27zM944 2171v-112h-609v112h609z" />
    <glyph glyph-name="uni01E1" unicode="&#x1e1;" horiz-adv-x="1074" 
d="M451 -25q-101 0 -185 39.5t-133.5 115t-49.5 183.5q0 83 31 139t89 92.5t136.5 58t173.5 32.5q94 12 159 20.5t99 27.5t34 61v26q0 115 -68 180.5t-195 65.5q-121 0 -197 -53t-106 -125l-124 45q38 91 105 146t150 79.5t168 24.5q64 0 133 -17t129 -58t97.5 -114.5
t37.5 -185.5v-758h-130v177h-8q-22 -49 -68 -95.5t-115 -76.5t-163 -30zM469 93q103 0 178.5 45.5t116.5 122.5t41 168v161q-15 -14 -48.5 -25t-77 -19t-88 -14t-78.5 -10q-94 -12 -161.5 -37t-103 -68t-35.5 -111q0 -101 72.5 -157t183.5 -56zM552 1315q-39 0 -68 27
t-29 66q0 38 29 65t68 27q40 0 68.5 -27t28.5 -65q0 -39 -28.5 -66t-68.5 -27zM856 1804v-112h-609v112h609z" />
    <glyph glyph-name="uni01E2" unicode="&#x1e2;" horiz-adv-x="1943" 
d="M25 0l734 1490h1062v-123h-728v-560h683v-122h-683v-563h743v-122h-879v1367h-120l-662 -1367h-150zM350 449v122h676v-122h-676zM1574 1829v-113h-609v113h609z" />
    <glyph glyph-name="uni01E3" unicode="&#x1e3;" horiz-adv-x="1823" 
d="M1293 -24q-179 0 -300.5 94.5t-157.5 244.5l26 532q56 132 161.5 209t252.5 77q90 0 174.5 -33.5t152 -101t106.5 -170.5t39 -243v-66h-870v115h737q0 108 -43.5 194t-119.5 136.5t-176 50.5q-107 0 -188 -56.5t-126.5 -150t-45.5 -204.5v-67q0 -133 46 -232.5
t131.5 -154.5t200.5 -55q80 0 140 25t101 67t62 92l123 -41q-25 -70 -83 -129.5t-144 -96t-199 -36.5zM469 93q103 0 178.5 46t116.5 122.5t41 167.5v161q-15 -14 -48.5 -25t-77 -19t-88 -14t-78.5 -10q-94 -12 -161.5 -37t-103 -68t-35.5 -111q0 -101 72.5 -157t183.5 -56z
M451 -25q-101 0 -185 39.5t-133.5 115t-49.5 183.5q0 83 31 139.5t89 92.5t136.5 57.5t173.5 32.5q94 12 159 21t99 27.5t34 60.5v26q0 115 -68 180.5t-195 65.5q-120 0 -196.5 -53t-106.5 -125l-124 45q38 91 105 146t150 79.5t168 24.5q58 0 118.5 -14t114.5 -45.5t94 -84
t56 -130.5l-45 -606h-12q-26 -87 -88 -149t-146.5 -95.5t-178.5 -33.5zM1217 1457v-113h-609v113h609z" />
    <glyph glyph-name="Gbar" unicode="&#x1e4;" horiz-adv-x="1455" 
d="M1450 439v-114h-669v114h669zM749 -20q-195 0 -341.5 94t-227.5 266t-81 404q0 234 81.5 406t225.5 266t333 94q122 0 223.5 -38.5t178.5 -106t127 -155t68 -186.5h-140q-20 75 -59.5 139.5t-97.5 114t-133 77.5t-167 28q-145 0 -260 -76t-182 -219t-67 -344
q0 -199 67 -342t184 -219t268 -76q137 0 241.5 61t163.5 174t59 271l44 -14h-476v122h565v-122q0 -191 -76.5 -329.5t-211.5 -214t-309 -75.5z" />
    <glyph glyph-name="gbar" unicode="&#x1e5;" horiz-adv-x="1165" 
d="M565 -442q-171 0 -279 64t-157 160l106 70q23 -43 64 -83.5t106 -67t160 -26.5q149 0 240.5 74t91.5 230v252h-13q-22 -51 -64 -101.5t-110 -84t-169 -33.5q-134 0 -237.5 66t-163 189.5t-59.5 293.5t58 298.5t162 201t242 72.5q103 0 171 -36.5t109 -89.5t64 -103h14
v214h124v-1147q0 -142 -59.5 -233.5t-163.5 -135.5t-237 -44zM557 130q161 0 251 116t90 318q0 131 -39.5 232.5t-116 160t-185.5 58.5q-113 0 -190 -60.5t-116.5 -162.5t-39.5 -228q0 -128 40 -226t117.5 -153t188.5 -55zM659 509v104h611v-104h-611z" />
    <glyph glyph-name="Gcaron" unicode="&#x1e6;" horiz-adv-x="1455" 
d="M749 -20q-195 0 -341.5 94t-227.5 266t-81 404q0 234 81.5 406t225.5 266t333 94q122 0 223.5 -38.5t178.5 -106t127 -155t68 -186.5h-140q-20 75 -59.5 139.5t-97.5 114t-133 77.5t-167 28q-145 0 -260 -76t-182 -219t-67 -344q0 -199 67 -342t184 -219t268 -76
q137 0 241.5 61t163.5 174t59 271l44 -14h-476v122h565v-122q0 -191 -76.5 -329.5t-211.5 -214t-309 -75.5zM562 1933l174 -211l173 211h128v-10l-247 -294h-109l-245 294v10h126z" />
    <glyph glyph-name="gcaron" unicode="&#x1e7;" horiz-adv-x="1165" 
d="M565 -442q-171 0 -279 64t-157 160l106 70q23 -43 64 -83.5t106 -67t160 -26.5q149 0 240.5 74t91.5 230v252h-13q-22 -51 -64 -101.5t-110 -84t-169 -33.5q-134 0 -237.5 66t-163 189.5t-59.5 293.5t58 298.5t162 201t242 72.5q103 0 171 -36.5t109 -89.5t64 -103h14
v214h124v-1147q0 -142 -59.5 -233.5t-163.5 -135.5t-237 -44zM557 130q161 0 251 116t90 318q0 131 -39.5 232.5t-116 160t-185.5 58.5q-113 0 -190 -60.5t-116.5 -162.5t-39.5 -228q0 -128 40 -226t117.5 -153t188.5 -55zM410 1561l174 -211l173 211h128v-10l-247 -294
h-109l-245 294v10h126z" />
    <glyph glyph-name="uni01E8" unicode="&#x1e8;" horiz-adv-x="1247" 
d="M165 0v1490h136v-803h14l728 803h177l-635 -689l632 -801h-166l-551 706l-199 -223v-483h-136zM456 1933l174 -211l173 211h128v-10l-247 -294h-109l-245 294v10h126z" />
    <glyph glyph-name="uni01E9" unicode="&#x1e9;" horiz-adv-x="1011" 
d="M257 422l-2 170h30l523 526h163l-516 -519l-12 -2zM139 0v1490h129v-1490h-129zM834 0l-453 573l93 90l527 -663h-167zM31 1933l174 -211l173 211h128v-10l-247 -294h-109l-245 294v10h126z" />
    <glyph glyph-name="uni01EA" unicode="&#x1ea;" horiz-adv-x="1486" 
d="M744 -20q-188 0 -334 94t-228.5 266t-82.5 404q0 233 83 405.5t228.5 266.5t333.5 94t333 -94t227.5 -266.5t82.5 -405.5q0 -232 -82.5 -404t-227.5 -266t-333 -94zM744 107q146 0 262 76t183 218.5t67 342.5q0 201 -67 344t-183 219t-262 76t-262.5 -76t-184 -219
t-67.5 -344q0 -199 67 -342t183.5 -219t263.5 -76zM747 -442q-85 0 -140 47t-54 138q0 53 24 104t74.5 98.5t130.5 91.5l67 -41q-68 -57 -116.5 -114.5t-48.5 -124.5q0 -42 22.5 -64.5t70.5 -21.5q32 -1 56.5 8t43.5 22l17 -98q-26 -18 -62.5 -31.5t-84.5 -13.5z" />
    <glyph glyph-name="uni01EB" unicode="&#x1eb;" horiz-adv-x="1146" 
d="M573 -24q-145 0 -256 73.5t-173.5 204t-62.5 299.5q0 172 62.5 302.5t173.5 204t256 73.5t255.5 -73.5t173.5 -204t63 -302.5q0 -169 -62.5 -299.5t-173.5 -204t-256 -73.5zM573 94q117 0 197.5 62.5t122.5 167.5t42 229q0 126 -42 231t-123 168t-197 63t-196.5 -63.5
t-123 -168t-42.5 -230.5q0 -124 42 -229t123 -167.5t197 -62.5zM572 -438q-85 0 -140 47t-54 138q0 53 24 104t74.5 98.5t130.5 91.5l67 -41q-68 -57 -116.5 -114.5t-48.5 -124.5q0 -42 22.5 -64.5t70.5 -21.5q32 -1 56.5 8t43.5 22l17 -98q-26 -18 -62.5 -31.5t-84.5 -13.5
z" />
    <glyph glyph-name="uni01EC" unicode="&#x1ec;" horiz-adv-x="1486" 
d="M744 -20q-188 0 -334 94t-228.5 266t-82.5 404q0 233 83 405.5t228.5 266.5t333.5 94t333 -94t227.5 -266.5t82.5 -405.5q0 -232 -82.5 -404t-227.5 -266t-333 -94zM744 107q146 0 262 76t183 218.5t67 342.5q0 201 -67 344t-183 219t-262 76t-262.5 -76t-184 -219
t-67.5 -344q0 -199 67 -342t183.5 -219t263.5 -76zM747 -442q-85 0 -140 47t-54 138q0 53 24 104t74.5 98.5t130.5 91.5l67 -41q-68 -57 -116.5 -114.5t-48.5 -124.5q0 -42 22.5 -64.5t70.5 -21.5q32 -1 56.5 8t43.5 22l17 -98q-26 -18 -62.5 -31.5t-84.5 -13.5zM1048 1829
v-113h-609v113h609z" />
    <glyph glyph-name="uni01ED" unicode="&#x1ed;" horiz-adv-x="1146" 
d="M573 -24q-145 0 -256 73.5t-173.5 204t-62.5 299.5q0 172 62.5 302.5t173.5 204t256 73.5t255.5 -73.5t173.5 -204t63 -302.5q0 -169 -62.5 -299.5t-173.5 -204t-256 -73.5zM573 94q117 0 197.5 62.5t122.5 167.5t42 229q0 126 -42 231t-123 168t-197 63t-196.5 -63.5
t-123 -168t-42.5 -230.5q0 -124 42 -229t123 -167.5t197 -62.5zM572 -438q-85 0 -140 47t-54 138q0 53 24 104t74.5 98.5t130.5 91.5l67 -41q-68 -57 -116.5 -114.5t-48.5 -124.5q0 -42 22.5 -64.5t70.5 -21.5q32 -1 56.5 8t43.5 22l17 -98q-26 -18 -62.5 -31.5t-84.5 -13.5
zM877 1457v-113h-609v113h609z" />
    <glyph glyph-name="uni01EE" unicode="&#x1ee;" horiz-adv-x="1340" 
d="M75 67h138q5 -113 66 -200t160 -135.5t220 -48.5q135 0 236 63.5t157.5 173t55.5 247.5q1 151 -68.5 264.5t-191.5 177.5t-281 66h-97v116l548 575v-1h-859v125h1042v-101l-560 -592v-12q178 -7 313.5 -88t211.5 -217.5t76 -311.5q0 -128 -41 -238.5t-117.5 -194
t-184.5 -130t-243 -46.5q-159 0 -288.5 64.5t-208 179t-84.5 264.5zM496 1933l174 -211l173 211h128v-10l-247 -294h-109l-245 294v10h126z" />
    <glyph glyph-name="uni01EF" unicode="&#x1ef;" horiz-adv-x="1229" 
d="M134 0h138q6 -83 53 -144t124 -93.5t171 -32.5q104 0 183 38.5t123.5 109.5t43.5 167q1 92 -44.5 167.5t-140.5 120.5t-245 45h-79v113l404 495v9h-661v123h850v-101l-426 -521v-10q137 -6 244.5 -63t170 -154t62.5 -224q0 -124 -61.5 -223t-171 -156.5t-254.5 -57.5
q-130 0 -238 48t-174 136t-72 208zM427 1561l174 -211l173 211h128v-10l-247 -294h-109l-245 294v10h126z" />
    <glyph glyph-name="uni01F0" unicode="&#x1f0;" horiz-adv-x="409" 
d="M141 1118h129v-1227q1 -95 -34.5 -164.5t-102.5 -107t-162 -37.5h-28v122h27q80 0 125.5 49t45.5 138v1227zM31 1561l174 -211l173 211h128v-10l-247 -294h-109l-245 294v10h126z" />
    <glyph glyph-name="uni01F1" unicode="&#x1f1;" horiz-adv-x="2607" 
d="M602 0h-361v122h353q192 0 321.5 75.5t194.5 216t65 335.5q0 192 -63.5 330.5t-187 213t-304.5 74.5h-384v123h392q213 0 365 -89t232.5 -255t80.5 -397q0 -235 -82.5 -402.5t-240 -257t-381.5 -89.5zM301 1490v-1490h-136v1490h136zM1511 0v102l828 1265h-831v123h994
v-104l-828 -1264h834v-122h-997z" />
    <glyph glyph-name="uni01F2" unicode="&#x1f2;" horiz-adv-x="2427" 
d="M602 0h-361v122h353q192 0 321.5 75.5t194.5 216t65 335.5q0 192 -63.5 330.5t-187 213t-304.5 74.5h-384v123h392q213 0 365 -89t232.5 -255t80.5 -397q0 -235 -82.5 -402.5t-240 -257t-381.5 -89.5zM301 1490v-1490h-136v1490h136zM1510 0v102l645 883v10h-618v123h784
v-108l-633 -878v-10h656v-122h-834z" />
    <glyph glyph-name="uni01F3" unicode="&#x1f3;" horiz-adv-x="2084" 
d="M540 -24q-137 0 -240.5 72.5t-161 203.5t-57.5 304q0 172 58 302t161.5 202.5t240.5 72.5q103 0 170.5 -36.5t109 -89.5t63.5 -103h11v586h129v-1490h-125v208h-15q-22 -51 -64 -105t-110 -90.5t-170 -36.5zM555 94q109 0 185 60t116.5 164.5t40.5 238.5q0 135 -40 238
t-116.5 161.5t-185.5 58.5q-111 0 -188 -61t-116.5 -164.5t-39.5 -232.5t40 -234t116.5 -167t187.5 -62zM1167 0v102l645 883v10h-618v123h784v-108l-633 -878v-10h656v-122h-834z" />
    <glyph glyph-name="uni01F4" unicode="&#x1f4;" horiz-adv-x="1455" 
d="M749 -20q-195 0 -341.5 94t-227.5 266t-81 404q0 234 81.5 406t225.5 266t333 94q122 0 223.5 -38.5t178.5 -106t127 -155t68 -186.5h-140q-20 75 -59.5 139.5t-97.5 114t-133 77.5t-167 28q-145 0 -260 -76t-182 -219t-67 -344q0 -199 67 -342t184 -219t268 -76
q137 0 241.5 61t163.5 174t59 271l44 -14h-476v122h565v-122q0 -191 -76.5 -329.5t-211.5 -214t-309 -75.5zM672 1637l161 288h149l-200 -288h-110z" />
    <glyph glyph-name="uni01F5" unicode="&#x1f5;" horiz-adv-x="1165" 
d="M565 -442q-171 0 -279 64t-157 160l106 70q23 -43 64 -83.5t106 -67t160 -26.5q149 0 240.5 74t91.5 230v252h-13q-22 -51 -64 -101.5t-110 -84t-169 -33.5q-134 0 -237.5 66t-163 189.5t-59.5 293.5t58 298.5t162 201t242 72.5q103 0 171 -36.5t109 -89.5t64 -103h14
v214h124v-1147q0 -142 -59.5 -233.5t-163.5 -135.5t-237 -44zM557 130q161 0 251 116t90 318q0 131 -39.5 232.5t-116 160t-185.5 58.5q-113 0 -190 -60.5t-116.5 -162.5t-39.5 -228q0 -128 40 -226t117.5 -153t188.5 -55zM520 1265l161 288h149l-200 -288h-110z" />
    <glyph glyph-name="uni01F6" unicode="&#x1f6;" horiz-adv-x="2214" 
d="M1616 -21q-139 0 -244.5 53t-165 160.5t-59.5 269.5v223h-846v-685h-136v1490h136v-683h846v683h136v-1028q0 -183 87.5 -270t245.5 -87q158 -1 240 86.5t83 270.5v665h136v-665q0 -166 -59 -273t-162.5 -158.5t-237.5 -51.5z" />
    <glyph glyph-name="uni01F7" unicode="&#x1f7;" horiz-adv-x="1124" 
d="M217 1490v-1908h-154v1908h154zM133 -165v126q197 36 342.5 120.5t241.5 203.5t143 261t47 293v45q0 131 -25.5 225t-76.5 154.5t-126 90t-174 29.5t-165 -31t-106.5 -86.5t-66.5 -131.5l-7 275q65 48 150 74.5t194 26.5q173 0 297.5 -68t192 -207.5t67.5 -354.5v-40
q0 -197 -67.5 -366.5t-192 -301.5t-294.5 -219t-374 -118z" />
    <glyph glyph-name="uni01F8" unicode="&#x1f8;" horiz-adv-x="1493" 
d="M1327 1490v-1490h-134l-879 1247h-13v-1247h-136v1490h132l884 -1249h11v1249h135zM699 1637l-200 288h149l161 -288h-110z" />
    <glyph glyph-name="uni01F9" unicode="&#x1f9;" horiz-adv-x="1124" 
d="M268 698v-698h-129v1118h125v-177h13q39 87 122 139t206 52q113 0 198.5 -47t133.5 -138t48 -224v-723h-129v715q0 137 -77 218t-206 81q-88 0 -157 -38.5t-108.5 -109t-39.5 -168.5zM516 1265l-200 288h149l161 -288h-110z" />
    <glyph glyph-name="Aringacute" unicode="&#x1fa;" horiz-adv-x="1279" 
d="M168 0h-143l543 1490h145l542 -1490h-142l-468 1313h-10zM271 571h739v-122h-739v122zM582 2012l136 167h141l-168 -167h-109zM639 1583q-81 0 -138.5 54.5t-56.5 131.5q-1 77 56.5 131.5t138.5 54.5t138.5 -54.5t56.5 -131.5q1 -77 -56.5 -131.5t-138.5 -54.5zM639 1664
q47 0 78.5 30.5t30.5 74.5q1 44 -30.5 74.5t-78.5 30.5t-78.5 -30.5t-30.5 -74.5q-1 -44 31 -74.5t78 -30.5z" />
    <glyph glyph-name="aringacute" unicode="&#x1fb;" horiz-adv-x="1074" 
d="M451 -25q-101 0 -185 39.5t-133.5 115t-49.5 183.5q0 83 31 139t89 92.5t136.5 58t173.5 32.5q94 12 159 20.5t99 27.5t34 61v26q0 115 -68 180.5t-195 65.5q-121 0 -197 -53t-106 -125l-124 45q38 91 105 146t150 79.5t168 24.5q64 0 133 -17t129 -58t97.5 -114.5
t37.5 -185.5v-758h-130v177h-8q-22 -49 -68 -95.5t-115 -76.5t-163 -30zM469 93q103 0 178.5 45.5t116.5 122.5t41 168v161q-15 -14 -48.5 -25t-77 -19t-88 -14t-78.5 -10q-94 -12 -161.5 -37t-103 -68t-35.5 -111q0 -101 72.5 -157t183.5 -56zM492 1640l136 167h141
l-168 -167h-109zM549 1211q-81 0 -138.5 54.5t-56.5 131.5q-1 77 56.5 131.5t138.5 54.5t138.5 -54.5t56.5 -131.5q1 -77 -56.5 -131.5t-138.5 -54.5zM549 1292q47 0 78.5 30.5t30.5 74.5q1 44 -30.5 74.5t-78.5 30.5t-78.5 -30.5t-30.5 -74.5q-1 -44 31 -74.5t78 -30.5z
" />
    <glyph glyph-name="AEacute" unicode="&#x1fc;" horiz-adv-x="1943" 
d="M25 0l734 1490h1062v-123h-728v-560h683v-122h-683v-563h743v-122h-879v1367h-120l-662 -1367h-150zM350 449v122h676v-122h-676zM1205 1637l161 288h149l-200 -288h-110z" />
    <glyph glyph-name="aeacute" unicode="&#x1fd;" horiz-adv-x="1823" 
d="M1293 -24q-179 0 -300.5 94.5t-157.5 244.5l26 532q56 132 161.5 209t252.5 77q90 0 174.5 -33.5t152 -101t106.5 -170.5t39 -243v-66h-870v115h737q0 108 -43.5 194t-119.5 136.5t-176 50.5q-107 0 -188 -56.5t-126.5 -150t-45.5 -204.5v-67q0 -133 46 -232.5
t131.5 -154.5t200.5 -55q80 0 140 25t101 67t62 92l123 -41q-25 -70 -83 -129.5t-144 -96t-199 -36.5zM469 93q103 0 178.5 46t116.5 122.5t41 167.5v161q-15 -14 -48.5 -25t-77 -19t-88 -14t-78.5 -10q-94 -12 -161.5 -37t-103 -68t-35.5 -111q0 -101 72.5 -157t183.5 -56z
M451 -25q-101 0 -185 39.5t-133.5 115t-49.5 183.5q0 83 31 139.5t89 92.5t136.5 57.5t173.5 32.5q94 12 159 21t99 27.5t34 60.5v26q0 115 -68 180.5t-195 65.5q-120 0 -196.5 -53t-106.5 -125l-124 45q38 91 105 146t150 79.5t168 24.5q58 0 118.5 -14t114.5 -45.5t94 -84
t56 -130.5l-45 -606h-12q-26 -87 -88 -149t-146.5 -95.5t-178.5 -33.5zM849 1265l161 288h149l-200 -288h-110z" />
    <glyph glyph-name="Oslashacute" unicode="&#x1fe;" horiz-adv-x="1486" 
d="M271 -53l-86 60l1026 1533l86 -59zM744 -20q-188 0 -334 94t-228.5 266t-82.5 404q0 233 83 405.5t228.5 266.5t333.5 94t333 -94t227.5 -266.5t82.5 -405.5q0 -232 -82.5 -404t-227.5 -266t-333 -94zM744 107q146 0 262 76t183 218.5t67 342.5q0 201 -67 344t-183 219
t-262 76t-262.5 -76t-184 -219t-67.5 -344q0 -199 67 -342t183.5 -219t263.5 -76zM680 1637l161 288h149l-200 -288h-110z" />
    <glyph glyph-name="oslashacute" unicode="&#x1ff;" horiz-adv-x="1146" 
d="M227 -51l-86 60l778 1153l86 -59zM573 -23q-145 0 -256 73.5t-173.5 203.5t-62.5 300q0 172 62.5 302.5t173.5 203.5t256 73t255.5 -73t173.5 -204t63 -302q0 -170 -62.5 -300t-173.5 -203.5t-256 -73.5zM573 95q117 0 197.5 62.5t122.5 167t42 229.5q0 126 -42 230.5
t-123 167.5t-197 63t-196.5 -63t-123 -167.5t-42.5 -230.5q0 -125 42 -229.5t123 -167t197 -62.5zM509 1266l161 288h149l-200 -288h-110z" />
    <glyph glyph-name="uni0200" unicode="&#x200;" horiz-adv-x="1279" 
d="M168 0h-143l543 1490h145l542 -1490h-142l-468 1313h-10zM271 571h739v-122h-739v122zM461 1644l-237 330h163l189 -330h-115zM720 1644l-181 330h165l131 -330h-115z" />
    <glyph glyph-name="uni0201" unicode="&#x201;" horiz-adv-x="1074" 
d="M451 -25q-101 0 -185 39.5t-133.5 115t-49.5 183.5q0 83 31 139t89 92.5t136.5 58t173.5 32.5q94 12 159 20.5t99 27.5t34 61v26q0 115 -68 180.5t-195 65.5q-121 0 -197 -53t-106 -125l-124 45q38 91 105 146t150 79.5t168 24.5q64 0 133 -17t129 -58t97.5 -114.5
t37.5 -185.5v-758h-130v177h-8q-22 -49 -68 -95.5t-115 -76.5t-163 -30zM469 93q103 0 178.5 45.5t116.5 122.5t41 168v161q-15 -14 -48.5 -25t-77 -19t-88 -14t-78.5 -10q-94 -12 -161.5 -37t-103 -68t-35.5 -111q0 -101 72.5 -157t183.5 -56zM370 1272l-237 330h163
l189 -330h-115zM629 1272l-181 330h165l131 -330h-115z" />
    <glyph glyph-name="uni0202" unicode="&#x202;" horiz-adv-x="1279" 
d="M168 0h-143l543 1490h145l542 -1490h-142l-468 1313h-10zM271 571h739v-122h-739v122zM385 1639q0 107 70.5 172t184.5 65t184.5 -65t70.5 -172h-122q0 62 -36 100.5t-97 38.5q-60 0 -96.5 -38.5t-36.5 -100.5h-122z" />
    <glyph glyph-name="uni0203" unicode="&#x203;" horiz-adv-x="1074" 
d="M451 -25q-101 0 -185 39.5t-133.5 115t-49.5 183.5q0 83 31 139t89 92.5t136.5 58t173.5 32.5q94 12 159 20.5t99 27.5t34 61v26q0 115 -68 180.5t-195 65.5q-121 0 -197 -53t-106 -125l-124 45q38 91 105 146t150 79.5t168 24.5q64 0 133 -17t129 -58t97.5 -114.5
t37.5 -185.5v-758h-130v177h-8q-22 -49 -68 -95.5t-115 -76.5t-163 -30zM469 93q103 0 178.5 45.5t116.5 122.5t41 168v161q-15 -14 -48.5 -25t-77 -19t-88 -14t-78.5 -10q-94 -12 -161.5 -37t-103 -68t-35.5 -111q0 -101 72.5 -157t183.5 -56zM294 1267q0 107 70.5 172
t184.5 65t184.5 -65t70.5 -172h-122q0 62 -36 100.5t-97 38.5q-60 0 -96.5 -38.5t-36.5 -100.5h-122z" />
    <glyph glyph-name="uni0204" unicode="&#x204;" horiz-adv-x="1151" 
d="M165 0v1490h865v-123h-729v-556h683v-122h-683v-567h743v-122h-879zM419 1644l-237 330h163l189 -330h-115zM678 1644l-181 330h165l131 -330h-115z" />
    <glyph glyph-name="uni0205" unicode="&#x205;" horiz-adv-x="1119" 
d="M591 -24q-156 0 -271 73.5t-177 203.5t-62 299t61.5 300t171.5 206t255 75q90 0 175 -33.5t153 -101.5t107 -172.5t39 -248.5v-58h-873v114h803l-59 -44q0 122 -41.5 218t-118.5 152t-185 56q-107 0 -188 -56.5t-125.5 -150t-44.5 -204.5v-67q0 -134 46.5 -233.5
t132 -154.5t201.5 -55q79 0 139 25t101 67.5t62 92.5l123 -41q-26 -70 -83.5 -129.5t-144 -96t-197.5 -36.5zM385 1272l-237 330h163l189 -330h-115zM644 1272l-181 330h165l131 -330h-115z" />
    <glyph glyph-name="uni0206" unicode="&#x206;" horiz-adv-x="1151" 
d="M165 0v1490h865v-123h-729v-556h683v-122h-683v-567h743v-122h-879zM343 1639q0 107 70.5 172t184.5 65t184.5 -65t70.5 -172h-122q0 62 -36 100.5t-97 38.5q-60 0 -96.5 -38.5t-36.5 -100.5h-122z" />
    <glyph glyph-name="uni0207" unicode="&#x207;" horiz-adv-x="1119" 
d="M591 -24q-156 0 -271 73.5t-177 203.5t-62 299t61.5 300t171.5 206t255 75q90 0 175 -33.5t153 -101.5t107 -172.5t39 -248.5v-58h-873v114h803l-59 -44q0 122 -41.5 218t-118.5 152t-185 56q-107 0 -188 -56.5t-125.5 -150t-44.5 -204.5v-67q0 -134 46.5 -233.5
t132 -154.5t201.5 -55q79 0 139 25t101 67.5t62 92.5l123 -41q-26 -70 -83.5 -129.5t-144 -96t-197.5 -36.5zM309 1267q0 107 70.5 172t184.5 65t184.5 -65t70.5 -172h-122q0 62 -36 100.5t-97 38.5q-60 0 -96.5 -38.5t-36.5 -100.5h-122z" />
    <glyph glyph-name="uni0208" unicode="&#x208;" horiz-adv-x="467" 
d="M301 1490v-1490h-136v1490h136zM54 1644l-237 330h163l189 -330h-115zM313 1644l-181 330h165l131 -330h-115z" />
    <glyph glyph-name="uni0209" unicode="&#x209;" horiz-adv-x="407" 
d="M139 0v1118h129v-1118h-129zM25 1272l-237 330h163l189 -330h-115zM284 1272l-181 330h165l131 -330h-115z" />
    <glyph glyph-name="uni020A" unicode="&#x20a;" horiz-adv-x="467" 
d="M301 1490v-1490h-136v1490h136zM-22 1639q0 107 70.5 172t184.5 65t184.5 -65t70.5 -172h-122q0 62 -36 100.5t-97 38.5q-60 0 -96.5 -38.5t-36.5 -100.5h-122z" />
    <glyph glyph-name="uni020B" unicode="&#x20b;" horiz-adv-x="407" 
d="M139 0v1118h129v-1118h-129zM-51 1267q0 107 70.5 172t184.5 65t184.5 -65t70.5 -172h-122q0 62 -36 100.5t-97 38.5q-60 0 -96.5 -38.5t-36.5 -100.5h-122z" />
    <glyph glyph-name="uni020C" unicode="&#x20c;" horiz-adv-x="1486" 
d="M744 -20q-188 0 -334 94t-228.5 266t-82.5 404q0 233 83 405.5t228.5 266.5t333.5 94t333 -94t227.5 -266.5t82.5 -405.5q0 -232 -82.5 -404t-227.5 -266t-333 -94zM744 107q146 0 262 76t183 218.5t67 342.5q0 201 -67 344t-183 219t-262 76t-262.5 -76t-184 -219
t-67.5 -344q0 -199 67 -342t183.5 -219t263.5 -76zM565 1644l-237 330h163l189 -330h-115zM824 1644l-181 330h165l131 -330h-115z" />
    <glyph glyph-name="uni020D" unicode="&#x20d;" horiz-adv-x="1146" 
d="M573 -24q-145 0 -256 73.5t-173.5 204t-62.5 299.5q0 172 62.5 302.5t173.5 204t256 73.5t255.5 -73.5t173.5 -204t63 -302.5q0 -169 -62.5 -299.5t-173.5 -204t-256 -73.5zM573 94q117 0 197.5 62.5t122.5 167.5t42 229q0 126 -42 231t-123 168t-197 63t-196.5 -63.5
t-123 -168t-42.5 -230.5q0 -124 42 -229t123 -167.5t197 -62.5zM393 1272l-237 330h163l189 -330h-115zM652 1272l-181 330h165l131 -330h-115z" />
    <glyph glyph-name="uni020E" unicode="&#x20e;" horiz-adv-x="1486" 
d="M744 -20q-188 0 -334 94t-228.5 266t-82.5 404q0 233 83 405.5t228.5 266.5t333.5 94t333 -94t227.5 -266.5t82.5 -405.5q0 -232 -82.5 -404t-227.5 -266t-333 -94zM744 107q146 0 262 76t183 218.5t67 342.5q0 201 -67 344t-183 219t-262 76t-262.5 -76t-184 -219
t-67.5 -344q0 -199 67 -342t183.5 -219t263.5 -76zM489 1639q0 107 70.5 172t184.5 65t184.5 -65t70.5 -172h-122q0 62 -36 100.5t-97 38.5q-60 0 -96.5 -38.5t-36.5 -100.5h-122z" />
    <glyph glyph-name="uni020F" unicode="&#x20f;" horiz-adv-x="1146" 
d="M573 -24q-145 0 -256 73.5t-173.5 204t-62.5 299.5q0 172 62.5 302.5t173.5 204t256 73.5t255.5 -73.5t173.5 -204t63 -302.5q0 -169 -62.5 -299.5t-173.5 -204t-256 -73.5zM573 94q117 0 197.5 62.5t122.5 167.5t42 229q0 126 -42 231t-123 168t-197 63t-196.5 -63.5
t-123 -168t-42.5 -230.5q0 -124 42 -229t123 -167.5t197 -62.5zM317 1267q0 107 70.5 172t184.5 65t184.5 -65t70.5 -172h-122q0 62 -36 100.5t-97 38.5q-60 0 -96.5 -38.5t-36.5 -100.5h-122z" />
    <glyph glyph-name="uni0210" unicode="&#x210;" horiz-adv-x="1229" 
d="M165 0v1490h482q159 0 265 -57.5t160.5 -158.5t54.5 -231t-54 -229.5t-160.5 -155.5t-263.5 -56h-409v124h405q117 0 194 39t115.5 110t38.5 168q0 98 -39 171t-116 113t-195 40h-342v-1367h-136zM1031 0l-362 673h154l366 -673h-158zM428 1644l-237 330h163l189 -330
h-115zM687 1644l-181 330h165l131 -330h-115z" />
    <glyph glyph-name="uni0211" unicode="&#x211;" horiz-adv-x="666" 
d="M139 0v1118h125v-173h10q34 85 117.5 136.5t188.5 51.5h35.5t32.5 -1v-131q-8 1 -30 3.5t-49 2.5q-86 0 -154.5 -37t-107.5 -101.5t-39 -147.5v-721h-129zM213 1272l-237 330h163l189 -330h-115zM472 1272l-181 330h165l131 -330h-115z" />
    <glyph glyph-name="uni0212" unicode="&#x212;" horiz-adv-x="1229" 
d="M165 0v1490h482q159 0 265 -57.5t160.5 -158.5t54.5 -231t-54 -229.5t-160.5 -155.5t-263.5 -56h-409v124h405q117 0 194 39t115.5 110t38.5 168q0 98 -39 171t-116 113t-195 40h-342v-1367h-136zM1031 0l-362 673h154l366 -673h-158zM352 1639q0 107 70.5 172t184.5 65
t184.5 -65t70.5 -172h-122q0 62 -36 100.5t-97 38.5q-60 0 -96.5 -38.5t-36.5 -100.5h-122z" />
    <glyph glyph-name="uni0213" unicode="&#x213;" horiz-adv-x="666" 
d="M139 0v1118h125v-173h10q34 85 117.5 136.5t188.5 51.5h35.5t32.5 -1v-131q-8 1 -30 3.5t-49 2.5q-86 0 -154.5 -37t-107.5 -101.5t-39 -147.5v-721h-129zM137 1267q0 107 70.5 172t184.5 65t184.5 -65t70.5 -172h-122q0 62 -36 100.5t-97 38.5q-60 0 -96.5 -38.5
t-36.5 -100.5h-122z" />
    <glyph glyph-name="uni0214" unicode="&#x214;" horiz-adv-x="1460" 
d="M1159 1490h136v-986q0 -152 -71 -271.5t-198.5 -188.5t-294.5 -69q-168 0 -295.5 69t-199 188.5t-71.5 271.5v986h136v-977q0 -118 53.5 -211t150 -146t226.5 -53q129 0 225 53t149.5 146t53.5 211v977zM551 1644l-237 330h163l189 -330h-115zM810 1644l-181 330h165
l131 -330h-115z" />
    <glyph glyph-name="uni0215" unicode="&#x215;" horiz-adv-x="1117" 
d="M849 426v692h129v-1118h-129v186h-10q-40 -86 -125 -143.5t-208 -56.5q-107 0 -189.5 46.5t-130 138t-47.5 223.5v724h129v-717q0 -130 77.5 -210t197.5 -79q76 0 146 36t115 106t45 172zM380 1272l-237 330h163l189 -330h-115zM639 1272l-181 330h165l131 -330h-115z
" />
    <glyph glyph-name="uni0216" unicode="&#x216;" horiz-adv-x="1460" 
d="M1159 1490h136v-986q0 -152 -71 -271.5t-198.5 -188.5t-294.5 -69q-168 0 -295.5 69t-199 188.5t-71.5 271.5v986h136v-977q0 -118 53.5 -211t150 -146t226.5 -53q129 0 225 53t149.5 146t53.5 211v977zM475 1639q0 107 70.5 172t184.5 65t184.5 -65t70.5 -172h-122
q0 62 -36 100.5t-97 38.5q-60 0 -96.5 -38.5t-36.5 -100.5h-122z" />
    <glyph glyph-name="uni0217" unicode="&#x217;" horiz-adv-x="1117" 
d="M849 426v692h129v-1118h-129v186h-10q-40 -86 -125 -143.5t-208 -56.5q-107 0 -189.5 46.5t-130 138t-47.5 223.5v724h129v-717q0 -130 77.5 -210t197.5 -79q76 0 146 36t115 106t45 172zM304 1267q0 107 70.5 172t184.5 65t184.5 -65t70.5 -172h-122q0 62 -36 100.5
t-97 38.5q-60 0 -96.5 -38.5t-36.5 -100.5h-122z" />
    <glyph glyph-name="uni0218" unicode="&#x218;" horiz-adv-x="1225" 
d="M610 -25q-152 0 -264 50t-176 140t-72 208h139q8 -89 58.5 -150t132.5 -92.5t182 -31.5q112 0 199 37.5t136.5 104.5t49.5 157q0 76 -39.5 127t-109.5 86t-163 62l-177 52q-175 51 -272 144t-97 236q0 120 64.5 211.5t174.5 143t247 51.5q139 0 246 -51.5t170 -140
t68 -201.5h-133q-12 124 -109 197.5t-246 73.5q-103 0 -182 -36t-123.5 -99t-44.5 -143q0 -78 44 -130.5t112 -85.5t140 -55l157 -45q71 -21 142 -51.5t130.5 -76.5t96 -112.5t36.5 -159.5q0 -118 -62 -213.5t-177.5 -151t-277.5 -55.5zM458 -519l86 376h134l-119 -376h-101
z" />
    <glyph glyph-name="uni0219" unicode="&#x219;" horiz-adv-x="986" 
d="M889 871l-118 -32q-26 75 -86.5 127.5t-173.5 52.5t-186 -54.5t-73 -139.5q0 -71 49.5 -116.5t153.5 -71.5l169 -41q140 -35 210.5 -108.5t70.5 -185.5q0 -94 -52.5 -168t-145.5 -116t-216 -42q-164 0 -270 74.5t-136 213.5l124 30q23 -99 94 -150t186 -51q128 0 206 58
t78 144q0 138 -183 183l-182 44q-146 35 -216 110t-70 187q0 92 50.5 163t138.5 111t200 40q154 0 246 -70.5t132 -191.5zM348 -494l86 376h134l-119 -376h-101z" />
    <glyph glyph-name="uni021A.1" unicode="&#x21a;" horiz-adv-x="1231" 
d="M75 1367v123h1081v-123h-472v-1367h-135v1367h-474zM461 -494l86 376h134l-119 -376h-101z" />
    <glyph glyph-name="uni021B" unicode="&#x21b;" horiz-adv-x="669" 
d="M578 1118v-113h-533v113h533zM212 1384h129v-1092q0 -91 45 -136.5t125 -45.5q18 0 36.5 2.5t39.5 7.5l28 -117q-23 -9 -53 -14t-62 -5q-124 0 -206 76.5t-82 200.5v1123zM236 -494l86 376h134l-119 -376h-101z" />
    <glyph glyph-name="uni021C" unicode="&#x21c;" horiz-adv-x="1201" 
d="M184 349v116q174 51 311.5 115t234 140.5t147 167.5t50.5 197q-1 139 -88 218t-240 80q-103 0 -181.5 -35.5t-122 -97t-42.5 -141.5h-155q1 120 65.5 210t177.5 140.5t258 50.5q140 0 248.5 -49.5t170.5 -141.5t61 -222q0 -130 -66.5 -246.5t-187.5 -213t-284.5 -170
t-356.5 -118.5zM777 671l78 88q80 -33 135.5 -91t84.5 -143t29 -202q0 -163 -61.5 -283t-180 -206.5t-289 -151.5t-389.5 -118v127q194 48 338 104t238.5 129.5t141 173t46.5 234.5t-41.5 218.5t-129.5 120.5z" />
    <glyph glyph-name="uni021D" unicode="&#x21d;" horiz-adv-x="1017" 
d="M178 228v115q175 34 302 99.5t196.5 156t68.5 198.5q-1 100 -59.5 157t-170.5 57q-76 0 -135.5 -28t-93 -78.5t-33.5 -120.5h-147q0 107 52 185t145.5 121t216.5 43q173 0 273.5 -90t100.5 -241q0 -137 -90.5 -254.5t-251.5 -201t-374 -118.5zM629 467l85 79
q99 -52 149.5 -147t50.5 -233q1 -262 -181 -411.5t-555 -190.5v120q207 34 336 96t190 159t61 234q0 107 -35 182.5t-101 111.5z" />
    <glyph glyph-name="uni021E" unicode="&#x21e;" horiz-adv-x="1447" 
d="M165 0v1490h136v-683h846v683h135v-1490h-135v685h-846v-685h-136zM549 1933l174 -211l173 211h128v-10l-247 -294h-109l-245 294v10h126z" />
    <glyph glyph-name="uni021F" unicode="&#x21f;" horiz-adv-x="1132" 
d="M268 698v-698h-129v1490h129v-549h13q39 87 121 139t209 52q113 0 199 -46.5t134.5 -137.5t48.5 -225v-723h-130v715q0 139 -77.5 219t-208.5 80q-89 0 -158.5 -38.5t-110 -109t-40.5 -168.5zM31 1933l174 -211l173 211h128v-10l-247 -294h-109l-245 294v10h126z" />
    <glyph glyph-name="uni0220" unicode="&#x220;" horiz-adv-x="1151" 
d="M1075 -417h-151v1412q1 142 -42.5 227t-127.5 123.5t-207 38.5q-106 0 -195.5 -27t-159.5 -74l-7 121q69 46 164 76t209 30q145 0 262 -54t186 -168t69 -294v-1411zM229 1490v-1490h-147v1490h147z" />
    <glyph glyph-name="uni0221" unicode="&#x221;" horiz-adv-x="1409" 
d="M895 183h130v-316q0 -78 47.5 -123.5t114.5 -44.5q64 -1 105 39t41 98q0 56 -37.5 94t-97.5 43q-64 5 -117.5 -30.5t-108.5 -109.5l-204 -220l-87 84l174 191q82 104 168 152.5t172 47.5q117 1 194.5 -69.5t77.5 -182.5q1 -73 -34.5 -130t-98.5 -89t-147 -32
q-99 0 -163.5 42.5t-96 109.5t-32.5 140v306zM539 -24q-137 0 -240.5 72.5t-161 203.5t-57.5 304q0 172 58 302t161.5 202.5t241.5 72.5q103 0 170.5 -36.5t108.5 -89.5t63 -103h12v586h128v-1490h-124v208h-16q-22 -51 -64 -105t-110 -90.5t-170 -36.5zM554 94
q109 0 185 60t116.5 164.5t40.5 238.5q0 135 -40 238t-116.5 161.5t-185.5 58.5q-111 0 -188 -61t-116.5 -164.5t-39.5 -232.5t40 -234t116.5 -167t187.5 -62z" />
    <glyph glyph-name="uni0222" unicode="&#x222;" horiz-adv-x="1183" 
d="M578 865h27q160 0 281 -50t188 -147.5t67 -241.5q0 -150 -68.5 -249t-190 -148t-280.5 -49h-20q-159 0 -281 49t-190.5 148t-68.5 248q0 144 67.5 242t188.5 148t280 50zM605 744h-27q-183 0 -283 -79.5t-100 -239.5q0 -162 102.5 -239t283.5 -76h21q181 -1 283.5 76
t103.5 240q-1 158 -101 238t-283 80zM573 874h38q108 0 191.5 23t131.5 81t47 163q1 109 -53 169.5t-153 80.5v122q102 -9 183.5 -52t129 -122.5t47.5 -197.5q0 -143 -70 -227.5t-188.5 -122t-265.5 -38.5h-38q-147 1 -266 38t-188.5 122t-69.5 228q0 116 46 195t126 122
t178 52v-122q-94 -22 -145.5 -81.5t-51.5 -165.5q0 -105 48 -163.5t131.5 -81t191.5 -22.5z" />
    <glyph glyph-name="uni0223" unicode="&#x223;" horiz-adv-x="1201" 
d="M578 862h45q159 1 279 -48t188 -146t68 -240q0 -148 -69 -248t-189.5 -150t-279.5 -50h-38q-158 0 -280 50t-190.5 149.5t-68.5 247.5q0 144 67.5 241t188.5 146t279 48zM623 746h-45q-181 0 -283 -79.5t-102 -239.5q0 -161 104 -243t284 -82h39q179 0 283.5 82
t103.5 244q1 158 -102 238t-282 80zM634 869q108 0 192 28t132.5 92t47.5 170q0 118 -53 185t-155 97v115q104 -7 184.5 -56t127 -135t46.5 -206q0 -143 -69.5 -232.5t-188 -131t-265.5 -42.5h-66q-146 1 -264.5 42.5t-188 131t-69.5 232.5q0 119 45.5 204t124 133.5
t179.5 56.5v-115q-97 -32 -148 -97.5t-51 -181.5q1 -107 49 -170.5t132 -91.5t191 -28h67z" />
    <glyph glyph-name="uni0224" unicode="&#x224;" horiz-adv-x="1187" 
d="M93 1367v123h994v-104l-828 -1264h580q123 0 193.5 -72t70.5 -191v-69h-124v39q0 50 -13.5 88.5t-44 60.5t-83.5 22h-741v102l827 1265h-831z" />
    <glyph glyph-name="uni0225" unicode="&#x225;" horiz-adv-x="1021" 
d="M854 -217v38q1 53 -12 93t-44.5 63t-90.5 23h-601v113l643 882h-637v123h803v-108l-642 -888h436q126 0 195 -74t69 -189v-76h-119z" />
    <glyph glyph-name="uni0226" unicode="&#x226;" horiz-adv-x="1279" 
d="M168 0h-143l543 1490h145l542 -1490h-142l-468 1313h-10zM271 571h739v-122h-739v122zM640 1681q-40 0 -68.5 27.5t-28.5 66.5q0 38 28.5 65t68.5 27t68 -27t28 -65q0 -39 -28 -66.5t-68 -27.5z" />
    <glyph glyph-name="uni0227" unicode="&#x227;" horiz-adv-x="1074" 
d="M451 -25q-101 0 -185 39.5t-133.5 115t-49.5 183.5q0 83 31 139t89 92.5t136.5 58t173.5 32.5q94 12 159 20.5t99 27.5t34 61v26q0 115 -68 180.5t-195 65.5q-121 0 -197 -53t-106 -125l-124 45q38 91 105 146t150 79.5t168 24.5q64 0 133 -17t129 -58t97.5 -114.5
t37.5 -185.5v-758h-130v177h-8q-22 -49 -68 -95.5t-115 -76.5t-163 -30zM469 93q103 0 178.5 45.5t116.5 122.5t41 168v161q-15 -14 -48.5 -25t-77 -19t-88 -14t-78.5 -10q-94 -12 -161.5 -37t-103 -68t-35.5 -111q0 -101 72.5 -157t183.5 -56zM550 1309q-40 0 -68.5 27.5
t-28.5 66.5q0 38 28.5 65t68.5 27t68 -27t28 -65q0 -39 -28 -66.5t-68 -27.5z" />
    <glyph glyph-name="uni0228" unicode="&#x228;" horiz-adv-x="1151" 
d="M165 0v1490h865v-123h-729v-556h683v-122h-683v-567h743v-122h-879zM520 6h111l-12 -58q63 -10 107.5 -51t44.5 -120q0 -88 -68.5 -140t-200.5 -53l-5 92q73 0 114.5 23t41.5 74q0 54 -38.5 77t-120.5 27z" />
    <glyph glyph-name="uni0229" unicode="&#x229;" horiz-adv-x="1119" 
d="M591 -24q-156 0 -271 73.5t-177 203.5t-62 299t61.5 300t171.5 206t255 75q90 0 175 -33.5t153 -101.5t107 -172.5t39 -248.5v-58h-873v114h803l-59 -44q0 122 -41.5 218t-118.5 152t-185 56q-107 0 -188 -56.5t-125.5 -150t-44.5 -204.5v-67q0 -134 46.5 -233.5
t132 -154.5t201.5 -55q79 0 139 25t101 67.5t62 92.5l123 -41q-26 -70 -83.5 -129.5t-144 -96t-197.5 -36.5zM508 6h111l-12 -58q63 -10 107.5 -51t44.5 -120q0 -88 -68.5 -140t-200.5 -53l-5 92q73 0 114.5 23t41.5 74q0 54 -38.5 77t-120.5 27z" />
    <glyph glyph-name="uni022A" unicode="&#x22a;" horiz-adv-x="1486" 
d="M744 -20q-188 0 -334 94t-228.5 266t-82.5 404q0 233 83 405.5t228.5 266.5t333.5 94t333 -94t227.5 -266.5t82.5 -405.5q0 -232 -82.5 -404t-227.5 -266t-333 -94zM744 107q146 0 262 76t183 218.5t67 342.5q0 201 -67 344t-183 219t-262 76t-262.5 -76t-184 -219
t-67.5 -344q0 -199 67 -342t183.5 -219t263.5 -76zM559 1681q-37 0 -65.5 28.5t-28.5 65.5q0 39 28.5 65.5t65.5 26.5q39 0 65.5 -26.5t26.5 -65.5q0 -37 -26.5 -65.5t-65.5 -28.5zM930 1681q-37 0 -65 28.5t-28 65.5q0 39 28 65.5t65 26.5q40 0 67 -26.5t26 -65.5
q1 -37 -26 -65.5t-67 -28.5zM1050 2172v-113h-609v113h609z" />
    <glyph glyph-name="uni022B" unicode="&#x22b;" horiz-adv-x="1146" 
d="M573 -24q-145 0 -256 73.5t-173.5 204t-62.5 299.5q0 172 62.5 302.5t173.5 204t256 73.5t255.5 -73.5t173.5 -204t63 -302.5q0 -169 -62.5 -299.5t-173.5 -204t-256 -73.5zM573 94q117 0 197.5 62.5t122.5 167.5t42 229q0 126 -42 231t-123 168t-197 63t-196.5 -63.5
t-123 -168t-42.5 -230.5q0 -124 42 -229t123 -167.5t197 -62.5zM388 1309q-37 0 -65.5 28.5t-28.5 65.5q0 39 28.5 65.5t65.5 26.5q39 0 65.5 -26.5t26.5 -65.5q0 -37 -26.5 -65.5t-65.5 -28.5zM759 1309q-37 0 -65 28.5t-28 65.5q0 39 28 65.5t65 26.5q40 0 67 -26.5
t26 -65.5q1 -37 -26 -65.5t-67 -28.5zM878 1800v-113h-609v113h609z" />
    <glyph glyph-name="uni022C" unicode="&#x22c;" horiz-adv-x="1486" 
d="M744 -20q-188 0 -334 94t-228.5 266t-82.5 404q0 233 83 405.5t228.5 266.5t333.5 94t333 -94t227.5 -266.5t82.5 -405.5q0 -232 -82.5 -404t-227.5 -266t-333 -94zM744 107q146 0 262 76t183 218.5t67 342.5q0 201 -67 344t-183 219t-262 76t-262.5 -76t-184 -219
t-67.5 -344q0 -199 67 -342t183.5 -219t263.5 -76zM937 1844l73 -18q-3 -67 -46 -117t-110 -50q-51 0 -83.5 21.5t-62 42.5t-71.5 21q-34 0 -57 -28t-25 -64l-73 16q3 67 46 119t110 51q47 1 80 -20t64 -42t71 -20q34 0 58 25.5t26 62.5zM1049 2063v-117h-611v117h611z" />
    <glyph glyph-name="uni022D" unicode="&#x22d;" horiz-adv-x="1146" 
d="M573 -24q-145 0 -256 73.5t-173.5 204t-62.5 299.5q0 172 62.5 302.5t173.5 204t256 73.5t255.5 -73.5t173.5 -204t63 -302.5q0 -169 -62.5 -299.5t-173.5 -204t-256 -73.5zM573 94q117 0 197.5 62.5t122.5 167.5t42 229q0 126 -42 231t-123 168t-197 63t-196.5 -63.5
t-123 -168t-42.5 -230.5q0 -124 42 -229t123 -167.5t197 -62.5zM791 1521l103 -10q-1 -65 -27 -113.5t-68.5 -75.5t-96.5 -28q-47 0 -78 15.5t-56.5 36t-52.5 36t-65 15.5q-41 0 -68 -33t-29 -79l-102 6q2 65 27.5 114t69 77.5t97.5 28.5q41 0 71.5 -15.5t57 -36t55 -35.5
t64.5 -15q42 0 69 32.5t29 79.5zM880 1741v-118h-611v118h611z" />
    <glyph glyph-name="uni022E" unicode="&#x22e;" horiz-adv-x="1486" 
d="M744 -20q-188 0 -334 94t-228.5 266t-82.5 404q0 233 83 405.5t228.5 266.5t333.5 94t333 -94t227.5 -266.5t82.5 -405.5q0 -232 -82.5 -404t-227.5 -266t-333 -94zM744 107q146 0 262 76t183 218.5t67 342.5q0 201 -67 344t-183 219t-262 76t-262.5 -76t-184 -219
t-67.5 -344q0 -199 67 -342t183.5 -219t263.5 -76zM744 1681q-40 0 -68.5 27.5t-28.5 66.5q0 38 28.5 65t68.5 27t68 -27t28 -65q0 -39 -28 -66.5t-68 -27.5z" />
    <glyph glyph-name="uni022F" unicode="&#x22f;" horiz-adv-x="1146" 
d="M573 -24q-145 0 -256 73.5t-173.5 204t-62.5 299.5q0 172 62.5 302.5t173.5 204t256 73.5t255.5 -73.5t173.5 -204t63 -302.5q0 -169 -62.5 -299.5t-173.5 -204t-256 -73.5zM573 94q117 0 197.5 62.5t122.5 167.5t42 229q0 126 -42 231t-123 168t-197 63t-196.5 -63.5
t-123 -168t-42.5 -230.5q0 -124 42 -229t123 -167.5t197 -62.5zM573 1309q-40 0 -68.5 27.5t-28.5 66.5q0 38 28.5 65t68.5 27t68 -27t28 -65q0 -39 -28 -66.5t-68 -27.5z" />
    <glyph glyph-name="uni0230" unicode="&#x230;" horiz-adv-x="1486" 
d="M744 -20q-188 0 -334 94t-228.5 266t-82.5 404q0 233 83 405.5t228.5 266.5t333.5 94t333 -94t227.5 -266.5t82.5 -405.5q0 -232 -82.5 -404t-227.5 -266t-333 -94zM744 107q146 0 262 76t183 218.5t67 342.5q0 201 -67 344t-183 219t-262 76t-262.5 -76t-184 -219
t-67.5 -344q0 -199 67 -342t183.5 -219t263.5 -76zM744 1682q-39 0 -68 27t-29 66q0 38 29 65t68 27q40 0 68.5 -27t28.5 -65q0 -39 -28.5 -66t-68.5 -27zM1048 2171v-112h-609v112h609z" />
    <glyph glyph-name="uni0231" unicode="&#x231;" horiz-adv-x="1146" 
d="M573 -24q-145 0 -256 73.5t-173.5 204t-62.5 299.5q0 172 62.5 302.5t173.5 204t256 73.5t255.5 -73.5t173.5 -204t63 -302.5q0 -169 -62.5 -299.5t-173.5 -204t-256 -73.5zM573 94q117 0 197.5 62.5t122.5 167.5t42 229q0 126 -42 231t-123 168t-197 63t-196.5 -63.5
t-123 -168t-42.5 -230.5q0 -124 42 -229t123 -167.5t197 -62.5zM575 1315q-39 0 -68 27t-29 66q0 38 29 65t68 27q40 0 68.5 -27t28.5 -65q0 -39 -28.5 -66t-68.5 -27zM879 1804v-112h-609v112h609z" />
    <glyph glyph-name="uni0232" unicode="&#x232;" horiz-adv-x="1263" 
d="M26 1490h157l442 -707h14l440 707h158l-538 -845v-645h-136v645zM935 1829v-113h-609v113h609z" />
    <glyph glyph-name="uni0233" unicode="&#x233;" horiz-adv-x="1053" 
d="M229 -418q-38 -1 -71.5 6t-53.5 17l35 113l15 -4q92 -27 156.5 6.5t108.5 154.5l41 114l-411 1129h141l331 -948h10l332 948h140l-472 -1294q-30 -81 -73.5 -135t-100.5 -80.5t-128 -26.5zM831 1457v-113h-609v113h609z" />
    <glyph glyph-name="uni0234" unicode="&#x234;" horiz-adv-x="583" 
d="M141 183h129v-335q1 -62 48.5 -106t114.5 -43q64 -1 105 39t41 98q0 60 -43 97t-111 37q-74 0 -132 -48t-122 -132l-158 -177l-86 84l174 191q54 70 110.5 114t114 65.5t115.5 20.5q78 1 139 -31.5t97 -89t36 -131.5q0 -73 -35 -130t-98.5 -89t-146.5 -32
q-74 0 -129 24.5t-91.5 66.5t-54 94t-17.5 107v306zM270 1490v-1490h-129v1490h129z" />
    <glyph glyph-name="uni0235" unicode="&#x235;" horiz-adv-x="1481" 
d="M855 145h130v-132q-1 -62 46.5 -105.5t114.5 -43.5q65 0 106 40t40 97q1 61 -42 98t-110 38q-38 0 -71 -13t-63 -36t-59.5 -56.5t-61.5 -76.5l-157 -175l-87 84l173 189q41 53 83 90.5t84.5 62.5t86 37t87.5 12q78 0 139 -32.5t97 -89.5t36 -132q-1 -110 -78 -180.5
t-203 -70.5q-99 0 -163.5 42.5t-96 110t-31.5 140.5v102zM268 698v-698h-129v1118h125v-177h13q39 87 122 139t206 52q113 0 198.5 -47t133.5 -138t48 -224v-723h-129v715q0 137 -77 218t-206 81q-88 0 -157 -38.5t-108.5 -109t-39.5 -168.5z" />
    <glyph glyph-name="uni0236" unicode="&#x236;" horiz-adv-x="887" 
d="M257 1384h130v-1142q0 -63 46.5 -106.5t115.5 -42.5q61 -1 105.5 36.5t44.5 100.5q0 54 -38.5 94t-118.5 39q-47 1 -101 -32.5t-128 -111t-180 -209.5l-88 84q113 140 195 225t156.5 124t161.5 39q129 0 202 -71t73 -176q0 -55 -20.5 -102t-58 -82t-89.5 -54.5
t-116 -19.5q-74 0 -129 25t-91.5 67t-54 94.5t-17.5 106.5v1114zM624 1118v-113h-534v113h534z" />
    <glyph glyph-name="uni0237" unicode="&#x237;" horiz-adv-x="409" 
d="M141 1118h129v-1227q1 -95 -34.5 -164.5t-102.5 -107t-162 -37.5h-28v122h27q80 0 125.5 49t45.5 138v1227z" />
    <glyph glyph-name="uni0238" unicode="&#x238;" horiz-adv-x="1751" 
d="M1688 561v-14q0 -169 -52.5 -297t-149 -199.5t-227.5 -71.5q-83 0 -150.5 29.5t-120 86t-88 137.5t-53.5 185v278q25 138 80 236t139.5 150t196.5 52q130 0 225 -70.5t147.5 -199t52.5 -302.5zM1538 547v14q1 129 -32 229.5t-100 158.5t-170 58q-122 0 -203.5 -78.5
t-117.5 -193.5v-358q29 -77 72.5 -139t106 -97.5t144.5 -35.5q103 0 169 56.5t99 156.5t32 229zM801 205v1285h149v-1490h-136zM63 547v14q0 174 52 302.5t147.5 199t225.5 70.5q113 0 197 -52t139 -150t79 -236v-278q-18 -104 -53.5 -185t-87.5 -137.5t-120 -86t-151 -29.5
q-131 0 -227 71.5t-148.5 199.5t-52.5 297zM211 561v-14q1 -129 34 -229t99.5 -156.5t168.5 -56.5q81 0 143.5 35.5t106.5 97.5t71 139v358q-34 115 -115.5 193.5t-203.5 78.5q-103 0 -170 -58t-100 -158.5t-34 -229.5z" />
    <glyph glyph-name="uni0239" unicode="&#x239;" horiz-adv-x="1751" 
d="M802 -416v1330l13 204h122l14 -205v-1329h-149zM63 547v14q0 174 52 302.5t147.5 199t225.5 70.5q113 0 197 -52t139 -150t79 -236v-278q-18 -104 -53.5 -185t-87.5 -137.5t-120 -86t-151 -29.5q-131 0 -227 71.5t-148.5 199.5t-52.5 297zM211 561v-14q1 -129 34 -229
t99.5 -156.5t168.5 -56.5q81 0 143.5 35.5t106.5 97.5t71 139v358q-34 115 -115.5 193.5t-203.5 78.5q-103 0 -170 -58t-100 -158.5t-34 -229.5zM1688 561v-14q0 -169 -52.5 -297t-149 -199.5t-227.5 -71.5q-83 0 -150.5 29.5t-120 86t-88 137.5t-53.5 185v278
q25 138 80 236t139.5 150t196.5 52q130 0 225 -70.5t147.5 -199t52.5 -302.5zM1538 547v14q1 129 -32 229.5t-100 158.5t-170 58q-122 0 -203.5 -78.5t-117.5 -193.5v-358q29 -77 72.5 -139t106 -97.5t144.5 -35.5q103 0 169 56.5t99 156.5t32 229z" />
    <glyph glyph-name="uni023A" unicode="&#x23a;" horiz-adv-x="1279" 
d="M1061 1678l-664 -1868h-128l664 1868h128zM168 0h-143l543 1490h145l542 -1490h-142l-468 1313h-10zM271 571h739v-122h-739v122z" />
    <glyph glyph-name="uni023B" unicode="&#x23b;" horiz-adv-x="1423" 
d="M315 -190l683 1868h127l-682 -1868h-128zM743 -20q-187 0 -333 94t-228.5 265.5t-82.5 404.5q0 234 82.5 406t228.5 266t333 94q119 0 218.5 -37t176.5 -103t126.5 -154.5t67.5 -191.5h-137q-15 77 -55 142t-99.5 114t-134.5 76t-163 27q-141 0 -257.5 -73.5t-186 -216
t-69.5 -349.5t69.5 -349t186 -215t257.5 -73q88 0 163 27t134.5 76t99.5 114t55 142h137q-18 -103 -67.5 -191.5t-126.5 -154.5t-176.5 -103t-218.5 -37z" />
    <glyph glyph-name="uni023C" unicode="&#x23c;" horiz-adv-x="1096" 
d="M1010 1490l-798 -1908h-111l801 1908h108zM585 -24q-149 0 -260 75t-172.5 205.5t-61.5 296.5q0 169 62.5 299.5t173.5 205.5t257 75q112 0 203 -43.5t150 -122t74 -182.5h-130q-13 63 -52.5 115t-101.5 83.5t-142 31.5q-107 0 -188.5 -58t-128.5 -161t-47 -239
q0 -135 45.5 -240t128 -164t190.5 -59q112 0 193 63t103 169h131q-15 -101 -72 -180t-147.5 -124.5t-207.5 -45.5z" />
    <glyph glyph-name="uni023D" unicode="&#x23d;" horiz-adv-x="1088" 
d="M165 0v1490h136v-1368h711v-122h-847zM-72 715v104h611v-104h-611z" />
    <glyph glyph-name="uni023E" unicode="&#x23e;" horiz-adv-x="1231" 
d="M228 -190l683 1868h124l-681 -1868h-126zM75 1367v123h1081v-123h-472v-1367h-135v1367h-474z" />
    <glyph glyph-name="uni023F" unicode="&#x23f;" horiz-adv-x="978" 
d="M211 231q98 -173 159.5 -279t100 -162.5t67 -76.5t59.5 -20q36 1 71 21t65 45l51 -90q-38 -35 -87 -61.5t-99 -25.5q-54 0 -97.5 22.5t-81 67t-74.5 107.5l-226 391zM889 871l-118 -32q-26 75 -86.5 127.5t-173.5 52.5t-186 -54.5t-73 -139.5q0 -71 49.5 -116.5
t153.5 -71.5l169 -41q140 -35 210.5 -108.5t70.5 -185.5q0 -94 -52.5 -168t-145.5 -116t-216 -42q-164 0 -270 74.5t-136 213.5l124 30q23 -99 94 -150t186 -51q128 0 206 58t78 144q0 138 -183 183l-182 44q-146 35 -216 110t-70 187q0 92 50.5 163t138.5 111t200 40
q154 0 246 -70.5t132 -191.5z" />
    <glyph glyph-name="uni0240" unicode="&#x240;" horiz-adv-x="1025" 
d="M266 122h50q114 0 192.5 -42.5t133 -104.5t97 -124t84.5 -104t95 -42q22 0 41.5 4.5t38 14t35.5 21.5l46 -91q-30 -25 -74 -48.5t-98 -23.5q-63 0 -109 30t-84 77.5t-76.5 101t-84 101t-106 78t-144.5 30.5h-38zM279 122v-122h-166v113l642 882h-636v123h802v-108z" />
    <glyph glyph-name="uni0241" unicode="&#x241;" horiz-adv-x="1017" 
d="M447 435h32q122 -1 194 50.5t103.5 138.5t31.5 193v180q0 78 -17 147t-54 121t-97 82.5t-146 30.5q-130 -1 -207.5 -72.5t-85.5 -191.5h-144q5 116 60.5 205t152 140t224.5 51q154 0 258 -68.5t156.5 -184.5t52.5 -260v-180q0 -145 -53.5 -261.5t-160 -184.5t-264.5 -68
h-36v132zM565 435v-435h-155v435h155z" />
    <glyph glyph-name="uni0242" unicode="&#x242;" horiz-adv-x="1007" 
d="M112 705q1 139 51.5 234.5t140.5 144.5t208 49q180 0 282 -107.5t102 -307.5q0 -114 -39 -202t-122 -137t-216 -50h-38v100h32q124 -1 180 76t56 206q0 134 -57.5 217t-180.5 83q-118 0 -183.5 -80t-66.5 -226h-149zM447 429h148v-429h-148v429z" />
    <glyph glyph-name="uni0243" unicode="&#x243;" horiz-adv-x="1377" 
d="M280 0v1490h504q145 0 242 -51t145.5 -139t48.5 -200q0 -93 -31.5 -159t-85 -107t-119.5 -59v-12q73 -5 140 -50.5t110.5 -127t43.5 -194.5t-50 -201t-153 -139t-264 -51h-531zM416 122h395q173 0 255 77t82 192q0 85 -41 154.5t-115.5 110.5t-173.5 41h-402v-575z
M416 816h380q88 0 154.5 37t103 101t36.5 146q0 118 -76.5 192.5t-229.5 74.5h-368v-551zM46 372v104h611v-104h-611z" />
    <glyph glyph-name="uni0244" unicode="&#x244;" horiz-adv-x="1441" 
d="M1479 868v-95h-1516v95h1516zM1146 1490h136v-986q0 -152 -71 -271.5t-198 -188.5t-295 -69q-167 0 -294.5 69t-199 188.5t-71.5 271.5v986h136v-977q0 -118 53 -211t150 -146t226 -53q130 0 226 53t149 146t53 211v977z" />
    <glyph glyph-name="uni0245" unicode="&#x245;" horiz-adv-x="1378" 
d="M1131 0l-455 1325l-40 165h125l537 -1490h-167zM701 1325l-451 -1325h-169l537 1490h123z" />
    <glyph glyph-name="uni0246" unicode="&#x246;" horiz-adv-x="1151" 
d="M968 1678l-539 -1868h-124l539 1868h124zM165 0v1490h865v-123h-729v-556h683v-122h-683v-567h743v-122h-879z" />
    <glyph glyph-name="uni0247" unicode="&#x247;" horiz-adv-x="1129" 
d="M1010 1490l-798 -1908h-111l801 1908h108zM601 -24q-156 0 -270.5 73.5t-177 203.5t-62.5 299t62 300t172 206t254 75q91 0 176 -33.5t152.5 -101.5t107 -172.5t39.5 -248.5v-58h-873v114h803l-60 -44q0 122 -41 218t-118 152t-186 56q-107 0 -187.5 -56.5t-125.5 -150
t-45 -204.5v-67q0 -134 46.5 -233.5t132 -154.5t201.5 -55q80 0 140 25t101 67.5t61 92.5l124 -41q-26 -70 -83.5 -129.5t-144 -96t-198.5 -36.5z" />
    <glyph glyph-name="uni0248" unicode="&#x248;" horiz-adv-x="1031" 
d="M463 -20q-116 0 -207 42.5t-143 120.5t-52 184v25h134v-25q0 -67 35 -117.5t95.5 -79t137.5 -28.5q79 0 139 33.5t94 102.5t34 177v1075h135v-1075q0 -145 -51.5 -242t-142 -145t-208.5 -48zM492 831v104h611v-104h-611z" />
    <glyph glyph-name="uni0249" unicode="&#x249;" horiz-adv-x="411" 
d="M109 1118h129v-1227q1 -95 -34.5 -164.5t-102.5 -107t-162 -37.5h-28v122h27q80 0 125.5 49t45.5 138v1227zM-132 588v104h611v-104h-611zM173 1309q-40 0 -68.5 27.5t-28.5 66.5q0 38 28.5 65t68.5 27t68 -27t28 -65q0 -39 -28 -66.5t-68 -27.5z" />
    <glyph glyph-name="Q_rthook" unicode="&#x24a;" horiz-adv-x="1511" 
d="M1317 1490v-1637q1 -89 42.5 -123t113.5 -33q15 -1 31.5 1t29.5 4v-113q-19 -5 -43.5 -6t-47.5 0q-56 0 -103 17t-81 51t-52 84.5t-18 117.5v432h-10q-60 -149 -179 -228t-277 -80q-138 0 -252.5 56.5t-198 159t-128.5 244t-45 311.5q0 168 45 307.5t128.5 241.5
t198.5 157.5t255 55.5q158 0 276.5 -78t176.5 -223h14v281h124zM726 107q160 0 262.5 82t152.5 226.5t50 331.5q0 183 -52 327.5t-155.5 228t-256.5 82.5q-148 1 -259.5 -81t-173 -226.5t-61.5 -330.5q0 -195 63 -338.5t174 -222.5t256 -79z" />
    <glyph glyph-name="qrthook" unicode="&#x24b;" horiz-adv-x="1211" 
d="M1151 -417q-56 0 -103 17t-81 51t-52 84.5t-18 117.5v121h128v-121q1 -89 42.5 -123t113.5 -33q14 -1 30.5 1t30.5 4v-113q-20 -5 -44 -6t-47 0zM541 -24q-137 1 -240 73.5t-161 203t-59 303.5q1 172 58.5 302t161.5 202.5t242 72.5q103 0 170 -36.5t108 -89.5t63 -103
h67l2 -696h-69q-22 -51 -63.5 -104.5t-110 -90t-169.5 -37.5zM1025 -73h-128v342l43 281l-39 333v235h124v-1191zM557 95q108 0 184 59.5t116.5 164t40.5 238.5q0 135 -39.5 237.5t-116 161.5t-185.5 59q-113 0 -190 -61t-116.5 -164.5t-39.5 -232.5t40 -234t117.5 -166.5
t188.5 -61.5z" />
    <glyph glyph-name="uni024C" unicode="&#x24c;" horiz-adv-x="1243" 
d="M251 602h-256v124h256v-124zM178 0v1490h482q158 0 264.5 -57.5t160.5 -158.5t54 -231t-53.5 -229.5t-160 -155.5t-264.5 -56h-408v124h404q117 0 194.5 39t115.5 110t38 168q0 98 -38.5 171t-115.5 113t-195 40h-342v-1367h-136zM1044 0l-362 673h153l366 -673h-157z
" />
    <glyph glyph-name="uni024D" unicode="&#x24d;" horiz-adv-x="666" 
d="M139 0v1118h125v-173h10q34 85 117.5 136.5t188.5 51.5h35.5t32.5 -1v-131q-8 1 -30 3.5t-49 2.5q-86 0 -154.5 -37t-107.5 -101.5t-39 -147.5v-721h-129zM-100 483v104h611v-104h-611z" />
    <glyph glyph-name="uni024E" unicode="&#x24e;" horiz-adv-x="1264" 
d="M1295 1181v-96h-1325v96h1325zM26 1490h157l442 -707h14l440 707h158l-538 -845v-645h-136v645z" />
    <glyph glyph-name="uni024F" unicode="&#x24f;" horiz-adv-x="1053" 
d="M990 801v-104h-926v104h926zM229 -418q-38 -1 -71.5 6t-53.5 17l35 113l15 -4q92 -27 156.5 6.5t108.5 154.5l41 114l-411 1129h141l331 -948h10l332 948h140l-472 -1294q-30 -81 -73.5 -135t-100.5 -80.5t-128 -26.5z" />
    <glyph glyph-name="aturn" unicode="&#x250;" horiz-adv-x="1074" 
d="M623 1143q102 0 185.5 -39.5t133 -114.5t49.5 -184q0 -83 -31 -139t-89 -92.5t-136.5 -58t-173.5 -32.5q-93 -12 -158.5 -20.5t-99.5 -27t-34 -61.5v-26q0 -115 68.5 -180.5t194.5 -65.5q121 0 197 53t106 125l124 -45q-38 -90 -105 -145.5t-150 -80t-168 -24.5
q-64 0 -133 17t-129 58t-97.5 114.5t-37.5 185.5v758h130v-177h8q23 50 68.5 96t115 76t162.5 30zM605 1025q-103 0 -178.5 -45.5t-116.5 -122t-41 -168.5v-161q15 14 48.5 25t77 19t88 14t78.5 10q94 12 161.5 37t103 68.5t35.5 110.5q0 101 -72.5 157t-183.5 56z" />
    <glyph glyph-name="ascript" unicode="&#x251;" horiz-adv-x="1241" 
d="M545 -24q-141 2 -245.5 76t-161.5 204.5t-58 300.5q1 169 61 298.5t166.5 203t244.5 73.5q163 0 262 -96.5t145 -256.5h49l24 -217l129 -562h-122l-127 581q-14 75 -40.5 151t-69 139.5t-104 103t-146.5 39.5q-100 0 -177 -58.5t-121 -162t-44 -237.5q0 -133 42 -237.5
t117.5 -164t175.5 -59.5q79 0 140 37t107 99.5t75.5 141t43.5 160.5l112 585h123l-114 -562l-23 -223h-43q-34 -119 -94 -198t-142.5 -119t-184.5 -40z" />
    <glyph glyph-name="ascriptturn" unicode="&#x252;" horiz-adv-x="1204" 
d="M1117 598v-45q0 -169 -50.5 -298.5t-147.5 -202.5t-236 -73q-122 0 -206 55.5t-133 158t-67 243.5l2 222q16 147 66.5 253t138 164t213.5 58q134 0 227.5 -68t143 -188.5t49.5 -278.5zM967 553v45q1 119 -31.5 212t-100.5 147t-175 54q-97 0 -161.5 -49.5t-104.5 -133.5
t-64 -187l1 -176q19 -99 57 -182t102 -132.5t159 -49.5q110 0 180.5 60t104 163t33.5 229zM351 0h-125v865q-1 79 -22.5 106.5t-55.5 27.5q-11 0 -20.5 -2t-17.5 -4l-19 109q24 19 50.5 25t56.5 6q83 0 130 -64t47 -204v-631z" />
    <glyph glyph-name="uni0253" unicode="&#x253;" horiz-adv-x="1163" 
d="M623 -24q-101 0 -169.5 36.5t-110 90.5t-64.5 105h-15v-208h-125v1267q0 115 64 174.5t187 59.5q28 0 52 -2t39 -5v-111q-16 2 -32.5 3t-29.5 1q-80 -1 -115.5 -29.5t-35.5 -90.5v-363h11q23 50 64 103t109 89.5t170 36.5q138 0 241.5 -72.5t161.5 -202.5t58 -302
q0 -173 -57.5 -304t-161 -203.5t-241.5 -72.5zM609 94q110 0 187 62t117 167t40 234t-40 232.5t-116 164.5t-188 61q-110 0 -186 -58.5t-116 -161.5t-40 -238q0 -134 40 -238.5t116.5 -164.5t185.5 -60z" />
    <glyph glyph-name="uni0254" unicode="&#x254;" horiz-adv-x="1018" 
d="M60 332h141q11 -65 51 -117.5t103.5 -82.5t139.5 -30q110 0 179.5 59.5t103 155t32.5 205.5v49q1 122 -33.5 221.5t-105.5 159t-184 59.5q-125 0 -196.5 -76.5t-89.5 -213.5h-141q12 127 66 219t145.5 142.5t215.5 50.5q153 0 257.5 -73.5t159 -200t54.5 -288.5v-49
q0 -149 -55 -272t-158.5 -196.5t-249.5 -73.5q-118 0 -212.5 48.5t-153 128.5t-69.5 175z" />
    <glyph glyph-name="uni0255" unicode="&#x255;" horiz-adv-x="1075" 
d="M575 -24q-149 1 -260.5 75t-173 205t-62.5 301q1 168 63 297.5t173 204t256 74.5q113 0 204 -43.5t150 -122t74 -182.5h-132q-20 96 -97 162.5t-197 67.5q-107 0 -189 -58t-128.5 -161t-46.5 -239q0 -137 46 -241.5t128.5 -162.5t191.5 -58v-119zM68 -33l-93 77
q35 44 85.5 106.5t115 129.5t142.5 125t167.5 94t189.5 36q93 0 157 -33t97 -90t33 -129q0 -93 -51.5 -161.5t-139 -106.5t-196.5 -39v119q109 0 182 52.5t74 131.5q-1 65 -49.5 102.5t-108.5 37.5q-71 0 -144 -34.5t-143 -89t-131.5 -116t-109.5 -118.5t-77 -94z" />
    <glyph glyph-name="drthook" unicode="&#x256;" horiz-adv-x="1168" 
d="M1151 -417q-56 0 -103 17t-81 51t-52 84.5t-18 117.5v293h128v-293q1 -89 42.5 -123t113.5 -33q14 -1 30.5 1t30.5 4v-113q-20 -5 -44 -6t-47 0zM540 -24q-137 0 -240.5 72.5t-161 203.5t-57.5 304q0 172 58 302t161.5 202.5t240.5 72.5q103 0 170.5 -36.5t109 -89.5
t63.5 -103h11v586h129v-1490h-125v208h-15q-22 -51 -64 -105t-110 -90.5t-170 -36.5zM555 94q109 0 185 60t116.5 164.5t40.5 238.5q0 135 -40 238t-116.5 161.5t-185.5 58.5q-111 0 -188 -61t-116.5 -164.5t-39.5 -232.5t40 -234t116.5 -167t187.5 -62z" />
    <glyph glyph-name="uni0257" unicode="&#x257;" horiz-adv-x="1129" 
d="M541 -24q-137 1 -240.5 73t-161 203t-58.5 304q1 172 59 302t162 202.5t241 72.5q103 0 170 -36.5t108 -89.5t63 -103h13v214h128v-1118h-124v208h-17q-22 -51 -63.5 -104.5t-110 -90t-169.5 -37.5zM557 95q109 0 184.5 59.5t116 164t40.5 238.5q0 135 -40 237.5
t-116 161.5t-185 59q-112 0 -189.5 -61t-117 -164.5t-39.5 -232.5t40 -234t117.5 -166.5t188.5 -61.5zM897 1118v149q0 115 63.5 174.5t186.5 59.5q28 0 52 -2t39 -5v-111q-16 2 -32.5 3t-28.5 1q-81 -1 -116.5 -29.5t-35.5 -90.5v-149h-128z" />
    <glyph glyph-name="erev" unicode="&#x258;" horiz-adv-x="1019" 
d="M473 -20q-133 0 -235.5 56.5t-166.5 161.5l97 66q53 -79 130.5 -120.5t171.5 -41.5q157 0 247 113.5t90 311.5v29q0 104 -22 187.5t-62.5 143t-98.5 92t-130 32.5q-126 0 -200.5 -95.5t-82.5 -270.5v-12h658v-122h-807v74q0 170 51 293t146 189t227 66q140 0 245.5 -73
t165.5 -203.5t60 -303.5v-28q0 -168 -60.5 -290t-169 -188.5t-254.5 -66.5z" />
    <glyph glyph-name="uni0259" unicode="&#x259;" horiz-adv-x="1119" 
d="M528 1142q157 0 271.5 -73.5t176.5 -203t62 -299.5q0 -169 -61.5 -300t-171 -206t-255.5 -75q-91 0 -176 33.5t-152.5 101.5t-107 172.5t-39.5 248.5v58h874v-114h-803l59 44q0 -122 41 -218t118.5 -152t185.5 -56q107 0 187.5 56.5t125.5 150t45 204.5v67
q0 134 -46.5 233.5t-131.5 154.5t-202 55q-79 0 -139 -25t-100.5 -67t-62.5 -93l-123 41q25 70 83 129.5t144 96t198 36.5z" />
    <glyph glyph-name="uni025A" unicode="&#x25a;" horiz-adv-x="1317" 
d="M437 1113q145 1 251.5 -68.5t165.5 -191t59 -280.5v-30q0 -173 -63.5 -300t-166 -195.5t-221.5 -68.5q-148 0 -246.5 69.5t-147.5 190t-50 272.5v59l767 141v-126l-617 -112v-21q0 -92 32.5 -172.5t98 -129.5t163.5 -49q65 0 120 30t95.5 87.5t63 138.5t22.5 183v31
q1 121 -39 215.5t-114.5 149.5t-179.5 55q-99 0 -170 -43.5t-125 -119.5l-94 70q40 61 94 109.5t129 77.5t173 28zM839 595v126l220 41q12 -84 29 -144.5t47.5 -93.5t80.5 -33q23 -1 37 0t24 4l21 -94q-26 -12 -54.5 -19.5t-58.5 -7.5q-71 1 -116 33.5t-69.5 87.5t-36.5 125
z" />
    <glyph glyph-name="epsilon1" unicode="&#x25b;" horiz-adv-x="1043" 
d="M494 588h127v-70h-126q-82 0 -144.5 -28t-97.5 -76.5t-35 -111.5q-1 -91 82 -146.5t220 -56.5q137 1 212.5 59.5t98.5 168.5h136q-11 -79 -46 -142.5t-93.5 -109.5t-137 -70.5t-175.5 -24.5q-129 0 -226.5 40.5t-152 111.5t-55.5 165q0 54 21.5 106t69.5 93.5t127.5 66.5
t194.5 25zM621 542h-127q-115 0 -191.5 22.5t-120 60.5t-61.5 86.5t-18 99.5q1 100 52 171.5t142.5 110.5t213.5 39q119 0 208.5 -37.5t144.5 -109t70 -173.5h-136q-21 97 -94.5 149t-192.5 53q-126 -1 -201 -56t-75 -145q-1 -83 65.5 -131.5t194.5 -49.5h126v-90z" />
    <glyph glyph-name="epsilon1rev" unicode="&#x25c;" horiz-adv-x="1108" 
d="M555 588q117 0 196 -25t127 -66.5t69.5 -93.5t21.5 -106q0 -94 -55 -165t-152.5 -111.5t-226.5 -40.5q-97 0 -175.5 24.5t-137 70.5t-94 109.5t-45.5 142.5h136q23 -110 98.5 -168.5t212.5 -59.5q137 1 219.5 56.5t82.5 146.5q1 63 -34.5 111.5t-98.5 76.5t-145 28h-126
v70h127zM428 542v90h126q129 1 195 49.5t66 131.5q-1 90 -75.5 145t-200.5 56q-119 -1 -193 -53t-95 -149h-135q15 102 70 173.5t145 109t208 37.5q122 0 213.5 -39t143 -110.5t51.5 -171.5q0 -51 -18 -99.5t-62 -86.5t-120 -60.5t-192 -22.5h-127z" />
    <glyph glyph-name="epsilon1revhook" unicode="&#x25d;" horiz-adv-x="1338" 
d="M866 759v124l218 42q12 -84 29.5 -145t48 -94t79.5 -33q24 -1 38 1.5t24 5.5l22 -95q-26 -13 -54.5 -20t-59.5 -6q-71 0 -116 32t-70 86.5t-37 123.5zM555 588q116 0 195 -25t127 -66.5t69.5 -93.5t21.5 -106q0 -94 -55 -165t-152.5 -111.5t-225.5 -40.5q-97 0 -176 24.5
t-137.5 70.5t-94 109.5t-45.5 142.5h136q24 -110 99.5 -168.5t211.5 -59.5q138 1 220.5 56.5t81.5 146.5q1 63 -34.5 111.5t-98 76.5t-145.5 28h-126v70h128zM427 542v90h126q129 1 195.5 49.5t65.5 131.5q0 90 -75 145t-201 56q-119 -1 -193 -53t-94 -149h-136
q15 102 70 173.5t145 109t208 37.5q122 0 214 -39t143.5 -110.5t50.5 -171.5q0 -51 -18 -99.5t-61.5 -86.5t-120 -60.5t-191.5 -22.5h-128z" />
    <glyph glyph-name="epsilon1revclosed" unicode="&#x25e;" horiz-adv-x="1041" 
d="M536 -20q-118 0 -207.5 39.5t-149.5 115.5t-90 186t-30 250h129q1 -226 86.5 -348.5t261.5 -123.5q134 1 215.5 56.5t81.5 146.5q1 62 -34 110.5t-97.5 77t-146.5 28.5h-125v70h126q118 0 197 -25t126.5 -67.5t68.5 -94t21 -104.5q1 -95 -55 -166.5t-153.5 -111
t-224.5 -39.5zM556 542h-126v90h125q129 1 195 49.5t65 131.5q0 90 -74 145t-196 56q-120 0 -199 -52t-118 -151t-40 -241h-129q0 133 30.5 237.5t91 177t150.5 110t208 37.5q184 0 296.5 -86t111.5 -235q0 -51 -18 -99.5t-61.5 -86.5t-119.5 -60.5t-192 -22.5z" />
    <glyph glyph-name="jdotlessbar" unicode="&#x25f;" horiz-adv-x="409" 
d="M141 1118h129v-1227q1 -95 -34.5 -164.5t-102.5 -107t-162 -37.5h-28v122h27q80 0 125.5 49t45.5 138v1227zM-100 588v104h611v-104h-611z" />
    <glyph glyph-name="uni0260" unicode="&#x260;" horiz-adv-x="1165" 
d="M901 1118v149q-1 115 63 173.5t187 58.5q28 0 52.5 -1.5t38.5 -3.5v-111q-16 1 -32.5 1.5t-28.5 0.5q-81 0 -118 -28t-38 -90v-149h-124zM565 -442q-171 0 -279 64t-157 160l106 70q23 -43 64 -83.5t106 -67t160 -26.5q149 0 240.5 74t91.5 230v252h-13
q-22 -51 -64 -101.5t-110 -84t-169 -33.5q-134 0 -237.5 66t-163 189.5t-59.5 293.5t58 298.5t162 201t242 72.5q103 0 171 -36.5t109 -89.5t64 -103h14v214h124v-1147q0 -142 -59.5 -233.5t-163.5 -135.5t-237 -44zM557 130q161 0 251 116t90 318q0 131 -39.5 232.5
t-116 160t-185.5 58.5q-113 0 -190 -60.5t-116.5 -162.5t-39.5 -228q0 -128 40 -226t117.5 -153t188.5 -55z" />
    <glyph glyph-name="gcursive" unicode="&#x261;" horiz-adv-x="1165" 
d="M565 -442q-171 0 -279 64t-157 160l106 70q23 -43 64 -83.5t106 -67t160 -26.5q149 0 240.5 74t91.5 230v252h-13q-22 -51 -64 -101.5t-110 -84t-169 -33.5q-134 0 -237.5 66t-163 189.5t-59.5 293.5t58 298.5t162 201t242 72.5q103 0 171 -36.5t109 -89.5t64 -103h14
v214h124v-1147q0 -142 -59.5 -233.5t-163.5 -135.5t-237 -44zM557 130q161 0 251 116t90 318q0 131 -39.5 232.5t-116 160t-185.5 58.5q-113 0 -190 -60.5t-116.5 -162.5t-39.5 -228q0 -128 40 -226t117.5 -153t188.5 -55z" />
    <glyph glyph-name="Gsmallcap" unicode="&#x262;" horiz-adv-x="1200" 
d="M1067 530v-374q-24 -37 -86 -78.5t-155 -70t-210 -28.5q-151 0 -265.5 61t-179 170.5t-65.5 251.5v164q1 140 66 247.5t179.5 168.5t262.5 60q142 1 239 -45.5t150 -127.5t63 -187h-135q-16 117 -98.5 178.5t-218.5 62.5q-105 0 -190 -47t-134 -127.5t-49 -182.5v-164
q0 -104 48 -185.5t133 -128.5t194 -47q74 0 141 17.5t115 42t66 44.5v203h-307v122h436z" />
    <glyph glyph-name="gamma1" unicode="&#x263;" horiz-adv-x="1109" 
d="M553 -442q-109 0 -174 55.5t-66 152.5q1 24 9.5 56t26 75t44.5 100l543 1121h144l-493 -1030q-64 -139 -98.5 -209.5t-35.5 -112.5q1 -35 29 -58.5t71 -23.5q42 0 70 24t29 58q-1 42 -33.5 116.5t-99.5 215.5l-490 1020h142l543 -1115q44 -92 59 -147.5t14 -87.5
q1 -98 -62.5 -154t-171.5 -56z" />
    </font>
</defs>
</svg>
