<!-- Generated by IcoMoon.io -->
<svg version="1.1" xmlns="http://www.w3.org/2000/svg" width="32" height="32" viewBox="0 0 32 32">
<path fill="#1c1d20" d="M6.667 0h18.667c3.682 0 6.667 2.985 6.667 6.667v18.667c0 3.682-2.985 6.667-6.667 6.667h-18.667c-3.682 0-6.667-2.985-6.667-6.667v-18.667c0-3.682 2.985-6.667 6.667-6.667z"></path>
<path fill="#fafafa" d="M24.473 15.367l0.087-1.747-1.527 0.947-0.473-0.787 1.62-0.793-1.62-0.8 0.473-0.793 1.527 0.947-0.087-1.747h0.94l-0.087 1.747 1.527-0.947 0.48 0.793-1.627 0.8 1.627 0.793-0.48 0.787-1.527-0.947 0.087 1.747h-0.94z"></path>
<path fill="#fafafa" d="M21.033 12.533v1h-3.847v-1h3.847zM18.233 18.947v-7.16c0-0.4 0.1-0.727 0.28-0.993 0.193-0.267 0.44-0.467 0.747-0.593 0.307-0.133 0.64-0.2 0.993-0.2 0.267 0 0.5 0.020 0.693 0.060 0.187 0.040 0.327 0.080 0.42 0.107l-0.32 1.013c-0.060-0.020-0.14-0.040-0.233-0.067-0.093-0.020-0.213-0.033-0.353-0.033-0.32 0-0.553 0.080-0.693 0.233-0.147 0.147-0.213 0.367-0.213 0.653v6.98h-1.32z"></path>
<path fill="#fafafa" d="M17.453 12.533v1h-3.84v-1h3.84zM14.66 18.947v-7.16c0-0.4 0.093-0.727 0.28-0.993s0.433-0.467 0.74-0.593c0.307-0.133 0.64-0.2 0.993-0.2 0.273 0 0.5 0.020 0.693 0.060s0.333 0.080 0.42 0.107l-0.32 1.013c-0.060-0.020-0.14-0.040-0.233-0.067-0.093-0.020-0.213-0.033-0.353-0.033-0.32 0-0.553 0.080-0.693 0.233-0.147 0.147-0.213 0.367-0.213 0.653v6.98h-1.313z"></path>
<path fill="#fafafa" d="M10.787 18.947c-0.647 0-1.2-0.14-1.673-0.407s-0.833-0.647-1.093-1.133c-0.247-0.493-0.373-1.067-0.373-1.727 0-0.647 0.12-1.22 0.373-1.72 0.247-0.493 0.6-0.88 1.053-1.16s0.987-0.42 1.6-0.42c0.373 0 0.74 0.060 1.087 0.18 0.347 0.113 0.667 0.3 0.94 0.553 0.28 0.253 0.5 0.587 0.66 0.993 0.167 0.4 0.253 0.893 0.253 1.46v0.447h-5.24v-0.927h4.58l-0.6 0.307c0-0.387-0.060-0.733-0.187-1.033s-0.313-0.533-0.567-0.7c-0.247-0.167-0.553-0.253-0.927-0.253-0.367 0-0.687 0.087-0.947 0.253-0.26 0.173-0.46 0.393-0.593 0.68-0.14 0.28-0.207 0.587-0.207 0.92v0.627c0 0.433 0.080 0.807 0.233 1.107 0.16 0.307 0.373 0.533 0.653 0.693 0.287 0.16 0.613 0.24 0.987 0.24 0.24 0 0.46-0.033 0.66-0.1s0.373-0.173 0.52-0.307c0.14-0.14 0.253-0.307 0.327-0.507l1.213 0.22c-0.093 0.34-0.267 0.64-0.513 0.9-0.253 0.253-0.56 0.453-0.94 0.6-0.373 0.14-0.8 0.213-1.28 0.213z"></path>
<path fill="#fafafa" d="M5.68 12.48h1.213v6.86c0 0.433-0.073 0.793-0.227 1.093-0.153 0.293-0.373 0.513-0.673 0.667-0.293 0.153-0.653 0.233-1.087 0.233h-0.24v-1.080h0.193c0.293 0 0.5-0.080 0.627-0.24 0.127-0.153 0.193-0.38 0.193-0.68v-6.853zM6.28 11.487c-0.213 0-0.393-0.073-0.54-0.213-0.153-0.147-0.227-0.327-0.227-0.527 0-0.207 0.073-0.387 0.227-0.533 0.147-0.147 0.327-0.213 0.54-0.213s0.393 0.067 0.54 0.213c0.153 0.147 0.227 0.327 0.227 0.533 0 0.2-0.073 0.38-0.227 0.527-0.147 0.14-0.327 0.213-0.54 0.213z"></path>
</svg>
