<svg aria-hidden="true" style="position: absolute; width: 0; height: 0; overflow: hidden;" version="1.1" xmlns="http://www.w3.org/2000/svg" xmlns:xlink="http://www.w3.org/1999/xlink">
<defs>
<symbol id="x-close" viewBox="0 0 32 32">
<path  stroke-linejoin="round" stroke-linecap="round" stroke-miterlimit="4" stroke-width="2.6667" d="M24 8l-16 16"></path>
<path  stroke-linejoin="round" stroke-linecap="round" stroke-miterlimit="4" stroke-width="2.6667" d="M8 8l16 16"></path>
</symbol>
<symbol id="arrow-right" viewBox="0 0 32 32">
<path  stroke-linejoin="round" stroke-linecap="round" stroke-miterlimit="4" stroke-width="2" d="M5.333 16h21.333"></path>
<path  stroke-linejoin="round" stroke-linecap="round" stroke-miterlimit="4" stroke-width="2" d="M18.667 8l8 8-8 8"></path>
</symbol>
<symbol id="arrow-left" viewBox="0 0 32 32">
<path stroke-linejoin="round" stroke-linecap="round" stroke-miterlimit="4" stroke-width="2" d="M26.667 16h-21.333"></path>
<path stroke-linejoin="round" stroke-linecap="round" stroke-miterlimit="4" stroke-width="2" d="M13.333 24l-8-8 8-8"></path>
</symbol>
<symbol id="icon-down" viewBox="0 0 32 32">
<path  d="M22.864 10.864l-8 8 1.136 1.136 1.12-1.136-8-8-2.256 2.256 9.136 9.136 9.12-9.136-2.256-2.256z"></path>
</symbol>
<symbol id="icon-top" viewBox="0 0 32 32">
<path  d="M22.864 21.12l-8-8 1.136-1.12 1.12 1.12-8 8-2.256-2.256 9.136-9.136 9.12 9.136-2.256 2.256z"></path>
</symbol>
<symbol id="logo" viewBox="0 0 141 32">
<path  d="M133.406 15.158l0.236-4.952-4.312 2.695-1.331-2.223 4.564-2.257-4.564-2.24 1.331-2.257 4.312 2.695-0.236-4.935h2.644l-0.236 4.935 4.312-2.695 1.347 2.257-4.581 2.24 4.581 2.257-1.347 2.223-4.312-2.695 0.236 4.952h-2.644z"></path>
<path  d="M112.977 14.4v10.863h-3.503v-18.307h3.402v3.015h0.253c0.404-0.994 1.061-1.785 1.937-2.358 0.876-0.589 2.004-0.876 3.385-0.876 1.229 0 2.307 0.253 3.234 0.775s1.651 1.28 2.156 2.307c0.522 1.027 0.792 2.307 0.792 3.823v11.621h-3.52v-11.2c0-1.331-0.354-2.358-1.044-3.116s-1.634-1.145-2.829-1.145c-0.808 0-1.549 0.185-2.189 0.556s-1.145 0.876-1.516 1.566c-0.371 0.674-0.556 1.499-0.556 2.476z"></path>
<path  d="M99.352 25.263c-1.684 0-3.166-0.387-4.446-1.162-1.246-0.775-2.24-1.853-2.931-3.234-0.691-1.398-1.027-3.015-1.027-4.851 0-1.869 0.337-3.486 1.027-4.884s1.684-2.476 2.931-3.251c1.28-0.775 2.762-1.145 4.446-1.145 1.701 0 3.183 0.371 4.446 1.145 1.246 0.775 2.24 1.853 2.931 3.251 0.707 1.398 1.061 3.015 1.061 4.884 0 1.836-0.354 3.453-1.061 4.851-0.691 1.381-1.684 2.459-2.931 3.234-1.263 0.775-2.745 1.162-4.446 1.162zM99.352 22.316c1.112 0 2.021-0.286 2.745-0.859s1.246-1.347 1.6-2.291c0.354-0.977 0.539-2.021 0.539-3.149 0-1.162-0.185-2.206-0.539-3.183-0.354-0.96-0.876-1.718-1.6-2.307-0.724-0.573-1.634-0.859-2.745-0.859-1.095 0-2.004 0.286-2.728 0.859-0.707 0.589-1.246 1.347-1.6 2.307-0.354 0.977-0.539 2.021-0.539 3.183 0 1.128 0.185 2.173 0.539 3.149 0.354 0.943 0.893 1.718 1.6 2.291 0.724 0.573 1.634 0.859 2.728 0.859z"></path>
<path  d="M88.893 11.352l-3.301 0.539c-0.202-0.589-0.606-1.145-1.179-1.651s-1.415-0.758-2.56-0.758c-1.011 0-1.869 0.236-2.56 0.674s-1.027 1.011-1.027 1.684c0 0.606 0.236 1.095 0.691 1.465 0.472 0.371 1.213 0.674 2.223 0.893l2.981 0.64c1.701 0.387 2.981 0.977 3.823 1.768 0.842 0.808 1.28 1.836 1.28 3.082 0 1.078-0.337 2.038-0.977 2.88s-1.533 1.499-2.695 1.987c-1.145 0.472-2.459 0.707-3.958 0.707-2.105 0-3.806-0.438-5.12-1.314-1.314-0.859-2.122-2.072-2.408-3.655l3.486-0.505c0.219 0.876 0.674 1.533 1.347 1.987 0.691 0.455 1.583 0.674 2.678 0.674 1.179 0 2.122-0.236 2.829-0.724 0.724-0.488 1.078-1.061 1.078-1.752 0-1.128-0.876-1.903-2.627-2.291l-3.149-0.674c-1.752-0.387-3.048-0.994-3.874-1.819s-1.246-1.869-1.246-3.133c0-1.061 0.303-1.987 0.926-2.796s1.465-1.415 2.543-1.853c1.095-0.455 2.341-0.674 3.722-0.674 2.038 0 3.621 0.421 4.766 1.263 1.162 0.842 1.92 1.954 2.307 3.352z"></path>
<path  d="M64 25.263v-18.274h3.537v2.931h0.202c0.337-0.994 0.96-1.752 1.819-2.324 0.876-0.573 1.869-0.859 2.981-0.859 0.219 0 0.488 0 0.792 0.017 0.32 0.017 0.573 0.034 0.775 0.051v3.402c-0.152-0.034-0.421-0.084-0.808-0.135-0.371-0.034-0.741-0.067-1.128-0.067-0.876 0-1.651 0.185-2.341 0.539-0.674 0.354-1.213 0.842-1.6 1.465-0.387 0.606-0.573 1.314-0.573 2.122v11.133h-3.655z"></path>
<path  d="M54.333 25.263c-1.819 0-3.385-0.387-4.716-1.145-1.347-0.758-2.358-1.836-3.082-3.217-0.707-1.381-1.061-2.998-1.061-4.851 0-1.836 0.337-3.469 1.044-4.867s1.701-2.493 2.981-3.267c1.28-0.792 2.796-1.179 4.514-1.179 1.061 0 2.088 0.152 3.065 0.488 0.994 0.337 1.886 0.859 2.661 1.566 0.792 0.724 1.415 1.651 1.869 2.796 0.472 1.145 0.707 2.526 0.707 4.143v1.246h-14.804v-2.611h12.935l-1.684 0.859c0-1.095-0.185-2.072-0.539-2.914s-0.876-1.499-1.583-1.971c-0.707-0.488-1.583-0.724-2.627-0.724s-1.937 0.236-2.678 0.724c-0.724 0.472-1.28 1.112-1.667 1.903-0.404 0.792-0.589 1.667-0.589 2.594v1.785c0 1.229 0.219 2.274 0.657 3.133 0.455 0.859 1.061 1.499 1.853 1.954 0.808 0.455 1.735 0.674 2.779 0.674 0.691 0 1.314-0.101 1.869-0.286 0.556-0.202 1.044-0.488 1.465-0.876 0.404-0.371 0.724-0.859 0.926-1.415l3.436 0.623c-0.286 0.96-0.775 1.802-1.465 2.526-0.707 0.724-1.583 1.297-2.644 1.701s-2.257 0.606-3.621 0.606z"></path>
<path  d="M46.198 7.158v2.829h-10.829v-2.829h10.829zM38.316 25.263v-20.211c0-1.128 0.269-2.072 0.792-2.813 0.539-0.758 1.229-1.314 2.088-1.684 0.876-0.371 1.819-0.556 2.813-0.556 0.758 0 1.415 0.051 1.954 0.168s0.943 0.219 1.196 0.303l-0.909 2.863c-0.168-0.067-0.387-0.118-0.657-0.185s-0.606-0.101-1.011-0.101c-0.893 0-1.549 0.219-1.954 0.657-0.404 0.421-0.606 1.027-0.606 1.836v19.722h-3.705z"></path>
<path  d="M36.093 7.158v2.829h-10.829v-2.829h10.829zM28.211 25.263v-20.211c0-1.128 0.269-2.072 0.792-2.813 0.539-0.758 1.229-1.314 2.088-1.684 0.876-0.371 1.819-0.556 2.813-0.556 0.758 0 1.415 0.051 1.954 0.168s0.943 0.219 1.196 0.303l-0.909 2.863c-0.168-0.067-0.387-0.118-0.657-0.185s-0.606-0.101-1.011-0.101c-0.893 0-1.549 0.219-1.954 0.657-0.404 0.421-0.606 1.027-0.606 1.836v19.722h-3.705z"></path>
<path  d="M17.28 25.263c-1.819 0-3.385-0.387-4.716-1.145-1.347-0.758-2.358-1.836-3.082-3.217-0.707-1.381-1.061-2.998-1.061-4.851 0-1.836 0.337-3.469 1.044-4.867s1.701-2.493 2.981-3.267c1.28-0.792 2.796-1.179 4.514-1.179 1.061 0 2.088 0.152 3.065 0.488 0.994 0.337 1.886 0.859 2.661 1.566 0.792 0.724 1.415 1.651 1.869 2.796 0.472 1.145 0.707 2.526 0.707 4.143v1.246h-14.804v-2.611h12.935l-1.684 0.859c0-1.095-0.185-2.072-0.539-2.914s-0.876-1.499-1.583-1.971c-0.707-0.488-1.583-0.724-2.627-0.724s-1.937 0.236-2.678 0.724c-0.724 0.472-1.28 1.112-1.667 1.903-0.404 0.792-0.589 1.667-0.589 2.594v1.785c0 1.229 0.219 2.274 0.657 3.133 0.455 0.859 1.061 1.499 1.853 1.954 0.808 0.455 1.735 0.674 2.779 0.674 0.691 0 1.314-0.101 1.869-0.286 0.556-0.202 1.044-0.488 1.465-0.876 0.404-0.371 0.724-0.859 0.926-1.415l3.436 0.623c-0.286 0.96-0.775 1.802-1.465 2.526-0.707 0.724-1.583 1.297-2.644 1.701s-2.257 0.606-3.621 0.606z"></path>
<path  d="M2.863 7.006h3.419v19.368c0.017 1.213-0.202 2.24-0.623 3.082-0.438 0.825-1.078 1.465-1.903 1.886-0.825 0.438-1.853 0.657-3.065 0.657h-0.691v-3.048h0.539c0.825 0 1.415-0.219 1.785-0.674 0.354-0.438 0.539-1.078 0.539-1.92v-19.352zM4.564 4.211c-0.606 0-1.112-0.219-1.533-0.623s-0.64-0.909-0.64-1.482c0-0.589 0.219-1.078 0.64-1.499 0.421-0.404 0.926-0.606 1.533-0.606 0.589 0 1.095 0.202 1.516 0.606 0.438 0.421 0.657 0.909 0.657 1.499 0 0.573-0.219 1.078-0.657 1.482-0.421 0.404-0.926 0.623-1.516 0.623z"></path>
</symbol>
<symbol id="icon-user" width="24" height="24" viewBox="0 0 24 24">
  <path d="M20 21C20 19.6044 20 18.9067 19.8278 18.3389C19.44 17.0605 18.4395 16.06 17.1611 15.6722C16.5933 15.5 15.8956 15.5 14.5 15.5H9.5C8.10444 15.5 7.40665 15.5 6.83886 15.6722C5.56045 16.06 4.56004 17.0605 4.17224 18.3389C4 18.9067 4 19.6044 4 21" stroke-width="2" stroke-linecap="round" stroke-linejoin="round" />
  <path d="M12 12C14.4853 12 16.5 9.98528 16.5 7.5C16.5 5.01472 14.4853 3 12 3C9.51472 3 7.5 5.01472 7.5 7.5C7.5 9.98528 9.51472 12 12 12Z" stroke-width="2" stroke-linecap="round" stroke-linejoin="round" />
</symbol>
<symbol id="icon-message-chat" width="24" height="24" viewBox="0 0 24 24">
  <path d="M6.09436 11.2288C6.03221 10.8282 5.99996 10.4179 5.99996 10C5.99996 5.58172 9.60525 2 14.0526 2C18.4999 2 22.1052 5.58172 22.1052 10C22.1052 10.9981 21.9213 11.9535 21.5852 12.8345C21.5154 13.0175 21.4804 13.109 21.4646 13.1804C21.4489 13.2512 21.4428 13.301 21.4411 13.3735C21.4394 13.4466 21.4493 13.5272 21.4692 13.6883L21.8717 16.9585C21.9153 17.3125 21.9371 17.4895 21.8782 17.6182C21.8266 17.731 21.735 17.8205 21.6211 17.8695C21.4911 17.9254 21.3146 17.8995 20.9617 17.8478L17.7765 17.3809C17.6101 17.3565 17.527 17.3443 17.4512 17.3448C17.3763 17.3452 17.3245 17.3507 17.2511 17.3661C17.177 17.3817 17.0823 17.4172 16.893 17.4881C16.0097 17.819 15.0524 18 14.0526 18C13.6344 18 13.2237 17.9683 12.8227 17.9073M7.63158 22C10.5965 22 13 19.5376 13 16.5C13 13.4624 10.5965 11 7.63158 11C4.66668 11 2.26316 13.4624 2.26316 16.5C2.26316 17.1106 2.36028 17.6979 2.53955 18.2467C2.61533 18.4787 2.65322 18.5947 2.66566 18.6739C2.67864 18.7567 2.68091 18.8031 2.67608 18.8867C2.67145 18.9668 2.65141 19.0573 2.61134 19.2383L2 22L4.9948 21.591C5.15827 21.5687 5.24 21.5575 5.31137 21.558C5.38652 21.5585 5.42641 21.5626 5.50011 21.5773C5.5701 21.5912 5.67416 21.6279 5.88227 21.7014C6.43059 21.8949 7.01911 22 7.63158 22Z" stroke-width="2" stroke-linecap="round" stroke-linejoin="round" />
</symbol>
<symbol id="icon-brush" width="24" height="24" viewBox="0 0 24 24">
  <path d="M12.7778 15L9 11.2222" stroke-width="2" stroke-linecap="round" stroke-linejoin="round" />
  <path d="M2 22C4 22 6.60801 22.3417 7.97485 20.9749C9.34168 19.608 9.34168 17.392 7.97485 16.0251C6.60801 14.6583 4.39194 14.6583 3.0251 16.0251C1.65827 17.392 3.0251 20 2 22Z" stroke-width="2" stroke-linecap="round" stroke-linejoin="round" />
  <path d="M7.99995 16C7.50853 15.5086 7.26283 15.2629 7.12391 15.0056C6.79079 14.3885 6.80514 13.6421 7.16173 13.0384C7.31043 12.7866 7.5654 12.5505 8.07534 12.0783L17.9434 2.94124C18.8126 2.13645 20.1624 2.1624 20.9999 3C21.8375 3.83759 21.8635 5.18737 21.0587 6.05654L11.9216 15.9246C11.4494 16.4345 11.2134 16.6895 10.9616 16.8382C10.3578 17.1948 9.6114 17.2091 8.99438 16.876C8.73707 16.7371 8.49136 16.4914 7.99995 16Z" stroke-width="2" stroke-linecap="round" stroke-linejoin="round" />
</symbol>
<symbol id="icon-time" width="24" height="24" viewBox="0 0 24 24">
  <path d="M18.1626 2H5.83744C5.37494 2 5 2.37494 5 2.83744C5 5.50268 6.05876 8.05876 7.94337 9.94337L9.16256 11.1626C9.28363 11.2836 9.34417 11.3442 9.3875 11.4023C9.65188 11.7569 9.65188 12.2431 9.3875 12.5977C9.34417 12.6558 9.28363 12.7164 9.16256 12.8374L7.94337 14.0566C6.05876 15.9412 5 18.4973 5 21.1626C5 21.6251 5.37494 22 5.83744 22H18.1626C18.6251 22 19 21.6251 19 21.1626C19 18.4973 17.9412 15.9412 16.0566 14.0566L14.8374 12.8374C14.7164 12.7164 14.6558 12.6558 14.6125 12.5977C14.3481 12.2431 14.3481 11.7569 14.6125 11.4023C14.6558 11.3442 14.7164 11.2836 14.8374 11.1626L16.0566 9.94337C17.9412 8.05876 19 5.50268 19 2.83744C19 2.37494 18.6251 2 18.1626 2Z" stroke-width="2" stroke-linecap="round" stroke-linejoin="round" />
</symbol>
</defs>
</svg>
