<?xml version="1.0" standalone="no"?>
<!DOCTYPE svg PUBLIC "-//W3C//DTD SVG 1.1//EN" "http://www.w3.org/Graphics/SVG/1.1/DTD/svg11.dtd" >
<svg xmlns="http://www.w3.org/2000/svg" xmlns:xlink="http://www.w3.org/1999/xlink" version="1.1">
<metadata>
Created by FontForge 20201107 at Thu Dec  8 17:43:03 2022
 By 
Copyright 2022 The Inter Project Authors (https://github.com/rsms/inter-tight)
</metadata>
<defs>
<font id="InterTight-ExtraLight" horiz-adv-x="0" >
  <font-face 
    font-family="Inter Tight ExtraLight"
    font-weight="250"
    font-stretch="normal"
    units-per-em="2048"
    panose-1="0 0 0 0 0 0 0 0 0 0"
    ascent="1638"
    descent="-410"
    x-height="1118"
    cap-height="1490"
    bbox="-1485 -654 5274 2199"
    underline-thickness="140"
    underline-position="-407"
    unicode-range="U+0020-1F852"
  />
<missing-glyph horiz-adv-x="1024" 
d="M102 -494v2478h820v-2478h-820zM204 -392h616v2274h-616v-2274z" />
    <glyph glyph-name=".notdef" horiz-adv-x="1024" 
d="M102 -494v2478h820v-2478h-820zM204 -392h616v2274h-616v-2274z" />
    <glyph glyph-name=".null" 
 />
    <glyph glyph-name="nonmarkingreturn" horiz-adv-x="682" 
 />
    <glyph glyph-name="space" unicode=" " horiz-adv-x="544" 
 />
    <glyph glyph-name="exclam" unicode="!" horiz-adv-x="561" 
d="M237 455l-4 1035h95l-4 -1035h-87zM281 -10q-33 0 -56 23t-23 56t23 56t56 23q32 0 55.5 -23t23.5 -56t-23.5 -56t-55.5 -23z" />
    <glyph glyph-name="quotedbl" unicode="&#x22;" horiz-adv-x="813" 
d="M235 1003l-10 487h96l-11 -487h-75zM502 1003l-10 487h96l-11 -487h-75z" />
    <glyph glyph-name="numbersign" unicode="#" horiz-adv-x="1264" 
d="M732 0l245 1490h78l-244 -1490h-79zM26 446l15 80h1110l-13 -80h-1112zM209 0l244 1490h78l-244 -1490h-78zM111 963l15 80h1110l-13 -80h-1112z" />
    <glyph glyph-name="dollar" unicode="$" horiz-adv-x="1239" 
d="M586 -186v1862h70v-1862h-70zM616 -25q-144 0 -250.5 49t-168 136t-69.5 201h93q7 -92 59 -159.5t138.5 -104t197.5 -36.5q120 0 211.5 41t143.5 115t52 171q0 78 -37.5 133.5t-109.5 96.5t-179 73l-173 52q-176 54 -267.5 145.5t-91.5 228.5q0 115 60.5 204t166 139.5
t237.5 50.5q133 0 234.5 -51t161.5 -139.5t66 -202.5h-89q-12 138 -113.5 223.5t-261.5 85.5q-108 0 -193 -39.5t-133 -109t-48 -159.5q0 -76 39 -132.5t108.5 -96t158.5 -66.5l163 -49q83 -25 154 -58.5t124 -79.5t82 -107.5t29 -142.5q0 -118 -60.5 -211t-171.5 -147
t-263 -54z" />
    <glyph glyph-name="percent" unicode="%" horiz-adv-x="1577" 
d="M909 273v58q0 86 32.5 152t91.5 104t136 38q78 0 136 -38t90.5 -104t32.5 -152v-58q0 -84 -32.5 -150.5t-90.5 -104.5t-136 -38q-77 0 -136 38t-91.5 104.5t-32.5 150.5zM990 331v-58q-1 -96 48 -158.5t131 -62.5q81 0 129.5 62.5t49.5 158.5v58q-1 96 -49 158t-130 63
q-81 -1 -130.5 -63t-48.5 -158zM149 1159v56q1 86 34 152.5t91.5 104.5t135.5 38q78 0 136 -38t90.5 -104.5t32.5 -152.5v-56q0 -85 -33 -151.5t-91 -104.5t-135 -38t-136 38t-91.5 104.5t-33.5 151.5zM231 1215v-56q-1 -97 48 -159t131 -62q81 0 129.5 62t49.5 159v56
q-1 98 -49 160t-130 62q-81 0 -130.5 -62t-48.5 -160zM229 0l1022 1490h92l-1022 -1490h-92z" />
    <glyph glyph-name="ampersand" unicode="&#x26;" horiz-adv-x="1202" 
d="M543 -20q-127 0 -226 53t-155.5 143.5t-56.5 203.5q0 76 30 139t91 124t154 130l219 164q89 67 132 127.5t43 138.5q0 93 -63.5 159t-161.5 66q-69 0 -124 -33.5t-87.5 -88.5t-32.5 -121q0 -54 24 -102t69 -104t106 -133l677 -846h-109l-622 776q-71 90 -124 155
t-81.5 124t-28.5 131q0 92 43.5 165t118 115t169.5 42q94 0 165 -40.5t111 -109.5t40 -155q0 -96 -50 -173t-158 -157l-244 -184q-122 -91 -169 -165t-47 -144q0 -87 45.5 -159.5t123.5 -116t178 -43.5q101 0 186 37.5t149.5 106t106 163.5t53.5 211l86 -4
q-6 -92 -30.5 -164.5t-57 -127t-62.5 -94.5q-5 -6 -10 -12.5t-10 -13.5q-62 -75 -168 -129t-242 -54z" />
    <glyph glyph-name="quotesingle" unicode="'" horiz-adv-x="545" 
d="M235 1003l-10 487h96l-11 -487h-75z" />
    <glyph glyph-name="parenleft" unicode="(" horiz-adv-x="645" 
d="M215 636q1 159 28.5 323.5t79 323.5t122.5 299h89q-74 -154 -125.5 -314t-77.5 -320t-26 -312q0 -148 25 -298t76 -304t128 -314h-89q-112 222 -170.5 454.5t-59.5 461.5z" />
    <glyph glyph-name="parenright" unicode=")" horiz-adv-x="645" 
d="M111 -279q77 160 128 313.5t76.5 303.5t24.5 298q1 153 -25.5 312.5t-77.5 320t-126 313.5h88q72 -140 123.5 -298.5t79 -323.5t27.5 -324q0 -228 -58.5 -461t-171.5 -454h-88z" />
    <glyph glyph-name="asterisk" unicode="*" horiz-adv-x="992" 
d="M457 652l4 359l-309 -184l-39 68l314 175l-314 176l39 68l309 -183l-4 359h78l-4 -359l309 183l39 -68l-314 -176l314 -175l-39 -68l-309 184l4 -359h-78z" />
    <glyph glyph-name="plus" unicode="+" horiz-adv-x="1287" 
d="M601 141v882h84v-882h-84zM202 539v86h883v-86h-883z" />
    <glyph glyph-name="comma" unicode="," horiz-adv-x="541" 
d="M133 -316l96 487h100l-124 -487h-72z" />
    <glyph glyph-name="hyphen" unicode="-" horiz-adv-x="880" 
d="M735 681v-84h-588v84h588z" />
    <glyph glyph-name="period" unicode="." horiz-adv-x="531" 
d="M266 -10q-33 0 -56 23t-23 56t23 56t56 23q32 0 55.5 -23t23.5 -56t-23.5 -56t-55.5 -23z" />
    <glyph glyph-name="slash" unicode="/" horiz-adv-x="653" 
d="M609 1560l-480 -1784h-86l480 1784h86z" />
    <glyph glyph-name="zero" unicode="0" horiz-adv-x="1201" 
d="M601 -20q-149 0 -256.5 91.5t-164.5 263t-57 409.5q0 239 57.5 410.5t164.5 263.5t256 92t256 -92t164 -263.5t57 -410.5q0 -238 -57 -409.5t-163.5 -263t-256.5 -91.5zM601 63q122 0 208.5 81.5t133.5 234.5t47 365q0 214 -47 366.5t-133.5 234.5t-208.5 82
q-182 0 -286 -181t-104 -502q0 -212 47 -365t134.5 -234.5t208.5 -81.5z" />
    <glyph glyph-name="one" unicode="1" horiz-adv-x="744" 
d="M545 1490v-1490h-89v1393h-9l-334 -222v98l331 221h101z" />
    <glyph glyph-name="two" unicode="2" horiz-adv-x="1229" 
d="M162 0v69l481 556q104 120 164 202t86 149.5t26 139.5q0 92 -42 161.5t-115 109.5t-167 40q-97 0 -170.5 -43t-114.5 -116.5t-41 -165.5h-88q0 116 53.5 208t148 146t214.5 54q119 0 211.5 -52t145.5 -140.5t53 -201.5q0 -82 -28 -158t-95.5 -169.5t-186.5 -229.5
l-404 -467v-8h781v-84h-912z" />
    <glyph glyph-name="three" unicode="3" horiz-adv-x="1240" 
d="M626 -20q-132 0 -236 50t-165 139t-62 203h91q3 -91 52.5 -160t132.5 -108.5t186 -39.5q111 0 195 43.5t131.5 118t47.5 166.5q0 100 -52 174.5t-144 116.5t-215 41h-55v85h55q104 0 186 38t129.5 108t47.5 164q0 90 -41 159t-114 109t-171 40q-95 0 -171.5 -39
t-121.5 -108t-46 -162h-90q2 116 58.5 204t154 138t218.5 50q124 0 217 -52t145 -139.5t52 -195.5q0 -129 -71.5 -221t-194.5 -128v-8q144 -32 228.5 -131.5t84.5 -242.5q0 -116 -59 -209.5t-163.5 -148t-239.5 -54.5z" />
    <glyph glyph-name="four" unicode="4" horiz-adv-x="1218" 
d="M125 335v72l673 1083h56v-141h-47l-573 -922v-8h861v-84h-970zM813 0v359v33v1098h90v-1490h-90z" />
    <glyph glyph-name="five" unicode="5" horiz-adv-x="1149" 
d="M567 -20q-120 0 -213 50.5t-147 139t-56 202.5h89q3 -135 93.5 -221.5t233.5 -86.5q109 0 192 52.5t130 143.5t47 205q0 121 -51 211t-136 140.5t-188 50.5q-81 0 -152.5 -29.5t-121.5 -76.5l-103 15l87 714h700v-85h-621l-68 -558h7q52 47 124.5 75.5t157.5 28.5
q126 0 229 -61t164 -170t61 -254q0 -139 -59 -249t-162.5 -173.5t-236.5 -63.5z" />
    <glyph glyph-name="six" unicode="6" horiz-adv-x="1159" 
d="M591 -20q-94 0 -178.5 40t-149.5 123.5t-102.5 216.5t-37.5 318q0 167 27 316.5t84.5 265.5t150 183t223.5 67q116 0 203.5 -49.5t139.5 -138t63 -204.5h-89q-15 135 -97.5 221t-219.5 87q-193 -1 -295 -190t-102 -541h8q29 70 86 123.5t132 83.5t158 29q121 1 221 -61
t160 -169.5t59 -243.5q1 -128 -54.5 -236.5t-156 -174.5t-233.5 -66zM591 64q102 0 182.5 53t127 142.5t46.5 197.5q0 110 -48 198t-130 140t-184 52q-106 0 -191 -56t-129 -148.5t-30 -200.5q17 -116 66 -201.5t123 -131t167 -45.5z" />
    <glyph glyph-name="seven" unicode="7" horiz-adv-x="1092" 
d="M200 0l691 1398v6h-794v86h894v-89l-693 -1401h-98z" />
    <glyph glyph-name="eight" unicode="8" horiz-adv-x="1201" 
d="M600 -20q-135 0 -243 54t-171 146.5t-63 207.5q0 91 39.5 170.5t109 136t157.5 75.5v7q-113 36 -183.5 132t-70.5 217q0 109 56 195.5t152.5 137.5t216.5 51q118 0 215 -50.5t154 -137.5t57 -196q0 -121 -70.5 -217.5t-182.5 -131.5v-7q87 -18 156 -74.5t109 -136.5
t40 -171q0 -115 -63 -207.5t-171 -146.5t-244 -54zM600 64q112 0 199 43.5t137.5 118t50.5 166.5q0 95 -51.5 171t-139 121t-196.5 45t-196.5 -45t-139 -121t-51.5 -171q0 -92 50.5 -166.5t138 -118t198.5 -43.5zM600 807q94 0 170.5 42.5t121.5 113.5t45 159q0 87 -45 156
t-121 109t-171 40t-171.5 -40t-121 -109t-44.5 -156q0 -88 45 -159t121.5 -113.5t170.5 -42.5z" />
    <glyph glyph-name="nine" unicode="9" horiz-adv-x="1159" 
d="M568 1510q94 0 178.5 -40t149.5 -123t102 -215t37 -318q0 -167 -26 -317t-83.5 -266.5t-150 -183.5t-224.5 -67q-115 0 -202.5 50.5t-140 139.5t-63.5 206h90q15 -136 97.5 -224t218.5 -88q193 0 295 190t103 543h-8q-29 -69 -86 -122.5t-132 -83.5t-158 -30
q-121 0 -221.5 62t-160 169.5t-60.5 243.5q1 128 56.5 236t155.5 173.5t233 64.5zM568 1426q-102 0 -182.5 -53t-126.5 -141t-46 -196q0 -110 47.5 -198.5t129.5 -140.5t184 -52q107 0 191.5 56.5t129.5 149.5t30 200q-16 116 -65.5 200t-124 129.5t-167.5 45.5z" />
    <glyph glyph-name="colon" unicode=":" horiz-adv-x="531" 
d="M266 -10q-33 0 -56 23t-23 56t23 56t56 23q32 0 55.5 -23t23.5 -56t-23.5 -56t-55.5 -23zM266 902q-33 0 -56 23t-23 56t23 56t56 23q32 0 55.5 -23t23.5 -56t-23.5 -56t-55.5 -23z" />
    <glyph glyph-name="semicolon" unicode=";" horiz-adv-x="546" 
d="M133 -316l96 487h100l-124 -487h-72zM281 902q-33 0 -56 23t-23 56t23 56t56 23q32 0 55.5 -23t23.5 -56t-23.5 -56t-55.5 -23z" />
    <glyph glyph-name="less" unicode="&#x3c;" horiz-adv-x="1287" 
d="M222 547v70l843 504v-99l-742 -442l8 15v-26l-8 13l742 -441v-99z" />
    <glyph glyph-name="equal" unicode="=" horiz-adv-x="1287" 
d="M263 742v83h760v-83h-760zM263 339v83h760v-83h-760z" />
    <glyph glyph-name="greater" unicode="&#x3e;" horiz-adv-x="1287" 
d="M1065 547l-843 -505v99l741 441l-7 -13v26l7 -15l-741 442v99l843 -504v-70z" />
    <glyph glyph-name="question" unicode="?" horiz-adv-x="967" 
d="M394 444v71q0 91 21.5 150.5t67.5 105.5t119 96q96 64 138.5 127.5t42.5 144.5q0 86 -40 151t-109 102t-155 37q-85 0 -155 -38.5t-112.5 -108t-44.5 -164.5h-92q2 116 55.5 204t144.5 138t204 50q115 0 203.5 -48.5t139 -133t50.5 -191.5q0 -102 -50 -179t-161 -153
q-68 -47 -106.5 -86.5t-54.5 -86.5t-16 -117v-71h-90zM440 -10q-33 0 -56 23t-23 56t23 56t56 23q32 0 55.5 -23t23.5 -56t-23.5 -56t-55.5 -23z" />
    <glyph glyph-name="at" unicode="@" horiz-adv-x="1886" 
d="M963 -395q-193 0 -354 67.5t-278.5 191t-181.5 290.5t-64 367q0 197 64.5 363.5t182 289.5t276.5 191t347 68q186 0 341 -69.5t268 -191t175 -279t62 -334.5q0 -101 -21 -193t-64 -164t-109 -113.5t-156 -41.5q-56 0 -99.5 19.5t-68.5 65t-28 121.5h-7
q-29 -63 -76.5 -112t-111.5 -77.5t-141 -28.5q-121 0 -213 65.5t-144 176.5t-52 247q0 134 55 241.5t148 171.5t210 64q110 0 194.5 -57t127.5 -143h7v182h82v-690q0 -91 26.5 -130.5t91.5 -39.5q84 0 144 53t91.5 151.5t31.5 233.5q0 128 -36 246.5t-103.5 218.5
t-162 174.5t-212 115.5t-252.5 41q-169 0 -312 -63t-249 -175.5t-164.5 -265.5t-58.5 -334q0 -182 58.5 -335t165 -265.5t252 -174.5t320.5 -62q80 0 156.5 16t144.5 43.5t120 61.5l33 -70q-61 -38 -136.5 -67t-157 -45t-162.5 -16zM921 115q100 0 175 52.5t117 145.5
t42 214t-43.5 209.5t-118 137t-170.5 48.5q-94 0 -169.5 -54t-119 -143t-43.5 -198q0 -112 41.5 -205.5t116 -150t172.5 -56.5z" />
    <glyph glyph-name="A" unicode="A" horiz-adv-x="1271" 
d="M142 0h-97l539 1490h105l536 -1490h-96l-490 1373h-8zM279 561h715v-84h-715v84z" />
    <glyph glyph-name="B" unicode="B" horiz-adv-x="1287" 
d="M199 0v1490h484q135 0 228 -48t141.5 -135t48.5 -201q0 -91 -29 -160.5t-81 -115t-122 -63.5v-8q77 -6 143 -54t106.5 -129t40.5 -189q0 -114 -49 -201.5t-146.5 -136.5t-241.5 -49h-523zM291 84h431q168 0 258.5 84.5t90.5 218.5q0 94 -43.5 168t-121.5 117t-181 43
h-434v-631zM291 798h424q95 0 161.5 41.5t101.5 111.5t35 155q0 138 -86 218.5t-244 80.5h-392v-607z" />
    <glyph glyph-name="C" unicode="C" horiz-adv-x="1451" 
d="M755 -20q-186 0 -328.5 95t-223 267t-80.5 402q0 231 80.5 403t223 267.5t328.5 95.5q124 0 224.5 -41t174 -110.5t119 -156.5t61.5 -178h-93q-15 75 -55 146.5t-102.5 128.5t-145.5 90.5t-183 33.5q-147 0 -270.5 -78.5t-198 -230t-74.5 -370.5q0 -220 74.5 -371
t198 -228.5t270.5 -77.5q100 0 183 33.5t145.5 90t102.5 128t55 147.5h93q-16 -91 -61.5 -177.5t-119 -156t-174 -111t-224.5 -41.5z" />
    <glyph glyph-name="D" unicode="D" horiz-adv-x="1433" 
d="M612 0h-363v84h359q200 0 336.5 79.5t206.5 229t70 356.5q0 206 -67 352.5t-196.5 225t-317.5 78.5h-394v85h398q210 0 358.5 -88.5t228 -254.5t79.5 -398q0 -235 -82 -403t-238 -257t-378 -89zM291 1490v-1490h-92v1490h92z" />
    <glyph glyph-name="E" unicode="E" horiz-adv-x="1173" 
d="M199 0v1490h829v-85h-737v-616h693v-84h-693v-621h755v-84h-847z" />
    <glyph glyph-name="F" unicode="F" horiz-adv-x="1167" 
d="M199 0v1490h831v-85h-739v-623h670v-84h-670v-698h-92z" />
    <glyph glyph-name="G" unicode="G" horiz-adv-x="1483" 
d="M759 -20q-191 0 -334 95t-222.5 267t-79.5 402q0 232 79.5 404t221.5 267t329 95q126 0 227 -41.5t175 -112t119.5 -157t61.5 -175.5h-94q-17 75 -56.5 146.5t-101.5 128.5t-145 90.5t-186 33.5q-158 0 -280.5 -82.5t-191.5 -235t-69 -361.5q0 -206 69 -358t192.5 -235.5
t285.5 -83.5q147 0 259 66t175.5 192t63.5 304l32 -16h-506v84h563v-84q0 -196 -75.5 -338.5t-208 -218.5t-303.5 -76z" />
    <glyph glyph-name="H" unicode="H" horiz-adv-x="1477" 
d="M199 0v1490h92v-703h896v703h91v-1490h-91v703h-896v-703h-92z" />
    <glyph glyph-name="I" unicode="I" horiz-adv-x="489" 
d="M291 1490v-1490h-92v1490h92z" />
    <glyph glyph-name="J" unicode="J" horiz-adv-x="1047" 
d="M467 -20q-109 0 -195.5 41t-136.5 114t-50 168v17h90v-17q0 -69 38.5 -123.5t104.5 -85t149 -30.5q80 0 146.5 34t105.5 109.5t39 197.5v1085h91v-1085q0 -148 -51 -242t-137.5 -138.5t-193.5 -44.5z" />
    <glyph glyph-name="K" unicode="K" horiz-adv-x="1255" 
d="M199 0v1490h92v-865h10l784 865h121l-645 -705l640 -785h-114l-585 720l-211 -235v-485h-92z" />
    <glyph glyph-name="L" unicode="L" horiz-adv-x="1120" 
d="M199 0v1490h92v-1406h727v-84h-819z" />
    <glyph glyph-name="M" unicode="M" horiz-adv-x="1756" 
d="M199 1490h100l574 -1359h10l574 1359h101v-1490h-90v1273h-9l-540 -1273h-85l-538 1273h-9v-1273h-88v1490z" />
    <glyph glyph-name="N" unicode="N" horiz-adv-x="1537" 
d="M1339 1490v-1490h-90l-949 1325h-9v-1325h-92v1490h90l950 -1325h9v1325h91z" />
    <glyph glyph-name="O" unicode="O" horiz-adv-x="1508" 
d="M755 -20q-186 0 -328.5 95.5t-223 267.5t-80.5 401q0 231 80.5 403t223 267.5t328.5 95.5t328 -95.5t222 -267.5t80 -403q0 -230 -80 -402t-222 -267t-328 -95zM755 67q158 0 280 83t191.5 235.5t69.5 358.5q0 207 -69.5 359.5t-191.5 236t-280 83.5t-280.5 -82.5
t-192.5 -235t-70 -361.5q0 -206 69.5 -358t192 -235.5t281.5 -83.5z" />
    <glyph glyph-name="P" unicode="P" horiz-adv-x="1229" 
d="M199 0v1490h460q141 0 242.5 -58.5t155.5 -159.5t54 -230q0 -128 -54 -229.5t-155 -159.5t-243 -58h-396v84h394q114 0 195.5 46.5t125 128.5t43.5 188t-43.5 188t-125 128.5t-195.5 46.5h-366v-1405h-92z" />
    <glyph glyph-name="Q" unicode="Q" horiz-adv-x="1508" 
d="M774 466h105l215 -286l21 -27l220 -293h-105l-181 239l-19 27zM755 -20q-186 0 -328.5 95.5t-223 267.5t-80.5 401q0 231 80.5 403t223 267.5t328.5 95.5t328 -95.5t222 -267.5t80 -403q0 -230 -80 -402t-222 -267t-328 -95zM755 67q158 0 280 83t191.5 235.5t69.5 358.5
q0 207 -69.5 359.5t-191.5 236t-280 83.5t-280.5 -82.5t-192.5 -235t-70 -361.5q0 -206 69.5 -358t192 -235.5t281.5 -83.5z" />
    <glyph glyph-name="R" unicode="R" horiz-adv-x="1245" 
d="M199 0v1490h460q141 0 242.5 -55t155.5 -153.5t54 -228.5q0 -127 -54 -224.5t-155 -152t-243 -54.5h-411v86h409q114 0 195.5 42.5t125 120t43.5 182.5q0 107 -43.5 185.5t-125 122.5t-195.5 44h-366v-1405h-92zM1073 0l-364 675h102l366 -675h-104z" />
    <glyph glyph-name="S" unicode="S" horiz-adv-x="1239" 
d="M616 -25q-144 0 -250.5 49t-168 136t-69.5 201h93q7 -92 59 -159.5t138.5 -104t197.5 -36.5q120 0 211.5 41t143.5 115t52 171q0 78 -37.5 133.5t-109.5 96.5t-179 73l-173 52q-176 54 -267.5 145.5t-91.5 228.5q0 115 60.5 204t166 139.5t237.5 50.5q133 0 234.5 -51
t161.5 -139.5t66 -202.5h-89q-12 138 -113.5 223.5t-261.5 85.5q-108 0 -193 -39.5t-133 -109t-48 -159.5q0 -76 39 -132.5t108.5 -96t158.5 -66.5l163 -49q83 -25 154 -58.5t124 -79.5t82 -107.5t29 -142.5q0 -118 -60.5 -211t-171.5 -147t-263 -54z" />
    <glyph glyph-name="T" unicode="T" horiz-adv-x="1243" 
d="M101 1405v85h1043v-85h-476v-1405h-91v1405h-476z" />
    <glyph glyph-name="U" unicode="U" horiz-adv-x="1498" 
d="M1207 1490h92v-986q0 -152 -70.5 -271.5t-194.5 -188.5t-285 -69q-159 0 -283.5 69t-195.5 188.5t-71 271.5v986h92v-981q0 -129 58 -229.5t162 -158.5t238 -58q136 0 239 58t161 158.5t58 229.5v981z" />
    <glyph glyph-name="V" unicode="V" horiz-adv-x="1271" 
d="M142 1490l489 -1373h10l488 1373h96l-536 -1490h-105l-539 1490h97z" />
    <glyph glyph-name="W" unicode="W" horiz-adv-x="1833" 
d="M446 0l-409 1490h94l364 -1350h9l358 1350h110l358 -1350h9l363 1350h94l-410 -1490h-104l-362 1339h-8l-361 -1339h-105z" />
    <glyph glyph-name="X" unicode="X" horiz-adv-x="1205" 
d="M159 1490l440 -675h8l440 675h109l-489 -746l489 -744h-109l-440 671h-8l-440 -671h-110l494 744l-494 746h110z" />
    <glyph glyph-name="Y" unicode="Y" horiz-adv-x="1259" 
d="M48 1490h107l470 -719h10l468 719h108l-536 -815v-675h-90v675z" />
    <glyph glyph-name="Z" unicode="Z" horiz-adv-x="1221" 
d="M130 0v74l852 1331h-851v85h960v-76l-852 -1330h858v-84h-967z" />
    <glyph glyph-name="bracketleft" unicode="[" horiz-adv-x="645" 
d="M230 -280v1862h285v-80h-200v-1702h200v-80h-285z" />
    <glyph glyph-name="backslash" unicode="\" horiz-adv-x="651" 
d="M523 -224l-480 1784h85l480 -1784h-85z" />
    <glyph glyph-name="bracketright" unicode="]" horiz-adv-x="645" 
d="M130 -280v80h200v1701h-200v81h285v-1862h-285z" />
    <glyph glyph-name="asciicircum" unicode="^" horiz-adv-x="835" 
d="M399 1397h36v-56h-36v56zM75 814l298 628h89l297 -628h-92l-260 556h21l-260 -556h-93z" />
    <glyph glyph-name="underscore" unicode="_" horiz-adv-x="859" 
d="M879 0v-84h-900v84h900z" />
    <glyph glyph-name="grave" unicode="`" horiz-adv-x="781" 
d="M459 1273l-208 300h103l183 -300h-78z" />
    <glyph glyph-name="a" unicode="a" horiz-adv-x="1088" 
d="M465 -25q-97 0 -178 39t-129.5 113.5t-48.5 179.5q0 70 25 123.5t76.5 92t132 63.5t192.5 39q86 10 153 20t105 31.5t38 63.5v46q0 122 -77 194t-212 72q-119 0 -201.5 -52.5t-115.5 -135.5l-84 31q33 81 94 133.5t140 78.5t165 26q75 0 143 -20.5t121.5 -64t84 -110
t30.5 -158.5v-780h-88v201h-6q-29 -62 -80 -113t-121.5 -82t-158.5 -31zM473 57q105 0 185.5 52t126.5 141.5t46 202.5v165q-17 -14 -48.5 -25.5t-71 -20.5t-82.5 -15t-84 -11q-123 -14 -199.5 -44.5t-112.5 -79t-36 -118.5q0 -114 79.5 -180.5t196.5 -66.5z" />
    <glyph glyph-name="b" unicode="b" horiz-adv-x="1177" 
d="M627 -24q-96 0 -167.5 37t-120 98t-74.5 133h-11v-244h-85v1490h87v-622h9q25 72 73.5 132.5t120 96.5t167.5 36q134 0 234 -74t155.5 -204.5t55.5 -298.5q0 -169 -55 -300t-155 -205.5t-234 -74.5zM619 58q115 0 196 66t124.5 179t43.5 254q0 140 -43 252t-124.5 177
t-196.5 65q-113 0 -194.5 -64t-125.5 -176t-44 -254q0 -143 44 -256t125.5 -178t194.5 -65z" />
    <glyph glyph-name="c" unicode="c" horiz-adv-x="1102" 
d="M587 -24q-142 0 -250.5 75.5t-170 206.5t-61.5 297t61.5 296.5t170.5 206t250 75.5q106 0 193.5 -43t145 -120.5t73.5 -180.5h-88q-13 73 -58 132.5t-113.5 94.5t-152.5 35q-114 0 -202.5 -63.5t-140 -175t-51.5 -255.5q0 -143 50 -255.5t139 -178t205 -65.5
q123 0 213 73t111 195h90q-16 -103 -72.5 -182t-144 -123.5t-197.5 -44.5z" />
    <glyph glyph-name="d" unicode="d" horiz-adv-x="1177" 
d="M550 -24q-134 0 -234.5 74.5t-155.5 205.5t-55 300q0 168 55.5 298.5t156 204.5t234.5 74q96 0 167.5 -36t120 -96.5t73.5 -132.5h9v622h87v-1490h-85v244h-11q-26 -72 -74.5 -133t-120 -98t-167.5 -37zM557 58q114 0 195.5 65t125 178t43.5 256q0 142 -43.5 254
t-125 176t-195.5 64t-195.5 -65t-125 -177t-43.5 -252q0 -141 43.5 -254t125 -179t195.5 -66z" />
    <glyph glyph-name="e" unicode="e" horiz-adv-x="1145" 
d="M603 -24q-151 0 -263 75t-173.5 206t-61.5 297q0 167 61.5 298t169 206t245.5 75q95 0 179 -37t148.5 -108.5t101.5 -174t37 -232.5v-42h-885v80h837l-40 -32q0 130 -47 235.5t-132 167t-199 61.5q-111 0 -198.5 -62.5t-138.5 -167.5t-51 -235v-37q0 -140 49 -251
t141 -175.5t220 -64.5q92 0 157 31t107 76t62 86l81 -33q-25 -56 -78.5 -112t-135.5 -93t-193 -37z" />
    <glyph glyph-name="f" unicode="f" horiz-adv-x="666" 
d="M590 1118v-79h-495v79h495zM257 0v1291q0 84 39 143.5t101.5 91t135.5 31.5q38 0 65.5 -6t47.5 -14l-26 -79q-16 6 -35.5 10.5t-45.5 4.5q-84 0 -139 -51.5t-55 -144.5l-2 -1277h-86z" />
    <glyph glyph-name="g" unicode="g" horiz-adv-x="1177" 
d="M571 -442q-157 0 -263.5 60t-152.5 164l74 44q25 -54 71 -96.5t113.5 -66.5t157.5 -24q161 0 255.5 83.5t94.5 254.5v278h-9q-25 -72 -75.5 -128.5t-122 -88.5t-163.5 -32q-132 0 -232.5 68.5t-157 192.5t-56.5 292t55.5 297.5t156.5 203t236 73.5q96 0 167 -36
t119 -96.5t74 -132.5h10v250h86v-1145q0 -139 -55 -231.5t-154 -138t-229 -45.5zM559 88q168 0 265.5 126.5t97.5 345.5q0 141 -43 252t-124 175t-196 64t-197 -65t-125.5 -176.5t-43.5 -249.5q0 -139 44 -245.5t126 -166.5t196 -60z" />
    <glyph glyph-name="h" unicode="h" horiz-adv-x="1148" 
d="M256 724v-724h-87v1490h87v-549h9q40 87 126 139t206 52q114 0 200 -47.5t134 -136t48 -211.5v-737h-88v733q0 144 -85 230.5t-225 86.5q-94 0 -167.5 -41t-115.5 -114t-42 -171z" />
    <glyph glyph-name="i" unicode="i" horiz-adv-x="425" 
d="M169 0v1118h87v-1118h-87zM213 1315q-30 0 -51 21t-21 49q0 29 21 49.5t50 20.5q30 0 51 -20.5t21 -49.5q0 -28 -21 -49t-50 -21z" />
    <glyph glyph-name="j" unicode="j" horiz-adv-x="429" 
d="M173 1118h87v-1253q0 -87 -35.5 -150.5t-97.5 -98t-144 -34.5h-24v84h23q82 0 136 52.5t55 146.5v1253zM216 1315q-30 0 -51 21t-21 49q0 29 21 49.5t50 20.5q30 0 51 -20.5t21 -49.5q0 -28 -21 -49t-50 -21z" />
    <glyph glyph-name="k" unicode="k" horiz-adv-x="1005" 
d="M245 436l-2 128h24l559 554h115l-512 -511l-10 -4zM169 0v1490h87v-1490h-87zM850 0l-471 595l65 60l521 -655h-115z" />
    <glyph glyph-name="l" unicode="l" horiz-adv-x="425" 
d="M256 1490v-1490h-87v1490h87z" />
    <glyph glyph-name="m" unicode="m" horiz-adv-x="1702" 
d="M169 0v1118h85v-169h9q33 84 111 133.5t189 49.5q122 0 196.5 -58.5t107.5 -158.5h8q32 99 116.5 158t209.5 59q162 0 247 -102t85 -281v-749h-88v749q0 141 -67 221t-197 80q-137 0 -211.5 -87t-74.5 -220v-743h-89v755q0 131 -64.5 213t-196.5 82q-89 0 -154 -41
t-100 -112.5t-35 -163.5v-733h-87z" />
    <glyph glyph-name="n" unicode="n" horiz-adv-x="1144" 
d="M256 724v-724h-87v1118h85v-177h9q40 86 126.5 138.5t205.5 52.5q113 0 198.5 -47.5t133.5 -136t48 -211.5v-737h-87v733q0 143 -85.5 230t-224.5 87q-92 0 -165 -41t-115 -114t-42 -171z" />
    <glyph glyph-name="o" unicode="o" horiz-adv-x="1166" 
d="M583 -24q-138 0 -246 75t-170 205.5t-62 298.5t62 298.5t170 205t246 74.5t246 -74.5t170 -205.5t62 -298q0 -168 -62 -298.5t-169.5 -205.5t-246.5 -75zM583 58q118 0 205.5 66.5t136 179t48.5 251.5q0 138 -49 250.5t-136 179t-205 66.5q-116 0 -204 -66.5t-137 -179
t-49 -250.5q0 -139 49 -251.5t136.5 -179t204.5 -66.5z" />
    <glyph glyph-name="p" unicode="p" horiz-adv-x="1177" 
d="M169 -418v1536h85v-250h11q25 72 73.5 132.5t120 96.5t167.5 36q134 0 234 -74t155.5 -204.5t55.5 -298.5q0 -169 -55 -300t-155 -205.5t-234 -74.5q-96 0 -167.5 37t-120 98t-74.5 133h-9v-662h-87zM619 58q115 0 196 66t124.5 179t43.5 254q0 140 -43 252t-124.5 177
t-196.5 65q-113 0 -194.5 -64t-125.5 -176t-44 -254q0 -143 44 -256t125.5 -178t194.5 -65z" />
    <glyph glyph-name="q" unicode="q" horiz-adv-x="1177" 
d="M921 -418v662h-9q-26 -72 -74.5 -133t-120 -98t-167.5 -37q-134 0 -234.5 74.5t-155.5 205.5t-55 300q0 168 55.5 298.5t156 204.5t234.5 74q96 0 167.5 -36t120 -96.5t73.5 -132.5h11v250h85v-1536h-87zM557 58q114 0 195.5 65t125 178t43.5 256q0 142 -43.5 254
t-125 176t-195.5 64t-195.5 -65t-125 -177t-43.5 -252q0 -141 43.5 -254t125 -179t195.5 -66z" />
    <glyph glyph-name="r" unicode="r" horiz-adv-x="666" 
d="M169 0v1118h85v-175h8q37 85 123.5 137.5t196.5 52.5q12 0 23.5 -0.5t22.5 -0.5v-89q-6 1 -20 2.5t-31 1.5q-93 0 -165.5 -40.5t-114 -110.5t-41.5 -161v-735h-87z" />
    <glyph glyph-name="s" unicode="s" horiz-adv-x="998" 
d="M877 877l-82 -22q-30 91 -96.5 144.5t-181.5 53.5q-123 0 -201 -61t-78 -159q0 -80 52.5 -133t160.5 -80l173 -43q131 -32 199 -104.5t68 -180.5q0 -93 -50 -164t-139 -111.5t-205 -40.5q-156 0 -256.5 74t-129.5 210l84 21q25 -110 101.5 -167t200.5 -57q136 0 220 65.5
t84 166.5q0 158 -199 207l-178 44q-137 34 -205.5 108t-68.5 181q0 91 47 159t130 106.5t190 38.5q142 0 231 -66.5t129 -189.5z" />
    <glyph glyph-name="t" unicode="t" horiz-adv-x="691" 
d="M562 1118v-79h-487v79h487zM240 1384h87v-1120q0 -94 54 -145t136 -51q20 0 38 3t38 9l22 -79q-23 -9 -48.5 -14t-54.5 -5q-114 0 -193 72.5t-79 194.5v1135z" />
    <glyph glyph-name="u" unicode="u" horiz-adv-x="1141" 
d="M885 396v722h87v-1118h-87v182h-8q-40 -87 -127.5 -142t-207.5 -54q-109 0 -193.5 47.5t-132 136t-47.5 210.5v738h87v-735q0 -139 85 -225t220 -86q88 0 161.5 39.5t118 112.5t44.5 172z" />
    <glyph glyph-name="v" unicode="v" horiz-adv-x="1061" 
d="M985 1118l-403 -1118h-101l-404 1118h95l355 -1004h8l354 1004h96z" />
    <glyph glyph-name="w" unicode="w" horiz-adv-x="1601" 
d="M411 0l-334 1118h93l289 -988h8l288 988h92l288 -987h8l288 987h92l-333 -1118h-99l-286 973h-9l-286 -973h-99z" />
    <glyph glyph-name="x" unicode="x" horiz-adv-x="1019" 
d="M202 1118l307 -498l308 498h104l-358 -560l358 -558h-104l-308 489l-307 -489h-103l355 558l-355 560h103z" />
    <glyph glyph-name="y" unicode="y" horiz-adv-x="1061" 
d="M239 -418q-34 -1 -66.5 6.5t-58.5 18.5l27 77l12 -4q98 -34 168 4.5t114 160.5l51 140l-409 1133h95l355 -1004h8l354 1004h96l-472 -1308q-27 -76 -67.5 -127t-92.5 -76t-114 -25z" />
    <glyph glyph-name="z" unicode="z" horiz-adv-x="1032" 
d="M131 0v74l657 951v8h-622v85h734v-78l-651 -948v-8h678v-84h-796z" />
    <glyph glyph-name="braceleft" unicode="{" horiz-adv-x="795" 
d="M147 635v61q124 0 170 46.5t46 169.5v332q0 86 17 149.5t53.5 105.5t94 62.5t137.5 20.5v-79q-118 0 -168.5 -61.5t-50.5 -197.5v-352q0 -67 -14.5 -115t-48 -79.5t-91 -47t-145.5 -15.5zM665 -280q-80 0 -137.5 20.5t-94 62t-53.5 105.5t-17 150v332q0 123 -46 170
t-170 48v60q88 0 145.5 -15.5t91 -47.5t48 -80.5t14.5 -115.5v-351q0 -136 50.5 -198t168.5 -62v-78zM147 607v89h161v-89h-161z" />
    <glyph glyph-name="bar" unicode="|" horiz-adv-x="563" 
d="M321 1970v-2450h-79v2450h79z" />
    <glyph glyph-name="braceright" unicode="}" horiz-adv-x="795" 
d="M649 635q-88 0 -146 15.5t-91.5 47t-48 79.5t-14.5 115v352q0 136 -50.5 197.5t-168.5 61.5v79q81 0 138 -20.5t93.5 -62.5t53.5 -105.5t17 -149.5v-332q0 -123 46 -169.5t171 -46.5v-61zM130 -280v78q118 0 168.5 62t50.5 198v351q0 67 14.5 115.5t48 80.5t91.5 47.5
t146 15.5v-60q-125 -1 -171 -48t-46 -170v-332q0 -86 -17 -150t-53.5 -105.5t-93.5 -62t-138 -20.5zM649 608l-162 -1v89h162v-88z" />
    <glyph glyph-name="asciitilde" unicode="~" horiz-adv-x="1287" 
d="M168 473q5 80 43 135t97.5 83t130.5 28q74 -1 130.5 -30.5t112.5 -73.5q47 -34 85 -54.5t86 -21.5q72 0 121.5 44.5t60.5 119.5l84 -8q-9 -78 -47.5 -131.5t-95 -81t-122.5 -27.5q-68 1 -120.5 29t-108.5 71q-47 35 -88.5 57.5t-96.5 22.5q-78 1 -130 -43t-59 -123z" />
    <glyph glyph-name="uni00A0" unicode="&#xa0;" horiz-adv-x="544" 
 />
    <glyph glyph-name="exclamdown" unicode="&#xa1;" horiz-adv-x="561" 
d="M232 -378l5 1056h87l5 -1056h-97zM280 1121q33 1 56 -22t24 -56q-1 -33 -24 -55.5t-56 -22.5q-32 0 -55 22.5t-23 55.5t23 56t55 22z" />
    <glyph glyph-name="cent" unicode="&#xa2;" horiz-adv-x="1102" 
d="M546 0v1490h70v-1490h-70zM587 166q-142 0 -250.5 75.5t-170 206.5t-61.5 297t61.5 296.5t170.5 206t250 75.5q106 0 193.5 -43t145 -120.5t73.5 -180.5h-88q-13 73 -58 132.5t-113.5 94.5t-152.5 35q-114 0 -202.5 -63.5t-140 -175t-51.5 -255.5q0 -143 50 -255.5
t139 -178t205 -65.5q123 0 213 73t111 195h90q-16 -103 -72.5 -182t-144 -123.5t-197.5 -44.5z" />
    <glyph glyph-name="sterling" unicode="&#xa3;" horiz-adv-x="1260" 
d="M1071 0h-934v84h934v-84zM781 606h-646v86h646v-86zM405 1077l20 -748q4 -110 -30 -188.5t-116 -99.5l-72 43q50 1 79 37.5t41 92.5t10 115l-21 748q-3 134 50 231t146 149.5t207 52.5q91 0 167 -32t128 -87t74 -125t5 -147l-87 22q15 80 -21 144.5t-105.5 102.5
t-156.5 38q-92 0 -165 -42.5t-114 -120.5t-39 -186z" />
    <glyph glyph-name="currency" unicode="&#xa4;" horiz-adv-x="1391" 
d="M692 -20q-122 0 -228 47.5t-186 133t-124.5 200t-44.5 247.5t44.5 247t124.5 199t186 132.5t228 47.5q123 0 229.5 -47.5t186.5 -132.5t124.5 -199t44.5 -247t-44.5 -247.5t-124.5 -200t-186.5 -133t-229.5 -47.5zM692 64q141 0 253.5 72.5t179 196t66.5 275.5
q1 153 -66 276t-180 194.5t-253 70.5q-138 1 -251.5 -70.5t-180 -194.5t-67.5 -276q1 -152 67.5 -275.5t179.5 -196t252 -72.5zM1110 978l-59 63l183 189l60 -63zM1234 -5l-183 189l59 63l184 -188zM153 -5l-60 64l184 188l60 -63zM277 978l-184 189l60 63l184 -189z" />
    <glyph glyph-name="yen" unicode="&#xa5;" horiz-adv-x="1055" 
d="M125 1490l434 -842l-80 -19l-456 861h102zM496 648l435 842h102l-456 -861zM573 722v-722h-90v722h90zM915 691v-74h-774v74h774zM915 477v-75h-774v75h774z" />
    <glyph glyph-name="brokenbar" unicode="&#xa6;" horiz-adv-x="404" 
d="M160 391h84v-671h-84v671zM244 1490v-669h-84v669h84z" />
    <glyph glyph-name="section" unicode="&#xa7;" horiz-adv-x="1068" 
d="M870 1173h-86q-4 106 -67.5 180t-182.5 75q-77 0 -132.5 -32.5t-85 -84.5t-29.5 -113q0 -62 29 -106t75.5 -77.5t98.5 -64.5l175 -105q50 -29 101.5 -62t95.5 -73.5t71 -91t27 -115.5q0 -62 -32.5 -113.5t-86.5 -84.5t-120 -39v-3q96 -68 131 -128t35 -131
q0 -98 -48 -166.5t-128.5 -104t-181.5 -35.5q-106 0 -189.5 42t-132 119t-52.5 181h87q6 -119 84.5 -189.5t202.5 -70.5q113 0 192.5 58.5t78.5 165.5q1 50 -20.5 89t-69 77t-125.5 83l-176 103q-73 42 -128.5 80.5t-94 79t-58.5 86t-20 100.5q0 62 29 116.5t82 88.5t124 36
v6q-66 51 -104.5 109.5t-37.5 139.5q0 88 42.5 158.5t118 112t172.5 41.5q101 0 174.5 -43t116 -119.5t45.5 -174.5zM875 503q0 61 -37.5 109t-94.5 87t-116 74l-197 114q-71 12 -124.5 -10.5t-83.5 -67.5t-30 -103q0 -83 64.5 -143t191.5 -134l178 -103q59 -9 116.5 9
t95 61.5t37.5 106.5z" />
    <glyph glyph-name="dieresis" unicode="&#xa8;" horiz-adv-x="1271" 
d="M473 1315q-28 0 -49 21t-21 49q0 30 21 50t49 20q30 0 50 -20t20 -50q0 -28 -20 -49t-50 -21zM798 1315q-28 0 -48.5 21t-20.5 49q0 30 20.5 50t48.5 20q30 0 50 -20t21 -50q-1 -28 -21 -49t-50 -21z" />
    <glyph glyph-name="copyright" unicode="&#xa9;" horiz-adv-x="1842" 
d="M505 744q0 120 58 218t156.5 156.5t217.5 57.5q92 1 168.5 -35t131 -98.5t76.5 -143.5h-93q-30 85 -106 137.5t-177 52.5q-94 0 -173 -46t-125.5 -124.5t-46.5 -174.5q0 -95 46.5 -173t125.5 -124t173 -46q101 -1 174 51.5t104 136.5h93q-22 -80 -75 -142.5t-128.5 -98
t-167.5 -36.5q-119 1 -217.5 59t-156.5 156t-58 217zM920 -24q-158 0 -297.5 60t-245.5 165.5t-165.5 244.5t-59.5 298q1 159 61 298.5t165.5 245t244.5 165t297 59.5q160 0 299 -59.5t244.5 -165t165 -245t59.5 -298.5q1 -159 -58.5 -298t-165 -244.5t-245 -165.5
t-299.5 -60zM920 65q142 0 266 52.5t217.5 145.5t146 216.5t51.5 264.5q0 142 -53 265t-146.5 217t-216.5 146.5t-265 52.5q-140 0 -263 -52.5t-216.5 -146.5t-146.5 -217.5t-53 -264.5q-1 -140 51.5 -263.5t146 -217t217 -146t264.5 -52.5z" />
    <glyph glyph-name="ordfeminine" unicode="&#xaa;" horiz-adv-x="767" 
d="M553 862v340q-1 100 -39.5 147.5t-119.5 48.5q-89 -1 -138 -41t-54 -118l-88 8q3 104 79 167.5t201 63.5q121 0 184.5 -68t64.5 -208v-314q-1 -52 4.5 -95.5t18.5 -83.5h-91q-11 34 -17 74t-5 79zM574 1135v-68h-163q-111 0 -166 -41t-55 -115q0 -64 39 -101t110 -39
q43 0 86 15t79.5 41t61.5 60l17 -60q-58 -63 -118 -99t-140 -36q-104 0 -164.5 60t-61.5 157q1 110 79.5 168t232.5 58h163z" />
    <glyph glyph-name="guillemotleft" unicode="&#xab;" horiz-adv-x="1073" 
d="M523 160h-88l-294 436v14h88zM523 1054l-294 -452h-88v14l294 438h88zM914 160h-88l-294 436v14h88zM914 1054l-294 -452h-88v14l294 438h88z" />
    <glyph glyph-name="logicalnot" unicode="&#xac;" horiz-adv-x="1019" 
d="M921 806v-88h-820v88h820zM921 767v-391h-99v391h99z" />
    <glyph glyph-name="uni00AD" unicode="&#xad;" horiz-adv-x="880" 
d="M735 681v-84h-588v84h588z" />
    <glyph glyph-name="registered" unicode="&#xae;" horiz-adv-x="1342" 
d="M479 666v536h244q48 1 86 -19t61 -57t23 -87q0 -51 -23 -89t-62 -59.5t-87 -21.5h-203v60h189q51 1 81.5 30t29.5 80q1 52 -29.5 78t-80.5 26h-159v-477h-70zM781 912l134 -246h-79l-131 246h76zM670 346q-120 0 -225.5 45.5t-185.5 125.5t-125.5 185.5t-45.5 225.5
t45.5 225.5t125.5 185.5t185.5 125.5t225.5 45.5q121 0 226.5 -45.5t185.5 -125.5t125 -185.5t45 -225.5t-45 -225.5t-125 -185.5t-185.5 -125.5t-226.5 -45.5zM670 423q140 1 254.5 69t182.5 182.5t68 253.5t-68 253.5t-182.5 183t-254.5 68.5q-139 0 -253.5 -68.5
t-182 -183t-67.5 -253.5t67.5 -253.5t182 -182.5t253.5 -69z" />
    <glyph glyph-name="macron" unicode="&#xaf;" horiz-adv-x="675" 
d="M605 1423v-79h-537v79h537z" />
    <glyph glyph-name="degree" unicode="&#xb0;" horiz-adv-x="898" 
d="M450 880q-87 1 -158.5 43t-113.5 113t-43 158q1 87 43 158t113.5 113t158.5 42t158 -42t113 -113t42 -158t-42 -158t-113 -113t-158 -43zM450 961q65 0 117.5 31t84.5 84t31 118q1 65 -31 117.5t-84.5 84.5t-117.5 32t-118.5 -32t-84.5 -84.5t-31 -117.5t31 -118
t84.5 -84t118.5 -31z" />
    <glyph glyph-name="plusminus" unicode="&#xb1;" horiz-adv-x="1287" 
d="M206 117v84h875v-84h-875zM206 685v84h875v-84h-875zM601 337v781h84v-781h-84z" />
    <glyph glyph-name="two.sups" unicode="&#xb2;" horiz-adv-x="818" 
d="M99 744v62l327 323q94 94 134.5 152.5t40.5 123.5q0 77 -58 126.5t-146 48.5q-94 1 -151.5 -52.5t-56.5 -130.5h-82q0 110 82 181t208 72q84 0 148 -32.5t101 -87.5t37 -125q0 -52 -20 -99.5t-66.5 -103t-125.5 -133.5l-251 -248v-5h505v-72h-626z" />
    <glyph glyph-name="three.sups" unicode="&#xb3;" horiz-adv-x="822" 
d="M413 734q-90 0 -162 31t-114 86t-42 126h84q1 -76 69 -123.5t165 -48.5q105 1 170.5 53.5t65.5 129.5q0 80 -72.5 131t-189.5 52h-41v68h41q99 0 165.5 46t66.5 126q0 72 -57 121t-149 48q-90 1 -152 -47t-64 -127h-80q1 73 40 127.5t106 85.5t150 31q85 0 150 -31
t102 -84t37 -121q-1 -79 -51.5 -132.5t-131.5 -71.5v-6q100 -18 156.5 -78t57.5 -142q0 -71 -41 -127.5t-113 -89.5t-166 -33z" />
    <glyph glyph-name="acute" unicode="&#xb4;" horiz-adv-x="781" 
d="M244 1273l183 300h103l-208 -300h-78z" />
    <glyph glyph-name="uni00B5" unicode="&#xb5;" horiz-adv-x="1162" 
d="M165 -429v1547h87v-722q1 -95 43 -168t116 -114.5t171 -41.5q98 0 172 41.5t116.5 114.5t42.5 168v722h88v-1118h-88v174h-8q-41 -88 -128 -138.5t-195 -49.5q-108 -1 -194.5 49.5t-128.5 138.5h-7v-603h-87z" />
    <glyph glyph-name="paragraph" unicode="&#xb6;" horiz-adv-x="1133" 
d="M935 1405h-245v-853h-84q-159 1 -269 62t-166.5 167t-56.5 241q0 134 56.5 239.5t166.5 167t269 61.5h329v-85zM843 0v1490h92v-1490h-92z" />
    <glyph glyph-name="periodcentered" unicode="&#xb7;" horiz-adv-x="531" 
d="M266 569q-33 0 -56 23t-23 56t23 56t56 23q32 0 55.5 -23t23.5 -56t-23.5 -56t-55.5 -23z" />
    <glyph glyph-name="cedilla" unicode="&#xb8;" horiz-adv-x="429" 
d="M179 6h79l-12 -58q69 -11 110 -54t42 -117q-1 -82 -59.5 -126t-173.5 -47l-3 70q77 1 115 25.5t39 75.5q-1 60 -40.5 87.5t-120.5 28.5z" />
    <glyph glyph-name="one.sups" unicode="&#xb9;" horiz-adv-x="554" 
d="M295 744v808h-7l-215 -143v88l210 141h94v-894h-82z" />
    <glyph glyph-name="ordmasculine" unicode="&#xba;" horiz-adv-x="808" 
d="M81 1045v82q0 108 38.5 187t111.5 121.5t174 42.5q152 0 237.5 -95t84.5 -256v-82q1 -162 -84.5 -256t-239.5 -94q-151 -1 -237 93.5t-85 256.5zM167 1127v-82q0 -125 62 -198.5t174 -75.5q114 0 175.5 74t62.5 200v82q-1 124 -62 198t-174 74t-175.5 -73.5t-62.5 -198.5
z" />
    <glyph glyph-name="guillemotright" unicode="&#xbb;" horiz-adv-x="1083" 
d="M153 160l295 450h87v-14l-294 -436h-88zM153 1054h88l294 -438v-14h-87zM554 160l295 450h87v-14l-294 -436h-88zM554 1054h88l294 -438v-14h-87z" />
    <glyph glyph-name="onequarter" unicode="&#xbc;" horiz-adv-x="1642" 
d="M231 0l1022 1490h92l-1022 -1490h-92zM259 698v705h-8l-204 -134v87l200 134h93v-792h-81zM974 166v65l398 561h52v-105h-39l-320 -448v-3h516v-70h-607zM1390 0v188l1 27v577h77v-792h-78z" />
    <glyph glyph-name="onehalf" unicode="&#xbd;" horiz-adv-x="1774" 
d="M231 0l1022 1490h92l-1022 -1490h-92zM259 698v705h-8l-204 -134v87l200 134h93v-792h-81zM1126 0v59l296 286q87 85 121.5 134.5t34.5 102.5q0 66 -52 109t-131 44q-81 -1 -133 -46t-52 -113h-79q-1 99 74 163t191 63q114 1 187 -62t73 -157q0 -46 -18 -88t-60 -91.5
t-114 -117.5l-220 -213v-3h451v-70h-569z" />
    <glyph glyph-name="threequarters" unicode="&#xbe;" horiz-adv-x="1843" 
d="M432 0l1022 1490h92l-1022 -1490h-92zM1174 166v65l398 561h52v-105h-39l-320 -448v-3h516v-70h-607zM1590 0v188l1 27v577h77v-792h-78zM373 686q-123 0 -206.5 62.5t-83.5 158.5h83q-1 -66 59 -108t148 -42q93 0 150.5 46.5t57.5 111.5q0 70 -64.5 113.5t-166.5 43.5
h-39v63h39q89 1 147.5 42t57.5 108q1 63 -50 105t-132 43q-81 -1 -136 -42.5t-54 -107.5h-81q1 64 36.5 113t96.5 77t138 27q115 1 189 -59.5t75 -151.5q-1 -67 -46.5 -115t-121.5 -65v-3q92 -16 143 -68.5t52 -125.5q0 -64 -37.5 -115t-103 -81t-150.5 -30z" />
    <glyph glyph-name="questiondown" unicode="&#xbf;" horiz-adv-x="967" 
d="M573 678v-71q0 -91 -21.5 -150.5t-67 -105.5t-119.5 -96q-95 -64 -138 -127.5t-43 -144.5q0 -85 40.5 -150.5t109.5 -102.5t154 -37q86 0 156 38.5t112.5 108.5t44.5 164h91q-2 -115 -55.5 -203.5t-144 -138.5t-204.5 -50q-113 0 -202 48.5t-140 133t-51 191.5
q0 102 50.5 179t161.5 153q67 48 106 87t54.5 86t15.5 117v71h90zM528 1132q32 0 55.5 -23t23.5 -56t-23.5 -56t-55.5 -23q-33 0 -56 23t-23 56t23 56t56 23z" />
    <glyph glyph-name="Agrave" unicode="&#xc0;" horiz-adv-x="1271" 
d="M142 0h-97l539 1490h105l536 -1490h-96l-490 1373h-8zM279 561h715v-84h-715v84zM602 1645l-208 300h103l183 -300h-78z" />
    <glyph glyph-name="Aacute" unicode="&#xc1;" horiz-adv-x="1271" 
d="M142 0h-97l539 1490h105l536 -1490h-96l-490 1373h-8zM279 561h715v-84h-715v84zM592 1645l183 300h103l-208 -300h-78z" />
    <glyph glyph-name="Acircumflex" unicode="&#xc2;" horiz-adv-x="1271" 
d="M142 0h-97l539 1490h105l536 -1490h-96l-490 1373h-8zM279 561h715v-84h-715v84zM833 1611l-196 218l-196 -218h-92v8l258 284h60l256 -284v-8h-90z" />
    <glyph glyph-name="Atilde" unicode="&#xc3;" horiz-adv-x="1271" 
d="M142 0h-97l539 1490h105l536 -1490h-96l-490 1373h-8zM279 561h715v-84h-715v84zM777 1686q-44 0 -78 16t-64 37t-61 37.5t-68 16.5q-46 -1 -77 -30t-37 -72l-73 4q9 75 57.5 123t123.5 48q47 0 82 -16.5t65 -37.5t59.5 -37.5t64.5 -16.5q41 0 73.5 27t41.5 75l71 -8
q-12 -74 -62 -120t-118 -46z" />
    <glyph glyph-name="Adieresis" unicode="&#xc4;" horiz-adv-x="1271" 
d="M142 0h-97l539 1490h105l536 -1490h-96l-490 1373h-8zM279 561h715v-84h-715v84zM474 1687q-28 0 -49 21t-21 49q0 30 21 50t49 20q30 0 50 -20t20 -50q0 -28 -20 -49t-50 -21zM799 1687q-28 0 -48.5 21t-20.5 49q0 30 20.5 50t48.5 20q30 0 50 -20t21 -50
q-1 -28 -21 -49t-50 -21z" />
    <glyph glyph-name="Aring" unicode="&#xc5;" horiz-adv-x="1271" 
d="M142 0h-97l539 1490h105l536 -1490h-96l-490 1373h-8zM279 561h715v-84h-715v84zM636 1572q-75 0 -127.5 53t-52.5 128t52.5 128t127.5 53q76 0 128.5 -53t52.5 -128t-52.5 -128t-128.5 -53zM636 1637q49 1 82 34.5t33 81.5t-33 81t-82 34q-48 -1 -81 -34t-32 -81
q-1 -48 32.5 -81.5t80.5 -34.5z" />
    <glyph glyph-name="AE" unicode="&#xc6;" horiz-adv-x="1953" 
d="M45 0l748 1490h1014v-85h-736v-618h693v-84h-693v-619h755v-84h-847v1405h-132l-700 -1405h-102zM354 477v84h672v-84h-672z" />
    <glyph glyph-name="Ccedilla" unicode="&#xc7;" horiz-adv-x="1451" 
d="M755 -20q-186 0 -328.5 95t-223 267t-80.5 402q0 231 80.5 403t223 267.5t328.5 95.5q124 0 224.5 -41t174 -110.5t119 -156.5t61.5 -178h-93q-15 75 -55 146.5t-102.5 128.5t-145.5 90.5t-183 33.5q-147 0 -270.5 -78.5t-198 -230t-74.5 -370.5q0 -220 74.5 -371
t198 -228.5t270.5 -77.5q100 0 183 33.5t145.5 90t102.5 128t55 147.5h93q-16 -91 -61.5 -177.5t-119 -156t-174 -111t-224.5 -41.5zM714 2h79l-12 -58q69 -11 110 -54t42 -117q-1 -82 -59.5 -126t-173.5 -47l-3 70q77 1 115 25.5t39 75.5q-1 60 -40.5 87.5t-120.5 28.5z
" />
    <glyph glyph-name="Egrave" unicode="&#xc8;" horiz-adv-x="1173" 
d="M199 0v1490h829v-85h-737v-616h693v-84h-693v-621h755v-84h-847zM582 1645l-208 300h103l183 -300h-78z" />
    <glyph glyph-name="Eacute" unicode="&#xc9;" horiz-adv-x="1173" 
d="M199 0v1490h829v-85h-737v-616h693v-84h-693v-621h755v-84h-847zM572 1645l183 300h103l-208 -300h-78z" />
    <glyph glyph-name="Ecircumflex" unicode="&#xca;" horiz-adv-x="1173" 
d="M199 0v1490h829v-85h-737v-616h693v-84h-693v-621h755v-84h-847zM813 1611l-196 218l-196 -218h-92v8l258 284h60l256 -284v-8h-90z" />
    <glyph glyph-name="Edieresis" unicode="&#xcb;" horiz-adv-x="1173" 
d="M199 0v1490h829v-85h-737v-616h693v-84h-693v-621h755v-84h-847zM454 1687q-28 0 -49 21t-21 49q0 30 21 50t49 20q30 0 50 -20t20 -50q0 -28 -20 -49t-50 -21zM779 1687q-28 0 -48.5 21t-20.5 49q0 30 20.5 50t48.5 20q30 0 50 -20t21 -50q-1 -28 -21 -49t-50 -21z" />
    <glyph glyph-name="Igrave" unicode="&#xcc;" horiz-adv-x="489" 
d="M291 1490v-1490h-92v1490h92zM211 1645l-208 300h103l183 -300h-78z" />
    <glyph glyph-name="Iacute" unicode="&#xcd;" horiz-adv-x="489" 
d="M291 1490v-1490h-92v1490h92zM201 1645l183 300h103l-208 -300h-78z" />
    <glyph glyph-name="Icircumflex" unicode="&#xce;" horiz-adv-x="489" 
d="M291 1490v-1490h-92v1490h92zM441 1611l-196 218l-195 -218h-92v8l257 284h61l255 -284v-8h-90z" />
    <glyph glyph-name="Idieresis" unicode="&#xcf;" horiz-adv-x="489" 
d="M291 1490v-1490h-92v1490h92zM82 1687q-28 0 -49 21t-21 49q0 30 21 50t49 20q30 0 50 -20t20 -50q0 -28 -20 -49t-50 -21zM407 1687q-28 0 -48.5 21t-20.5 49q0 30 20.5 50t48.5 20q30 0 50 -20t21 -50q-1 -28 -21 -49t-50 -21z" />
    <glyph glyph-name="Eth" unicode="&#xd0;" horiz-adv-x="1433" 
d="M612 0h-363v84h359q200 0 336.5 79.5t206.5 229t70 356.5q0 206 -67 352.5t-196.5 225t-317.5 78.5h-394v85h398q210 0 358.5 -88.5t228 -254.5t79.5 -398q0 -235 -82 -403t-238 -257t-378 -89zM291 1490v-1490h-92v1490h92zM-46 721v76h583v-76h-583z" />
    <glyph glyph-name="Ntilde" unicode="&#xd1;" horiz-adv-x="1537" 
d="M1339 1490v-1490h-90l-949 1325h-9v-1325h-92v1490h90l950 -1325h9v1325h91zM907 1668q-44 0 -78 16t-64 37t-61 37.5t-68 16.5q-46 -1 -77 -30t-37 -72l-73 4q9 75 57.5 123t123.5 48q47 0 82 -16.5t65 -37.5t59.5 -37.5t64.5 -16.5q41 0 73.5 27t41.5 75l71 -8
q-12 -74 -62 -120t-118 -46z" />
    <glyph glyph-name="Ograve" unicode="&#xd2;" horiz-adv-x="1508" 
d="M755 -20q-186 0 -328.5 95.5t-223 267.5t-80.5 401q0 231 80.5 403t223 267.5t328.5 95.5t328 -95.5t222 -267.5t80 -403q0 -230 -80 -402t-222 -267t-328 -95zM755 67q158 0 280 83t191.5 235.5t69.5 358.5q0 207 -69.5 359.5t-191.5 236t-280 83.5t-280.5 -82.5
t-192.5 -235t-70 -361.5q0 -206 69.5 -358t192 -235.5t281.5 -83.5zM721 1645l-208 300h103l183 -300h-78z" />
    <glyph glyph-name="Oacute" unicode="&#xd3;" horiz-adv-x="1508" 
d="M755 -20q-186 0 -328.5 95.5t-223 267.5t-80.5 401q0 231 80.5 403t223 267.5t328.5 95.5t328 -95.5t222 -267.5t80 -403q0 -230 -80 -402t-222 -267t-328 -95zM755 67q158 0 280 83t191.5 235.5t69.5 358.5q0 207 -69.5 359.5t-191.5 236t-280 83.5t-280.5 -82.5
t-192.5 -235t-70 -361.5q0 -206 69.5 -358t192 -235.5t281.5 -83.5zM711 1645l183 300h103l-208 -300h-78z" />
    <glyph glyph-name="Ocircumflex" unicode="&#xd4;" horiz-adv-x="1508" 
d="M755 -20q-186 0 -328.5 95.5t-223 267.5t-80.5 401q0 231 80.5 403t223 267.5t328.5 95.5t328 -95.5t222 -267.5t80 -403q0 -230 -80 -402t-222 -267t-328 -95zM755 67q158 0 280 83t191.5 235.5t69.5 358.5q0 207 -69.5 359.5t-191.5 236t-280 83.5t-280.5 -82.5
t-192.5 -235t-70 -361.5q0 -206 69.5 -358t192 -235.5t281.5 -83.5zM952 1611l-196 218l-196 -218h-92v8l258 284h60l256 -284v-8h-90z" />
    <glyph glyph-name="Otilde" unicode="&#xd5;" horiz-adv-x="1508" 
d="M755 -20q-186 0 -328.5 95.5t-223 267.5t-80.5 401q0 231 80.5 403t223 267.5t328.5 95.5t328 -95.5t222 -267.5t80 -403q0 -230 -80 -402t-222 -267t-328 -95zM755 67q158 0 280 83t191.5 235.5t69.5 358.5q0 207 -69.5 359.5t-191.5 236t-280 83.5t-280.5 -82.5
t-192.5 -235t-70 -361.5q0 -206 69.5 -358t192 -235.5t281.5 -83.5zM896 1686q-44 0 -78 16t-64 37t-61 37.5t-68 16.5q-46 -1 -77 -30t-37 -72l-73 4q9 75 57.5 123t123.5 48q47 0 82 -16.5t65 -37.5t59.5 -37.5t64.5 -16.5q41 0 73.5 27t41.5 75l71 -8q-12 -74 -62 -120
t-118 -46z" />
    <glyph glyph-name="Odieresis" unicode="&#xd6;" horiz-adv-x="1508" 
d="M755 -20q-186 0 -328.5 95.5t-223 267.5t-80.5 401q0 231 80.5 403t223 267.5t328.5 95.5t328 -95.5t222 -267.5t80 -403q0 -230 -80 -402t-222 -267t-328 -95zM755 67q158 0 280 83t191.5 235.5t69.5 358.5q0 207 -69.5 359.5t-191.5 236t-280 83.5t-280.5 -82.5
t-192.5 -235t-70 -361.5q0 -206 69.5 -358t192 -235.5t281.5 -83.5zM593 1687q-28 0 -49 21t-21 49q0 30 21 50t49 20q30 0 50 -20t20 -50q0 -28 -20 -49t-50 -21zM918 1687q-28 0 -48.5 21t-20.5 49q0 30 20.5 50t48.5 20q30 0 50 -20t21 -50q-1 -28 -21 -49t-50 -21z" />
    <glyph glyph-name="multiply" unicode="&#xd7;" horiz-adv-x="1287" 
d="M1025 141l-822 822l60 58l820 -820zM263 141l-60 60l822 820l58 -58z" />
    <glyph glyph-name="Oslash" unicode="&#xd8;" horiz-adv-x="1508" 
d="M277 -43l-62 42l1014 1533l62 -43zM755 -20q-186 0 -328.5 95.5t-223 267.5t-80.5 401q0 231 80.5 403t223 267.5t328.5 95.5t328 -95.5t222 -267.5t80 -403q0 -230 -80 -402t-222 -267t-328 -95zM755 67q158 0 280 83t191.5 235.5t69.5 358.5q0 207 -69.5 359.5
t-191.5 236t-280 83.5t-280.5 -82.5t-192.5 -235t-70 -361.5q0 -206 69.5 -358t192 -235.5t281.5 -83.5z" />
    <glyph glyph-name="Ugrave" unicode="&#xd9;" horiz-adv-x="1498" 
d="M1207 1490h92v-986q0 -152 -70.5 -271.5t-194.5 -188.5t-285 -69q-159 0 -283.5 69t-195.5 188.5t-71 271.5v986h92v-981q0 -129 58 -229.5t162 -158.5t238 -58q136 0 239 58t161 158.5t58 229.5v981zM716 1645l-208 300h103l183 -300h-78z" />
    <glyph glyph-name="Uacute" unicode="&#xda;" horiz-adv-x="1498" 
d="M1207 1490h92v-986q0 -152 -70.5 -271.5t-194.5 -188.5t-285 -69q-159 0 -283.5 69t-195.5 188.5t-71 271.5v986h92v-981q0 -129 58 -229.5t162 -158.5t238 -58q136 0 239 58t161 158.5t58 229.5v981zM705 1645l183 300h103l-208 -300h-78z" />
    <glyph glyph-name="Ucircumflex" unicode="&#xdb;" horiz-adv-x="1498" 
d="M1207 1490h92v-986q0 -152 -70.5 -271.5t-194.5 -188.5t-285 -69q-159 0 -283.5 69t-195.5 188.5t-71 271.5v986h92v-981q0 -129 58 -229.5t162 -158.5t238 -58q136 0 239 58t161 158.5t58 229.5v981zM946 1611l-196 218l-195 -218h-92v8l257 284h61l255 -284v-8h-90z
" />
    <glyph glyph-name="Udieresis" unicode="&#xdc;" horiz-adv-x="1498" 
d="M1207 1490h92v-986q0 -152 -70.5 -271.5t-194.5 -188.5t-285 -69q-159 0 -283.5 69t-195.5 188.5t-71 271.5v986h92v-981q0 -129 58 -229.5t162 -158.5t238 -58q136 0 239 58t161 158.5t58 229.5v981zM587 1687q-28 0 -49 21t-21 49q0 30 21 50t49 20q30 0 50 -20t20 -50
q0 -28 -20 -49t-50 -21zM912 1687q-28 0 -48.5 21t-20.5 49q0 30 20.5 50t48.5 20q30 0 50 -20t21 -50q-1 -28 -21 -49t-50 -21z" />
    <glyph glyph-name="Yacute" unicode="&#xdd;" horiz-adv-x="1259" 
d="M48 1490h107l470 -719h10l468 719h108l-536 -815v-675h-90v675zM585 1645l183 300h103l-208 -300h-78z" />
    <glyph glyph-name="Thorn" unicode="&#xde;" horiz-adv-x="1205" 
d="M181 1490h90v-1490h-90v1490zM226 1149h380q141 0 242.5 -51t156 -140.5t54.5 -207.5q0 -120 -53.5 -210t-155 -140t-244.5 -50h-380v84h380q116 1 197 37t124 106t43 169q0 100 -43.5 171t-124.5 109.5t-196 38.5h-380v84z" />
    <glyph glyph-name="germandbls" unicode="&#xdf;" horiz-adv-x="1169" 
d="M199 0v1137q0 116 47.5 199.5t133.5 128.5t202 45q115 0 202 -44.5t135 -126.5t48 -196q0 -138 -69.5 -232.5t-196.5 -131.5v-7q153 -21 246.5 -122.5t93.5 -255.5q0 -116 -54 -205t-151.5 -139t-226.5 -50h-122v84h123q155 0 249 86t94 224q0 149 -108.5 239.5
t-293.5 90.5h-58v83h45q106 0 182.5 41.5t117.5 115.5t41 171q0 132 -78.5 211.5t-217.5 79.5q-136 0 -216 -77.5t-80 -211.5v-1137h-88z" />
    <glyph glyph-name="agrave" unicode="&#xe0;" horiz-adv-x="1088" 
d="M465 -25q-97 0 -178 39t-129.5 113.5t-48.5 179.5q0 70 25 123.5t76.5 92t132 63.5t192.5 39q86 10 153 20t105 31.5t38 63.5v46q0 122 -77 194t-212 72q-119 0 -201.5 -52.5t-115.5 -135.5l-84 31q33 81 94 133.5t140 78.5t165 26q75 0 143 -20.5t121.5 -64t84 -110
t30.5 -158.5v-780h-88v201h-6q-29 -62 -80 -113t-121.5 -82t-158.5 -31zM473 57q105 0 185.5 52t126.5 141.5t46 202.5v165q-17 -14 -48.5 -25.5t-71 -20.5t-82.5 -15t-84 -11q-123 -14 -199.5 -44.5t-112.5 -79t-36 -118.5q0 -114 79.5 -180.5t196.5 -66.5zM517 1273
l-208 300h103l183 -300h-78z" />
    <glyph glyph-name="aacute" unicode="&#xe1;" horiz-adv-x="1088" 
d="M465 -25q-97 0 -178 39t-129.5 113.5t-48.5 179.5q0 70 25 123.5t76.5 92t132 63.5t192.5 39q86 10 153 20t105 31.5t38 63.5v46q0 122 -77 194t-212 72q-119 0 -201.5 -52.5t-115.5 -135.5l-84 31q33 81 94 133.5t140 78.5t165 26q75 0 143 -20.5t121.5 -64t84 -110
t30.5 -158.5v-780h-88v201h-6q-29 -62 -80 -113t-121.5 -82t-158.5 -31zM473 57q105 0 185.5 52t126.5 141.5t46 202.5v165q-17 -14 -48.5 -25.5t-71 -20.5t-82.5 -15t-84 -11q-123 -14 -199.5 -44.5t-112.5 -79t-36 -118.5q0 -114 79.5 -180.5t196.5 -66.5zM507 1273
l183 300h103l-208 -300h-78z" />
    <glyph glyph-name="acircumflex" unicode="&#xe2;" horiz-adv-x="1088" 
d="M465 -25q-97 0 -178 39t-129.5 113.5t-48.5 179.5q0 70 25 123.5t76.5 92t132 63.5t192.5 39q86 10 153 20t105 31.5t38 63.5v46q0 122 -77 194t-212 72q-119 0 -201.5 -52.5t-115.5 -135.5l-84 31q33 81 94 133.5t140 78.5t165 26q75 0 143 -20.5t121.5 -64t84 -110
t30.5 -158.5v-780h-88v201h-6q-29 -62 -80 -113t-121.5 -82t-158.5 -31zM473 57q105 0 185.5 52t126.5 141.5t46 202.5v165q-17 -14 -48.5 -25.5t-71 -20.5t-82.5 -15t-84 -11q-123 -14 -199.5 -44.5t-112.5 -79t-36 -118.5q0 -114 79.5 -180.5t196.5 -66.5zM747 1239
l-196 218l-195 -218h-92v8l257 284h61l255 -284v-8h-90z" />
    <glyph glyph-name="atilde" unicode="&#xe3;" horiz-adv-x="1088" 
d="M465 -25q-97 0 -178 39t-129.5 113.5t-48.5 179.5q0 70 25 123.5t76.5 92t132 63.5t192.5 39q86 10 153 20t105 31.5t38 63.5v46q0 122 -77 194t-212 72q-119 0 -201.5 -52.5t-115.5 -135.5l-84 31q33 81 94 133.5t140 78.5t165 26q75 0 143 -20.5t121.5 -64t84 -110
t30.5 -158.5v-780h-88v201h-6q-29 -62 -80 -113t-121.5 -82t-158.5 -31zM473 57q105 0 185.5 52t126.5 141.5t46 202.5v165q-17 -14 -48.5 -25.5t-71 -20.5t-82.5 -15t-84 -11q-123 -14 -199.5 -44.5t-112.5 -79t-36 -118.5q0 -114 79.5 -180.5t196.5 -66.5zM689 1296
q-44 0 -78 16t-64 37t-61 37.5t-68 16.5q-46 -1 -77 -30t-37 -72l-73 4q9 75 57.5 123t123.5 48q47 0 82 -16.5t65 -37.5t59.5 -37.5t64.5 -16.5q41 0 73.5 27t41.5 75l71 -8q-12 -74 -62 -120t-118 -46z" />
    <glyph glyph-name="adieresis" unicode="&#xe4;" horiz-adv-x="1088" 
d="M465 -25q-97 0 -178 39t-129.5 113.5t-48.5 179.5q0 70 25 123.5t76.5 92t132 63.5t192.5 39q86 10 153 20t105 31.5t38 63.5v46q0 122 -77 194t-212 72q-119 0 -201.5 -52.5t-115.5 -135.5l-84 31q33 81 94 133.5t140 78.5t165 26q75 0 143 -20.5t121.5 -64t84 -110
t30.5 -158.5v-780h-88v201h-6q-29 -62 -80 -113t-121.5 -82t-158.5 -31zM473 57q105 0 185.5 52t126.5 141.5t46 202.5v165q-17 -14 -48.5 -25.5t-71 -20.5t-82.5 -15t-84 -11q-123 -14 -199.5 -44.5t-112.5 -79t-36 -118.5q0 -114 79.5 -180.5t196.5 -66.5zM388 1315
q-28 0 -49 21t-21 49q0 30 21 50t49 20q30 0 50 -20t20 -50q0 -28 -20 -49t-50 -21zM713 1315q-28 0 -48.5 21t-20.5 49q0 30 20.5 50t48.5 20q30 0 50 -20t21 -50q-1 -28 -21 -49t-50 -21z" />
    <glyph glyph-name="aring" unicode="&#xe5;" horiz-adv-x="1088" 
d="M465 -25q-97 0 -178 39t-129.5 113.5t-48.5 179.5q0 70 25 123.5t76.5 92t132 63.5t192.5 39q86 10 153 20t105 31.5t38 63.5v46q0 122 -77 194t-212 72q-119 0 -201.5 -52.5t-115.5 -135.5l-84 31q33 81 94 133.5t140 78.5t165 26q75 0 143 -20.5t121.5 -64t84 -110
t30.5 -158.5v-780h-88v201h-6q-29 -62 -80 -113t-121.5 -82t-158.5 -31zM473 57q105 0 185.5 52t126.5 141.5t46 202.5v165q-17 -14 -48.5 -25.5t-71 -20.5t-82.5 -15t-84 -11q-123 -14 -199.5 -44.5t-112.5 -79t-36 -118.5q0 -114 79.5 -180.5t196.5 -66.5zM550 1251
q-55 1 -100 26.5t-71.5 69.5t-26.5 98t26.5 98.5t71.5 71t100 26.5q56 0 101 -26.5t71 -71t26 -98.5t-26 -98t-71 -69.5t-101 -26.5zM550 1320q54 0 90.5 37.5t36.5 87.5q0 51 -36.5 89t-90.5 38q-53 0 -89.5 -38t-35.5 -89q-1 -50 35.5 -87.5t89.5 -37.5z" />
    <glyph glyph-name="ae" unicode="&#xe6;" horiz-adv-x="1851" 
d="M1309 -24q-174 0 -293.5 97t-162.5 252l20 508q56 137 163.5 218.5t250.5 81.5q94 0 178 -37t148.5 -107.5t102 -170t37.5 -223.5v-56h-880v81h789q0 121 -49 218.5t-134 155t-192 57.5q-110 0 -198 -62.5t-139 -168t-51 -234.5v-37q0 -140 49 -250.5t140.5 -175
t220.5 -64.5q91 0 156 30.5t106.5 75.5t62.5 86l81 -33q-25 -56 -78.5 -112t-135.5 -93t-192 -37zM473 59q105 0 185.5 51t126.5 140.5t46 202.5v165q-17 -14 -48.5 -25.5t-71 -20.5t-82.5 -15t-84 -11q-123 -14 -199 -44.5t-111.5 -79t-35.5 -118.5q0 -114 78.5 -179.5
t195.5 -65.5zM465 -25q-97 0 -178 39t-129.5 113.5t-48.5 179.5q0 70 25 123.5t76.5 92t132.5 63.5t192 39q86 10 153 20t105 31.5t38 63.5v46q0 122 -77 194t-212 72q-119 0 -201.5 -52.5t-115.5 -135.5l-84 31q33 81 94 133.5t140 78.5t165 26q72 0 135.5 -19.5t114 -57.5
t82.5 -94.5t41 -130.5l-23 -530h-10q-29 -110 -94 -182.5t-149 -108t-172 -35.5z" />
    <glyph glyph-name="ccedilla" unicode="&#xe7;" horiz-adv-x="1102" 
d="M587 -24q-142 0 -250.5 75.5t-170 206.5t-61.5 297t61.5 296.5t170.5 206t250 75.5q106 0 193.5 -43t145 -120.5t73.5 -180.5h-88q-13 73 -58 132.5t-113.5 94.5t-152.5 35q-114 0 -202.5 -63.5t-140 -175t-51.5 -255.5q0 -143 50 -255.5t139 -178t205 -65.5
q123 0 213 73t111 195h90q-16 -103 -72.5 -182t-144 -123.5t-197.5 -44.5zM537 6h79l-12 -58q69 -11 110 -54t42 -117q-1 -82 -59.5 -126t-173.5 -47l-3 70q77 1 115 25.5t39 75.5q-1 60 -40.5 87.5t-120.5 28.5z" />
    <glyph glyph-name="egrave" unicode="&#xe8;" horiz-adv-x="1145" 
d="M603 -24q-151 0 -263 75t-173.5 206t-61.5 297q0 167 61.5 298t169 206t245.5 75q95 0 179 -37t148.5 -108.5t101.5 -174t37 -232.5v-42h-885v80h837l-40 -32q0 130 -47 235.5t-132 167t-199 61.5q-111 0 -198.5 -62.5t-138.5 -167.5t-51 -235v-37q0 -140 49 -251
t141 -175.5t220 -64.5q92 0 157 31t107 76t62 86l81 -33q-25 -56 -78.5 -112t-135.5 -93t-193 -37zM544 1273l-208 300h103l183 -300h-78z" />
    <glyph glyph-name="eacute" unicode="&#xe9;" horiz-adv-x="1145" 
d="M603 -24q-151 0 -263 75t-173.5 206t-61.5 297q0 167 61.5 298t169 206t245.5 75q95 0 179 -37t148.5 -108.5t101.5 -174t37 -232.5v-42h-885v80h837l-40 -32q0 130 -47 235.5t-132 167t-199 61.5q-111 0 -198.5 -62.5t-138.5 -167.5t-51 -235v-37q0 -140 49 -251
t141 -175.5t220 -64.5q92 0 157 31t107 76t62 86l81 -33q-25 -56 -78.5 -112t-135.5 -93t-193 -37zM533 1273l183 300h103l-208 -300h-78z" />
    <glyph glyph-name="ecircumflex" unicode="&#xea;" horiz-adv-x="1145" 
d="M603 -24q-151 0 -263 75t-173.5 206t-61.5 297q0 167 61.5 298t169 206t245.5 75q95 0 179 -37t148.5 -108.5t101.5 -174t37 -232.5v-42h-885v80h837l-40 -32q0 130 -47 235.5t-132 167t-199 61.5q-111 0 -198.5 -62.5t-138.5 -167.5t-51 -235v-37q0 -140 49 -251
t141 -175.5t220 -64.5q92 0 157 31t107 76t62 86l81 -33q-25 -56 -78.5 -112t-135.5 -93t-193 -37zM774 1239l-196 218l-195 -218h-92v8l257 284h61l255 -284v-8h-90z" />
    <glyph glyph-name="edieresis" unicode="&#xeb;" horiz-adv-x="1145" 
d="M603 -24q-151 0 -263 75t-173.5 206t-61.5 297q0 167 61.5 298t169 206t245.5 75q95 0 179 -37t148.5 -108.5t101.5 -174t37 -232.5v-42h-885v80h837l-40 -32q0 130 -47 235.5t-132 167t-199 61.5q-111 0 -198.5 -62.5t-138.5 -167.5t-51 -235v-37q0 -140 49 -251
t141 -175.5t220 -64.5q92 0 157 31t107 76t62 86l81 -33q-25 -56 -78.5 -112t-135.5 -93t-193 -37zM415 1315q-28 0 -49 21t-21 49q0 30 21 50t49 20q30 0 50 -20t20 -50q0 -28 -20 -49t-50 -21zM740 1315q-28 0 -48.5 21t-20.5 49q0 30 20.5 50t48.5 20q30 0 50 -20t21 -50
q-1 -28 -21 -49t-50 -21z" />
    <glyph glyph-name="igrave" unicode="&#xec;" horiz-adv-x="425" 
d="M169 0v1118h87v-1118h-87zM178 1273l-208 300h103l183 -300h-78z" />
    <glyph glyph-name="iacute" unicode="&#xed;" horiz-adv-x="425" 
d="M169 0v1118h87v-1118h-87zM168 1273l183 300h103l-208 -300h-78z" />
    <glyph glyph-name="icircumflex" unicode="&#xee;" horiz-adv-x="425" 
d="M169 0v1118h87v-1118h-87zM409 1239l-196 218l-196 -218h-92v8l258 284h60l256 -284v-8h-90z" />
    <glyph glyph-name="idieresis" unicode="&#xef;" horiz-adv-x="425" 
d="M169 0v1118h87v-1118h-87zM50 1315q-28 0 -49 21t-21 49q0 30 21 50t49 20q30 0 50 -20t20 -50q0 -28 -20 -49t-50 -21zM375 1315q-28 0 -48.5 21t-20.5 49q0 30 20.5 50t48.5 20q30 0 50 -20t21 -50q-1 -28 -21 -49t-50 -21z" />
    <glyph glyph-name="eth" unicode="&#xf0;" horiz-adv-x="1173" 
d="M959 1447l-578 -270l-25 67l579 268zM587 -24q-139 1 -247.5 72t-171 193.5t-63.5 275.5q1 155 63.5 277t168 192.5t236.5 70.5q84 0 152.5 -27.5t122.5 -78t92 -118.5h11q-42 130 -119.5 254t-191.5 233t-269 191l36 71q141 -75 261 -183t210 -242.5t139.5 -288.5
t49.5 -321q1 -176 -61.5 -304t-171 -197t-247.5 -70zM587 59q116 1 205 61t139.5 163t49.5 230q1 125 -48.5 230.5t-138 170.5t-207.5 65q-115 0 -203.5 -62.5t-138.5 -167.5t-50 -232q0 -125 48.5 -229.5t137 -166t206.5 -62.5z" />
    <glyph glyph-name="ntilde" unicode="&#xf1;" horiz-adv-x="1144" 
d="M256 724v-724h-87v1118h85v-177h9q40 86 126.5 138.5t205.5 52.5q113 0 198.5 -47.5t133.5 -136t48 -211.5v-737h-87v733q0 143 -85.5 230t-224.5 87q-92 0 -165 -41t-115 -114t-42 -171zM712 1296q-44 0 -78 16t-64 37t-61 37.5t-68 16.5q-46 -1 -77 -30t-37 -72l-73 4
q9 75 57.5 123t123.5 48q47 0 82 -16.5t65 -37.5t59.5 -37.5t64.5 -16.5q41 0 73.5 27t41.5 75l71 -8q-12 -74 -62 -120t-118 -46z" />
    <glyph glyph-name="ograve" unicode="&#xf2;" horiz-adv-x="1166" 
d="M583 -24q-138 0 -246 75t-170 205.5t-62 298.5t62 298.5t170 205t246 74.5t246 -74.5t170 -205.5t62 -298q0 -168 -62 -298.5t-169.5 -205.5t-246.5 -75zM583 58q118 0 205.5 66.5t136 179t48.5 251.5q0 138 -49 250.5t-136 179t-205 66.5q-116 0 -204 -66.5t-137 -179
t-49 -250.5q0 -139 49 -251.5t136.5 -179t204.5 -66.5zM550 1273l-208 300h103l183 -300h-78z" />
    <glyph glyph-name="oacute" unicode="&#xf3;" horiz-adv-x="1166" 
d="M583 -24q-138 0 -246 75t-170 205.5t-62 298.5t62 298.5t170 205t246 74.5t246 -74.5t170 -205.5t62 -298q0 -168 -62 -298.5t-169.5 -205.5t-246.5 -75zM583 58q118 0 205.5 66.5t136 179t48.5 251.5q0 138 -49 250.5t-136 179t-205 66.5q-116 0 -204 -66.5t-137 -179
t-49 -250.5q0 -139 49 -251.5t136.5 -179t204.5 -66.5zM539 1273l183 300h103l-208 -300h-78z" />
    <glyph glyph-name="ocircumflex" unicode="&#xf4;" horiz-adv-x="1166" 
d="M583 -24q-138 0 -246 75t-170 205.5t-62 298.5t62 298.5t170 205t246 74.5t246 -74.5t170 -205.5t62 -298q0 -168 -62 -298.5t-169.5 -205.5t-246.5 -75zM583 58q118 0 205.5 66.5t136 179t48.5 251.5q0 138 -49 250.5t-136 179t-205 66.5q-116 0 -204 -66.5t-137 -179
t-49 -250.5q0 -139 49 -251.5t136.5 -179t204.5 -66.5zM780 1239l-196 218l-195 -218h-92v8l257 284h61l255 -284v-8h-90z" />
    <glyph glyph-name="otilde" unicode="&#xf5;" horiz-adv-x="1166" 
d="M583 -24q-138 0 -246 75t-170 205.5t-62 298.5t62 298.5t170 205t246 74.5t246 -74.5t170 -205.5t62 -298q0 -168 -62 -298.5t-169.5 -205.5t-246.5 -75zM583 58q118 0 205.5 66.5t136 179t48.5 251.5q0 138 -49 250.5t-136 179t-205 66.5q-116 0 -204 -66.5t-137 -179
t-49 -250.5q0 -139 49 -251.5t136.5 -179t204.5 -66.5zM722 1296q-44 0 -78 16t-64 37t-61 37.5t-68 16.5q-46 -1 -77 -30t-37 -72l-73 4q9 75 57.5 123t123.5 48q47 0 82 -16.5t65 -37.5t59.5 -37.5t64.5 -16.5q41 0 73.5 27t41.5 75l71 -8q-12 -74 -62 -120t-118 -46z" />
    <glyph glyph-name="odieresis" unicode="&#xf6;" horiz-adv-x="1166" 
d="M583 -24q-138 0 -246 75t-170 205.5t-62 298.5t62 298.5t170 205t246 74.5t246 -74.5t170 -205.5t62 -298q0 -168 -62 -298.5t-169.5 -205.5t-246.5 -75zM583 58q118 0 205.5 66.5t136 179t48.5 251.5q0 138 -49 250.5t-136 179t-205 66.5q-116 0 -204 -66.5t-137 -179
t-49 -250.5q0 -139 49 -251.5t136.5 -179t204.5 -66.5zM421 1315q-28 0 -49 21t-21 49q0 30 21 50t49 20q30 0 50 -20t20 -50q0 -28 -20 -49t-50 -21zM746 1315q-28 0 -48.5 21t-20.5 49q0 30 20.5 50t48.5 20q30 0 50 -20t21 -50q-1 -28 -21 -49t-50 -21z" />
    <glyph glyph-name="divide" unicode="&#xf7;" horiz-adv-x="1287" 
d="M1080 625v-86h-873v86h873zM644 157q-33 0 -56 23t-23 55q0 33 23 56t55 22q33 1 55.5 -22t21.5 -56q1 -32 -21.5 -55t-54.5 -23zM643 851q-32 -1 -55 22t-23 56t23 55.5t56 22.5q32 0 54.5 -23t21.5 -55q1 -33 -21.5 -56t-55.5 -22z" />
    <glyph glyph-name="oslash" unicode="&#xf8;" horiz-adv-x="1166" 
d="M226 -40l-62 43l776 1151l62 -42zM583 -23q-138 0 -246 75t-170 206t-62 298q0 168 62 298.5t170 205.5t246 75t246 -75t170 -205.5t62 -298.5q0 -167 -62 -298t-169.5 -206t-246.5 -75zM583 59q118 0 205.5 66.5t136 179.5t48.5 251t-49 251t-136 179.5t-205 66.5
q-116 0 -204 -67t-137 -179.5t-49 -250.5t49 -251t136.5 -179.5t204.5 -66.5z" />
    <glyph glyph-name="ugrave" unicode="&#xf9;" horiz-adv-x="1141" 
d="M885 396v722h87v-1118h-87v182h-8q-40 -87 -127.5 -142t-207.5 -54q-109 0 -193.5 47.5t-132 136t-47.5 210.5v738h87v-735q0 -139 85 -225t220 -86q88 0 161.5 39.5t118 112.5t44.5 172zM537 1273l-208 300h103l183 -300h-78z" />
    <glyph glyph-name="uacute" unicode="&#xfa;" horiz-adv-x="1141" 
d="M885 396v722h87v-1118h-87v182h-8q-40 -87 -127.5 -142t-207.5 -54q-109 0 -193.5 47.5t-132 136t-47.5 210.5v738h87v-735q0 -139 85 -225t220 -86q88 0 161.5 39.5t118 112.5t44.5 172zM527 1273l183 300h103l-208 -300h-78z" />
    <glyph glyph-name="ucircumflex" unicode="&#xfb;" horiz-adv-x="1141" 
d="M885 396v722h87v-1118h-87v182h-8q-40 -87 -127.5 -142t-207.5 -54q-109 0 -193.5 47.5t-132 136t-47.5 210.5v738h87v-735q0 -139 85 -225t220 -86q88 0 161.5 39.5t118 112.5t44.5 172zM767 1239l-196 218l-195 -218h-92v8l257 284h61l255 -284v-8h-90z" />
    <glyph glyph-name="udieresis" unicode="&#xfc;" horiz-adv-x="1141" 
d="M885 396v722h87v-1118h-87v182h-8q-40 -87 -127.5 -142t-207.5 -54q-109 0 -193.5 47.5t-132 136t-47.5 210.5v738h87v-735q0 -139 85 -225t220 -86q88 0 161.5 39.5t118 112.5t44.5 172zM408 1315q-28 0 -49 21t-21 49q0 30 21 50t49 20q30 0 50 -20t20 -50
q0 -28 -20 -49t-50 -21zM733 1315q-28 0 -48.5 21t-20.5 49q0 30 20.5 50t48.5 20q30 0 50 -20t21 -50q-1 -28 -21 -49t-50 -21z" />
    <glyph glyph-name="yacute" unicode="&#xfd;" horiz-adv-x="1061" 
d="M239 -418q-34 -1 -66.5 6.5t-58.5 18.5l27 77l12 -4q98 -34 168 4.5t114 160.5l51 140l-409 1133h95l355 -1004h8l354 1004h96l-472 -1308q-27 -76 -67.5 -127t-92.5 -76t-114 -25zM487 1273l183 300h103l-208 -300h-78z" />
    <glyph glyph-name="thorn" unicode="&#xfe;" horiz-adv-x="1177" 
d="M627 -24q-96 0 -167.5 37t-120 98t-74.5 133h-9v-662h-87v1908h87v-622h9q25 72 73.5 132.5t120 96.5t167.5 36q134 0 234 -74t155.5 -204.5t55.5 -298.5q0 -169 -55 -300t-155 -205.5t-234 -74.5zM619 58q115 0 196 66t124.5 179t43.5 254q0 140 -43 252t-124.5 177
t-196.5 65q-113 0 -194.5 -64t-125.5 -176t-44 -254q0 -143 44 -256t125.5 -178t194.5 -65z" />
    <glyph glyph-name="ydieresis" unicode="&#xff;" horiz-adv-x="1061" 
d="M239 -418q-34 -1 -66.5 6.5t-58.5 18.5l27 77l12 -4q98 -34 168 4.5t114 160.5l51 140l-409 1133h95l355 -1004h8l354 1004h96l-472 -1308q-27 -76 -67.5 -127t-92.5 -76t-114 -25zM369 1315q-28 0 -49 21t-21 49q0 30 21 50t49 20q30 0 50 -20t20 -50q0 -28 -20 -49
t-50 -21zM694 1315q-28 0 -48.5 21t-20.5 49q0 30 20.5 50t48.5 20q30 0 50 -20t21 -50q-1 -28 -21 -49t-50 -21z" />
    <glyph glyph-name="Amacron" unicode="&#x100;" horiz-adv-x="1271" 
d="M142 0h-97l539 1490h105l536 -1490h-96l-490 1373h-8zM279 561h715v-84h-715v84zM904 1795v-79h-537v79h537z" />
    <glyph glyph-name="amacron" unicode="&#x101;" horiz-adv-x="1088" 
d="M465 -25q-97 0 -178 39t-129.5 113.5t-48.5 179.5q0 70 25 123.5t76.5 92t132 63.5t192.5 39q86 10 153 20t105 31.5t38 63.5v46q0 122 -77 194t-212 72q-119 0 -201.5 -52.5t-115.5 -135.5l-84 31q33 81 94 133.5t140 78.5t165 26q75 0 143 -20.5t121.5 -64t84 -110
t30.5 -158.5v-780h-88v201h-6q-29 -62 -80 -113t-121.5 -82t-158.5 -31zM473 57q105 0 185.5 52t126.5 141.5t46 202.5v165q-17 -14 -48.5 -25.5t-71 -20.5t-82.5 -15t-84 -11q-123 -14 -199.5 -44.5t-112.5 -79t-36 -118.5q0 -114 79.5 -180.5t196.5 -66.5zM818 1423v-79
h-537v79h537z" />
    <glyph glyph-name="Abreve" unicode="&#x102;" horiz-adv-x="1271" 
d="M142 0h-97l539 1490h105l536 -1490h-96l-490 1373h-8zM279 561h715v-84h-715v84zM636 1640q-94 0 -151.5 55.5t-57.5 146.5h84q0 -59 33.5 -95t91.5 -36q57 0 91 36t34 95h84q0 -91 -57.5 -146.5t-151.5 -55.5z" />
    <glyph glyph-name="abreve" unicode="&#x103;" horiz-adv-x="1088" 
d="M465 -25q-97 0 -178 39t-129.5 113.5t-48.5 179.5q0 70 25 123.5t76.5 92t132 63.5t192.5 39q86 10 153 20t105 31.5t38 63.5v46q0 122 -77 194t-212 72q-119 0 -201.5 -52.5t-115.5 -135.5l-84 31q33 81 94 133.5t140 78.5t165 26q75 0 143 -20.5t121.5 -64t84 -110
t30.5 -158.5v-780h-88v201h-6q-29 -62 -80 -113t-121.5 -82t-158.5 -31zM473 57q105 0 185.5 52t126.5 141.5t46 202.5v165q-17 -14 -48.5 -25.5t-71 -20.5t-82.5 -15t-84 -11q-123 -14 -199.5 -44.5t-112.5 -79t-36 -118.5q0 -114 79.5 -180.5t196.5 -66.5zM551 1268
q-94 0 -151.5 55.5t-57.5 146.5h84q0 -59 33.5 -95t91.5 -36q57 0 91 36t34 95h84q0 -91 -57.5 -146.5t-151.5 -55.5z" />
    <glyph glyph-name="Aogonek" unicode="&#x104;" horiz-adv-x="1271" 
d="M142 0h-97l539 1490h105l536 -1490h-96l-490 1373h-8zM279 561h715v-84h-715v84zM1158 -440q-81 0 -133 45.5t-51 131.5q0 54 22 101.5t65.5 93t107.5 89.5l57 -21q-72 -66 -117.5 -127t-45.5 -128q0 -54 28.5 -80t80.5 -26q32 0 56.5 9.5t47.5 24.5l21 -68
q-29 -20 -63 -32.5t-76 -12.5z" />
    <glyph glyph-name="aogonek" unicode="&#x105;" horiz-adv-x="1088" 
d="M465 -25q-97 0 -178 39t-129.5 113.5t-48.5 179.5q0 70 25 123.5t76.5 92t132 63.5t192.5 39q86 10 153 20t105 31.5t38 63.5v46q0 122 -77 194t-212 72q-119 0 -201.5 -52.5t-115.5 -135.5l-84 31q33 81 94 133.5t140 78.5t165 26q75 0 143 -20.5t121.5 -64t84 -110
t30.5 -158.5v-780h-88v201h-6q-29 -62 -80 -113t-121.5 -82t-158.5 -31zM473 57q105 0 185.5 52t126.5 141.5t46 202.5v165q-17 -14 -48.5 -25.5t-71 -20.5t-82.5 -15t-84 -11q-123 -14 -199.5 -44.5t-112.5 -79t-36 -118.5q0 -114 79.5 -180.5t196.5 -66.5zM852 -440
q-81 0 -133 45.5t-51 131.5q0 54 22 101.5t65.5 93t107.5 89.5l57 -21q-72 -66 -117.5 -127t-45.5 -128q0 -54 28.5 -80t80.5 -26q32 0 56.5 9.5t47.5 24.5l21 -68q-29 -20 -63 -32.5t-76 -12.5z" />
    <glyph glyph-name="Cacute" unicode="&#x106;" horiz-adv-x="1451" 
d="M755 -20q-186 0 -328.5 95t-223 267t-80.5 402q0 231 80.5 403t223 267.5t328.5 95.5q124 0 224.5 -41t174 -110.5t119 -156.5t61.5 -178h-93q-15 75 -55 146.5t-102.5 128.5t-145.5 90.5t-183 33.5q-147 0 -270.5 -78.5t-198 -230t-74.5 -370.5q0 -220 74.5 -371
t198 -228.5t270.5 -77.5q100 0 183 33.5t145.5 90t102.5 128t55 147.5h93q-16 -91 -61.5 -177.5t-119 -156t-174 -111t-224.5 -41.5zM711 1645l183 300h103l-208 -300h-78z" />
    <glyph glyph-name="cacute" unicode="&#x107;" horiz-adv-x="1102" 
d="M587 -24q-142 0 -250.5 75.5t-170 206.5t-61.5 297t61.5 296.5t170.5 206t250 75.5q106 0 193.5 -43t145 -120.5t73.5 -180.5h-88q-13 73 -58 132.5t-113.5 94.5t-152.5 35q-114 0 -202.5 -63.5t-140 -175t-51.5 -255.5q0 -143 50 -255.5t139 -178t205 -65.5
q123 0 213 73t111 195h90q-16 -103 -72.5 -182t-144 -123.5t-197.5 -44.5zM534 1273l183 300h103l-208 -300h-78z" />
    <glyph glyph-name="Ccircumflex" unicode="&#x108;" horiz-adv-x="1451" 
d="M755 -20q-186 0 -328.5 95t-223 267t-80.5 402q0 231 80.5 403t223 267.5t328.5 95.5q124 0 224.5 -41t174 -110.5t119 -156.5t61.5 -178h-93q-15 75 -55 146.5t-102.5 128.5t-145.5 90.5t-183 33.5q-147 0 -270.5 -78.5t-198 -230t-74.5 -370.5q0 -220 74.5 -371
t198 -228.5t270.5 -77.5q100 0 183 33.5t145.5 90t102.5 128t55 147.5h93q-16 -91 -61.5 -177.5t-119 -156t-174 -111t-224.5 -41.5zM951 1611l-196 218l-195 -218h-92v8l257 284h61l255 -284v-8h-90z" />
    <glyph glyph-name="ccircumflex" unicode="&#x109;" horiz-adv-x="1102" 
d="M587 -24q-142 0 -250.5 75.5t-170 206.5t-61.5 297t61.5 296.5t170.5 206t250 75.5q106 0 193.5 -43t145 -120.5t73.5 -180.5h-88q-13 73 -58 132.5t-113.5 94.5t-152.5 35q-114 0 -202.5 -63.5t-140 -175t-51.5 -255.5q0 -143 50 -255.5t139 -178t205 -65.5
q123 0 213 73t111 195h90q-16 -103 -72.5 -182t-144 -123.5t-197.5 -44.5zM775 1239l-196 218l-196 -218h-92v8l258 284h60l256 -284v-8h-90z" />
    <glyph glyph-name="Cdotaccent" unicode="&#x10a;" horiz-adv-x="1451" 
d="M755 -20q-186 0 -328.5 95t-223 267t-80.5 402q0 231 80.5 403t223 267.5t328.5 95.5q124 0 224.5 -41t174 -110.5t119 -156.5t61.5 -178h-93q-15 75 -55 146.5t-102.5 128.5t-145.5 90.5t-183 33.5q-147 0 -270.5 -78.5t-198 -230t-74.5 -370.5q0 -220 74.5 -371
t198 -228.5t270.5 -77.5q100 0 183 33.5t145.5 90t102.5 128t55 147.5h93q-16 -91 -61.5 -177.5t-119 -156t-174 -111t-224.5 -41.5zM755 1687q-30 0 -51 21t-21 49q0 29 21 49.5t50 20.5q30 0 51 -20.5t21 -49.5q0 -28 -21 -49t-50 -21z" />
    <glyph glyph-name="cdotaccent" unicode="&#x10b;" horiz-adv-x="1102" 
d="M587 -24q-142 0 -250.5 75.5t-170 206.5t-61.5 297t61.5 296.5t170.5 206t250 75.5q106 0 193.5 -43t145 -120.5t73.5 -180.5h-88q-13 73 -58 132.5t-113.5 94.5t-152.5 35q-114 0 -202.5 -63.5t-140 -175t-51.5 -255.5q0 -143 50 -255.5t139 -178t205 -65.5
q123 0 213 73t111 195h90q-16 -103 -72.5 -182t-144 -123.5t-197.5 -44.5zM579 1315q-30 0 -51 21t-21 49q0 29 21 49.5t50 20.5q30 0 51 -20.5t21 -49.5q0 -28 -21 -49t-50 -21z" />
    <glyph glyph-name="Ccaron" unicode="&#x10c;" horiz-adv-x="1451" 
d="M755 -20q-186 0 -328.5 95t-223 267t-80.5 402q0 231 80.5 403t223 267.5t328.5 95.5q124 0 224.5 -41t174 -110.5t119 -156.5t61.5 -178h-93q-15 75 -55 146.5t-102.5 128.5t-145.5 90.5t-183 33.5q-147 0 -270.5 -78.5t-198 -230t-74.5 -370.5q0 -220 74.5 -371
t198 -228.5t270.5 -77.5q100 0 183 33.5t145.5 90t102.5 128t55 147.5h93q-16 -91 -61.5 -177.5t-119 -156t-174 -111t-224.5 -41.5zM559 1929l196 -217l195 217h92v-8l-257 -284h-61l-255 284v8h90z" />
    <glyph glyph-name="ccaron" unicode="&#x10d;" horiz-adv-x="1102" 
d="M587 -24q-142 0 -250.5 75.5t-170 206.5t-61.5 297t61.5 296.5t170.5 206t250 75.5q106 0 193.5 -43t145 -120.5t73.5 -180.5h-88q-13 73 -58 132.5t-113.5 94.5t-152.5 35q-114 0 -202.5 -63.5t-140 -175t-51.5 -255.5q0 -143 50 -255.5t139 -178t205 -65.5
q123 0 213 73t111 195h90q-16 -103 -72.5 -182t-144 -123.5t-197.5 -44.5zM382 1557l196 -217l195 217h92v-8l-257 -284h-61l-255 284v8h90z" />
    <glyph glyph-name="Dcaron" unicode="&#x10e;" horiz-adv-x="1433" 
d="M612 0h-363v84h359q200 0 336.5 79.5t206.5 229t70 356.5q0 206 -67 352.5t-196.5 225t-317.5 78.5h-394v85h398q210 0 358.5 -88.5t228 -254.5t79.5 -398q0 -235 -82 -403t-238 -257t-378 -89zM291 1490v-1490h-92v1490h92zM415 1929l196 -217l195 217h92v-8l-257 -284
h-61l-255 284v8h90z" />
    <glyph glyph-name="dcaron" unicode="&#x10f;" horiz-adv-x="1197" 
d="M550 -24q-134 0 -234.5 74.5t-155.5 205.5t-55 300q0 168 55.5 298.5t156 204.5t234.5 74q96 0 167.5 -36t120 -96.5t73.5 -132.5h9v622h87v-1490h-85v244h-11q-26 -72 -74.5 -133t-120 -98t-167.5 -37zM557 58q114 0 195.5 65t125 178t43.5 256q0 142 -43.5 254
t-125 176t-195.5 64t-195.5 -65t-125 -177t-43.5 -252q0 -141 43.5 -254t125 -179t195.5 -66zM1142 1182v378h94l-27 -378h-67z" />
    <glyph glyph-name="Dcroat" unicode="&#x110;" horiz-adv-x="1433" 
d="M612 0h-363v84h359q200 0 336.5 79.5t206.5 229t70 356.5q0 206 -67 352.5t-196.5 225t-317.5 78.5h-394v85h398q210 0 358.5 -88.5t228 -254.5t79.5 -398q0 -235 -82 -403t-238 -257t-378 -89zM291 1490v-1490h-92v1490h92zM-46 721v76h583v-76h-583z" />
    <glyph glyph-name="dcroat" unicode="&#x111;" horiz-adv-x="1177" 
d="M550 -24q-134 0 -234.5 74.5t-155.5 205.5t-55 300q0 168 55.5 298.5t156 204.5t234.5 74q96 0 167.5 -36t120 -96.5t73.5 -132.5h9v622h87v-1490h-85v244h-11q-26 -72 -74.5 -133t-120 -98t-167.5 -37zM557 58q114 0 195.5 65t125 178t43.5 256q0 142 -43.5 254
t-125 176t-195.5 64t-195.5 -65t-125 -177t-43.5 -252q0 -141 43.5 -254t125 -179t195.5 -66zM609 1241v76h583v-76h-583z" />
    <glyph glyph-name="Emacron" unicode="&#x112;" horiz-adv-x="1173" 
d="M199 0v1490h829v-85h-737v-616h693v-84h-693v-621h755v-84h-847zM884 1795v-79h-537v79h537z" />
    <glyph glyph-name="emacron" unicode="&#x113;" horiz-adv-x="1145" 
d="M603 -24q-151 0 -263 75t-173.5 206t-61.5 297q0 167 61.5 298t169 206t245.5 75q95 0 179 -37t148.5 -108.5t101.5 -174t37 -232.5v-42h-885v80h837l-40 -32q0 130 -47 235.5t-132 167t-199 61.5q-111 0 -198.5 -62.5t-138.5 -167.5t-51 -235v-37q0 -140 49 -251
t141 -175.5t220 -64.5q92 0 157 31t107 76t62 86l81 -33q-25 -56 -78.5 -112t-135.5 -93t-193 -37zM845 1423v-79h-537v79h537z" />
    <glyph glyph-name="Ebreve" unicode="&#x114;" horiz-adv-x="1173" 
d="M199 0v1490h829v-85h-737v-616h693v-84h-693v-621h755v-84h-847zM616 1640q-94 0 -151.5 55.5t-57.5 146.5h84q0 -59 33.5 -95t91.5 -36q57 0 91 36t34 95h84q0 -91 -57.5 -146.5t-151.5 -55.5z" />
    <glyph glyph-name="ebreve" unicode="&#x115;" horiz-adv-x="1145" 
d="M603 -24q-151 0 -263 75t-173.5 206t-61.5 297q0 167 61.5 298t169 206t245.5 75q95 0 179 -37t148.5 -108.5t101.5 -174t37 -232.5v-42h-885v80h837l-40 -32q0 130 -47 235.5t-132 167t-199 61.5q-111 0 -198.5 -62.5t-138.5 -167.5t-51 -235v-37q0 -140 49 -251
t141 -175.5t220 -64.5q92 0 157 31t107 76t62 86l81 -33q-25 -56 -78.5 -112t-135.5 -93t-193 -37zM578 1268q-94 0 -151.5 55.5t-57.5 146.5h84q0 -59 33.5 -95t91.5 -36q57 0 91 36t34 95h84q0 -91 -57.5 -146.5t-151.5 -55.5z" />
    <glyph glyph-name="Edotaccent" unicode="&#x116;" horiz-adv-x="1173" 
d="M199 0v1490h829v-85h-737v-616h693v-84h-693v-621h755v-84h-847zM617 1687q-30 0 -51 21t-21 49q0 29 21 49.5t50 20.5q30 0 51 -20.5t21 -49.5q0 -28 -21 -49t-50 -21z" />
    <glyph glyph-name="edotaccent" unicode="&#x117;" horiz-adv-x="1145" 
d="M603 -24q-151 0 -263 75t-173.5 206t-61.5 297q0 167 61.5 298t169 206t245.5 75q95 0 179 -37t148.5 -108.5t101.5 -174t37 -232.5v-42h-885v80h837l-40 -32q0 130 -47 235.5t-132 167t-199 61.5q-111 0 -198.5 -62.5t-138.5 -167.5t-51 -235v-37q0 -140 49 -251
t141 -175.5t220 -64.5q92 0 157 31t107 76t62 86l81 -33q-25 -56 -78.5 -112t-135.5 -93t-193 -37zM578 1315q-30 0 -51 21t-21 49q0 29 21 49.5t50 20.5q30 0 51 -20.5t21 -49.5q0 -28 -21 -49t-50 -21z" />
    <glyph glyph-name="Eogonek" unicode="&#x118;" horiz-adv-x="1173" 
d="M199 0v1490h829v-85h-737v-616h693v-84h-693v-621h755v-84h-847zM978 -440q-81 0 -133 45.5t-51 131.5q0 54 22 101.5t65.5 93t107.5 89.5l57 -21q-72 -66 -117.5 -127t-45.5 -128q0 -54 28.5 -80t80.5 -26q32 0 56.5 9.5t47.5 24.5l21 -68q-29 -20 -63 -32.5t-76 -12.5z
" />
    <glyph glyph-name="eogonek" unicode="&#x119;" horiz-adv-x="1145" 
d="M603 -24q-151 0 -263 75t-173.5 206t-61.5 297q0 167 61.5 298t169 206t245.5 75q95 0 179 -37t148.5 -108.5t101.5 -174t37 -232.5v-42h-885v80h837l-40 -32q0 130 -47 235.5t-132 167t-199 61.5q-111 0 -198.5 -62.5t-138.5 -167.5t-51 -235v-37q0 -140 49 -251
t141 -175.5t220 -64.5q92 0 157 31t107 76t62 86l81 -33q-25 -56 -78.5 -112t-135.5 -93t-193 -37zM599 -440q-81 0 -133 45.5t-51 131.5q0 54 22 101.5t65.5 93t107.5 89.5l57 -21q-72 -66 -117.5 -127t-45.5 -128q0 -54 28.5 -80t80.5 -26q32 0 56.5 9.5t47.5 24.5l21 -68
q-29 -20 -63 -32.5t-76 -12.5z" />
    <glyph glyph-name="Ecaron" unicode="&#x11a;" horiz-adv-x="1173" 
d="M199 0v1490h829v-85h-737v-616h693v-84h-693v-621h755v-84h-847zM420 1929l196 -217l195 217h92v-8l-257 -284h-61l-255 284v8h90z" />
    <glyph glyph-name="ecaron" unicode="&#x11b;" horiz-adv-x="1145" 
d="M603 -24q-151 0 -263 75t-173.5 206t-61.5 297q0 167 61.5 298t169 206t245.5 75q95 0 179 -37t148.5 -108.5t101.5 -174t37 -232.5v-42h-885v80h837l-40 -32q0 130 -47 235.5t-132 167t-199 61.5q-111 0 -198.5 -62.5t-138.5 -167.5t-51 -235v-37q0 -140 49 -251
t141 -175.5t220 -64.5q92 0 157 31t107 76t62 86l81 -33q-25 -56 -78.5 -112t-135.5 -93t-193 -37zM381 1557l196 -217l195 217h92v-8l-257 -284h-61l-255 284v8h90z" />
    <glyph glyph-name="Gcircumflex" unicode="&#x11c;" horiz-adv-x="1483" 
d="M759 -20q-191 0 -334 95t-222.5 267t-79.5 402q0 232 79.5 404t221.5 267t329 95q126 0 227 -41.5t175 -112t119.5 -157t61.5 -175.5h-94q-17 75 -56.5 146.5t-101.5 128.5t-145 90.5t-186 33.5q-158 0 -280.5 -82.5t-191.5 -235t-69 -361.5q0 -206 69 -358t192.5 -235.5
t285.5 -83.5q147 0 259 66t175.5 192t63.5 304l32 -16h-506v84h563v-84q0 -196 -75.5 -338.5t-208 -218.5t-303.5 -76zM943 1611l-196 218l-196 -218h-92v8l258 284h60l256 -284v-8h-90z" />
    <glyph glyph-name="gcircumflex" unicode="&#x11d;" horiz-adv-x="1177" 
d="M571 -442q-157 0 -263.5 60t-152.5 164l74 44q25 -54 71 -96.5t113.5 -66.5t157.5 -24q161 0 255.5 83.5t94.5 254.5v278h-9q-25 -72 -75.5 -128.5t-122 -88.5t-163.5 -32q-132 0 -232.5 68.5t-157 192.5t-56.5 292t55.5 297.5t156.5 203t236 73.5q96 0 167 -36
t119 -96.5t74 -132.5h10v250h86v-1145q0 -139 -55 -231.5t-154 -138t-229 -45.5zM559 88q168 0 265.5 126.5t97.5 345.5q0 141 -43 252t-124 175t-196 64t-197 -65t-125.5 -176.5t-43.5 -249.5q0 -139 44 -245.5t126 -166.5t196 -60zM787 1239l-196 218l-196 -218h-92v8
l258 284h60l256 -284v-8h-90z" />
    <glyph glyph-name="Gbreve" unicode="&#x11e;" horiz-adv-x="1483" 
d="M759 -20q-191 0 -334 95t-222.5 267t-79.5 402q0 232 79.5 404t221.5 267t329 95q126 0 227 -41.5t175 -112t119.5 -157t61.5 -175.5h-94q-17 75 -56.5 146.5t-101.5 128.5t-145 90.5t-186 33.5q-158 0 -280.5 -82.5t-191.5 -235t-69 -361.5q0 -206 69 -358t192.5 -235.5
t285.5 -83.5q147 0 259 66t175.5 192t63.5 304l32 -16h-506v84h563v-84q0 -196 -75.5 -338.5t-208 -218.5t-303.5 -76zM746 1640q-94 0 -151.5 55.5t-57.5 146.5h84q0 -59 33.5 -95t91.5 -36q57 0 91 36t34 95h84q0 -91 -57.5 -146.5t-151.5 -55.5z" />
    <glyph glyph-name="gbreve" unicode="&#x11f;" horiz-adv-x="1177" 
d="M571 -442q-157 0 -263.5 60t-152.5 164l74 44q25 -54 71 -96.5t113.5 -66.5t157.5 -24q161 0 255.5 83.5t94.5 254.5v278h-9q-25 -72 -75.5 -128.5t-122 -88.5t-163.5 -32q-132 0 -232.5 68.5t-157 192.5t-56.5 292t55.5 297.5t156.5 203t236 73.5q96 0 167 -36
t119 -96.5t74 -132.5h10v250h86v-1145q0 -139 -55 -231.5t-154 -138t-229 -45.5zM559 88q168 0 265.5 126.5t97.5 345.5q0 141 -43 252t-124 175t-196 64t-197 -65t-125.5 -176.5t-43.5 -249.5q0 -139 44 -245.5t126 -166.5t196 -60zM590 1268q-94 0 -151.5 55.5
t-57.5 146.5h84q0 -59 33.5 -95t91.5 -36q57 0 91 36t34 95h84q0 -91 -57.5 -146.5t-151.5 -55.5z" />
    <glyph glyph-name="Gdotaccent" unicode="&#x120;" horiz-adv-x="1483" 
d="M759 -20q-191 0 -334 95t-222.5 267t-79.5 402q0 232 79.5 404t221.5 267t329 95q126 0 227 -41.5t175 -112t119.5 -157t61.5 -175.5h-94q-17 75 -56.5 146.5t-101.5 128.5t-145 90.5t-186 33.5q-158 0 -280.5 -82.5t-191.5 -235t-69 -361.5q0 -206 69 -358t192.5 -235.5
t285.5 -83.5q147 0 259 66t175.5 192t63.5 304l32 -16h-506v84h563v-84q0 -196 -75.5 -338.5t-208 -218.5t-303.5 -76zM747 1687q-30 0 -51 21t-21 49q0 29 21 49.5t50 20.5q30 0 51 -20.5t21 -49.5q0 -28 -21 -49t-50 -21z" />
    <glyph glyph-name="gdotaccent" unicode="&#x121;" horiz-adv-x="1177" 
d="M571 -442q-157 0 -263.5 60t-152.5 164l74 44q25 -54 71 -96.5t113.5 -66.5t157.5 -24q161 0 255.5 83.5t94.5 254.5v278h-9q-25 -72 -75.5 -128.5t-122 -88.5t-163.5 -32q-132 0 -232.5 68.5t-157 192.5t-56.5 292t55.5 297.5t156.5 203t236 73.5q96 0 167 -36
t119 -96.5t74 -132.5h10v250h86v-1145q0 -139 -55 -231.5t-154 -138t-229 -45.5zM559 88q168 0 265.5 126.5t97.5 345.5q0 141 -43 252t-124 175t-196 64t-197 -65t-125.5 -176.5t-43.5 -249.5q0 -139 44 -245.5t126 -166.5t196 -60zM591 1315q-30 0 -51 21t-21 49
q0 29 21 49.5t50 20.5q30 0 51 -20.5t21 -49.5q0 -28 -21 -49t-50 -21z" />
    <glyph glyph-name="uni0122" unicode="&#x122;" horiz-adv-x="1483" 
d="M759 -20q-191 0 -334 95t-222.5 267t-79.5 402q0 232 79.5 404t221.5 267t329 95q126 0 227 -41.5t175 -112t119.5 -157t61.5 -175.5h-94q-17 75 -56.5 146.5t-101.5 128.5t-145 90.5t-186 33.5q-158 0 -280.5 -82.5t-191.5 -235t-69 -361.5q0 -206 69 -358t192.5 -235.5
t285.5 -83.5q147 0 259 66t175.5 192t63.5 304l32 -16h-506v84h563v-84q0 -196 -75.5 -338.5t-208 -218.5t-303.5 -76zM606 -494l90 376h92l-113 -376h-69z" />
    <glyph glyph-name="uni0123" unicode="&#x123;" horiz-adv-x="1177" 
d="M571 -442q-157 0 -263.5 60t-152.5 164l74 44q25 -54 71 -96.5t113.5 -66.5t157.5 -24q161 0 255.5 83.5t94.5 254.5v278h-9q-25 -72 -75.5 -128.5t-122 -88.5t-163.5 -32q-132 0 -232.5 68.5t-157 192.5t-56.5 292t55.5 297.5t156.5 203t236 73.5q96 0 167 -36
t119 -96.5t74 -132.5h10v250h86v-1145q0 -139 -55 -231.5t-154 -138t-229 -45.5zM559 88q168 0 265.5 126.5t97.5 345.5q0 141 -43 252t-124 175t-196 64t-197 -65t-125.5 -176.5t-43.5 -249.5q0 -139 44 -245.5t126 -166.5t196 -60zM536 1260v68q1 67 16 121t46 102.5
t78 95.5l51 -49q-54 -73 -73.5 -133t-18.5 -143v-62h-99z" />
    <glyph glyph-name="Hcircumflex" unicode="&#x124;" horiz-adv-x="1477" 
d="M199 0v1490h92v-703h896v703h91v-1490h-91v703h-896v-703h-92zM935 1611l-196 218l-195 -218h-92v8l257 284h61l255 -284v-8h-90z" />
    <glyph glyph-name="hcircumflex" unicode="&#x125;" horiz-adv-x="1148" 
d="M256 724v-724h-87v1490h87v-549h9q40 87 126 139t206 52q114 0 200 -47.5t134 -136t48 -211.5v-737h-88v733q0 144 -85 230.5t-225 86.5q-94 0 -167.5 -41t-115.5 -114t-42 -171zM410 1611l-196 218l-195 -218h-92v8l257 284h61l255 -284v-8h-90z" />
    <glyph glyph-name="Hbar" unicode="&#x126;" horiz-adv-x="1514" 
d="M1415 1112v-83h-1314v83h1314zM219 0v1490h92v-703h897v703h91v-1490h-91v703h-897v-703h-92z" />
    <glyph glyph-name="hbar" unicode="&#x127;" horiz-adv-x="1148" 
d="M256 724v-724h-87v1490h87v-549h9q40 87 126 139t206 52q114 0 200 -47.5t134 -136t48 -211.5v-737h-88v733q0 144 -85 230.5t-225 86.5q-94 0 -167.5 -41t-115.5 -114t-42 -171zM-78 1278v76h583v-76h-583z" />
    <glyph glyph-name="Itilde" unicode="&#x128;" horiz-adv-x="489" 
d="M291 1490v-1490h-92v1490h92zM383 1668q-44 0 -78 16t-64 37t-61 37.5t-68 16.5q-46 -1 -77 -30t-37 -72l-73 4q9 75 57.5 123t123.5 48q47 0 82 -16.5t65 -37.5t59.5 -37.5t64.5 -16.5q41 0 73.5 27t41.5 75l71 -8q-12 -74 -62 -120t-118 -46z" />
    <glyph glyph-name="itilde" unicode="&#x129;" horiz-adv-x="453" 
d="M184 0v1118h87v-1118h-87zM365 1296q-44 0 -78 16t-64 37t-61 37.5t-68 16.5q-46 -1 -77 -30t-37 -72l-73 4q9 75 57.5 123t123.5 48q47 0 82 -16.5t65 -37.5t59.5 -37.5t64.5 -16.5q41 0 73.5 27t41.5 75l71 -8q-12 -74 -62 -120t-118 -46z" />
    <glyph glyph-name="Imacron" unicode="&#x12a;" horiz-adv-x="489" 
d="M291 1490v-1490h-92v1490h92zM512 1795v-79h-537v79h537z" />
    <glyph glyph-name="imacron" unicode="&#x12b;" horiz-adv-x="425" 
d="M169 0v1118h87v-1118h-87zM480 1423v-79h-537v79h537z" />
    <glyph glyph-name="Ibreve" unicode="&#x12c;" horiz-adv-x="489" 
d="M291 1490v-1490h-92v1490h92zM245 1640q-94 0 -151.5 55.5t-57.5 146.5h84q0 -59 33.5 -95t91.5 -36q57 0 91 36t34 95h84q0 -91 -57.5 -146.5t-151.5 -55.5z" />
    <glyph glyph-name="ibreve" unicode="&#x12d;" horiz-adv-x="425" 
d="M169 0v1118h87v-1118h-87zM212 1268q-94 0 -151.5 55.5t-57.5 146.5h84q0 -59 33.5 -95t91.5 -36q57 0 91 36t34 95h84q0 -91 -57.5 -146.5t-151.5 -55.5z" />
    <glyph glyph-name="Iogonek" unicode="&#x12e;" horiz-adv-x="489" 
d="M291 1490v-1490h-92v1490h92zM223 -440q-81 0 -133 45.5t-51 131.5q0 54 22 101.5t65.5 93t107.5 89.5l57 -21q-72 -66 -117.5 -127t-45.5 -128q0 -54 28.5 -80t80.5 -26q32 0 56.5 9.5t47.5 24.5l21 -68q-29 -20 -63 -32.5t-76 -12.5z" />
    <glyph glyph-name="iogonek" unicode="&#x12f;" horiz-adv-x="398" 
d="M162 0v1118h87v-1118h-87zM182 -440q-81 0 -133 45.5t-51 131.5q0 54 22 101.5t65.5 93t107.5 89.5l57 -21q-72 -66 -117.5 -127t-45.5 -128q0 -54 28.5 -80t80.5 -26q32 0 56.5 9.5t47.5 24.5l21 -68q-29 -20 -63 -32.5t-76 -12.5zM186 1315q-30 0 -51 21t-21 49
q0 29 21 49.5t50 20.5q30 0 51 -20.5t21 -49.5q0 -28 -21 -49t-50 -21z" />
    <glyph glyph-name="Idotaccent" unicode="&#x130;" horiz-adv-x="489" 
d="M291 1490v-1490h-92v1490h92zM245 1687q-30 0 -51 21t-21 49q0 29 21 49.5t50 20.5q30 0 51 -20.5t21 -49.5q0 -28 -21 -49t-50 -21z" />
    <glyph glyph-name="dotlessi" unicode="&#x131;" horiz-adv-x="425" 
d="M169 0v1118h87v-1118h-87z" />
    <glyph glyph-name="IJ" unicode="&#x132;" horiz-adv-x="1537" 
d="M291 1490v-1490h-92v1490h92zM956 -20q-109 0 -195.5 41t-136.5 114t-50 168v17h90v-17q0 -69 38.5 -123.5t104.5 -85t149 -30.5q80 0 146.5 34t105.5 109.5t39 197.5v1085h91v-1085q0 -148 -51 -242t-137.5 -138.5t-193.5 -44.5z" />
    <glyph glyph-name="ij" unicode="&#x133;" horiz-adv-x="853" 
d="M169 0v1118h87v-1118h-87zM213 1315q-30 0 -51 21t-21 49q0 29 21 49.5t50 20.5q30 0 51 -20.5t21 -49.5q0 -28 -21 -49t-50 -21zM598 1118h87v-1253q0 -87 -35.5 -150.5t-97.5 -98t-144 -34.5h-24v84h23q82 0 136 52.5t55 146.5v1253zM641 1315q-30 0 -51 21t-21 49
q0 29 21 49.5t50 20.5q30 0 51 -20.5t21 -49.5q0 -28 -21 -49t-50 -21z" />
    <glyph glyph-name="Jcircumflex" unicode="&#x134;" horiz-adv-x="1047" 
d="M467 -20q-109 0 -195.5 41t-136.5 114t-50 168v17h90v-17q0 -69 38.5 -123.5t104.5 -85t149 -30.5q80 0 146.5 34t105.5 109.5t39 197.5v1085h91v-1085q0 -148 -51 -242t-137.5 -138.5t-193.5 -44.5zM999 1611l-196 218l-195 -218h-92v8l257 284h61l255 -284v-8h-90z" />
    <glyph glyph-name="jcircumflex" unicode="&#x135;" horiz-adv-x="429" 
d="M173 1118h87v-1253q0 -87 -35.5 -150.5t-97.5 -98t-144 -34.5h-24v84h23q82 0 136 52.5t55 146.5v1253zM412 1239l-196 218l-195 -218h-92v8l257 284h61l255 -284v-8h-90z" />
    <glyph glyph-name="uni0136" unicode="&#x136;" horiz-adv-x="1255" 
d="M199 0v1490h92v-865h10l784 865h121l-645 -705l640 -785h-114l-585 720l-211 -235v-485h-92zM491 -494l90 376h92l-113 -376h-69z" />
    <glyph glyph-name="uni0137" unicode="&#x137;" horiz-adv-x="1005" 
d="M245 436l-2 128h24l559 554h115l-512 -511l-10 -4zM169 0v1490h87v-1490h-87zM850 0l-471 595l65 60l521 -655h-115zM396 -494l90 376h92l-113 -376h-69z" />
    <glyph glyph-name="kgreenlandic" unicode="&#x138;" horiz-adv-x="1165" 
d="M267 1118v-1118h-98v1118h98zM983 1118l-564 -599l-195 2l-11 88h163l483 509h124zM857 0l-516 530l79 54l567 -584h-130z" />
    <glyph glyph-name="Lacute" unicode="&#x139;" horiz-adv-x="1120" 
d="M199 0v1490h92v-1406h727v-84h-819zM201 1645l183 300h103l-208 -300h-78z" />
    <glyph glyph-name="lacute" unicode="&#x13a;" horiz-adv-x="425" 
d="M256 1490v-1490h-87v1490h87zM169 1645l183 300h103l-208 -300h-78z" />
    <glyph glyph-name="uni013B" unicode="&#x13b;" horiz-adv-x="1120" 
d="M199 0v1490h92v-1406h727v-84h-819zM469 -494l90 376h92l-113 -376h-69z" />
    <glyph glyph-name="uni013C" unicode="&#x13c;" horiz-adv-x="425" 
d="M256 1490v-1490h-87v1490h87zM74 -494l90 376h92l-113 -376h-69z" />
    <glyph glyph-name="Lcaron" unicode="&#x13d;" horiz-adv-x="1113" 
d="M199 0v1490h92v-1406h727v-84h-819zM584 1182v378h94l-27 -378h-67z" />
    <glyph glyph-name="lcaron" unicode="&#x13e;" horiz-adv-x="471" 
d="M256 1490v-1490h-87v1490h87zM396 1182v378h94l-27 -378h-67z" />
    <glyph glyph-name="Ldot" unicode="&#x13f;" horiz-adv-x="1097" 
d="M195 0v1490h92v-1406h727v-84h-819zM659 712q-30 0 -51 21t-21 49q0 29 21 49.5t50 20.5q30 0 51 -20.5t21 -49.5q0 -28 -21 -49t-50 -21z" />
    <glyph glyph-name="ldot" unicode="&#x140;" horiz-adv-x="482" 
d="M251 1490v-1490h-87v1490h87zM422 735q-30 0 -51 21t-21 49q0 29 21 49.5t50 20.5q30 0 51 -20.5t21 -49.5q0 -28 -21 -49t-50 -21z" />
    <glyph glyph-name="Lslash" unicode="&#x141;" horiz-adv-x="1088" 
d="M533 885v-76l-534 -187v78zM156 0v1490h92v-1406h727v-84h-819z" />
    <glyph glyph-name="lslash" unicode="&#x142;" horiz-adv-x="399" 
d="M413 894v-77l-427 -184v76zM243 1490v-1490h-88v1490h88z" />
    <glyph glyph-name="Nacute" unicode="&#x143;" horiz-adv-x="1537" 
d="M1339 1490v-1490h-90l-949 1325h-9v-1325h-92v1490h90l950 -1325h9v1325h91zM725 1645l183 300h103l-208 -300h-78z" />
    <glyph glyph-name="nacute" unicode="&#x144;" horiz-adv-x="1144" 
d="M256 724v-724h-87v1118h85v-177h9q40 86 126.5 138.5t205.5 52.5q113 0 198.5 -47.5t133.5 -136t48 -211.5v-737h-87v733q0 143 -85.5 230t-224.5 87q-92 0 -165 -41t-115 -114t-42 -171zM529 1273l183 300h103l-208 -300h-78z" />
    <glyph glyph-name="uni0145" unicode="&#x145;" horiz-adv-x="1537" 
d="M1339 1490v-1490h-90l-949 1325h-9v-1325h-92v1490h90l950 -1325h9v1325h91zM630 -494l90 376h92l-113 -376h-69z" />
    <glyph glyph-name="uni0146" unicode="&#x146;" horiz-adv-x="1144" 
d="M256 724v-724h-87v1118h85v-177h9q40 86 126.5 138.5t205.5 52.5q113 0 198.5 -47.5t133.5 -136t48 -211.5v-737h-87v733q0 143 -85.5 230t-224.5 87q-92 0 -165 -41t-115 -114t-42 -171zM433 -494l90 376h92l-113 -376h-69z" />
    <glyph glyph-name="Ncaron" unicode="&#x147;" horiz-adv-x="1537" 
d="M1339 1490v-1490h-90l-949 1325h-9v-1325h-92v1490h90l950 -1325h9v1325h91zM573 1929l196 -217l195 217h92v-8l-257 -284h-61l-255 284v8h90z" />
    <glyph glyph-name="ncaron" unicode="&#x148;" horiz-adv-x="1144" 
d="M256 724v-724h-87v1118h85v-177h9q40 86 126.5 138.5t205.5 52.5q113 0 198.5 -47.5t133.5 -136t48 -211.5v-737h-87v733q0 143 -85.5 230t-224.5 87q-92 0 -165 -41t-115 -114t-42 -171zM377 1557l196 -217l195 217h92v-8l-257 -284h-61l-255 284v8h90z" />
    <glyph glyph-name="Eng" unicode="&#x14a;" horiz-adv-x="1537" 
d="M1249 0h89v-152q0 -85 -29 -144.5t-80.5 -90t-121.5 -30.5q-19 0 -38 1.5t-32 5.5v80q9 -2 23 -3.5t30 -2.5q75 1 116.5 44.5t42.5 140.5v151zM1339 1490v-1490h-90l-949 1325h-9v-1325h-92v1490h90l950 -1325h9v1325h91z" />
    <glyph glyph-name="eng" unicode="&#x14b;" horiz-adv-x="1144" 
d="M887 0h88v-155q0 -128 -62.5 -196t-166.5 -67q-23 -1 -44 1.5t-37 9.5v76q13 -3 29.5 -5t35.5 -2q74 0 115.5 43t41.5 140v155zM256 724v-724h-87v1118h85v-177h9q40 86 126.5 138.5t205.5 52.5q113 0 198.5 -47.5t133.5 -136t48 -211.5v-737h-87v733q0 143 -85.5 230
t-224.5 87q-92 0 -165 -41t-115 -114t-42 -171z" />
    <glyph glyph-name="Omacron" unicode="&#x14c;" horiz-adv-x="1508" 
d="M755 -20q-186 0 -328.5 95.5t-223 267.5t-80.5 401q0 231 80.5 403t223 267.5t328.5 95.5t328 -95.5t222 -267.5t80 -403q0 -230 -80 -402t-222 -267t-328 -95zM755 67q158 0 280 83t191.5 235.5t69.5 358.5q0 207 -69.5 359.5t-191.5 236t-280 83.5t-280.5 -82.5
t-192.5 -235t-70 -361.5q0 -206 69.5 -358t192 -235.5t281.5 -83.5zM1023 1795v-79h-537v79h537z" />
    <glyph glyph-name="omacron" unicode="&#x14d;" horiz-adv-x="1166" 
d="M583 -24q-138 0 -246 75t-170 205.5t-62 298.5t62 298.5t170 205t246 74.5t246 -74.5t170 -205.5t62 -298q0 -168 -62 -298.5t-169.5 -205.5t-246.5 -75zM583 58q118 0 205.5 66.5t136 179t48.5 251.5q0 138 -49 250.5t-136 179t-205 66.5q-116 0 -204 -66.5t-137 -179
t-49 -250.5q0 -139 49 -251.5t136.5 -179t204.5 -66.5zM851 1423v-79h-537v79h537z" />
    <glyph glyph-name="Obreve" unicode="&#x14e;" horiz-adv-x="1508" 
d="M755 -20q-186 0 -328.5 95.5t-223 267.5t-80.5 401q0 231 80.5 403t223 267.5t328.5 95.5t328 -95.5t222 -267.5t80 -403q0 -230 -80 -402t-222 -267t-328 -95zM755 67q158 0 280 83t191.5 235.5t69.5 358.5q0 207 -69.5 359.5t-191.5 236t-280 83.5t-280.5 -82.5
t-192.5 -235t-70 -361.5q0 -206 69.5 -358t192 -235.5t281.5 -83.5zM755 1640q-94 0 -151.5 55.5t-57.5 146.5h84q0 -59 33.5 -95t91.5 -36q57 0 91 36t34 95h84q0 -91 -57.5 -146.5t-151.5 -55.5z" />
    <glyph glyph-name="obreve" unicode="&#x14f;" horiz-adv-x="1166" 
d="M583 -24q-138 0 -246 75t-170 205.5t-62 298.5t62 298.5t170 205t246 74.5t246 -74.5t170 -205.5t62 -298q0 -168 -62 -298.5t-169.5 -205.5t-246.5 -75zM583 58q118 0 205.5 66.5t136 179t48.5 251.5q0 138 -49 250.5t-136 179t-205 66.5q-116 0 -204 -66.5t-137 -179
t-49 -250.5q0 -139 49 -251.5t136.5 -179t204.5 -66.5zM584 1268q-94 0 -151.5 55.5t-57.5 146.5h84q0 -59 33.5 -95t91.5 -36q57 0 91 36t34 95h84q0 -91 -57.5 -146.5t-151.5 -55.5z" />
    <glyph glyph-name="Ohungarumlaut" unicode="&#x150;" horiz-adv-x="1508" 
d="M755 -20q-186 0 -328.5 95.5t-223 267.5t-80.5 401q0 231 80.5 403t223 267.5t328.5 95.5t328 -95.5t222 -267.5t80 -403q0 -230 -80 -402t-222 -267t-328 -95zM755 67q158 0 280 83t191.5 235.5t69.5 358.5q0 207 -69.5 359.5t-191.5 236t-280 83.5t-280.5 -82.5
t-192.5 -235t-70 -361.5q0 -206 69.5 -358t192 -235.5t281.5 -83.5zM795 1608l248 312h104l-271 -312h-81zM552 1608l189 312h103l-216 -312h-76z" />
    <glyph glyph-name="ohungarumlaut" unicode="&#x151;" horiz-adv-x="1166" 
d="M583 -24q-138 0 -246 75t-170 205.5t-62 298.5t62 298.5t170 205t246 74.5t246 -74.5t170 -205.5t62 -298q0 -168 -62 -298.5t-169.5 -205.5t-246.5 -75zM583 58q118 0 205.5 66.5t136 179t48.5 251.5q0 138 -49 250.5t-136 179t-205 66.5q-116 0 -204 -66.5t-137 -179
t-49 -250.5q0 -139 49 -251.5t136.5 -179t204.5 -66.5zM623 1236l248 312h104l-271 -312h-81zM380 1236l189 312h103l-216 -312h-76z" />
    <glyph glyph-name="OE" unicode="&#x152;" horiz-adv-x="1907" 
d="M755 0q-188 0 -330.5 93.5t-222 261.5t-79.5 389q0 223 79.5 391t222 261.5t330.5 93.5h217v-85h-217q-161 0 -283 -82t-190.5 -231t-69.5 -348q1 -195 69 -343.5t190 -232t284 -84.5h217v-84h-217zM932 0v1490h829v-85h-737v-616h693v-84h-693v-621h755v-84h-847z" />
    <glyph glyph-name="oe" unicode="&#x153;" horiz-adv-x="2016" 
d="M583 -24q-138 0 -246 75t-170 205.5t-62 298.5t62 298.5t170 205t246 74.5t246 -74.5t170 -205.5t62 -298q0 -168 -62 -298.5t-169.5 -205.5t-246.5 -75zM583 58q118 0 205.5 66.5t136 179t48.5 251.5q0 138 -49 250.5t-136 179t-205 66.5q-116 0 -204 -66.5t-137 -179
t-49 -250.5q0 -139 49 -251.5t136.5 -179t204.5 -66.5zM1474 -24q-151 0 -263 75t-173.5 206t-61.5 297q0 167 61.5 298t169 206t245.5 75q95 0 179 -37t148.5 -108.5t101.5 -174t37 -232.5v-42h-885v80h837l-40 -32q0 130 -47 235.5t-132 167t-199 61.5
q-111 0 -198.5 -62.5t-138.5 -167.5t-51 -235v-37q0 -140 49 -251t141 -175.5t220 -64.5q92 0 157 31t107 76t62 86l81 -33q-25 -56 -78.5 -112t-135.5 -93t-193 -37z" />
    <glyph glyph-name="Racute" unicode="&#x154;" horiz-adv-x="1245" 
d="M199 0v1490h460q141 0 242.5 -55t155.5 -153.5t54 -228.5q0 -127 -54 -224.5t-155 -152t-243 -54.5h-411v86h409q114 0 195.5 42.5t125 120t43.5 182.5q0 107 -43.5 185.5t-125 122.5t-195.5 44h-366v-1405h-92zM1073 0l-364 675h102l366 -675h-104zM573 1645l183 300
h103l-208 -300h-78z" />
    <glyph glyph-name="racute" unicode="&#x155;" horiz-adv-x="666" 
d="M169 0v1118h85v-175h8q37 85 123.5 137.5t196.5 52.5q12 0 23.5 -0.5t22.5 -0.5v-89q-6 1 -20 2.5t-31 1.5q-93 0 -165.5 -40.5t-114 -110.5t-41.5 -161v-735h-87zM366 1273l183 300h103l-208 -300h-78z" />
    <glyph glyph-name="uni0156" unicode="&#x156;" horiz-adv-x="1245" 
d="M199 0v1490h460q141 0 242.5 -55t155.5 -153.5t54 -228.5q0 -127 -54 -224.5t-155 -152t-243 -54.5h-411v86h409q114 0 195.5 42.5t125 120t43.5 182.5q0 107 -43.5 185.5t-125 122.5t-195.5 44h-366v-1405h-92zM1073 0l-364 675h102l366 -675h-104zM500 -494l90 376h92
l-113 -376h-69z" />
    <glyph glyph-name="uni0157" unicode="&#x157;" horiz-adv-x="666" 
d="M169 0v1118h85v-175h8q37 85 123.5 137.5t196.5 52.5q12 0 23.5 -0.5t22.5 -0.5v-89q-6 1 -20 2.5t-31 1.5q-93 0 -165.5 -40.5t-114 -110.5t-41.5 -161v-735h-87zM74 -494l90 376h92l-113 -376h-69z" />
    <glyph glyph-name="Rcaron" unicode="&#x158;" horiz-adv-x="1245" 
d="M199 0v1490h460q141 0 242.5 -55t155.5 -153.5t54 -228.5q0 -127 -54 -224.5t-155 -152t-243 -54.5h-411v86h409q114 0 195.5 42.5t125 120t43.5 182.5q0 107 -43.5 185.5t-125 122.5t-195.5 44h-366v-1405h-92zM1073 0l-364 675h102l366 -675h-104zM421 1929l196 -217
l195 217h92v-8l-257 -284h-61l-255 284v8h90z" />
    <glyph glyph-name="rcaron" unicode="&#x159;" horiz-adv-x="666" 
d="M169 0v1118h85v-175h8q37 85 123.5 137.5t196.5 52.5q12 0 23.5 -0.5t22.5 -0.5v-89q-6 1 -20 2.5t-31 1.5q-93 0 -165.5 -40.5t-114 -110.5t-41.5 -161v-735h-87zM214 1557l196 -217l195 217h92v-8l-257 -284h-61l-255 284v8h90z" />
    <glyph glyph-name="Sacute" unicode="&#x15a;" horiz-adv-x="1239" 
d="M616 -25q-144 0 -250.5 49t-168 136t-69.5 201h93q7 -92 59 -159.5t138.5 -104t197.5 -36.5q120 0 211.5 41t143.5 115t52 171q0 78 -37.5 133.5t-109.5 96.5t-179 73l-173 52q-176 54 -267.5 145.5t-91.5 228.5q0 115 60.5 204t166 139.5t237.5 50.5q133 0 234.5 -51
t161.5 -139.5t66 -202.5h-89q-12 138 -113.5 223.5t-261.5 85.5q-108 0 -193 -39.5t-133 -109t-48 -159.5q0 -76 39 -132.5t108.5 -96t158.5 -66.5l163 -49q83 -25 154 -58.5t124 -79.5t82 -107.5t29 -142.5q0 -118 -60.5 -211t-171.5 -147t-263 -54zM576 1645l183 300h103
l-208 -300h-78z" />
    <glyph glyph-name="sacute" unicode="&#x15b;" horiz-adv-x="998" 
d="M877 877l-82 -22q-30 91 -96.5 144.5t-181.5 53.5q-123 0 -201 -61t-78 -159q0 -80 52.5 -133t160.5 -80l173 -43q131 -32 199 -104.5t68 -180.5q0 -93 -50 -164t-139 -111.5t-205 -40.5q-156 0 -256.5 74t-129.5 210l84 21q25 -110 101.5 -167t200.5 -57q136 0 220 65.5
t84 166.5q0 158 -199 207l-178 44q-137 34 -205.5 108t-68.5 181q0 91 47 159t130 106.5t190 38.5q142 0 231 -66.5t129 -189.5zM469 1273l183 300h103l-208 -300h-78z" />
    <glyph glyph-name="Scircumflex" unicode="&#x15c;" horiz-adv-x="1239" 
d="M616 -25q-144 0 -250.5 49t-168 136t-69.5 201h93q7 -92 59 -159.5t138.5 -104t197.5 -36.5q120 0 211.5 41t143.5 115t52 171q0 78 -37.5 133.5t-109.5 96.5t-179 73l-173 52q-176 54 -267.5 145.5t-91.5 228.5q0 115 60.5 204t166 139.5t237.5 50.5q133 0 234.5 -51
t161.5 -139.5t66 -202.5h-89q-12 138 -113.5 223.5t-261.5 85.5q-108 0 -193 -39.5t-133 -109t-48 -159.5q0 -76 39 -132.5t108.5 -96t158.5 -66.5l163 -49q83 -25 154 -58.5t124 -79.5t82 -107.5t29 -142.5q0 -118 -60.5 -211t-171.5 -147t-263 -54zM817 1611l-196 218
l-196 -218h-92v8l258 284h60l256 -284v-8h-90z" />
    <glyph glyph-name="scircumflex" unicode="&#x15d;" horiz-adv-x="998" 
d="M877 877l-82 -22q-30 91 -96.5 144.5t-181.5 53.5q-123 0 -201 -61t-78 -159q0 -80 52.5 -133t160.5 -80l173 -43q131 -32 199 -104.5t68 -180.5q0 -93 -50 -164t-139 -111.5t-205 -40.5q-156 0 -256.5 74t-129.5 210l84 21q25 -110 101.5 -167t200.5 -57q136 0 220 65.5
t84 166.5q0 158 -199 207l-178 44q-137 34 -205.5 108t-68.5 181q0 91 47 159t130 106.5t190 38.5q142 0 231 -66.5t129 -189.5zM710 1239l-196 218l-195 -218h-92v8l257 284h61l255 -284v-8h-90z" />
    <glyph glyph-name="Scedilla" unicode="&#x15e;" horiz-adv-x="1239" 
d="M616 -25q-144 0 -250.5 49t-168 136t-69.5 201h93q7 -92 59 -159.5t138.5 -104t197.5 -36.5q120 0 211.5 41t143.5 115t52 171q0 78 -37.5 133.5t-109.5 96.5t-179 73l-173 52q-176 54 -267.5 145.5t-91.5 228.5q0 115 60.5 204t166 139.5t237.5 50.5q133 0 234.5 -51
t161.5 -139.5t66 -202.5h-89q-12 138 -113.5 223.5t-261.5 85.5q-108 0 -193 -39.5t-133 -109t-48 -159.5q0 -76 39 -132.5t108.5 -96t158.5 -66.5l163 -49q83 -25 154 -58.5t124 -79.5t82 -107.5t29 -142.5q0 -118 -60.5 -211t-171.5 -147t-263 -54zM580 6h79l-12 -58
q69 -11 110 -54t42 -117q-1 -82 -59.5 -126t-173.5 -47l-3 70q77 1 115 25.5t39 75.5q-1 60 -40.5 87.5t-120.5 28.5z" />
    <glyph glyph-name="scedilla" unicode="&#x15f;" horiz-adv-x="998" 
d="M877 877l-82 -22q-30 91 -96.5 144.5t-181.5 53.5q-123 0 -201 -61t-78 -159q0 -80 52.5 -133t160.5 -80l173 -43q131 -32 199 -104.5t68 -180.5q0 -93 -50 -164t-139 -111.5t-205 -40.5q-156 0 -256.5 74t-129.5 210l84 21q25 -110 101.5 -167t200.5 -57q136 0 220 65.5
t84 166.5q0 158 -199 207l-178 44q-137 34 -205.5 108t-68.5 181q0 91 47 159t130 106.5t190 38.5q142 0 231 -66.5t129 -189.5zM466 6h79l-12 -58q69 -11 110 -54t42 -117q-1 -82 -59.5 -126t-173.5 -47l-3 70q77 1 115 25.5t39 75.5q-1 60 -40.5 87.5t-120.5 28.5z" />
    <glyph glyph-name="Scaron" unicode="&#x160;" horiz-adv-x="1239" 
d="M616 -25q-144 0 -250.5 49t-168 136t-69.5 201h93q7 -92 59 -159.5t138.5 -104t197.5 -36.5q120 0 211.5 41t143.5 115t52 171q0 78 -37.5 133.5t-109.5 96.5t-179 73l-173 52q-176 54 -267.5 145.5t-91.5 228.5q0 115 60.5 204t166 139.5t237.5 50.5q133 0 234.5 -51
t161.5 -139.5t66 -202.5h-89q-12 138 -113.5 223.5t-261.5 85.5q-108 0 -193 -39.5t-133 -109t-48 -159.5q0 -76 39 -132.5t108.5 -96t158.5 -66.5l163 -49q83 -25 154 -58.5t124 -79.5t82 -107.5t29 -142.5q0 -118 -60.5 -211t-171.5 -147t-263 -54zM424 1929l196 -217
l195 217h92v-8l-257 -284h-61l-255 284v8h90z" />
    <glyph glyph-name="scaron" unicode="&#x161;" horiz-adv-x="998" 
d="M877 877l-82 -22q-30 91 -96.5 144.5t-181.5 53.5q-123 0 -201 -61t-78 -159q0 -80 52.5 -133t160.5 -80l173 -43q131 -32 199 -104.5t68 -180.5q0 -93 -50 -164t-139 -111.5t-205 -40.5q-156 0 -256.5 74t-129.5 210l84 21q25 -110 101.5 -167t200.5 -57q136 0 220 65.5
t84 166.5q0 158 -199 207l-178 44q-137 34 -205.5 108t-68.5 181q0 91 47 159t130 106.5t190 38.5q142 0 231 -66.5t129 -189.5zM317 1557l196 -217l195 217h92v-8l-257 -284h-61l-255 284v8h90z" />
    <glyph glyph-name="uni021A" unicode="&#x162;" horiz-adv-x="1243" 
d="M101 1405v85h1043v-85h-476v-1405h-91v1405h-476zM588 2h79l-12 -58q69 -11 110 -54t42 -117q-1 -82 -59.5 -126t-173.5 -47l-3 70q77 1 115 25.5t39 75.5q-1 60 -40.5 87.5t-120.5 28.5z" />
    <glyph glyph-name="uni0163" unicode="&#x163;" horiz-adv-x="691" 
d="M562 1118v-79h-487v79h487zM240 1384h87v-1120q0 -94 54 -145t136 -51q20 0 38 3t38 9l22 -79q-23 -9 -48.5 -14t-54.5 -5q-114 0 -193 72.5t-79 194.5v1135zM416 6h79l-12 -58q69 -11 110 -54t42 -117q-1 -82 -59.5 -126t-173.5 -47l-3 70q77 1 115 25.5t39 75.5
q-1 60 -40.5 87.5t-120.5 28.5z" />
    <glyph glyph-name="Tcaron" unicode="&#x164;" horiz-adv-x="1243" 
d="M101 1405v85h1043v-85h-476v-1405h-91v1405h-476zM426 1929l196 -217l195 217h92v-8l-257 -284h-61l-255 284v8h90z" />
    <glyph glyph-name="tcaron" unicode="&#x165;" horiz-adv-x="691" 
d="M562 1118v-79h-487v79h487zM240 1384h87v-1120q0 -94 54 -145t136 -51q20 0 38 3t38 9l22 -79q-23 -9 -48.5 -14t-54.5 -5q-114 0 -193 72.5t-79 194.5v1135zM464 1254v378h94l-27 -378h-67z" />
    <glyph glyph-name="Tbar" unicode="&#x166;" horiz-adv-x="1243" 
d="M101 1405v85h1043v-85h-476v-1405h-91v1405h-476zM331 729v76h583v-76h-583z" />
    <glyph glyph-name="tbar" unicode="&#x167;" horiz-adv-x="704" 
d="M75 670v75h515v-75h-515zM253 1384h88v-1120q0 -94 54 -145t136 -51q19 0 37.5 3t38.5 9l21 -79q-23 -9 -48.5 -14t-54.5 -5q-113 0 -192.5 72.5t-79.5 194.5v1135zM575 1118v-79h-487v79h487z" />
    <glyph glyph-name="Utilde" unicode="&#x168;" horiz-adv-x="1498" 
d="M1207 1490h92v-986q0 -152 -70.5 -271.5t-194.5 -188.5t-285 -69q-159 0 -283.5 69t-195.5 188.5t-71 271.5v986h92v-981q0 -129 58 -229.5t162 -158.5t238 -58q136 0 239 58t161 158.5t58 229.5v981zM888 1668q-44 0 -78 16t-64 37t-61 37.5t-68 16.5q-46 -1 -77 -30
t-37 -72l-73 4q9 75 57.5 123t123.5 48q47 0 82 -16.5t65 -37.5t59.5 -37.5t64.5 -16.5q41 0 73.5 27t41.5 75l71 -8q-12 -74 -62 -120t-118 -46z" />
    <glyph glyph-name="utilde" unicode="&#x169;" horiz-adv-x="1141" 
d="M885 396v722h87v-1118h-87v182h-8q-40 -87 -127.5 -142t-207.5 -54q-109 0 -193.5 47.5t-132 136t-47.5 210.5v738h87v-735q0 -139 85 -225t220 -86q88 0 161.5 39.5t118 112.5t44.5 172zM709 1296q-44 0 -78 16t-64 37t-61 37.5t-68 16.5q-46 -1 -77 -30t-37 -72l-73 4
q9 75 57.5 123t123.5 48q47 0 82 -16.5t65 -37.5t59.5 -37.5t64.5 -16.5q41 0 73.5 27t41.5 75l71 -8q-12 -74 -62 -120t-118 -46z" />
    <glyph glyph-name="Umacron" unicode="&#x16a;" horiz-adv-x="1498" 
d="M1207 1490h92v-986q0 -152 -70.5 -271.5t-194.5 -188.5t-285 -69q-159 0 -283.5 69t-195.5 188.5t-71 271.5v986h92v-981q0 -129 58 -229.5t162 -158.5t238 -58q136 0 239 58t161 158.5t58 229.5v981zM1017 1795v-79h-537v79h537z" />
    <glyph glyph-name="umacron" unicode="&#x16b;" horiz-adv-x="1141" 
d="M885 396v722h87v-1118h-87v182h-8q-40 -87 -127.5 -142t-207.5 -54q-109 0 -193.5 47.5t-132 136t-47.5 210.5v738h87v-735q0 -139 85 -225t220 -86q88 0 161.5 39.5t118 112.5t44.5 172zM838 1423v-79h-537v79h537z" />
    <glyph glyph-name="Ubreve" unicode="&#x16c;" horiz-adv-x="1498" 
d="M1207 1490h92v-986q0 -152 -70.5 -271.5t-194.5 -188.5t-285 -69q-159 0 -283.5 69t-195.5 188.5t-71 271.5v986h92v-981q0 -129 58 -229.5t162 -158.5t238 -58q136 0 239 58t161 158.5t58 229.5v981zM750 1640q-94 0 -151.5 55.5t-57.5 146.5h84q0 -59 33.5 -95
t91.5 -36q57 0 91 36t34 95h84q0 -91 -57.5 -146.5t-151.5 -55.5z" />
    <glyph glyph-name="ubreve" unicode="&#x16d;" horiz-adv-x="1141" 
d="M885 396v722h87v-1118h-87v182h-8q-40 -87 -127.5 -142t-207.5 -54q-109 0 -193.5 47.5t-132 136t-47.5 210.5v738h87v-735q0 -139 85 -225t220 -86q88 0 161.5 39.5t118 112.5t44.5 172zM571 1268q-94 0 -151.5 55.5t-57.5 146.5h84q0 -59 33.5 -95t91.5 -36q57 0 91 36
t34 95h84q0 -91 -57.5 -146.5t-151.5 -55.5z" />
    <glyph glyph-name="Uring" unicode="&#x16e;" horiz-adv-x="1498" 
d="M1207 1490h92v-986q0 -152 -70.5 -271.5t-194.5 -188.5t-285 -69q-159 0 -283.5 69t-195.5 188.5t-71 271.5v986h92v-981q0 -129 58 -229.5t162 -158.5t238 -58q136 0 239 58t161 158.5t58 229.5v981zM749 1572q-75 0 -127.5 53t-52.5 128t52.5 128t127.5 53
q76 0 128.5 -53t52.5 -128t-52.5 -128t-128.5 -53zM749 1637q49 1 82 34.5t33 81.5t-33 81t-82 34q-48 -1 -81 -34t-32 -81q-1 -48 32.5 -81.5t80.5 -34.5z" />
    <glyph glyph-name="uring" unicode="&#x16f;" horiz-adv-x="1141" 
d="M885 396v722h87v-1118h-87v182h-8q-40 -87 -127.5 -142t-207.5 -54q-109 0 -193.5 47.5t-132 136t-47.5 210.5v738h87v-735q0 -139 85 -225t220 -86q88 0 161.5 39.5t118 112.5t44.5 172zM570 1251q-55 1 -100 26.5t-71.5 69.5t-26.5 98t26.5 98.5t71.5 71t100 26.5
q56 0 101 -26.5t71 -71t26 -98.5t-26 -98t-71 -69.5t-101 -26.5zM570 1320q54 0 90.5 37.5t36.5 87.5q0 51 -36.5 89t-90.5 38q-53 0 -89.5 -38t-35.5 -89q-1 -50 35.5 -87.5t89.5 -37.5z" />
    <glyph glyph-name="Uhungarumlaut" unicode="&#x170;" horiz-adv-x="1498" 
d="M1207 1490h92v-986q0 -152 -70.5 -271.5t-194.5 -188.5t-285 -69q-159 0 -283.5 69t-195.5 188.5t-71 271.5v986h92v-981q0 -129 58 -229.5t162 -158.5t238 -58q136 0 239 58t161 158.5t58 229.5v981zM789 1608l248 312h104l-271 -312h-81zM546 1608l189 312h103
l-216 -312h-76z" />
    <glyph glyph-name="uhungarumlaut" unicode="&#x171;" horiz-adv-x="1141" 
d="M885 396v722h87v-1118h-87v182h-8q-40 -87 -127.5 -142t-207.5 -54q-109 0 -193.5 47.5t-132 136t-47.5 210.5v738h87v-735q0 -139 85 -225t220 -86q88 0 161.5 39.5t118 112.5t44.5 172zM611 1236l248 312h104l-271 -312h-81zM368 1236l189 312h103l-216 -312h-76z" />
    <glyph glyph-name="Uogonek" unicode="&#x172;" horiz-adv-x="1498" 
d="M1207 1490h92v-986q0 -152 -70.5 -271.5t-194.5 -188.5t-285 -69q-159 0 -283.5 69t-195.5 188.5t-71 271.5v986h92v-981q0 -129 58 -229.5t162 -158.5t238 -58q136 0 239 58t161 158.5t58 229.5v981zM770 -439q-81 0 -133 45.5t-51 131.5q0 54 22 101.5t65.5 93
t107.5 89.5l57 -21q-72 -66 -117.5 -127t-45.5 -128q0 -54 28.5 -80t80.5 -26q32 0 56.5 9.5t47.5 24.5l21 -68q-29 -20 -63 -32.5t-76 -12.5z" />
    <glyph glyph-name="uogonek" unicode="&#x173;" horiz-adv-x="1141" 
d="M885 396v722h87v-1118h-87v182h-8q-40 -87 -127.5 -142t-207.5 -54q-109 0 -193.5 47.5t-132 136t-47.5 210.5v738h87v-735q0 -139 85 -225t220 -86q88 0 161.5 39.5t118 112.5t44.5 172zM904 -440q-81 0 -133 45.5t-51 131.5q0 54 22 101.5t65.5 93t107.5 89.5l57 -21
q-72 -66 -117.5 -127t-45.5 -128q0 -54 28.5 -80t80.5 -26q32 0 56.5 9.5t47.5 24.5l21 -68q-29 -20 -63 -32.5t-76 -12.5z" />
    <glyph glyph-name="Wcircumflex" unicode="&#x174;" horiz-adv-x="1833" 
d="M446 0l-409 1490h94l364 -1350h9l358 1350h110l358 -1350h9l363 1350h94l-410 -1490h-104l-362 1339h-8l-361 -1339h-105zM1114 1611l-196 218l-196 -218h-92v8l258 284h60l256 -284v-8h-90z" />
    <glyph glyph-name="wcircumflex" unicode="&#x175;" horiz-adv-x="1601" 
d="M411 0l-334 1118h93l289 -988h8l288 988h92l288 -987h8l288 987h92l-333 -1118h-99l-286 973h-9l-286 -973h-99zM997 1239l-196 218l-196 -218h-92v8l258 284h60l256 -284v-8h-90z" />
    <glyph glyph-name="Ycircumflex" unicode="&#x176;" horiz-adv-x="1259" 
d="M48 1490h107l470 -719h10l468 719h108l-536 -815v-675h-90v675zM826 1611l-196 218l-195 -218h-92v8l257 284h61l255 -284v-8h-90z" />
    <glyph glyph-name="ycircumflex" unicode="&#x177;" horiz-adv-x="1061" 
d="M239 -418q-34 -1 -66.5 6.5t-58.5 18.5l27 77l12 -4q98 -34 168 4.5t114 160.5l51 140l-409 1133h95l355 -1004h8l354 1004h96l-472 -1308q-27 -76 -67.5 -127t-92.5 -76t-114 -25zM728 1239l-196 218l-195 -218h-92v8l257 284h61l255 -284v-8h-90z" />
    <glyph glyph-name="Ydieresis" unicode="&#x178;" horiz-adv-x="1259" 
d="M48 1490h107l470 -719h10l468 719h108l-536 -815v-675h-90v675zM467 1687q-28 0 -49 21t-21 49q0 30 21 50t49 20q30 0 50 -20t20 -50q0 -28 -20 -49t-50 -21zM792 1687q-28 0 -48.5 21t-20.5 49q0 30 20.5 50t48.5 20q30 0 50 -20t21 -50q-1 -28 -21 -49t-50 -21z" />
    <glyph glyph-name="Zacute" unicode="&#x179;" horiz-adv-x="1221" 
d="M130 0v74l852 1331h-851v85h960v-76l-852 -1330h858v-84h-967zM567 1645l183 300h103l-208 -300h-78z" />
    <glyph glyph-name="zacute" unicode="&#x17a;" horiz-adv-x="1032" 
d="M131 0v74l657 951v8h-622v85h734v-78l-651 -948v-8h678v-84h-796zM471 1273l183 300h103l-208 -300h-78z" />
    <glyph glyph-name="Zdotaccent" unicode="&#x17b;" horiz-adv-x="1221" 
d="M130 0v74l852 1331h-851v85h960v-76l-852 -1330h858v-84h-967zM611 1687q-30 0 -51 21t-21 49q0 29 21 49.5t50 20.5q30 0 51 -20.5t21 -49.5q0 -28 -21 -49t-50 -21z" />
    <glyph glyph-name="zdotaccent" unicode="&#x17c;" horiz-adv-x="1032" 
d="M131 0v74l657 951v8h-622v85h734v-78l-651 -948v-8h678v-84h-796zM515 1315q-30 0 -51 21t-21 49q0 29 21 49.5t50 20.5q30 0 51 -20.5t21 -49.5q0 -28 -21 -49t-50 -21z" />
    <glyph glyph-name="Zcaron" unicode="&#x17d;" horiz-adv-x="1221" 
d="M130 0v74l852 1331h-851v85h960v-76l-852 -1330h858v-84h-967zM415 1929l196 -217l195 217h92v-8l-257 -284h-61l-255 284v8h90z" />
    <glyph glyph-name="zcaron" unicode="&#x17e;" horiz-adv-x="1032" 
d="M131 0v74l657 951v8h-622v85h734v-78l-651 -948v-8h678v-84h-796zM319 1557l196 -217l195 217h92v-8l-257 -284h-61l-255 284v8h90z" />
    <glyph glyph-name="longs" unicode="&#x17f;" horiz-adv-x="449" 
d="M126 0h-97v1265q-1 137 81.5 214.5t206.5 77.5q26 0 53.5 -4t51.5 -11l-15 -79q-20 6 -38.5 8t-36.5 2q-91 0 -148 -55t-58 -153v-1265z" />
    <glyph glyph-name="bbar" unicode="&#x180;" horiz-adv-x="1177" 
d="M627 -24q-96 0 -167.5 37t-120 98t-74.5 133h-11v-244h-85v1490h87v-622h9q25 72 73.5 132.5t120 96.5t167.5 36q134 0 234 -74t155.5 -204.5t55.5 -298.5q0 -169 -55 -300t-155 -205.5t-234 -74.5zM619 58q115 0 196 66t124.5 179t43.5 254q0 140 -43 252t-124.5 177
t-196.5 65q-113 0 -194.5 -64t-125.5 -176t-44 -254q0 -143 44 -256t125.5 -178t194.5 -65zM-35 1265v76h583v-76h-583z" />
    <glyph glyph-name="uni0181" unicode="&#x181;" horiz-adv-x="1524" 
d="M467 1405h-133q-56 0 -88 -21t-45 -62t-13 -103v-36h-87v68q0 109 59 173.5t171 65.5h136v-85zM436 0v1490h485q135 0 228 -48t141 -135t48 -201q0 -91 -29 -160.5t-81 -115t-121 -63.5v-8q77 -6 142.5 -54t106 -129t40.5 -189q0 -114 -49 -201.5t-146 -136.5t-242 -49
h-523zM528 84h431q169 0 259 84.5t90 218.5q0 94 -43.5 168t-121.5 117t-180 43h-435v-631zM528 798h424q95 0 161.5 41.5t101.5 111.5t35 155q0 138 -85.5 218.5t-243.5 80.5h-393v-607z" />
    <glyph glyph-name="uni0182" unicode="&#x182;" horiz-adv-x="1306" 
d="M199 0v1490h840v-85h-748v-600h467q138 1 237 -47t152.5 -135.5t53.5 -206.5q0 -126 -53.5 -219.5t-152 -145t-237.5 -51.5h-559zM291 83h467q112 1 190.5 43t119.5 117.5t41 175.5q1 133 -93.5 217.5t-257.5 84.5h-467v-638z" />
    <glyph glyph-name="uni0183" unicode="&#x183;" horiz-adv-x="1177" 
d="M214 1411l-45 79h736v-79h-691zM627 -24q-96 0 -167.5 37t-120 98t-74.5 133h-11v-244h-85v1490h87v-622h9q25 72 73.5 132.5t120 96.5t167.5 36q134 0 234 -74t155.5 -204.5t55.5 -298.5q0 -169 -55 -300t-155 -205.5t-234 -74.5zM619 58q115 0 196 66t124.5 179
t43.5 254q0 140 -43 252t-124.5 177t-196.5 65q-113 0 -194.5 -64t-125.5 -176t-44 -254q0 -143 44 -256t125.5 -178t194.5 -65z" />
    <glyph glyph-name="uni0184" unicode="&#x184;" horiz-adv-x="1316" 
d="M435 1490v-85h-434v85h434zM407 805h496q137 1 236 -47t152.5 -135.5t53.5 -206.5q0 -126 -53 -219.5t-152 -145t-237 -51.5h-560v1490h92v-1407h468q111 1 189.5 43t120 117.5t41.5 175.5q1 133 -94 217.5t-257 84.5h-496v84z" />
    <glyph glyph-name="uni0185" unicode="&#x185;" horiz-adv-x="1137" 
d="M182 1536h45v-488h-45l-125 226v37zM246 868h50q26 72 74 132.5t119 97t166 35.5q135 1 235.5 -73.5t156.5 -205t56 -298.5q0 -169 -56 -300t-155.5 -205t-234.5 -75q-96 1 -167 37.5t-119 97.5t-75 133h-50v624zM1013 557q1 140 -42.5 252t-125 177t-196.5 65
q-114 0 -194.5 -64t-124 -176t-44.5 -254q1 -143 44 -256t124.5 -177t194.5 -65q115 1 197 66t125 178t42 254zM199 1490h88v-651l-28 -277l26 -305v-257h-86v1490z" />
    <glyph glyph-name="uni0186" unicode="&#x186;" horiz-adv-x="1451" 
d="M697 1510q186 0 328 -95t222.5 -266.5t80.5 -402.5t-80.5 -403t-222.5 -267.5t-328 -95.5q-125 0 -225 41.5t-174 111t-119.5 156t-61.5 177.5h94q14 -75 54.5 -146.5t103 -128.5t145 -90.5t183.5 -33.5q147 0 270.5 78.5t197.5 230t74 370.5q0 220 -74 371t-197.5 228.5
t-270.5 77.5q-101 0 -183.5 -33.5t-145 -90t-103 -128t-54.5 -147.5h-94q16 91 61.5 177.5t119.5 156t174 111t225 41.5z" />
    <glyph glyph-name="uni0187" unicode="&#x187;" horiz-adv-x="1457" 
d="M1334 1024h-89v227q1 82 26 136t73 81t114 26q16 1 31 0t26 -4v-79q-8 1 -19 2t-23 1q-46 0 -77 -16t-46.5 -51t-15.5 -96v-227zM755 -20q-186 0 -328.5 95t-223 267t-80.5 402q0 231 80.5 403t223 267.5t328.5 95.5q124 0 224.5 -41t174 -110.5t119 -156.5t61.5 -178
h-93q-15 75 -55 146.5t-102.5 128.5t-145.5 90.5t-183 33.5q-147 0 -270.5 -78.5t-198 -230t-74.5 -370.5q0 -220 74.5 -371t198 -228.5t270.5 -77.5q100 0 183 33.5t145.5 90t102.5 128t55 147.5h93q-16 -91 -61.5 -177.5t-119 -156t-174 -111t-224.5 -41.5z" />
    <glyph glyph-name="uni0188" unicode="&#x188;" horiz-adv-x="1174" 
d="M999 789h-88v162q1 82 26.5 136t75 81t118.5 27q19 0 40.5 -1t40.5 -5v-79q-16 2 -34 3t-32 2q-75 -1 -111 -37t-36 -127v-162zM587 -24q-142 0 -250.5 75.5t-170 206.5t-61.5 297t61.5 296.5t170.5 206t250 75.5q106 0 193.5 -43t145 -120.5t73.5 -180.5h-88
q-13 73 -58 132.5t-113.5 94.5t-152.5 35q-114 0 -202.5 -63.5t-140 -175t-51.5 -255.5q0 -143 50 -255.5t139 -178t205 -65.5q123 0 213 73t111 195h90q-16 -103 -72.5 -182t-144 -123.5t-197.5 -44.5z" />
    <glyph glyph-name="Dbar1" unicode="&#x189;" horiz-adv-x="1433" 
d="M612 0h-363v84h359q200 0 336.5 79.5t206.5 229t70 356.5q0 206 -67 352.5t-196.5 225t-317.5 78.5h-394v85h398q210 0 358.5 -88.5t228 -254.5t79.5 -398q0 -235 -82 -403t-238 -257t-378 -89zM291 1490v-1490h-92v1490h92zM-46 721v76h583v-76h-583z" />
    <glyph glyph-name="uni018A" unicode="&#x18a;" horiz-adv-x="1686" 
d="M101 1183v68q0 109 59 173.5t171 65.5h146v-85h-143q-56 0 -88 -21t-45 -62t-13 -103v-36h-87zM865 0h-364v84h360q199 0 336 79.5t207 229t70 356.5q0 206 -67.5 352.5t-197 225t-316.5 78.5h-394v85h398q209 0 358 -88.5t228.5 -254.5t79.5 -398q0 -235 -82 -403
t-238.5 -257t-377.5 -89zM543 1490v-1490h-92v1490h92z" />
    <glyph glyph-name="uni018B" unicode="&#x18b;" horiz-adv-x="1205" 
d="M1103 0h-558q-138 0 -237.5 51.5t-152 145t-52.5 219.5q0 119 53.5 207t152.5 136.5t236 47.5h458v584h-738v88h838v-1479zM1003 86v635h-458q-163 -1 -252.5 -85t-89.5 -217q1 -100 39.5 -175t115 -116t187.5 -42h458z" />
    <glyph glyph-name="uni018C" unicode="&#x18c;" horiz-adv-x="1177" 
d="M963 1411h-691v79h736zM550 -24q-134 0 -234.5 74.5t-155.5 205.5t-55 300q0 168 55.5 298.5t156 204.5t234.5 74q96 0 167.5 -36t120 -96.5t73.5 -132.5h9v622h87v-1490h-85v244h-11q-26 -72 -74.5 -133t-120 -98t-167.5 -37zM557 58q114 0 195.5 65t125 178t43.5 256
q0 142 -43.5 254t-125 176t-195.5 64t-195.5 -65t-125 -177t-43.5 -252q0 -141 43.5 -254t125 -179t195.5 -66z" />
    <glyph glyph-name="deltaturn" unicode="&#x18d;" horiz-adv-x="973" 
d="M797 -376h-638v83l502 -1q-48 53 -104.5 112t-116.5 120t-120 120q-138 133 -210.5 256.5t-72.5 263.5v12q0 167 55 288.5t156 188.5t239 66q137 1 238 -66t157 -189t55 -288v-13q1 -137 -54.5 -246t-154 -174.5t-229.5 -71.5q-24 0 -46 2t-50 6q45 -44 94 -93t100 -101
t101.5 -105.5t98.5 -108.5v-61zM839 577v13q0 140 -41.5 243.5t-120 159.5t-190.5 56q-111 0 -190 -56.5t-121.5 -159.5t-42.5 -243v-12q0 -112 50.5 -208.5t145.5 -191.5q42 -11 77.5 -16t69.5 -5q113 0 194 55t125 150t44 215z" />
    <glyph glyph-name="Eturn" unicode="&#x18e;" horiz-adv-x="1173" 
d="M975 1490v-1490h-830v85h738v616h-694v84h694v621h-756v84h848z" />
    <glyph glyph-name="uni018F" unicode="&#x18f;" horiz-adv-x="1387" 
d="M687 -20q-173 0 -301.5 85t-199 243t-70.5 376v57h1096v-84h-995v-13q0 -177 58.5 -307t164 -200t246.5 -70q152 0 261 76.5t167 217t57 331.5v71q1 208 -60 355.5t-177.5 225.5t-283.5 78q-61 0 -119 -10t-117.5 -30.5t-123.5 -52.5l-30 78q57 34 120.5 56.5t132.5 34.5
t140 12q193 0 331.5 -90t213.5 -257t75 -400v-72q0 -213 -72 -373t-203 -249t-311 -89z" />
    <glyph glyph-name="Epsilon1" unicode="&#x190;" horiz-adv-x="1189" 
d="M743 748h-222q-123 18 -210.5 69t-132.5 129.5t-45 176.5q0 116 58.5 202.5t162 135.5t239.5 49q137 0 237 -50t157.5 -138.5t67.5 -206.5h-100q-15 135 -106 221t-256 87q-169 -1 -265 -85.5t-95 -216.5q0 -90 46 -161t133.5 -111.5t212.5 -40.5h118v-60zM515 784h228
v-63h-118q-130 1 -224 -40t-144.5 -115.5t-51.5 -175.5q1 -97 49 -170.5t134.5 -113.5t202.5 -40q183 0 286 90.5t117 226.5h101q-10 -124 -77 -214.5t-176.5 -139.5t-250.5 -49t-250.5 49.5t-172.5 140t-63 215.5q0 163 107 266.5t303 132.5z" />
    <glyph glyph-name="uni0191" unicode="&#x191;" horiz-adv-x="1137" 
d="M168 0h91v-152q0 -64 -15.5 -113.5t-46.5 -83t-77.5 -51t-106.5 -17.5q-13 0 -25 1.5t-30 5.5v80q10 -2 23.5 -3.5t29.5 -2.5q76 1 116.5 44.5t40.5 140.5v151zM168 0v1490h831v-85h-739v-623h670v-84h-670v-698h-92z" />
    <glyph glyph-name="florin" unicode="&#x192;" horiz-adv-x="637" 
d="M556 1077v-82h-200v-1127q-1 -135 -79.5 -211t-197.5 -75q-28 -1 -51 3t-46 12l14 80q17 -6 40.5 -8.5t42.5 -2.5q75 0 130 53.5t55 148.5v1127h-193v82h193v187q0 138 80.5 215t193.5 77q32 0 63 -5t54 -14l-25 -82q-16 6 -34 9.5t-42 3.5q-84 0 -141.5 -53t-56.5 -151
v-187h200z" />
    <glyph glyph-name="uni0193" unicode="&#x193;" horiz-adv-x="1466" 
d="M1335 1024h-93l3 165q2 62 16 107.5t41.5 75.5t68.5 45t96 15q18 0 39.5 -1t40.5 -4v-80q-17 2 -34 3t-32 2q-49 0 -81.5 -16t-48.5 -51.5t-16 -95.5v-165zM759 -20q-191 0 -334 95t-222.5 267t-79.5 402q0 232 79.5 404t221.5 267t329 95q126 0 227 -41.5t175 -112
t119.5 -157t61.5 -175.5h-94q-17 75 -56.5 146.5t-101.5 128.5t-145 90.5t-186 33.5q-158 0 -280.5 -82.5t-191.5 -235t-69 -361.5q0 -206 69 -358t192.5 -235.5t285.5 -83.5q147 0 259 66t175.5 192t63.5 304l32 -16h-506v84h563v-84q0 -196 -75.5 -338.5t-208 -218.5
t-303.5 -76z" />
    <glyph glyph-name="Gamma1" unicode="&#x194;" horiz-adv-x="1104" 
d="M-39 1490h100l550 -1348q51 -126 82.5 -202.5t46.5 -122t15 -75.5q0 -55 -24.5 -96.5t-69.5 -64.5t-108 -23t-109 23t-70.5 64.5t-24.5 96.5q0 19 4.5 40.5t14.5 50.5t26.5 69.5t39.5 95.5t53 129l558 1363h100l-574 -1391q-46 -113 -75 -184.5t-42 -112t-13 -64.5
q0 -40 30.5 -67.5t81.5 -27.5q48 0 78.5 28t31.5 67q0 24 -12.5 64.5t-41 114t-78.5 194.5z" />
    <glyph glyph-name="uni0195" unicode="&#x195;" horiz-adv-x="1867" 
d="M169 0v1490h87v-549h9q40 87 126.5 139t205.5 52q114 0 200 -47.5t134 -136t48 -211.5v-222h-88v218q-1 144 -85.5 230t-224.5 87q-94 0 -167.5 -41t-115.5 -114t-42 -171v-724h-87zM1221 -19q-103 0 -177.5 49.5t-113.5 151t-39 259.5v160h88v-160q0 -139 30.5 -222.5
t85.5 -120t130 -36.5q123 0 209 101.5t131 311t44 535.5v108h90v-119q0 -345 -56.5 -571t-163 -336.5t-258.5 -110.5z" />
    <glyph glyph-name="Iota" unicode="&#x196;" horiz-adv-x="445" 
d="M169 1490h87v-1273q0 -92 39 -120t111 -15q14 1 20 2.5t9 2.5l20 -79q-7 -1 -23 -4.5t-31 -4.5q-110 -15 -171.5 35t-60.5 167v1289z" />
    <glyph glyph-name="uni0197" unicode="&#x197;" horiz-adv-x="489" 
d="M291 1490v-1490h-92v1490h92zM-46 729v76h583v-76h-583z" />
    <glyph glyph-name="uni0198" unicode="&#x198;" horiz-adv-x="1321" 
d="M199 0v1490h92v-865h10l715 789q44 50 98.5 70.5t109 12t95.5 -45.5l-45 -65q-51 35 -99.5 26t-96.5 -62l-517 -565l688 -785h-116l-631 720l-211 -235v-485h-92z" />
    <glyph glyph-name="uni0199" unicode="&#x199;" horiz-adv-x="1005" 
d="M245 436l-2 128h24l559 554h115l-512 -511l-10 -4zM169 0v1118h87v-1118h-87zM850 0l-471 595l65 60l521 -655h-115zM169 1118v161q0 109 54.5 162.5t162.5 53.5q21 0 43.5 -1t37.5 -2v-79q-17 1 -35.5 1.5t-30.5 0.5q-77 -1 -111 -32t-34 -104v-161h-87z" />
    <glyph glyph-name="uni019A" unicode="&#x19a;" horiz-adv-x="425" 
d="M256 1490v-1490h-87v1490h87zM-78 729v76h583v-76h-583z" />
    <glyph glyph-name="lambdabar" unicode="&#x19b;" horiz-adv-x="1219" 
d="M598 1431v-92l-427 -186v90zM547 967l-344 -967h-106l408 1119l65 -32zM265 1510q96 -1 149 -45.5t89 -141.5l408 -1094q22 -60 40 -94t37 -47t43 -14q9 1 20 2t22 3l14 -82q-12 -5 -29 -8t-35 -3q-46 0 -80.5 16.5t-63 59.5t-58.5 123l-303 812l-107 287
q-28 77 -66.5 109t-96.5 33q-15 1 -33.5 -1.5t-36.5 -6.5l-11 79q21 6 48 10t50 3z" />
    <glyph glyph-name="mcapturn" unicode="&#x19c;" horiz-adv-x="1721" 
d="M1470 223v1267h98v-1490h-91zM1475 412l52 1q6 -125 -37.5 -222t-126.5 -152t-197 -55q-110 0 -189.5 46.5t-121.5 137.5t-42 223v1099h96v-1099q0 -105 33 -176.5t93 -108t142 -36.5q91 0 158 44t104 121.5t36 176.5zM819 412l52 1q5 -125 -39 -222t-127 -152t-198 -55
q-111 0 -190 47t-121 138t-42 222v1099h97v-1099q1 -105 33 -176.5t92 -108t141 -36.5q92 0 160 44t105 121.5t37 176.5z" />
    <glyph glyph-name="Nhook" unicode="&#x19d;" horiz-adv-x="1509" 
d="M170 0h92v-152q0 -64 -16 -113.5t-47 -83t-73.5 -51t-96.5 -17.5q-19 0 -37.5 1.5t-32.5 5.5v80q11 -2 24.5 -3.5t29.5 -2.5q75 1 116 44.5t41 140.5v151zM1310 1490v-1490h-90l-949 1325h-9v-1325h-92v1490h90l951 -1325h8v1325h91z" />
    <glyph glyph-name="uni019E" unicode="&#x19e;" horiz-adv-x="1144" 
d="M256 724v-724h-87v1118h85v-177h9q40 86 126.5 138.5t205.5 52.5q113 0 198.5 -47.5t133.5 -136t48 -211.5v-1155h-88v1151q0 143 -85 229.5t-224 87.5q-92 0 -165 -41t-115 -114t-42 -171z" />
    <glyph glyph-name="Obar" unicode="&#x19f;" horiz-adv-x="1508" 
d="M1316 787v-84h-1124v84h1124zM755 -20q-186 0 -328.5 95.5t-223 267.5t-80.5 401q0 231 80.5 403t223 267.5t328.5 95.5t328 -95.5t222 -267.5t80 -403q0 -230 -80 -402t-222 -267t-328 -95zM755 67q158 0 280 83t191.5 235.5t69.5 358.5q0 207 -69.5 359.5t-191.5 236
t-280 83.5t-280.5 -82.5t-192.5 -235t-70 -361.5q0 -206 69.5 -358t192 -235.5t281.5 -83.5z" />
    <glyph glyph-name="Ohorn" unicode="&#x1a0;" horiz-adv-x="1508" 
d="M1175 1259l-26 70q107 20 150.5 78.5t43.5 179.5h84q0 -150 -61.5 -225.5t-190.5 -102.5zM755 -20q-186 0 -328.5 95.5t-223 267.5t-80.5 401q0 231 80.5 403t223 267.5t328.5 95.5t328 -95.5t222 -267.5t80 -403q0 -230 -80 -402t-222 -267t-328 -95zM755 67
q158 0 280 83t191.5 235.5t69.5 358.5q0 207 -69.5 359.5t-191.5 236t-280 83.5t-280.5 -82.5t-192.5 -235t-70 -361.5q0 -206 69.5 -358t192 -235.5t281.5 -83.5z" />
    <glyph glyph-name="ohorn" unicode="&#x1a1;" horiz-adv-x="1166" 
d="M911 887l-26 70q107 20 150.5 78.5t43.5 179.5h84q0 -150 -61.5 -225.5t-190.5 -102.5zM583 -24q-138 0 -246 75t-170 205.5t-62 298.5t62 298.5t170 205t246 74.5t246 -74.5t170 -205.5t62 -298q0 -168 -62 -298.5t-169.5 -205.5t-246.5 -75zM583 58q118 0 205.5 66.5
t136 179t48.5 251.5q0 138 -49 250.5t-136 179t-205 66.5q-116 0 -204 -66.5t-137 -179t-49 -250.5q0 -139 49 -251.5t136.5 -179t204.5 -66.5z" />
    <glyph glyph-name="OI" unicode="&#x1a2;" horiz-adv-x="1612" 
d="M1150 777v-595q-42 -64 -108 -109t-147.5 -69t-171.5 -24q-129 0 -238.5 50t-190.5 142.5t-126 220t-45 281.5v69l100 2v-71q1 -182 65.5 -318.5t178.5 -213t261 -76.5q101 0 189.5 38t135.5 102v571h97zM1150 1317v-623h-97v590q-51 65 -138 101.5t-187 37.5
q-150 0 -263.5 -79t-177 -220t-64.5 -329v-95h-100v95q0 158 44 289t125 226.5t192 147.5t245 52q86 0 165.5 -23t145 -66.5t110.5 -103.5zM1412 1490v-1908h-97v1813l-220 -140v96l222 139h95z" />
    <glyph glyph-name="uni01A3" unicode="&#x1a3;" horiz-adv-x="1107" 
d="M507 63q52 -1 97.5 13.5t84.5 39.5v557h97v-589q-40 -34 -84 -57.5t-93.5 -36t-105.5 -13.5q-139 1 -242 74t-159 199t-56 282v17q0 172 55.5 304t159.5 206.5t246 73.5q55 1 103.5 -11t92.5 -34.5t83 -53.5v-568h-97v532q-39 24 -85 37.5t-99 13.5q-115 0 -195.5 -64.5
t-123 -177t-43.5 -258.5v-17q1 -140 47 -246t127.5 -164.5t189.5 -58.5zM1061 1118v-1536h-97v1420l-218 -139v121l219 134h96z" />
    <glyph glyph-name="uni01A4" unicode="&#x1a4;" horiz-adv-x="1413" 
d="M188 1183h-87v68q0 109 59 173.5t171 65.5h136v-85h-133q-56 0 -88 -21t-45 -62t-13 -103v-36zM383 0v1490h460q141 0 242.5 -58.5t155.5 -159.5t54 -230q0 -128 -54 -229.5t-155 -159.5t-243 -58h-396v84h394q114 0 196 46.5t125 128.5t43 188t-43 188t-125 128.5
t-196 46.5h-366v-1405h-92z" />
    <glyph glyph-name="uni01A5" unicode="&#x1a5;" horiz-adv-x="1177" 
d="M169 1118v161q-1 109 54 162.5t163 53.5q21 0 43.5 -1t37.5 -2v-79q-17 1 -35.5 1.5t-30.5 0.5q-77 -1 -112 -32t-35 -104v-161h-85zM169 -418v1536h85v-250h11q25 72 73.5 132.5t120 96.5t167.5 36q134 0 234 -74t155.5 -204.5t55.5 -298.5q0 -169 -55 -300t-155 -205.5
t-234 -74.5q-96 0 -167.5 37t-120 98t-74.5 133h-9v-662h-87zM619 58q115 0 196 66t124.5 179t43.5 254q0 140 -43 252t-124.5 177t-196.5 65q-113 0 -194.5 -64t-125.5 -176t-44 -254q0 -143 44 -256t125.5 -178t194.5 -65z" />
    <glyph glyph-name="YR" unicode="&#x1a6;" horiz-adv-x="1362" 
d="M94 1386v203h101v-203h-101zM94 1490h453q138 0 240 -52.5t159 -148.5t57 -229q0 -104 -40 -189t-112 -143t-170 -82l-26 -11h-492v87h420q90 0 162 42.5t115 119t42 176.5q0 104 -43 181t-122.5 119.5t-189.5 41.5h-352v-1402h-101v1490zM1150 -368l-555 1032h108
l553 -1025v-7h-106z" />
    <glyph glyph-name="uni01A7" unicode="&#x1a7;" horiz-adv-x="1239" 
d="M237 1118h-89q6 114 65.5 203t161.5 140t236 50q132 1 237 -50t166 -140t61 -204q0 -137 -92 -228t-268 -146l-172 -52q-106 -31 -179 -72t-110 -97t-37 -134q0 -97 51.5 -171t143.5 -114.5t211 -41.5q112 1 198.5 37t138.5 103.5t59 159.5h92q-7 -114 -68.5 -200.5
t-168 -135.5t-251.5 -50q-151 1 -262.5 54.5t-172 146.5t-60.5 211q0 81 29 142.5t81.5 107.5t124 79.5t154.5 58.5l164 49q90 27 158.5 66.5t107.5 96t39 132.5q0 90 -48 159.5t-132 109t-193 39.5q-161 0 -262.5 -85.5t-113.5 -223.5z" />
    <glyph glyph-name="uni01A8" unicode="&#x1a8;" horiz-adv-x="998" 
d="M121 877q40 123 129 189.5t231 66.5q107 0 190 -38.5t130 -106.5t47 -159q0 -107 -68 -181t-206 -108l-178 -44q-199 -49 -199 -207q0 -101 84 -166.5t220 -65.5q125 0 201 57t101 167l84 -21q-29 -136 -129.5 -210t-256.5 -74q-116 0 -205 40.5t-139 111.5t-50 164
q0 108 68 180.5t199 104.5l173 43q108 27 160.5 80t52.5 133q0 98 -78 159t-201 61q-115 0 -181.5 -53.5t-96.5 -144.5z" />
    <glyph glyph-name="uni01A9" unicode="&#x1a9;" horiz-adv-x="1203" 
d="M1125 87v-87h-999l10 87h989zM1083 1479v-88h-975v88h975zM764 727v-23l-616 -704h-59v77l566 639l-566 684v79h59z" />
    <glyph glyph-name="eshlooprev" unicode="&#x1aa;" horiz-adv-x="943" 
d="M567 1221l99 48v-1400q-1 -107 31 -154t98 -48q14 1 32.5 3t32.5 6v-83q-16 -6 -39.5 -9t-43.5 -2q-105 -1 -157 71t-53 216v1352zM85 1266q0 81 39 147t105 105t146 39q81 0 146.5 -39t104.5 -105t40 -147q1 -79 -38.5 -145.5t-105.5 -105.5t-147 -40q-80 1 -146.5 40
t-105.5 105.5t-38 145.5zM375 1067q83 1 140 57t56 143q-1 88 -57 144t-139 56q-82 0 -140 -56t-58 -144q0 -87 58 -143.5t140 -56.5z" />
    <glyph glyph-name="uni01AB" unicode="&#x1ab;" horiz-adv-x="693" 
d="M529 65l88 22v-239q-1 -128 -63.5 -196.5t-166.5 -68.5q-23 0 -44 2.5t-36 9.5v77q13 -4 29 -6t34 -3q50 1 85.5 19.5t54.5 59.5t19 106v217zM240 1384h87v-1120q0 -94 54 -145t136 -51q20 0 38 3t38 9l22 -79q-23 -9 -48.5 -14t-54.5 -5q-114 0 -193 72.5t-79 194.5
v1135zM562 1118v-79h-487v79h487z" />
    <glyph glyph-name="uni01AC" unicode="&#x1ac;" horiz-adv-x="1271" 
d="M533 1490v-85h-200q-53 0 -85.5 -20t-47 -60.5t-14.5 -100.5v-36h-85v64q0 112 60 174.5t170 63.5h202zM1171 1490v-85h-476v-1405h-91v1405h-203v85h770z" />
    <glyph glyph-name="uni01AD" unicode="&#x1ad;" horiz-adv-x="501" 
d="M287 1122h-97v193q0 62 15 107t44.5 75t71.5 45t94 15q18 0 40 -2t42 -6v-75q-17 3 -35.5 4t-31.5 1q-49 0 -81 -16t-46.5 -52t-15.5 -96v-193zM508 1106v-81h-493v81h493zM190 1256h97v-999q1 -95 40.5 -142.5t108.5 -47.5q21 0 42.5 3.5t37.5 6.5v-84q-16 -5 -40 -9
t-57 -4q-104 0 -167 70t-62 207v999z" />
    <glyph glyph-name="Trthook" unicode="&#x1ae;" horiz-adv-x="1243" 
d="M668 0v-152q0 -98 43.5 -139t118.5 -42h48v-84h-67q-51 0 -94.5 17t-74.5 50.5t-48 83t-17 113.5v153h91zM101 1405v85h1043v-85h-476v-1405h-91v1405h-476z" />
    <glyph glyph-name="Uhorn" unicode="&#x1af;" horiz-adv-x="1498" 
d="M1229 1429l-22 61q124 0 178.5 66.5t54.5 216.5h84q0 -172 -73 -258t-222 -86zM1207 1490h92v-986q0 -152 -70.5 -271.5t-194.5 -188.5t-285 -69q-159 0 -283.5 69t-195.5 188.5t-71 271.5v986h92v-981q0 -129 58 -229.5t162 -158.5t238 -58q136 0 239 58t161 158.5
t58 229.5v981z" />
    <glyph glyph-name="uhorn" unicode="&#x1b0;" horiz-adv-x="1141" 
d="M906 1057l-21 61q124 0 178 66.5t54 216.5h84q0 -172 -73 -258t-222 -86zM885 396v722h87v-1118h-87v182h-8q-40 -87 -127.5 -142t-207.5 -54q-109 0 -193.5 47.5t-132 136t-47.5 210.5v738h87v-735q0 -139 85 -225t220 -86q88 0 161.5 39.5t118 112.5t44.5 172z" />
    <glyph glyph-name="Upsilon2" unicode="&#x1b1;" horiz-adv-x="1504" 
d="M126 720q0 228 96 398t289 276v11h-385v85h489v-113q-112 -56 -202.5 -146t-143.5 -216.5t-54 -293.5q-1 -183 67 -331.5t189.5 -235.5t280.5 -87q160 0 280.5 87t188.5 235.5t68 331.5q1 166 -53 293t-144.5 217.5t-202.5 145.5v113h490v-85h-385v-11
q193 -105 288.5 -275t96.5 -399q0 -215 -81 -382t-223 -262.5t-323 -95.5q-135 0 -249.5 54.5t-199 154t-131 235t-46.5 296.5z" />
    <glyph glyph-name="Vcursive" unicode="&#x1b2;" horiz-adv-x="1209" 
d="M599 -23q-146 1 -257 57.5t-174 167t-63 271.5v1017h100v-1017q0 -203 107 -306t287 -102q184 -1 294.5 103t110.5 305v755q0 104 -40 148.5t-126 45.5q-19 -1 -38 -3t-39 -8v84q22 7 47 11t51 4q116 0 181 -71.5t65 -210.5v-755q0 -159 -66 -270t-180 -168t-260 -58z
" />
    <glyph glyph-name="uni01B3" unicode="&#x1b3;" horiz-adv-x="1299" 
d="M585 736v35h34v-35h-34zM20 1490h107l474 -726l421 639q37 57 90 83t107.5 23t94.5 -32l-37 -69q-42 23 -92.5 12.5t-89.5 -69.5l-448 -676v-675h-90v675z" />
    <glyph glyph-name="uni01B4" unicode="&#x1b4;" horiz-adv-x="1143" 
d="M239 -418q-34 -1 -66.5 6.5t-58.5 18.5l27 77q69 -25 124 -18t97.5 51t72.5 128l51 140l-409 1133h95l355 -1004h8l347 981q31 88 66 147t82.5 89.5t114.5 29.5q36 1 67.5 -8t54.5 -24l-16 -71q-20 10 -46 16t-54 6q-66 0 -104 -45.5t-78 -159.5l-456 -1265
q-40 -114 -110 -171.5t-164 -56.5z" />
    <glyph glyph-name="Zbar" unicode="&#x1b5;" horiz-adv-x="1221" 
d="M130 0v74l852 1331h-851v85h960v-76l-852 -1330h858v-84h-967zM324 713v76h583v-76h-583z" />
    <glyph glyph-name="zbar" unicode="&#x1b6;" horiz-adv-x="1032" 
d="M131 0v74l657 951v8h-622v85h734v-78l-651 -948v-8h678v-84h-796zM224 519v76h583v-76h-583z" />
    <glyph glyph-name="uni01B7" unicode="&#x1b7;" horiz-adv-x="1380" 
d="M101 69h92q2 -123 67 -219.5t173.5 -151.5t241.5 -55q143 0 253 67t172 182.5t62 262.5q0 158 -74.5 278t-206.5 190t-304 76h-83v80l598 639v-15h-911v87h1026v-69l-592 -636v-8q189 -8 332.5 -90t224.5 -219t80 -312q0 -120 -39 -228t-114.5 -191t-182.5 -130.5
t-242 -47.5q-158 0 -287 64.5t-206 180t-80 265.5z" />
    <glyph glyph-name="uni01B8" unicode="&#x1b8;" horiz-adv-x="1380" 
d="M1279 69q-2 -150 -79.5 -265.5t-206.5 -180t-287 -64.5q-135 0 -242.5 47.5t-182.5 130.5t-114 191t-39 228q0 175 81 312t224.5 219t331.5 90v8l-592 636v69h1026v-87h-911v15l598 -639v-80h-82q-172 -6 -304.5 -76t-207 -190t-74.5 -278q0 -147 62 -262.5t172 -182.5
t253 -67q134 0 242.5 55t173 151.5t66.5 219.5h92z" />
    <glyph glyph-name="uni01B9" unicode="&#x1b9;" horiz-adv-x="1214" 
d="M1079 1q-2 -116 -64.5 -205t-166 -138t-231.5 -50q-141 1 -245.5 59.5t-162 156.5t-57.5 219q0 130 63.5 226t175.5 151t258 61v8l-452 560v69h818v-84h-689v-8l436 -541v-80h-41q-160 0 -266.5 -47.5t-159 -129t-53.5 -185.5q1 -98 46.5 -178t129 -126t197.5 -46
q105 0 188 38.5t132.5 108.5t51.5 161h92z" />
    <glyph glyph-name="uni01BA" unicode="&#x1ba;" horiz-adv-x="1006" 
d="M99 1119l848 -1v-76l-590 -515h-44v74l494 433h-705zM165 -152q-1 -102 71.5 -154.5t206.5 -52.5q86 0 156 31t113.5 90.5t49.5 146.5h98q-6 -100 -58 -180t-142.5 -126t-213.5 -46q-118 0 -203 35t-130 100.5t-46 159.5q1 122 86 198.5t269 119.5q113 27 176 53.5
t88.5 61.5t25.5 86q0 81 -73 119t-244 37h-44l7 84h37q140 1 232 -26.5t138 -81.5t45 -134q1 -75 -37.5 -126.5t-119.5 -88t-211 -68.5q-158 -39 -218 -95.5t-59 -142.5z" />
    <glyph glyph-name="uni01BB" unicode="&#x1bb;" horiz-adv-x="1229" 
d="M162 0v69l481 556q104 120 164 202t86 149.5t26 139.5q0 92 -42 161.5t-115 109.5t-167 40q-97 0 -170.5 -43t-114.5 -116.5t-41 -165.5h-88q0 116 53.5 208t148 146t214.5 54q119 0 211.5 -52t145.5 -140.5t53 -201.5q0 -82 -28 -158t-95.5 -169.5t-186.5 -229.5
l-404 -467v-8h781v-84h-912zM516 713v76h583v-76h-583z" />
    <glyph glyph-name="uni01BC" unicode="&#x1bc;" horiz-adv-x="1137" 
d="M315 1490v-85h-268v85h268zM544 -20q-119 0 -212.5 50.5t-147.5 139t-55 202.5h88q4 -135 94.5 -221.5t232.5 -86.5q109 0 192 52.5t130 143.5t47 205q0 121 -50.5 211t-135.5 140.5t-188 50.5q-82 0 -153.5 -29.5t-120.5 -76.5l-104 15l88 714h699v-85h-621l-68 -558h7
q53 47 125 75.5t158 28.5q125 0 228 -61t164.5 -170t61.5 -254q0 -139 -59 -249t-163 -173.5t-237 -63.5z" />
    <glyph glyph-name="uni01BD" unicode="&#x1bd;" horiz-adv-x="891" 
d="M243 507l-88 7l62 568h593v-88h-507l-41 -361q39 40 104.5 65.5t133.5 26.5q106 3 184.5 -42t122.5 -128t44 -195t-44 -197t-130.5 -132.5t-213.5 -48.5q-73 0 -138 21.5t-115 61.5t-78.5 98t-28.5 131l94 13q-3 -107 71 -173t195 -65q139 -1 215.5 77t76.5 209
q0 129 -70.5 207t-194.5 79q-84 1 -149 -37t-98 -97zM308 1082v-88h-266v88h266z" />
    <glyph glyph-name="glottalstopbarinv" unicode="&#x1be;" horiz-adv-x="1025" 
d="M823 287q0 57 -27 94.5t-70.5 65.5t-91.5 56t-91 65.5t-70.5 94t-27.5 142.5v532h98v-530q0 -74 27.5 -121.5t70.5 -80t91.5 -59t91 -58t70 -77.5t27.5 -118q0 -93 -51 -163t-142 -109.5t-211 -39.5q-129 0 -220.5 50.5t-139.5 131.5t-48 173h98q1 -78 40.5 -139
t109 -96.5t162.5 -35.5q137 0 220.5 61.5t83.5 160.5zM775 1074v-81h-560v81h560z" />
    <glyph glyph-name="uni01BF" unicode="&#x1bf;" horiz-adv-x="1160" 
d="M239 938v-1354h-99v1534h87zM213 821l-46 1q32 75 73.5 133t92 98t111 60t131.5 20q131 1 224.5 -62.5t143.5 -179t50 -270.5v-47q0 -146 -48.5 -259.5t-147.5 -201.5t-249 -156.5t-352 -125.5v84q239 69 393.5 156.5t230 209t75.5 292.5v49q0 127 -40 223t-115.5 149
t-185.5 53q-74 0 -136 -27.5t-112.5 -78t-92.5 -120.5z" />
    <glyph glyph-name="pipe" unicode="&#x1c0;" horiz-adv-x="404" 
d="M245 1507v-1507h-85v1507h85z" />
    <glyph glyph-name="pipedbl" unicode="&#x1c1;" horiz-adv-x="653" 
d="M174 1507v-1507h-85v1507h85zM446 1507v-1507h-85v1507h85z" />
    <glyph glyph-name="pipedblbar" unicode="&#x1c2;" horiz-adv-x="457" 
d="M272 1507v-1507h-85v1507h85zM-64 972v76h583v-76h-583zM-62 457v76h583v-76h-583z" />
    <glyph glyph-name="exclam1" unicode="&#x1c3;" horiz-adv-x="561" 
d="M237 455l-4 1035h95l-4 -1035h-87zM281 -10q-33 0 -56 23t-23 56t23 56t56 23q32 0 55.5 -23t23.5 -56t-23.5 -56t-55.5 -23z" />
    <glyph glyph-name="Dzcaron_" unicode="&#x1c5;" horiz-adv-x="2465" 
d="M612 0h-363v84h359q200 0 336.5 79.5t206.5 229t70 356.5q0 206 -67 352.5t-196.5 225t-317.5 78.5h-394v85h398q210 0 358.5 -88.5t228 -254.5t79.5 -398q0 -235 -82 -403t-238 -257t-378 -89zM291 1490v-1490h-92v1490h92zM1564 0v74l657 951v8h-622v85h734v-78
l-651 -948v-8h678v-84h-796zM1752 1557l196 -217l195 217h92v-8l-257 -284h-61l-255 284v8h90z" />
    <glyph glyph-name="uni01C6" unicode="&#x1c6;" horiz-adv-x="2082" 
d="M550 -24q-134 0 -234.5 74.5t-155.5 205.5t-55 300q0 168 55.5 298.5t156 204.5t234.5 74q96 0 167.5 -36t120 -96.5t73.5 -132.5h9v622h87v-1490h-85v244h-11q-26 -72 -74.5 -133t-120 -98t-167.5 -37zM557 58q114 0 195.5 65t125 178t43.5 256q0 142 -43.5 254
t-125 176t-195.5 64t-195.5 -65t-125 -177t-43.5 -252q0 -141 43.5 -254t125 -179t195.5 -66zM1181 0v74l657 951v8h-622v85h734v-78l-651 -948v-8h678v-84h-796zM1369 1557l196 -217l195 217h92v-8l-257 -284h-61l-255 284v8h90z" />
    <glyph glyph-name="uni01C7" unicode="&#x1c7;" horiz-adv-x="2167" 
d="M199 0v1490h92v-1406h727v-84h-819zM1587 -20q-109 0 -195.5 41t-136.5 114t-50 168v17h90v-17q0 -69 38.5 -123.5t104.5 -85t149 -30.5q80 0 146.5 34t105.5 109.5t39 197.5v1085h91v-1085q0 -148 -51 -242t-137.5 -138.5t-193.5 -44.5z" />
    <glyph glyph-name="uni01C8" unicode="&#x1c8;" horiz-adv-x="1549" 
d="M199 0v1490h92v-1406h727v-84h-819zM1293 1118h87v-1253q0 -87 -35.5 -150.5t-97.5 -98t-144 -34.5h-24v84h23q82 0 136 52.5t55 146.5v1253zM1336 1315q-30 0 -51 21t-21 49q0 29 21 49.5t50 20.5q30 0 51 -20.5t21 -49.5q0 -28 -21 -49t-50 -21z" />
    <glyph glyph-name="uni01C9" unicode="&#x1c9;" horiz-adv-x="863" 
d="M256 1490v-1490h-87v1490h87zM623 1118h87v-1253q0 -87 -35.5 -150.5t-97.5 -98t-144 -34.5h-24v84h23q82 0 136 52.5t55 146.5v1253zM666 1315q-30 0 -51 21t-21 49q0 29 21 49.5t50 20.5q30 0 51 -20.5t21 -49.5q0 -28 -21 -49t-50 -21z" />
    <glyph glyph-name="uni01CA" unicode="&#x1ca;" horiz-adv-x="2585" 
d="M1339 1490v-1490h-90l-949 1325h-9v-1325h-92v1490h90l950 -1325h9v1325h91zM2004 -20q-109 0 -195.5 41t-136.5 114t-50 168v17h90v-17q0 -69 38.5 -123.5t104.5 -85t149 -30.5q80 0 146.5 34t105.5 109.5t39 197.5v1085h91v-1085q0 -148 -51 -242t-137.5 -138.5
t-193.5 -44.5z" />
    <glyph glyph-name="uni01CB" unicode="&#x1cb;" horiz-adv-x="1950" 
d="M1339 1490v-1490h-90l-949 1325h-9v-1325h-92v1490h90l950 -1325h9v1325h91zM1710 1118h87v-1253q0 -87 -35.5 -150.5t-97.5 -98t-144 -34.5h-24v84h23q82 0 136 52.5t55 146.5v1253zM1753 1315q-30 0 -51 21t-21 49q0 29 21 49.5t50 20.5q30 0 51 -20.5t21 -49.5
q0 -28 -21 -49t-50 -21z" />
    <glyph glyph-name="uni01CC" unicode="&#x1cc;" horiz-adv-x="1573" 
d="M256 724v-724h-87v1118h85v-177h9q40 86 126.5 138.5t205.5 52.5q113 0 198.5 -47.5t133.5 -136t48 -211.5v-737h-87v733q0 143 -85.5 230t-224.5 87q-92 0 -165 -41t-115 -114t-42 -171zM1317 1118h87v-1253q0 -87 -35.5 -150.5t-97.5 -98t-144 -34.5h-24v84h23
q82 0 136 52.5t55 146.5v1253zM1360 1315q-30 0 -51 21t-21 49q0 29 21 49.5t50 20.5q30 0 51 -20.5t21 -49.5q0 -28 -21 -49t-50 -21z" />
    <glyph glyph-name="uni01CD" unicode="&#x1cd;" horiz-adv-x="1271" 
d="M142 0h-97l539 1490h105l536 -1490h-96l-490 1373h-8zM279 561h715v-84h-715v84zM440 1929l196 -217l195 217h92v-8l-257 -284h-61l-255 284v8h90z" />
    <glyph glyph-name="uni01CE" unicode="&#x1ce;" horiz-adv-x="1088" 
d="M465 -25q-97 0 -178 39t-129.5 113.5t-48.5 179.5q0 70 25 123.5t76.5 92t132 63.5t192.5 39q86 10 153 20t105 31.5t38 63.5v46q0 122 -77 194t-212 72q-119 0 -201.5 -52.5t-115.5 -135.5l-84 31q33 81 94 133.5t140 78.5t165 26q75 0 143 -20.5t121.5 -64t84 -110
t30.5 -158.5v-780h-88v201h-6q-29 -62 -80 -113t-121.5 -82t-158.5 -31zM473 57q105 0 185.5 52t126.5 141.5t46 202.5v165q-17 -14 -48.5 -25.5t-71 -20.5t-82.5 -15t-84 -11q-123 -14 -199.5 -44.5t-112.5 -79t-36 -118.5q0 -114 79.5 -180.5t196.5 -66.5zM355 1557
l196 -217l195 217h92v-8l-257 -284h-61l-255 284v8h90z" />
    <glyph glyph-name="uni01CF" unicode="&#x1cf;" horiz-adv-x="489" 
d="M291 1490v-1490h-92v1490h92zM49 1929l196 -217l195 217h92v-8l-257 -284h-61l-255 284v8h90z" />
    <glyph glyph-name="uni01D0" unicode="&#x1d0;" horiz-adv-x="425" 
d="M169 0v1118h87v-1118h-87zM16 1557l196 -217l195 217h92v-8l-257 -284h-61l-255 284v8h90z" />
    <glyph glyph-name="uni01D1" unicode="&#x1d1;" horiz-adv-x="1508" 
d="M755 -20q-186 0 -328.5 95.5t-223 267.5t-80.5 401q0 231 80.5 403t223 267.5t328.5 95.5t328 -95.5t222 -267.5t80 -403q0 -230 -80 -402t-222 -267t-328 -95zM755 67q158 0 280 83t191.5 235.5t69.5 358.5q0 207 -69.5 359.5t-191.5 236t-280 83.5t-280.5 -82.5
t-192.5 -235t-70 -361.5q0 -206 69.5 -358t192 -235.5t281.5 -83.5zM559 1929l196 -217l195 217h92v-8l-257 -284h-61l-255 284v8h90z" />
    <glyph glyph-name="uni01D2" unicode="&#x1d2;" horiz-adv-x="1166" 
d="M583 -24q-138 0 -246 75t-170 205.5t-62 298.5t62 298.5t170 205t246 74.5t246 -74.5t170 -205.5t62 -298q0 -168 -62 -298.5t-169.5 -205.5t-246.5 -75zM583 58q118 0 205.5 66.5t136 179t48.5 251.5q0 138 -49 250.5t-136 179t-205 66.5q-116 0 -204 -66.5t-137 -179
t-49 -250.5q0 -139 49 -251.5t136.5 -179t204.5 -66.5zM387 1557l196 -217l195 217h92v-8l-257 -284h-61l-255 284v8h90z" />
    <glyph glyph-name="uni01D3" unicode="&#x1d3;" horiz-adv-x="1498" 
d="M1207 1490h92v-986q0 -152 -70.5 -271.5t-194.5 -188.5t-285 -69q-159 0 -283.5 69t-195.5 188.5t-71 271.5v986h92v-981q0 -129 58 -229.5t162 -158.5t238 -58q136 0 239 58t161 158.5t58 229.5v981zM553 1929l196 -217l195 217h92v-8l-257 -284h-61l-255 284v8h90z" />
    <glyph glyph-name="uni01D4" unicode="&#x1d4;" horiz-adv-x="1141" 
d="M885 396v722h87v-1118h-87v182h-8q-40 -87 -127.5 -142t-207.5 -54q-109 0 -193.5 47.5t-132 136t-47.5 210.5v738h87v-735q0 -139 85 -225t220 -86q88 0 161.5 39.5t118 112.5t44.5 172zM375 1557l196 -217l195 217h92v-8l-257 -284h-61l-255 284v8h90z" />
    <glyph glyph-name="uni01D5" unicode="&#x1d5;" horiz-adv-x="1498" 
d="M1207 1490h92v-986q0 -152 -70.5 -271.5t-194.5 -188.5t-285 -69q-159 0 -283.5 69t-195.5 188.5t-71 271.5v986h92v-981q0 -129 58 -229.5t162 -158.5t238 -58q136 0 239 58t161 158.5t58 229.5v981zM588 1687q-28 0 -49 21t-21 49q0 30 21 50t49 20q30 0 50 -20t20 -50
q0 -28 -20 -49t-50 -21zM913 1687q-28 0 -48.5 21t-20.5 49q0 30 20.5 50t48.5 20q30 0 50 -20t21 -50q-1 -28 -21 -49t-50 -21zM1020 2108v-79h-537v79h537z" />
    <glyph glyph-name="uni01D6" unicode="&#x1d6;" horiz-adv-x="1141" 
d="M885 396v722h87v-1118h-87v182h-8q-40 -87 -127.5 -142t-207.5 -54q-109 0 -193.5 47.5t-132 136t-47.5 210.5v738h87v-735q0 -139 85 -225t220 -86q88 0 161.5 39.5t118 112.5t44.5 172zM410 1315q-28 0 -49 21t-21 49q0 30 21 50t49 20q30 0 50 -20t20 -50
q0 -28 -20 -49t-50 -21zM735 1315q-28 0 -48.5 21t-20.5 49q0 30 20.5 50t48.5 20q30 0 50 -20t21 -50q-1 -28 -21 -49t-50 -21zM841 1736v-79h-537v79h537z" />
    <glyph glyph-name="uni01D7" unicode="&#x1d7;" horiz-adv-x="1498" 
d="M1207 1490h92v-986q0 -152 -70.5 -271.5t-194.5 -188.5t-285 -69q-159 0 -283.5 69t-195.5 188.5t-71 271.5v986h92v-981q0 -129 58 -229.5t162 -158.5t238 -58q136 0 239 58t161 158.5t58 229.5v981zM704 1873l184 198h112l-210 -198h-86zM586 1621q-28 0 -49.5 21
t-21.5 49q0 30 21.5 50t49.5 20q29 0 49 -20t20 -50q0 -28 -20 -49t-49 -21zM910 1621q-28 0 -48.5 21t-20.5 49q0 30 20.5 50t48.5 20q30 0 50.5 -20t20.5 -50q0 -28 -20.5 -49t-50.5 -21z" />
    <glyph glyph-name="uni01D8" unicode="&#x1d8;" horiz-adv-x="1141" 
d="M885 396v722h87v-1118h-87v182h-8q-40 -87 -127.5 -142t-207.5 -54q-109 0 -193.5 47.5t-132 136t-47.5 210.5v738h87v-735q0 -139 85 -225t220 -86q88 0 161.5 39.5t118 112.5t44.5 172zM408 1315q-28 0 -49 21t-21 49q0 30 21 50t49 20q30 0 50 -20t20 -50
q0 -28 -20 -49t-50 -21zM733 1315q-28 0 -48.5 21t-20.5 49q0 30 20.5 50t48.5 20q30 0 50 -20t21 -50q-1 -28 -21 -49t-50 -21zM331 1548l183 300h103l-208 -300h-78z" />
    <glyph glyph-name="uni01D9" unicode="&#x1d9;" horiz-adv-x="1498" 
d="M1207 1490h92v-986q0 -152 -70.5 -271.5t-194.5 -188.5t-285 -69q-159 0 -283.5 69t-195.5 188.5t-71 271.5v986h92v-981q0 -129 58 -229.5t162 -158.5t238 -58q136 0 239 58t161 158.5t58 229.5v981zM482 1742q-13 17 -12.5 37t18.5 33q19 12 38 10.5t32 -17.5t12 -35
t-20 -32t-37.5 -11.5t-30.5 15.5zM940 1742q-12 16 -11.5 36t19.5 33q18 13 37 11t32 -17q12 -15 12 -35t-19 -33t-38 -11.5t-32 16.5zM554 2088l194 -173l193 173h93v-9l-262 -236h-49l-263 234v11h94z" />
    <glyph glyph-name="uni01DA" unicode="&#x1da;" horiz-adv-x="1141" 
d="M885 396v722h87v-1118h-87v182h-8q-40 -87 -127.5 -142t-207.5 -54q-109 0 -193.5 47.5t-132 136t-47.5 210.5v738h87v-735q0 -139 85 -225t220 -86q88 0 161.5 39.5t118 112.5t44.5 172zM281 1380q-1 27 17.5 47t51.5 20q31 0 49.5 -19.5t19.5 -47.5q-1 -28 -19.5 -47.5
t-50.5 -20.5q-31 1 -50 20.5t-18 47.5zM726 1379q-1 27 18.5 47.5t50.5 20.5q32 0 51 -20.5t19 -47.5t-19 -47t-51 -21q-31 1 -50.5 21t-18.5 47zM377 1825l194 -206l193 206h93v-8l-262 -275h-49l-263 275v8h94z" />
    <glyph glyph-name="uni01DB" unicode="&#x1db;" horiz-adv-x="1498" 
d="M1207 1490h92v-986q0 -152 -70.5 -271.5t-194.5 -188.5t-285 -69q-159 0 -283.5 69t-195.5 188.5t-71 271.5v986h92v-981q0 -129 58 -229.5t162 -158.5t238 -58q136 0 239 58t161 158.5t58 229.5v981zM668 1991l130 -208h-74l-156 208h100zM512 1745q-1 28 18.5 48
t49.5 20q32 0 51 -20t19 -48t-19 -48t-50 -19q-32 -1 -51 19.5t-18 47.5zM854 1745q0 28 18.5 47.5t50.5 19.5t50.5 -19.5t19.5 -47.5q-1 -27 -19.5 -48t-50.5 -20q-32 -1 -50.5 19.5t-18.5 48.5z" />
    <glyph glyph-name="uni01DC" unicode="&#x1dc;" horiz-adv-x="1141" 
d="M885 396v722h87v-1118h-87v182h-8q-40 -87 -127.5 -142t-207.5 -54q-109 0 -193.5 47.5t-132 136t-47.5 210.5v738h87v-735q0 -139 85 -225t220 -86q88 0 161.5 39.5t118 112.5t44.5 172zM341 1380q-1 27 18 47t51 20q31 0 50 -19.5t19 -47.5t-19 -47.5t-50 -20.5
q-31 1 -50.5 20.5t-18.5 47.5zM669 1379q0 28 19 48t50 20q32 0 51 -20t20 -48q-1 -27 -20 -47t-51 -21q-31 1 -50 21t-19 47zM450 1713l181 -260h-87l-213 260h119z" />
    <glyph glyph-name="eturn" unicode="&#x1dd;" horiz-adv-x="1145" 
d="M542 1142q151 0 263 -75t173.5 -205.5t61.5 -297.5q0 -166 -61.5 -297.5t-168.5 -206.5t-246 -75q-94 0 -178 37t-149 108.5t-101.5 174t-36.5 232.5v42h884v-80h-837l40 32q0 -130 47.5 -235.5t132.5 -167t198 -61.5q111 0 199 62.5t138.5 168t50.5 234.5v37
q0 140 -49 251.5t-140.5 175.5t-220.5 64q-91 0 -156.5 -31t-107 -75.5t-62.5 -86.5l-81 33q26 57 79.5 112.5t135.5 92.5t192 37z" />
    <glyph glyph-name="uni01DE" unicode="&#x1de;" horiz-adv-x="1271" 
d="M142 0h-97l539 1490h105l536 -1490h-96l-490 1373h-8zM279 561h715v-84h-715v84zM475 1687q-28 0 -49 21t-21 49q0 30 21 50t49 20q30 0 50 -20t20 -50q0 -28 -20 -49t-50 -21zM800 1687q-28 0 -48.5 21t-20.5 49q0 30 20.5 50t48.5 20q30 0 50 -20t21 -50
q-1 -28 -21 -49t-50 -21zM906 2108v-79h-537v79h537z" />
    <glyph glyph-name="uni01DF" unicode="&#x1df;" horiz-adv-x="1088" 
d="M465 -25q-97 0 -178 39t-129.5 113.5t-48.5 179.5q0 70 25 123.5t76.5 92t132 63.5t192.5 39q86 10 153 20t105 31.5t38 63.5v46q0 122 -77 194t-212 72q-119 0 -201.5 -52.5t-115.5 -135.5l-84 31q33 81 94 133.5t140 78.5t165 26q75 0 143 -20.5t121.5 -64t84 -110
t30.5 -158.5v-780h-88v201h-6q-29 -62 -80 -113t-121.5 -82t-158.5 -31zM473 57q105 0 185.5 52t126.5 141.5t46 202.5v165q-17 -14 -48.5 -25.5t-71 -20.5t-82.5 -15t-84 -11q-123 -14 -199.5 -44.5t-112.5 -79t-36 -118.5q0 -114 79.5 -180.5t196.5 -66.5zM390 1315
q-28 0 -49 21t-21 49q0 30 21 50t49 20q30 0 50 -20t20 -50q0 -28 -20 -49t-50 -21zM715 1315q-28 0 -48.5 21t-20.5 49q0 30 20.5 50t48.5 20q30 0 50 -20t21 -50q-1 -28 -21 -49t-50 -21zM821 1736v-79h-537v79h537z" />
    <glyph glyph-name="uni01E0" unicode="&#x1e0;" horiz-adv-x="1271" 
d="M142 0h-97l539 1490h105l536 -1490h-96l-490 1373h-8zM279 561h715v-84h-715v84zM636 1688q-29 -1 -50.5 20t-20.5 49q-1 30 20.5 50t50.5 20q30 0 51 -20t20 -50q1 -28 -20 -49t-51 -20zM904 2109v-80h-537v80h537z" />
    <glyph glyph-name="uni01E1" unicode="&#x1e1;" horiz-adv-x="1088" 
d="M465 -25q-97 0 -178 39t-129.5 113.5t-48.5 179.5q0 70 25 123.5t76.5 92t132 63.5t192.5 39q86 10 153 20t105 31.5t38 63.5v46q0 122 -77 194t-212 72q-119 0 -201.5 -52.5t-115.5 -135.5l-84 31q33 81 94 133.5t140 78.5t165 26q75 0 143 -20.5t121.5 -64t84 -110
t30.5 -158.5v-780h-88v201h-6q-29 -62 -80 -113t-121.5 -82t-158.5 -31zM473 57q105 0 185.5 52t126.5 141.5t46 202.5v165q-17 -14 -48.5 -25.5t-71 -20.5t-82.5 -15t-84 -11q-123 -14 -199.5 -44.5t-112.5 -79t-36 -118.5q0 -114 79.5 -180.5t196.5 -66.5zM552 1329
q-29 -1 -50.5 20t-20.5 49q-1 30 20.5 50t50.5 20q30 0 51 -20t20 -50q1 -28 -20 -49t-51 -20zM820 1750v-80h-537v80h537z" />
    <glyph glyph-name="uni01E2" unicode="&#x1e2;" horiz-adv-x="1953" 
d="M45 0l748 1490h1014v-85h-736v-618h693v-84h-693v-619h755v-84h-847v1405h-132l-700 -1405h-102zM354 477v84h672v-84h-672zM1530 1795v-79h-537v79h537z" />
    <glyph glyph-name="uni01E3" unicode="&#x1e3;" horiz-adv-x="1851" 
d="M1309 -24q-174 0 -293.5 97t-162.5 252l20 508q56 137 163.5 218.5t250.5 81.5q94 0 178 -37t148.5 -107.5t102 -170t37.5 -223.5v-56h-880v81h789q0 121 -49 218.5t-134 155t-192 57.5q-110 0 -198 -62.5t-139 -168t-51 -234.5v-37q0 -140 49 -250.5t140.5 -175
t220.5 -64.5q91 0 156 30.5t106.5 75.5t62.5 86l81 -33q-25 -56 -78.5 -112t-135.5 -93t-192 -37zM473 59q105 0 185.5 51t126.5 140.5t46 202.5v165q-17 -14 -48.5 -25.5t-71 -20.5t-82.5 -15t-84 -11q-123 -14 -199 -44.5t-111.5 -79t-35.5 -118.5q0 -114 78.5 -179.5
t195.5 -65.5zM465 -25q-97 0 -178 39t-129.5 113.5t-48.5 179.5q0 70 25 123.5t76.5 92t132.5 63.5t192 39q86 10 153 20t105 31.5t38 63.5v46q0 122 -77 194t-212 72q-119 0 -201.5 -52.5t-115.5 -135.5l-84 31q33 81 94 133.5t140 78.5t165 26q72 0 135.5 -19.5t114 -57.5
t82.5 -94.5t41 -130.5l-23 -530h-10q-29 -110 -94 -182.5t-149 -108t-172 -35.5zM1197 1423v-79h-537v79h537z" />
    <glyph glyph-name="Gbar" unicode="&#x1e4;" horiz-adv-x="1483" 
d="M1452 423v-80h-669v80h669zM759 -20q-191 0 -334 95t-222.5 267t-79.5 402q0 232 79.5 404t221.5 267t329 95q126 0 227 -41.5t175 -112t119.5 -157t61.5 -175.5h-94q-17 75 -56.5 146.5t-101.5 128.5t-145 90.5t-186 33.5q-158 0 -280.5 -82.5t-191.5 -235t-69 -361.5
q0 -206 69 -358t192.5 -235.5t285.5 -83.5q147 0 259 66t175.5 192t63.5 304l32 -16h-506v84h563v-84q0 -196 -75.5 -338.5t-208 -218.5t-303.5 -76z" />
    <glyph glyph-name="gbar" unicode="&#x1e5;" horiz-adv-x="1177" 
d="M571 -442q-157 0 -263.5 60t-152.5 164l74 44q25 -54 71 -96.5t113.5 -66.5t157.5 -24q161 0 255.5 83.5t94.5 254.5v278h-9q-25 -72 -75.5 -128.5t-122 -88.5t-163.5 -32q-132 0 -232.5 68.5t-157 192.5t-56.5 292t55.5 297.5t156.5 203t236 73.5q96 0 167 -36
t119 -96.5t74 -132.5h10v250h86v-1145q0 -139 -55 -231.5t-154 -138t-229 -45.5zM559 88q168 0 265.5 126.5t97.5 345.5q0 141 -43 252t-124 175t-196 64t-197 -65t-125.5 -176.5t-43.5 -249.5q0 -139 44 -245.5t126 -166.5t196 -60zM675 521v76h583v-76h-583z" />
    <glyph glyph-name="Gcaron" unicode="&#x1e6;" horiz-adv-x="1483" 
d="M759 -20q-191 0 -334 95t-222.5 267t-79.5 402q0 232 79.5 404t221.5 267t329 95q126 0 227 -41.5t175 -112t119.5 -157t61.5 -175.5h-94q-17 75 -56.5 146.5t-101.5 128.5t-145 90.5t-186 33.5q-158 0 -280.5 -82.5t-191.5 -235t-69 -361.5q0 -206 69 -358t192.5 -235.5
t285.5 -83.5q147 0 259 66t175.5 192t63.5 304l32 -16h-506v84h563v-84q0 -196 -75.5 -338.5t-208 -218.5t-303.5 -76zM550 1929l196 -217l195 217h92v-8l-257 -284h-61l-255 284v8h90z" />
    <glyph glyph-name="gcaron" unicode="&#x1e7;" horiz-adv-x="1177" 
d="M571 -442q-157 0 -263.5 60t-152.5 164l74 44q25 -54 71 -96.5t113.5 -66.5t157.5 -24q161 0 255.5 83.5t94.5 254.5v278h-9q-25 -72 -75.5 -128.5t-122 -88.5t-163.5 -32q-132 0 -232.5 68.5t-157 192.5t-56.5 292t55.5 297.5t156.5 203t236 73.5q96 0 167 -36
t119 -96.5t74 -132.5h10v250h86v-1145q0 -139 -55 -231.5t-154 -138t-229 -45.5zM559 88q168 0 265.5 126.5t97.5 345.5q0 141 -43 252t-124 175t-196 64t-197 -65t-125.5 -176.5t-43.5 -249.5q0 -139 44 -245.5t126 -166.5t196 -60zM394 1557l196 -217l195 217h92v-8
l-257 -284h-61l-255 284v8h90z" />
    <glyph glyph-name="uni01E8" unicode="&#x1e8;" horiz-adv-x="1255" 
d="M199 0v1490h92v-865h10l784 865h121l-645 -705l640 -785h-114l-585 720l-211 -235v-485h-92zM438 1929l196 -217l195 217h92v-8l-257 -284h-61l-255 284v8h90z" />
    <glyph glyph-name="uni01E9" unicode="&#x1e9;" horiz-adv-x="1005" 
d="M245 436l-2 128h24l559 554h115l-512 -511l-10 -4zM169 0v1490h87v-1490h-87zM850 0l-471 595l65 60l521 -655h-115zM17 1929l196 -217l195 217h92v-8l-257 -284h-61l-255 284v8h90z" />
    <glyph glyph-name="uni01EA" unicode="&#x1ea;" horiz-adv-x="1508" 
d="M755 -20q-186 0 -328.5 95.5t-223 267.5t-80.5 401q0 231 80.5 403t223 267.5t328.5 95.5t328 -95.5t222 -267.5t80 -403q0 -230 -80 -402t-222 -267t-328 -95zM755 67q158 0 280 83t191.5 235.5t69.5 358.5q0 207 -69.5 359.5t-191.5 236t-280 83.5t-280.5 -82.5
t-192.5 -235t-70 -361.5q0 -206 69.5 -358t192 -235.5t281.5 -83.5zM757 -442q-81 0 -133 45.5t-51 131.5q0 54 22 101.5t65.5 93t107.5 89.5l57 -21q-72 -66 -117.5 -127t-45.5 -128q0 -54 28.5 -80t80.5 -26q32 0 56.5 9.5t47.5 24.5l21 -68q-29 -20 -63 -32.5t-76 -12.5z
" />
    <glyph glyph-name="uni01EB" unicode="&#x1eb;" horiz-adv-x="1166" 
d="M583 -24q-138 0 -246 75t-170 205.5t-62 298.5t62 298.5t170 205t246 74.5t246 -74.5t170 -205.5t62 -298q0 -168 -62 -298.5t-169.5 -205.5t-246.5 -75zM583 58q118 0 205.5 66.5t136 179t48.5 251.5q0 138 -49 250.5t-136 179t-205 66.5q-116 0 -204 -66.5t-137 -179
t-49 -250.5q0 -139 49 -251.5t136.5 -179t204.5 -66.5zM590 -440q-81 0 -133 45.5t-51 131.5q0 54 22 101.5t65.5 93t107.5 89.5l57 -21q-72 -66 -117.5 -127t-45.5 -128q0 -54 28.5 -80t80.5 -26q32 0 56.5 9.5t47.5 24.5l21 -68q-29 -20 -63 -32.5t-76 -12.5z" />
    <glyph glyph-name="uni01EC" unicode="&#x1ec;" horiz-adv-x="1508" 
d="M755 -20q-186 0 -328.5 95.5t-223 267.5t-80.5 401q0 231 80.5 403t223 267.5t328.5 95.5t328 -95.5t222 -267.5t80 -403q0 -230 -80 -402t-222 -267t-328 -95zM755 67q158 0 280 83t191.5 235.5t69.5 358.5q0 207 -69.5 359.5t-191.5 236t-280 83.5t-280.5 -82.5
t-192.5 -235t-70 -361.5q0 -206 69.5 -358t192 -235.5t281.5 -83.5zM757 -442q-81 0 -133 45.5t-51 131.5q0 54 22 101.5t65.5 93t107.5 89.5l57 -21q-72 -66 -117.5 -127t-45.5 -128q0 -54 28.5 -80t80.5 -26q32 0 56.5 9.5t47.5 24.5l21 -68q-29 -20 -63 -32.5t-76 -12.5z
M1023 1795v-79h-537v79h537z" />
    <glyph glyph-name="uni01ED" unicode="&#x1ed;" horiz-adv-x="1166" 
d="M583 -24q-138 0 -246 75t-170 205.5t-62 298.5t62 298.5t170 205t246 74.5t246 -74.5t170 -205.5t62 -298q0 -168 -62 -298.5t-169.5 -205.5t-246.5 -75zM583 58q118 0 205.5 66.5t136 179t48.5 251.5q0 138 -49 250.5t-136 179t-205 66.5q-116 0 -204 -66.5t-137 -179
t-49 -250.5q0 -139 49 -251.5t136.5 -179t204.5 -66.5zM590 -440q-81 0 -133 45.5t-51 131.5q0 54 22 101.5t65.5 93t107.5 89.5l57 -21q-72 -66 -117.5 -127t-45.5 -128q0 -54 28.5 -80t80.5 -26q32 0 56.5 9.5t47.5 24.5l21 -68q-29 -20 -63 -32.5t-76 -12.5zM851 1423
v-79h-537v79h537z" />
    <glyph glyph-name="uni01EE" unicode="&#x1ee;" horiz-adv-x="1380" 
d="M101 69h92q2 -123 67 -219.5t173.5 -151.5t241.5 -55q143 0 253 67t172 182.5t62 262.5q0 158 -74.5 278t-206.5 190t-304 76h-83v80l598 639v-15h-911v87h1026v-69l-592 -636v-8q189 -8 332.5 -90t224.5 -219t80 -312q0 -120 -39 -228t-114.5 -191t-182.5 -130.5
t-242 -47.5q-158 0 -287 64.5t-206 180t-80 265.5zM494 1929l196 -217l195 217h92v-8l-257 -284h-61l-255 284v8h90z" />
    <glyph glyph-name="uni01EF" unicode="&#x1ef;" horiz-adv-x="1243" 
d="M162 0h94q2 -92 51.5 -161t133 -108t187.5 -39q114 0 197.5 46.5t129 126t45.5 178.5q0 103 -52.5 184.5t-158.5 129.5t-267 47h-41v81l436 541v7h-689v85h818v-69l-452 -561v-8q146 -6 258 -61t175.5 -151t63.5 -225q0 -121 -58 -220t-161.5 -157t-245.5 -58
q-128 0 -232 49t-166 137.5t-66 205.5zM411 1557l196 -217l195 217h92v-8l-257 -284h-61l-255 284v8h90z" />
    <glyph glyph-name="uni01F0" unicode="&#x1f0;" horiz-adv-x="429" 
d="M173 1118h87v-1253q0 -87 -35.5 -150.5t-97.5 -98t-144 -34.5h-24v84h23q82 0 136 52.5t55 146.5v1253zM19 1557l196 -217l195 217h92v-8l-257 -284h-61l-255 284v8h90z" />
    <glyph glyph-name="uni01F1" unicode="&#x1f1;" horiz-adv-x="2655" 
d="M612 0h-363v84h359q200 0 336.5 79.5t206.5 229t70 356.5q0 206 -67 352.5t-196.5 225t-317.5 78.5h-394v85h398q210 0 358.5 -88.5t228 -254.5t79.5 -398q0 -235 -82 -403t-238 -257t-378 -89zM291 1490v-1490h-92v1490h92zM1563 0v74l852 1331h-851v85h960v-76
l-852 -1330h858v-84h-967z" />
    <glyph glyph-name="uni01F2" unicode="&#x1f2;" horiz-adv-x="2465" 
d="M612 0h-363v84h359q200 0 336.5 79.5t206.5 229t70 356.5q0 206 -67 352.5t-196.5 225t-317.5 78.5h-394v85h398q210 0 358.5 -88.5t228 -254.5t79.5 -398q0 -235 -82 -403t-238 -257t-378 -89zM291 1490v-1490h-92v1490h92zM1564 0v74l657 951v8h-622v85h734v-78
l-651 -948v-8h678v-84h-796z" />
    <glyph glyph-name="uni01F3" unicode="&#x1f3;" horiz-adv-x="2098" 
d="M550 -24q-134 0 -234.5 74.5t-155.5 205.5t-55 300q0 168 55.5 298.5t156 204.5t234.5 74q96 0 167.5 -36t120 -96.5t73.5 -132.5h9v622h87v-1490h-85v244h-11q-26 -72 -74.5 -133t-120 -98t-167.5 -37zM557 58q114 0 195.5 65t125 178t43.5 256q0 142 -43.5 254
t-125 176t-195.5 64t-195.5 -65t-125 -177t-43.5 -252q0 -141 43.5 -254t125 -179t195.5 -66zM1197 0v74l657 951v8h-622v85h734v-78l-651 -948v-8h678v-84h-796z" />
    <glyph glyph-name="uni01F4" unicode="&#x1f4;" horiz-adv-x="1483" 
d="M759 -20q-191 0 -334 95t-222.5 267t-79.5 402q0 232 79.5 404t221.5 267t329 95q126 0 227 -41.5t175 -112t119.5 -157t61.5 -175.5h-94q-17 75 -56.5 146.5t-101.5 128.5t-145 90.5t-186 33.5q-158 0 -280.5 -82.5t-191.5 -235t-69 -361.5q0 -206 69 -358t192.5 -235.5
t285.5 -83.5q147 0 259 66t175.5 192t63.5 304l32 -16h-506v84h563v-84q0 -196 -75.5 -338.5t-208 -218.5t-303.5 -76zM702 1645l183 300h103l-208 -300h-78z" />
    <glyph glyph-name="uni01F5" unicode="&#x1f5;" horiz-adv-x="1177" 
d="M571 -442q-157 0 -263.5 60t-152.5 164l74 44q25 -54 71 -96.5t113.5 -66.5t157.5 -24q161 0 255.5 83.5t94.5 254.5v278h-9q-25 -72 -75.5 -128.5t-122 -88.5t-163.5 -32q-132 0 -232.5 68.5t-157 192.5t-56.5 292t55.5 297.5t156.5 203t236 73.5q96 0 167 -36
t119 -96.5t74 -132.5h10v250h86v-1145q0 -139 -55 -231.5t-154 -138t-229 -45.5zM559 88q168 0 265.5 126.5t97.5 345.5q0 141 -43 252t-124 175t-196 64t-197 -65t-125.5 -176.5t-43.5 -249.5q0 -139 44 -245.5t126 -166.5t196 -60zM546 1273l183 300h103l-208 -300h-78z
" />
    <glyph glyph-name="uni01F6" unicode="&#x1f6;" horiz-adv-x="2242" 
d="M1636 -23q-132 1 -233.5 52t-158 156t-57.5 267v251h-896v-703h-92v1490h92v-703h896v703h92v-1038q-1 -198 92.5 -293t264.5 -94q171 -1 258.5 94t86.5 293v685h92v-685q0 -167 -56 -271.5t-154.5 -153.5t-226.5 -50z" />
    <glyph glyph-name="uni01F7" unicode="&#x1f7;" horiz-adv-x="1052" 
d="M159 1490v-1908h-100v1908h100zM101 -151v86q197 42 345 126t247 202.5t148.5 266t49.5 317.5v33q0 142 -27.5 244.5t-81 168.5t-133 98t-184.5 32q-82 0 -144.5 -20.5t-110 -58.5t-81.5 -92l-15 159q67 48 156 73.5t194 25.5q169 0 287 -68.5t179 -209t61 -356.5v-28
q0 -197 -61.5 -363.5t-177.5 -295t-280.5 -215t-370.5 -125.5z" />
    <glyph glyph-name="uni01F8" unicode="&#x1f8;" horiz-adv-x="1537" 
d="M1339 1490v-1490h-90l-949 1325h-9v-1325h-92v1490h90l950 -1325h9v1325h91zM735 1645l-208 300h103l183 -300h-78z" />
    <glyph glyph-name="uni01F9" unicode="&#x1f9;" horiz-adv-x="1144" 
d="M256 724v-724h-87v1118h85v-177h9q40 86 126.5 138.5t205.5 52.5q113 0 198.5 -47.5t133.5 -136t48 -211.5v-737h-87v733q0 143 -85.5 230t-224.5 87q-92 0 -165 -41t-115 -114t-42 -171zM540 1273l-208 300h103l183 -300h-78z" />
    <glyph glyph-name="Aringacute" unicode="&#x1fa;" horiz-adv-x="1271" 
d="M142 0h-97l539 1490h105l536 -1490h-96l-490 1373h-8zM279 561h715v-84h-715v84zM594 1974l126 153h99l-148 -153h-77zM635 1573q-75 0 -127.5 50t-53.5 122q1 71 53.5 121.5t127.5 50.5q76 0 128.5 -50.5t52.5 -121.5q0 -72 -52.5 -122t-128.5 -50zM635 1635
q48 0 81.5 32.5t33.5 77.5t-33.5 77t-81.5 33q-48 -1 -81 -33t-32 -77q-1 -46 32 -78t81 -32z" />
    <glyph glyph-name="aringacute" unicode="&#x1fb;" horiz-adv-x="1088" 
d="M465 -25q-97 0 -178 39t-129.5 113.5t-48.5 179.5q0 70 25 123.5t76.5 92t132 63.5t192.5 39q86 10 153 20t105 31.5t38 63.5v46q0 122 -77 194t-212 72q-119 0 -201.5 -52.5t-115.5 -135.5l-84 31q33 81 94 133.5t140 78.5t165 26q75 0 143 -20.5t121.5 -64t84 -110
t30.5 -158.5v-780h-88v201h-6q-29 -62 -80 -113t-121.5 -82t-158.5 -31zM473 57q105 0 185.5 52t126.5 141.5t46 202.5v165q-17 -14 -48.5 -25.5t-71 -20.5t-82.5 -15t-84 -11q-123 -14 -199.5 -44.5t-112.5 -79t-36 -118.5q0 -114 79.5 -180.5t196.5 -66.5zM508 1602
l126 153h99l-148 -153h-77zM549 1201q-75 0 -127.5 50t-53.5 122q1 71 53.5 121.5t127.5 50.5q76 0 128.5 -50.5t52.5 -121.5q0 -72 -52.5 -122t-128.5 -50zM549 1263q48 0 81.5 32.5t33.5 77.5t-33.5 77t-81.5 33q-48 -1 -81 -33t-32 -77q-1 -46 32 -78t81 -32z" />
    <glyph glyph-name="AEacute" unicode="&#x1fc;" horiz-adv-x="1953" 
d="M45 0l748 1490h1014v-85h-736v-618h693v-84h-693v-619h755v-84h-847v1405h-132l-700 -1405h-102zM354 477v84h672v-84h-672zM1219 1645l183 300h103l-208 -300h-78z" />
    <glyph glyph-name="aeacute" unicode="&#x1fd;" horiz-adv-x="1851" 
d="M1309 -24q-174 0 -293.5 97t-162.5 252l20 508q56 137 163.5 218.5t250.5 81.5q94 0 178 -37t148.5 -107.5t102 -170t37.5 -223.5v-56h-880v81h789q0 121 -49 218.5t-134 155t-192 57.5q-110 0 -198 -62.5t-139 -168t-51 -234.5v-37q0 -140 49 -250.5t140.5 -175
t220.5 -64.5q91 0 156 30.5t106.5 75.5t62.5 86l81 -33q-25 -56 -78.5 -112t-135.5 -93t-192 -37zM473 59q105 0 185.5 51t126.5 140.5t46 202.5v165q-17 -14 -48.5 -25.5t-71 -20.5t-82.5 -15t-84 -11q-123 -14 -199 -44.5t-111.5 -79t-35.5 -118.5q0 -114 78.5 -179.5
t195.5 -65.5zM465 -25q-97 0 -178 39t-129.5 113.5t-48.5 179.5q0 70 25 123.5t76.5 92t132.5 63.5t192 39q86 10 153 20t105 31.5t38 63.5v46q0 122 -77 194t-212 72q-119 0 -201.5 -52.5t-115.5 -135.5l-84 31q33 81 94 133.5t140 78.5t165 26q72 0 135.5 -19.5t114 -57.5
t82.5 -94.5t41 -130.5l-23 -530h-10q-29 -110 -94 -182.5t-149 -108t-172 -35.5zM885 1273l183 300h103l-208 -300h-78z" />
    <glyph glyph-name="Oslashacute" unicode="&#x1fe;" horiz-adv-x="1508" 
d="M277 -43l-62 42l1014 1533l62 -43zM755 -20q-186 0 -328.5 95.5t-223 267.5t-80.5 401q0 231 80.5 403t223 267.5t328.5 95.5t328 -95.5t222 -267.5t80 -403q0 -230 -80 -402t-222 -267t-328 -95zM755 67q158 0 280 83t191.5 235.5t69.5 358.5q0 207 -69.5 359.5
t-191.5 236t-280 83.5t-280.5 -82.5t-192.5 -235t-70 -361.5q0 -206 69.5 -358t192 -235.5t281.5 -83.5zM711 1645l183 300h103l-208 -300h-78z" />
    <glyph glyph-name="oslashacute" unicode="&#x1ff;" horiz-adv-x="1166" 
d="M226 -40l-62 43l776 1151l62 -42zM583 -23q-138 0 -246 75t-170 206t-62 298q0 168 62 298.5t170 205.5t246 75t246 -75t170 -205.5t62 -298.5q0 -167 -62 -298t-169.5 -206t-246.5 -75zM583 59q118 0 205.5 66.5t136 179.5t48.5 251t-49 251t-136 179.5t-205 66.5
q-116 0 -204 -67t-137 -179.5t-49 -250.5t49 -251t136.5 -179.5t204.5 -66.5zM539 1274l183 300h103l-208 -300h-78z" />
    <glyph glyph-name="uni0200" unicode="&#x200;" horiz-adv-x="1271" 
d="M142 0h-97l539 1490h105l536 -1490h-96l-490 1373h-8zM279 561h715v-84h-715v84zM501 1648l-233 322h111l203 -322h-81zM710 1648l-183 322h111l153 -322h-81z" />
    <glyph glyph-name="uni0201" unicode="&#x201;" horiz-adv-x="1088" 
d="M465 -25q-97 0 -178 39t-129.5 113.5t-48.5 179.5q0 70 25 123.5t76.5 92t132 63.5t192.5 39q86 10 153 20t105 31.5t38 63.5v46q0 122 -77 194t-212 72q-119 0 -201.5 -52.5t-115.5 -135.5l-84 31q33 81 94 133.5t140 78.5t165 26q75 0 143 -20.5t121.5 -64t84 -110
t30.5 -158.5v-780h-88v201h-6q-29 -62 -80 -113t-121.5 -82t-158.5 -31zM473 57q105 0 185.5 52t126.5 141.5t46 202.5v165q-17 -14 -48.5 -25.5t-71 -20.5t-82.5 -15t-84 -11q-123 -14 -199.5 -44.5t-112.5 -79t-36 -118.5q0 -114 79.5 -180.5t196.5 -66.5zM416 1276
l-233 322h111l203 -322h-81zM625 1276l-183 322h111l153 -322h-81z" />
    <glyph glyph-name="uni0202" unicode="&#x202;" horiz-adv-x="1271" 
d="M142 0h-97l539 1490h105l536 -1490h-96l-490 1373h-8zM279 561h715v-84h-715v84zM427 1649q0 90 57.5 145.5t151.5 55.5t151.5 -55.5t57.5 -145.5h-84q0 59 -34 94.5t-91 35.5q-58 0 -91.5 -35.5t-33.5 -94.5h-84z" />
    <glyph glyph-name="uni0203" unicode="&#x203;" horiz-adv-x="1088" 
d="M465 -25q-97 0 -178 39t-129.5 113.5t-48.5 179.5q0 70 25 123.5t76.5 92t132 63.5t192.5 39q86 10 153 20t105 31.5t38 63.5v46q0 122 -77 194t-212 72q-119 0 -201.5 -52.5t-115.5 -135.5l-84 31q33 81 94 133.5t140 78.5t165 26q75 0 143 -20.5t121.5 -64t84 -110
t30.5 -158.5v-780h-88v201h-6q-29 -62 -80 -113t-121.5 -82t-158.5 -31zM473 57q105 0 185.5 52t126.5 141.5t46 202.5v165q-17 -14 -48.5 -25.5t-71 -20.5t-82.5 -15t-84 -11q-123 -14 -199.5 -44.5t-112.5 -79t-36 -118.5q0 -114 79.5 -180.5t196.5 -66.5zM342 1277
q0 90 57.5 145.5t151.5 55.5t151.5 -55.5t57.5 -145.5h-84q0 59 -34 94.5t-91 35.5q-58 0 -91.5 -35.5t-33.5 -94.5h-84z" />
    <glyph glyph-name="uni0204" unicode="&#x204;" horiz-adv-x="1173" 
d="M199 0v1490h829v-85h-737v-616h693v-84h-693v-621h755v-84h-847zM481 1648l-233 322h111l203 -322h-81zM690 1648l-183 322h111l153 -322h-81z" />
    <glyph glyph-name="uni0205" unicode="&#x205;" horiz-adv-x="1145" 
d="M603 -24q-151 0 -263 75t-173.5 206t-61.5 297q0 167 61.5 298t169 206t245.5 75q95 0 179 -37t148.5 -108.5t101.5 -174t37 -232.5v-42h-885v80h837l-40 -32q0 130 -47 235.5t-132 167t-199 61.5q-111 0 -198.5 -62.5t-138.5 -167.5t-51 -235v-37q0 -140 49 -251
t141 -175.5t220 -64.5q92 0 157 31t107 76t62 86l81 -33q-25 -56 -78.5 -112t-135.5 -93t-193 -37zM443 1276l-233 322h111l203 -322h-81zM652 1276l-183 322h111l153 -322h-81z" />
    <glyph glyph-name="uni0206" unicode="&#x206;" horiz-adv-x="1173" 
d="M199 0v1490h829v-85h-737v-616h693v-84h-693v-621h755v-84h-847zM407 1649q0 90 57.5 145.5t151.5 55.5t151.5 -55.5t57.5 -145.5h-84q0 59 -34 94.5t-91 35.5q-58 0 -91.5 -35.5t-33.5 -94.5h-84z" />
    <glyph glyph-name="uni0207" unicode="&#x207;" horiz-adv-x="1145" 
d="M603 -24q-151 0 -263 75t-173.5 206t-61.5 297q0 167 61.5 298t169 206t245.5 75q95 0 179 -37t148.5 -108.5t101.5 -174t37 -232.5v-42h-885v80h837l-40 -32q0 130 -47 235.5t-132 167t-199 61.5q-111 0 -198.5 -62.5t-138.5 -167.5t-51 -235v-37q0 -140 49 -251
t141 -175.5t220 -64.5q92 0 157 31t107 76t62 86l81 -33q-25 -56 -78.5 -112t-135.5 -93t-193 -37zM369 1277q0 90 57.5 145.5t151.5 55.5t151.5 -55.5t57.5 -145.5h-84q0 59 -34 94.5t-91 35.5q-58 0 -91.5 -35.5t-33.5 -94.5h-84z" />
    <glyph glyph-name="uni0208" unicode="&#x208;" horiz-adv-x="489" 
d="M291 1490v-1490h-92v1490h92zM110 1648l-233 322h111l203 -322h-81zM319 1648l-183 322h111l153 -322h-81z" />
    <glyph glyph-name="uni0209" unicode="&#x209;" horiz-adv-x="425" 
d="M169 0v1118h87v-1118h-87zM77 1276l-233 322h111l203 -322h-81zM286 1276l-183 322h111l153 -322h-81z" />
    <glyph glyph-name="uni020A" unicode="&#x20a;" horiz-adv-x="489" 
d="M291 1490v-1490h-92v1490h92zM36 1649q0 90 57.5 145.5t151.5 55.5t151.5 -55.5t57.5 -145.5h-84q0 59 -34 94.5t-91 35.5q-58 0 -91.5 -35.5t-33.5 -94.5h-84z" />
    <glyph glyph-name="uni020B" unicode="&#x20b;" horiz-adv-x="425" 
d="M169 0v1118h87v-1118h-87zM3 1277q0 90 57.5 145.5t151.5 55.5t151.5 -55.5t57.5 -145.5h-84q0 59 -34 94.5t-91 35.5q-58 0 -91.5 -35.5t-33.5 -94.5h-84z" />
    <glyph glyph-name="uni020C" unicode="&#x20c;" horiz-adv-x="1508" 
d="M755 -20q-186 0 -328.5 95.5t-223 267.5t-80.5 401q0 231 80.5 403t223 267.5t328.5 95.5t328 -95.5t222 -267.5t80 -403q0 -230 -80 -402t-222 -267t-328 -95zM755 67q158 0 280 83t191.5 235.5t69.5 358.5q0 207 -69.5 359.5t-191.5 236t-280 83.5t-280.5 -82.5
t-192.5 -235t-70 -361.5q0 -206 69.5 -358t192 -235.5t281.5 -83.5zM620 1648l-233 322h111l203 -322h-81zM829 1648l-183 322h111l153 -322h-81z" />
    <glyph glyph-name="uni020D" unicode="&#x20d;" horiz-adv-x="1166" 
d="M583 -24q-138 0 -246 75t-170 205.5t-62 298.5t62 298.5t170 205t246 74.5t246 -74.5t170 -205.5t62 -298q0 -168 -62 -298.5t-169.5 -205.5t-246.5 -75zM583 58q118 0 205.5 66.5t136 179t48.5 251.5q0 138 -49 250.5t-136 179t-205 66.5q-116 0 -204 -66.5t-137 -179
t-49 -250.5q0 -139 49 -251.5t136.5 -179t204.5 -66.5zM449 1276l-233 322h111l203 -322h-81zM658 1276l-183 322h111l153 -322h-81z" />
    <glyph glyph-name="uni020E" unicode="&#x20e;" horiz-adv-x="1508" 
d="M755 -20q-186 0 -328.5 95.5t-223 267.5t-80.5 401q0 231 80.5 403t223 267.5t328.5 95.5t328 -95.5t222 -267.5t80 -403q0 -230 -80 -402t-222 -267t-328 -95zM755 67q158 0 280 83t191.5 235.5t69.5 358.5q0 207 -69.5 359.5t-191.5 236t-280 83.5t-280.5 -82.5
t-192.5 -235t-70 -361.5q0 -206 69.5 -358t192 -235.5t281.5 -83.5zM546 1649q0 90 57.5 145.5t151.5 55.5t151.5 -55.5t57.5 -145.5h-84q0 59 -34 94.5t-91 35.5q-58 0 -91.5 -35.5t-33.5 -94.5h-84z" />
    <glyph glyph-name="uni020F" unicode="&#x20f;" horiz-adv-x="1166" 
d="M583 -24q-138 0 -246 75t-170 205.5t-62 298.5t62 298.5t170 205t246 74.5t246 -74.5t170 -205.5t62 -298q0 -168 -62 -298.5t-169.5 -205.5t-246.5 -75zM583 58q118 0 205.5 66.5t136 179t48.5 251.5q0 138 -49 250.5t-136 179t-205 66.5q-116 0 -204 -66.5t-137 -179
t-49 -250.5q0 -139 49 -251.5t136.5 -179t204.5 -66.5zM375 1277q0 90 57.5 145.5t151.5 55.5t151.5 -55.5t57.5 -145.5h-84q0 59 -34 94.5t-91 35.5q-58 0 -91.5 -35.5t-33.5 -94.5h-84z" />
    <glyph glyph-name="uni0210" unicode="&#x210;" horiz-adv-x="1245" 
d="M199 0v1490h460q141 0 242.5 -55t155.5 -153.5t54 -228.5q0 -127 -54 -224.5t-155 -152t-243 -54.5h-411v86h409q114 0 195.5 42.5t125 120t43.5 182.5q0 107 -43.5 185.5t-125 122.5t-195.5 44h-366v-1405h-92zM1073 0l-364 675h102l366 -675h-104zM482 1648l-233 322
h111l203 -322h-81zM691 1648l-183 322h111l153 -322h-81z" />
    <glyph glyph-name="uni0211" unicode="&#x211;" horiz-adv-x="666" 
d="M169 0v1118h85v-175h8q37 85 123.5 137.5t196.5 52.5q12 0 23.5 -0.5t22.5 -0.5v-89q-6 1 -20 2.5t-31 1.5q-93 0 -165.5 -40.5t-114 -110.5t-41.5 -161v-735h-87zM275 1276l-233 322h111l203 -322h-81zM484 1276l-183 322h111l153 -322h-81z" />
    <glyph glyph-name="uni0212" unicode="&#x212;" horiz-adv-x="1245" 
d="M199 0v1490h460q141 0 242.5 -55t155.5 -153.5t54 -228.5q0 -127 -54 -224.5t-155 -152t-243 -54.5h-411v86h409q114 0 195.5 42.5t125 120t43.5 182.5q0 107 -43.5 185.5t-125 122.5t-195.5 44h-366v-1405h-92zM1073 0l-364 675h102l366 -675h-104zM408 1649
q0 90 57.5 145.5t151.5 55.5t151.5 -55.5t57.5 -145.5h-84q0 59 -34 94.5t-91 35.5q-58 0 -91.5 -35.5t-33.5 -94.5h-84z" />
    <glyph glyph-name="uni0213" unicode="&#x213;" horiz-adv-x="666" 
d="M169 0v1118h85v-175h8q37 85 123.5 137.5t196.5 52.5q12 0 23.5 -0.5t22.5 -0.5v-89q-6 1 -20 2.5t-31 1.5q-93 0 -165.5 -40.5t-114 -110.5t-41.5 -161v-735h-87zM201 1277q0 90 57.5 145.5t151.5 55.5t151.5 -55.5t57.5 -145.5h-84q0 59 -34 94.5t-91 35.5
q-58 0 -91.5 -35.5t-33.5 -94.5h-84z" />
    <glyph glyph-name="uni0214" unicode="&#x214;" horiz-adv-x="1498" 
d="M1207 1490h92v-986q0 -152 -70.5 -271.5t-194.5 -188.5t-285 -69q-159 0 -283.5 69t-195.5 188.5t-71 271.5v986h92v-981q0 -129 58 -229.5t162 -158.5t238 -58q136 0 239 58t161 158.5t58 229.5v981zM615 1648l-233 322h111l203 -322h-81zM824 1648l-183 322h111
l153 -322h-81z" />
    <glyph glyph-name="uni0215" unicode="&#x215;" horiz-adv-x="1141" 
d="M885 396v722h87v-1118h-87v182h-8q-40 -87 -127.5 -142t-207.5 -54q-109 0 -193.5 47.5t-132 136t-47.5 210.5v738h87v-735q0 -139 85 -225t220 -86q88 0 161.5 39.5t118 112.5t44.5 172zM436 1276l-233 322h111l203 -322h-81zM645 1276l-183 322h111l153 -322h-81z" />
    <glyph glyph-name="uni0216" unicode="&#x216;" horiz-adv-x="1498" 
d="M1207 1490h92v-986q0 -152 -70.5 -271.5t-194.5 -188.5t-285 -69q-159 0 -283.5 69t-195.5 188.5t-71 271.5v986h92v-981q0 -129 58 -229.5t162 -158.5t238 -58q136 0 239 58t161 158.5t58 229.5v981zM541 1649q0 90 57.5 145.5t151.5 55.5t151.5 -55.5t57.5 -145.5h-84
q0 59 -34 94.5t-91 35.5q-58 0 -91.5 -35.5t-33.5 -94.5h-84z" />
    <glyph glyph-name="uni0217" unicode="&#x217;" horiz-adv-x="1141" 
d="M885 396v722h87v-1118h-87v182h-8q-40 -87 -127.5 -142t-207.5 -54q-109 0 -193.5 47.5t-132 136t-47.5 210.5v738h87v-735q0 -139 85 -225t220 -86q88 0 161.5 39.5t118 112.5t44.5 172zM362 1277q0 90 57.5 145.5t151.5 55.5t151.5 -55.5t57.5 -145.5h-84
q0 59 -34 94.5t-91 35.5q-58 0 -91.5 -35.5t-33.5 -94.5h-84z" />
    <glyph glyph-name="uni0218" unicode="&#x218;" horiz-adv-x="1239" 
d="M616 -25q-144 0 -250.5 49t-168 136t-69.5 201h93q7 -92 59 -159.5t138.5 -104t197.5 -36.5q120 0 211.5 41t143.5 115t52 171q0 78 -37.5 133.5t-109.5 96.5t-179 73l-173 52q-176 54 -267.5 145.5t-91.5 228.5q0 115 60.5 204t166 139.5t237.5 50.5q133 0 234.5 -51
t161.5 -139.5t66 -202.5h-89q-12 138 -113.5 223.5t-261.5 85.5q-108 0 -193 -39.5t-133 -109t-48 -159.5q0 -76 39 -132.5t108.5 -96t158.5 -66.5l163 -49q83 -25 154 -58.5t124 -79.5t82 -107.5t29 -142.5q0 -118 -60.5 -211t-171.5 -147t-263 -54zM482 -519l90 376h92
l-113 -376h-69z" />
    <glyph glyph-name="uni0219" unicode="&#x219;" horiz-adv-x="998" 
d="M877 877l-82 -22q-30 91 -96.5 144.5t-181.5 53.5q-123 0 -201 -61t-78 -159q0 -80 52.5 -133t160.5 -80l173 -43q131 -32 199 -104.5t68 -180.5q0 -93 -50 -164t-139 -111.5t-205 -40.5q-156 0 -256.5 74t-129.5 210l84 21q25 -110 101.5 -167t200.5 -57q136 0 220 65.5
t84 166.5q0 158 -199 207l-178 44q-137 34 -205.5 108t-68.5 181q0 91 47 159t130 106.5t190 38.5q142 0 231 -66.5t129 -189.5zM370 -494l90 376h92l-113 -376h-69z" />
    <glyph glyph-name="uni021A.1" unicode="&#x21a;" horiz-adv-x="1243" 
d="M101 1405v85h1043v-85h-476v-1405h-91v1405h-476zM483 -494l90 376h92l-113 -376h-69z" />
    <glyph glyph-name="uni021B" unicode="&#x21b;" horiz-adv-x="691" 
d="M562 1118v-79h-487v79h487zM240 1384h87v-1120q0 -94 54 -145t136 -51q20 0 38 3t38 9l22 -79q-23 -9 -48.5 -14t-54.5 -5q-114 0 -193 72.5t-79 194.5v1135zM274 -494l90 376h92l-113 -376h-69z" />
    <glyph glyph-name="uni021C" unicode="&#x21c;" horiz-adv-x="1205" 
d="M194 361v80q176 53 319 122.5t245 154.5t156 182.5t53 206.5q0 145 -99 230t-263 86q-115 0 -203.5 -41t-137.5 -111t-49 -158h-101q1 116 64 205.5t173.5 140.5t253.5 51q136 0 240 -49t163 -139t59 -211q0 -126 -64.5 -240.5t-182 -212.5t-277 -173.5t-349.5 -123.5z
M801 695l54 62q77 -38 129.5 -97.5t80 -143.5t27.5 -195q0 -150 -53 -262.5t-162.5 -200t-279.5 -158.5t-403 -136v87q215 62 366.5 127t246.5 142t139 175.5t44 228.5q1 143 -46.5 235.5t-142.5 135.5z" />
    <glyph glyph-name="uni021D" unicode="&#x21d;" horiz-adv-x="1023" 
d="M186 246v81q177 28 312.5 96.5t211.5 168t75 219.5q-3 107 -69.5 172.5t-192.5 65.5q-85 0 -153 -31.5t-108 -90t-39 -139.5h-97q0 106 52 183.5t142.5 120t205.5 41.5q166 1 261.5 -88t94.5 -235q0 -140 -90.5 -257.5t-247 -197.5t-358.5 -109zM661 481l59 55
q90 -58 136 -152t46 -230q2 -264 -174.5 -410.5t-541.5 -179.5v84q215 23 351.5 85t202 167.5t65.5 256.5q0 115 -37.5 196.5t-106.5 127.5z" />
    <glyph glyph-name="uni021E" unicode="&#x21e;" horiz-adv-x="1477" 
d="M199 0v1490h92v-703h896v703h91v-1490h-91v703h-896v-703h-92zM543 1929l196 -217l195 217h92v-8l-257 -284h-61l-255 284v8h90z" />
    <glyph glyph-name="uni021F" unicode="&#x21f;" horiz-adv-x="1148" 
d="M256 724v-724h-87v1490h87v-549h9q40 87 126 139t206 52q114 0 200 -47.5t134 -136t48 -211.5v-737h-88v733q0 144 -85 230.5t-225 86.5q-94 0 -167.5 -41t-115.5 -114t-42 -171zM17 1929l196 -217l195 217h92v-8l-257 -284h-61l-255 284v8h90z" />
    <glyph glyph-name="uni0220" unicode="&#x220;" horiz-adv-x="1107" 
d="M1021 -417h-99v1390q1 168 -45.5 267t-137.5 141.5t-224 42.5q-106 -1 -194 -25.5t-157 -71.5l-15 81q70 47 162.5 74.5t206.5 27.5q151 0 264 -54t176 -172t63 -314v-1387zM189 1490v-1490h-97v1490h97z" />
    <glyph glyph-name="uni0221" unicode="&#x221;" horiz-adv-x="1441" 
d="M919 121h88v-268q0 -82 54.5 -134t133.5 -52q75 0 125.5 46.5t50.5 112.5q0 65 -49.5 110.5t-123.5 48.5q-74 2 -139 -48.5t-143 -167.5l-134 -160l-63 54l120 147q94 137 180 196.5t178 59.5q112 0 188 -68.5t76 -171.5q0 -67 -34.5 -121.5t-94.5 -86t-137 -31.5
q-86 0 -148 38t-95 100t-33 134v262zM549 -24q-134 0 -234.5 74.5t-155.5 205.5t-55 300q0 168 55.5 298.5t156 204.5t233.5 74q96 0 167.5 -36t120.5 -96.5t74 -132.5h8v622h88v-1490h-86v244h-10q-26 -72 -74.5 -133t-120 -98t-167.5 -37zM556 58q114 0 195.5 65t125 178
t43.5 256q0 142 -43.5 254t-125 176t-195.5 64t-195.5 -65t-125 -177t-43.5 -252q0 -141 43.5 -254t125 -179t195.5 -66z" />
    <glyph glyph-name="uni0222" unicode="&#x222;" horiz-adv-x="1171" 
d="M570 847h31q164 1 280 -48.5t178 -146t62 -236.5q0 -145 -64.5 -242t-182.5 -145.5t-280 -48.5h-16q-162 0 -281 48t-183 145t-64 242q0 142 61.5 238t178 145.5t280.5 48.5zM601 764h-31q-209 0 -314.5 -88t-106.5 -261q1 -175 111.5 -261t316.5 -86h17
q206 0 316.5 85.5t110.5 262.5q0 171 -106.5 259.5t-313.5 88.5zM567 852h38q123 1 213 30.5t139.5 96t49.5 174.5q0 122 -60.5 190.5t-161.5 87.5v84q92 -10 164.5 -53.5t115 -120.5t42.5 -188q0 -133 -63 -218.5t-176.5 -125.5t-264.5 -40h-36q-150 0 -263.5 40
t-176.5 124.5t-64 219.5q1 107 40.5 182t108 118.5t155.5 56.5v-86q-94 -21 -149 -87.5t-54 -183.5q0 -109 49 -175t139.5 -95.5t214.5 -30.5z" />
    <glyph glyph-name="uni0223" unicode="&#x223;" horiz-adv-x="1207" 
d="M570 846h67q162 0 278 -48.5t178.5 -143t62.5 -234.5q0 -143 -64.5 -241t-182.5 -148.5t-279 -50.5h-52q-161 0 -279.5 50t-183 148t-64.5 241q0 141 62 235.5t178.5 143t278.5 48.5zM637 764h-67q-204 0 -312.5 -86t-108.5 -259t112.5 -264t315.5 -91h53q202 0 315 91
t112 265q1 171 -108.5 257.5t-311.5 86.5zM650 849q123 0 213.5 35t140.5 107t50 182q0 128 -57.5 202.5t-166.5 99.5v81q98 -11 170 -59t112 -129.5t40 -194.5q0 -135 -63.5 -225t-176.5 -135t-263 -46h-92q-150 1 -263 46t-176 135t-63 225q0 110 37 189.5t105.5 127.5
t160.5 61v-83q-101 -27 -153 -99.5t-52 -195.5q0 -110 49.5 -182.5t140 -107t214.5 -34.5h93z" />
    <glyph glyph-name="uni0224" unicode="&#x224;" horiz-adv-x="1191" 
d="M111 1405v85h960v-76l-852 -1330h634q110 1 170.5 -62.5t61.5 -170.5v-49h-86v21q1 58 -13.5 97t-46.5 59.5t-87 20.5h-741v74l851 1331h-851z" />
    <glyph glyph-name="uni0225" unicode="&#x225;" horiz-adv-x="1031" 
d="M890 -201v20q0 59 -14 99.5t-47 61t-90 20.5h-607v79l657 954h-633v85h743v-78l-658 -956h500q111 1 171 -63.5t61 -169.5v-52h-83z" />
    <glyph glyph-name="uni0226" unicode="&#x226;" horiz-adv-x="1271" 
d="M142 0h-97l539 1490h105l536 -1490h-96l-490 1373h-8zM279 561h715v-84h-715v84zM637 1687q-30 0 -51 21t-21 49q0 29 21 49.5t50 20.5q30 0 51 -20.5t21 -49.5q0 -28 -21 -49t-50 -21z" />
    <glyph glyph-name="uni0227" unicode="&#x227;" horiz-adv-x="1088" 
d="M465 -25q-97 0 -178 39t-129.5 113.5t-48.5 179.5q0 70 25 123.5t76.5 92t132 63.5t192.5 39q86 10 153 20t105 31.5t38 63.5v46q0 122 -77 194t-212 72q-119 0 -201.5 -52.5t-115.5 -135.5l-84 31q33 81 94 133.5t140 78.5t165 26q75 0 143 -20.5t121.5 -64t84 -110
t30.5 -158.5v-780h-88v201h-6q-29 -62 -80 -113t-121.5 -82t-158.5 -31zM473 57q105 0 185.5 52t126.5 141.5t46 202.5v165q-17 -14 -48.5 -25.5t-71 -20.5t-82.5 -15t-84 -11q-123 -14 -199.5 -44.5t-112.5 -79t-36 -118.5q0 -114 79.5 -180.5t196.5 -66.5zM551 1315
q-30 0 -51 21t-21 49q0 29 21 49.5t50 20.5q30 0 51 -20.5t21 -49.5q0 -28 -21 -49t-50 -21z" />
    <glyph glyph-name="uni0228" unicode="&#x228;" horiz-adv-x="1173" 
d="M199 0v1490h829v-85h-737v-616h693v-84h-693v-621h755v-84h-847zM550 6h79l-12 -58q69 -11 110 -54t42 -117q-1 -82 -59.5 -126t-173.5 -47l-3 70q77 1 115 25.5t39 75.5q-1 60 -40.5 87.5t-120.5 28.5z" />
    <glyph glyph-name="uni0229" unicode="&#x229;" horiz-adv-x="1145" 
d="M603 -24q-151 0 -263 75t-173.5 206t-61.5 297q0 167 61.5 298t169 206t245.5 75q95 0 179 -37t148.5 -108.5t101.5 -174t37 -232.5v-42h-885v80h837l-40 -32q0 130 -47 235.5t-132 167t-199 61.5q-111 0 -198.5 -62.5t-138.5 -167.5t-51 -235v-37q0 -140 49 -251
t141 -175.5t220 -64.5q92 0 157 31t107 76t62 86l81 -33q-25 -56 -78.5 -112t-135.5 -93t-193 -37zM540 6h79l-12 -58q69 -11 110 -54t42 -117q-1 -82 -59.5 -126t-173.5 -47l-3 70q77 1 115 25.5t39 75.5q-1 60 -40.5 87.5t-120.5 28.5z" />
    <glyph glyph-name="uni022A" unicode="&#x22a;" horiz-adv-x="1508" 
d="M755 -20q-186 0 -328.5 95.5t-223 267.5t-80.5 401q0 231 80.5 403t223 267.5t328.5 95.5t328 -95.5t222 -267.5t80 -403q0 -230 -80 -402t-222 -267t-328 -95zM755 67q158 0 280 83t191.5 235.5t69.5 358.5q0 207 -69.5 359.5t-191.5 236t-280 83.5t-280.5 -82.5
t-192.5 -235t-70 -361.5q0 -206 69.5 -358t192 -235.5t281.5 -83.5zM594 1687q-28 0 -49 21t-21 49q0 30 21 50t49 20q30 0 50 -20t20 -50q0 -28 -20 -49t-50 -21zM919 1687q-28 0 -48.5 21t-20.5 49q0 30 20.5 50t48.5 20q30 0 50 -20t21 -50q-1 -28 -21 -49t-50 -21z
M1025 2108v-79h-537v79h537z" />
    <glyph glyph-name="uni022B" unicode="&#x22b;" horiz-adv-x="1166" 
d="M583 -24q-138 0 -246 75t-170 205.5t-62 298.5t62 298.5t170 205t246 74.5t246 -74.5t170 -205.5t62 -298q0 -168 -62 -298.5t-169.5 -205.5t-246.5 -75zM583 58q118 0 205.5 66.5t136 179t48.5 251.5q0 138 -49 250.5t-136 179t-205 66.5q-116 0 -204 -66.5t-137 -179
t-49 -250.5q0 -139 49 -251.5t136.5 -179t204.5 -66.5zM422 1315q-28 0 -49 21t-21 49q0 30 21 50t49 20q30 0 50 -20t20 -50q0 -28 -20 -49t-50 -21zM747 1315q-28 0 -48.5 21t-20.5 49q0 30 20.5 50t48.5 20q30 0 50 -20t21 -50q-1 -28 -21 -49t-50 -21zM854 1736v-79
h-537v79h537z" />
    <glyph glyph-name="uni022C" unicode="&#x22c;" horiz-adv-x="1508" 
d="M755 -20q-186 0 -328.5 95.5t-223 267.5t-80.5 401q0 231 80.5 403t223 267.5t328.5 95.5t328 -95.5t222 -267.5t80 -403q0 -230 -80 -402t-222 -267t-328 -95zM755 67q158 0 280 83t191.5 235.5t69.5 358.5q0 207 -69.5 359.5t-191.5 236t-280 83.5t-280.5 -82.5
t-192.5 -235t-70 -361.5q0 -206 69.5 -358t192 -235.5t281.5 -83.5zM948 1840l57 -12q-4 -62 -43.5 -107.5t-98.5 -45.5q-49 0 -81.5 23.5t-61.5 47.5t-70 24q-36 -1 -58.5 -30t-27.5 -66l-57 10q5 63 44.5 110t99.5 46q49 1 81 -23t61.5 -47.5t68.5 -23.5q35 1 58 29t28 65
zM1020 2023v-81h-539v81h539z" />
    <glyph glyph-name="uni022D" unicode="&#x22d;" horiz-adv-x="1166" 
d="M583 -24q-138 0 -246 75t-170 205.5t-62 298.5t62 298.5t170 205t246 74.5t246 -74.5t170 -205.5t62 -298q0 -168 -62 -298.5t-169.5 -205.5t-246.5 -75zM583 58q118 0 205.5 66.5t136 179t48.5 251.5q0 138 -49 250.5t-136 179t-205 66.5q-116 0 -204 -66.5t-137 -179
t-49 -250.5q0 -139 49 -251.5t136.5 -179t204.5 -66.5zM793 1509l73 -8q-3 -55 -25 -96.5t-58 -64.5t-83 -24q-41 0 -70.5 17t-54 39t-50 38.5t-59.5 16.5q-43 0 -69 -32.5t-30 -79.5l-72 6q4 55 25.5 97t58.5 65.5t86 23.5q40 0 68.5 -16.5t53 -38.5t50 -38.5t58.5 -16.5
q43 1 68 32.5t30 79.5zM850 1693v-82h-539v82h539z" />
    <glyph glyph-name="uni022E" unicode="&#x22e;" horiz-adv-x="1508" 
d="M755 -20q-186 0 -328.5 95.5t-223 267.5t-80.5 401q0 231 80.5 403t223 267.5t328.5 95.5t328 -95.5t222 -267.5t80 -403q0 -230 -80 -402t-222 -267t-328 -95zM755 67q158 0 280 83t191.5 235.5t69.5 358.5q0 207 -69.5 359.5t-191.5 236t-280 83.5t-280.5 -82.5
t-192.5 -235t-70 -361.5q0 -206 69.5 -358t192 -235.5t281.5 -83.5zM756 1687q-30 0 -51 21t-21 49q0 29 21 49.5t50 20.5q30 0 51 -20.5t21 -49.5q0 -28 -21 -49t-50 -21z" />
    <glyph glyph-name="uni022F" unicode="&#x22f;" horiz-adv-x="1166" 
d="M583 -24q-138 0 -246 75t-170 205.5t-62 298.5t62 298.5t170 205t246 74.5t246 -74.5t170 -205.5t62 -298q0 -168 -62 -298.5t-169.5 -205.5t-246.5 -75zM583 58q118 0 205.5 66.5t136 179t48.5 251.5q0 138 -49 250.5t-136 179t-205 66.5q-116 0 -204 -66.5t-137 -179
t-49 -250.5q0 -139 49 -251.5t136.5 -179t204.5 -66.5zM584 1315q-30 0 -51 21t-21 49q0 29 21 49.5t50 20.5q30 0 51 -20.5t21 -49.5q0 -28 -21 -49t-50 -21z" />
    <glyph glyph-name="uni0230" unicode="&#x230;" horiz-adv-x="1508" 
d="M755 -20q-186 0 -328.5 95.5t-223 267.5t-80.5 401q0 231 80.5 403t223 267.5t328.5 95.5t328 -95.5t222 -267.5t80 -403q0 -230 -80 -402t-222 -267t-328 -95zM755 67q158 0 280 83t191.5 235.5t69.5 358.5q0 207 -69.5 359.5t-191.5 236t-280 83.5t-280.5 -82.5
t-192.5 -235t-70 -361.5q0 -206 69.5 -358t192 -235.5t281.5 -83.5zM755 1688q-29 -1 -50.5 20t-20.5 49q-1 30 20.5 50t50.5 20q30 0 51 -20t20 -50q1 -28 -20 -49t-51 -20zM1023 2109v-80h-537v80h537z" />
    <glyph glyph-name="uni0231" unicode="&#x231;" horiz-adv-x="1166" 
d="M583 -24q-138 0 -246 75t-170 205.5t-62 298.5t62 298.5t170 205t246 74.5t246 -74.5t170 -205.5t62 -298q0 -168 -62 -298.5t-169.5 -205.5t-246.5 -75zM583 58q118 0 205.5 66.5t136 179t48.5 251.5q0 138 -49 250.5t-136 179t-205 66.5q-116 0 -204 -66.5t-137 -179
t-49 -250.5q0 -139 49 -251.5t136.5 -179t204.5 -66.5zM585 1329q-29 -1 -50.5 20t-20.5 49q-1 30 20.5 50t50.5 20q30 0 51 -20t20 -50q1 -28 -20 -49t-51 -20zM853 1750v-80h-537v80h537z" />
    <glyph glyph-name="uni0232" unicode="&#x232;" horiz-adv-x="1259" 
d="M48 1490h107l470 -719h10l468 719h108l-536 -815v-675h-90v675zM897 1795v-79h-537v79h537z" />
    <glyph glyph-name="uni0233" unicode="&#x233;" horiz-adv-x="1061" 
d="M239 -418q-34 -1 -66.5 6.5t-58.5 18.5l27 77l12 -4q98 -34 168 4.5t114 160.5l51 140l-409 1133h95l355 -1004h8l354 1004h96l-472 -1308q-27 -76 -67.5 -127t-92.5 -76t-114 -25zM799 1423v-79h-537v79h537z" />
    <glyph glyph-name="uni0234" unicode="&#x234;" horiz-adv-x="561" 
d="M173 121h87v-277q0 -75 54.5 -126t132.5 -51q76 0 126.5 46.5t51.5 112.5q-1 68 -53 112.5t-129 45.5q-80 -1 -147.5 -57.5t-150.5 -178.5l-110 -139l-62 54l118 147q64 92 122.5 148.5t117 82t120.5 25.5q74 0 134 -31t95 -85.5t35 -123.5q0 -67 -35 -121.5t-95 -86
t-138 -31.5q-64 0 -115 22t-86.5 60t-54 87t-18.5 103v262zM260 1490v-1490h-87v1490h87z" />
    <glyph glyph-name="uni0235" unicode="&#x235;" horiz-adv-x="1505" 
d="M887 183h88v-176q0 -75 54 -126t133 -51q76 0 126.5 46.5t49.5 112.5q1 67 -51 112t-129 46q-40 0 -76.5 -14t-71.5 -43t-71.5 -73.5t-77.5 -105.5l-111 -139l-63 54l119 147q47 68 91.5 117t88.5 79.5t88.5 45t90.5 14.5q75 0 135 -31t94.5 -85.5t34.5 -123.5
q0 -102 -75 -170.5t-192 -68.5q-85 0 -147 38t-95 99.5t-33 133.5v162zM256 724v-724h-87v1118h85v-177h9q40 86 126.5 138.5t205.5 52.5q113 0 198.5 -47.5t133.5 -136t48 -211.5v-737h-87v733q0 143 -85.5 230t-224.5 87q-92 0 -165 -41t-115 -114t-42 -171z" />
    <glyph glyph-name="uni0236" unicode="&#x236;" horiz-adv-x="891" 
d="M271 1384h88v-1148q1 -76 54 -126.5t134 -50.5q74 0 126 45t52 114q0 65 -49.5 111t-133.5 46q-56 0 -113 -35t-126.5 -115.5t-163.5 -218.5l-64 54q99 145 176 232.5t147.5 126.5t151.5 39q119 -1 192 -69t73 -168q0 -52 -19.5 -96t-56 -77t-85.5 -51t-107 -18
q-64 0 -115 22t-87 60t-55 86.5t-19 102.5v1134zM594 1118v-81h-488v81h488z" />
    <glyph glyph-name="uni0237" unicode="&#x237;" horiz-adv-x="429" 
d="M173 1118h87v-1253q0 -87 -35.5 -150.5t-97.5 -98t-144 -34.5h-24v84h23q82 0 136 52.5t55 146.5v1253z" />
    <glyph glyph-name="uni0238" unicode="&#x238;" horiz-adv-x="1749" 
d="M1678 559v-10q0 -172 -52 -300.5t-145.5 -199.5t-219.5 -72q-70 0 -130.5 23t-111.5 66t-90 104.5t-66 138.5v494q35 103 93 177t136 114t171 39q126 1 219 -70t144.5 -199.5t51.5 -304.5zM1580 549v10q0 146 -37.5 256t-110.5 171t-178 61q-115 0 -207.5 -70
t-141.5 -178v-486q35 -73 87.5 -129.5t119 -87.5t142.5 -31q104 0 177 60.5t111 169.5t38 254zM825 201v1289h99v-1490h-88zM71 549v10q0 176 52 304.5t145 199.5t218 70q94 1 172 -39t135.5 -114t91.5 -177v-494q-26 -77 -65 -138.5t-89.5 -104.5t-112 -66t-131.5 -23
q-124 1 -218 72t-146 199.5t-52 300.5zM169 559v-10q1 -145 39 -254t111 -169.5t176 -60.5q77 0 143 31t118.5 87.5t87.5 129.5v486q-48 108 -140.5 178t-206.5 70q-105 0 -178.5 -61t-111 -171t-38.5 -256z" />
    <glyph glyph-name="uni0239" unicode="&#x239;" horiz-adv-x="1749" 
d="M828 -416v1334l11 200h76l10 -201v-1333h-97zM71 549v10q0 176 52 304.5t145 199.5t218 70q94 1 172 -39t135.5 -114t91.5 -177v-494q-26 -77 -65 -138.5t-89.5 -104.5t-112 -66t-131.5 -23q-124 1 -218 72t-146 199.5t-52 300.5zM169 559v-10q1 -145 39 -254t111 -169.5
t176 -60.5q77 0 143 31t118.5 87.5t87.5 129.5v486q-48 108 -140.5 178t-206.5 70q-105 0 -178.5 -61t-111 -171t-38.5 -256zM1678 559v-10q0 -172 -52 -300.5t-145.5 -199.5t-219.5 -72q-70 0 -130.5 23t-111.5 66t-90 104.5t-66 138.5v494q35 103 93 177t136 114t171 39
q126 1 219 -70t144.5 -199.5t51.5 -304.5zM1580 549v10q0 146 -37.5 256t-110.5 171t-178 61q-115 0 -207.5 -70t-141.5 -178v-486q35 -73 87.5 -129.5t119 -87.5t142.5 -31q104 0 177 60.5t111 169.5t38 254z" />
    <glyph glyph-name="uni023A" unicode="&#x23a;" horiz-adv-x="1271" 
d="M1025 1678l-664 -1868h-88l664 1868h88zM142 0h-97l539 1490h105l536 -1490h-96l-490 1373h-8zM279 561h715v-84h-715v84z" />
    <glyph glyph-name="uni023B" unicode="&#x23b;" horiz-adv-x="1451" 
d="M341 -190l703 1868h89l-704 -1868h-88zM755 -20q-186 0 -328.5 95t-223 267t-80.5 402q0 231 80.5 403t223 267.5t328.5 95.5q124 0 224.5 -41t174 -110.5t119 -156.5t61.5 -178h-93q-15 75 -55 146.5t-102.5 128.5t-145.5 90.5t-183 33.5q-147 0 -270.5 -78.5t-198 -230
t-74.5 -370.5q0 -220 74.5 -371t198 -228.5t270.5 -77.5q100 0 183 33.5t145.5 90t102.5 128t55 147.5h93q-16 -91 -61.5 -177.5t-119 -156t-174 -111t-224.5 -41.5z" />
    <glyph glyph-name="uni023C" unicode="&#x23c;" horiz-adv-x="1138" 
d="M1032 1490l-834 -1908h-83l839 1908h78zM609 -24q-143 0 -251.5 75.5t-169.5 206.5t-61 297t61 296.5t170 206t250 75.5q106 0 193.5 -43t145.5 -120.5t74 -180.5h-88q-14 73 -59 132.5t-113 94.5t-152 35q-114 0 -203 -63.5t-140 -175t-51 -255.5q0 -143 49.5 -255.5
t138.5 -178t206 -65.5q122 0 212 73t112 195h89q-15 -103 -72 -182t-144.5 -123.5t-196.5 -44.5z" />
    <glyph glyph-name="uni023D" unicode="&#x23d;" horiz-adv-x="1120" 
d="M199 0v1490h92v-1406h727v-84h-819zM-46 729v76h583v-76h-583z" />
    <glyph glyph-name="uni023E" unicode="&#x23e;" horiz-adv-x="1243" 
d="M242 -190l703 1868h84l-701 -1868h-86zM101 1405v85h1043v-85h-476v-1405h-91v1405h-476z" />
    <glyph glyph-name="uni023F" unicode="&#x23f;" horiz-adv-x="982" 
d="M217 197q100 -176 160.5 -282.5t98 -161.5t64.5 -73.5t61 -18.5q32 0 64.5 17t67.5 45l37 -66q-43 -35 -85 -55.5t-83 -19.5q-45 0 -82 17.5t-69 54t-64 91.5l-238 411zM877 877l-82 -22q-30 91 -96.5 144.5t-181.5 53.5q-123 0 -201 -61t-78 -159q0 -80 52.5 -133
t160.5 -80l173 -43q131 -32 199 -104.5t68 -180.5q0 -93 -50 -164t-139 -111.5t-205 -40.5q-156 0 -256.5 74t-129.5 210l84 21q25 -110 101.5 -167t200.5 -57q136 0 220 65.5t84 166.5q0 158 -199 207l-178 44q-137 34 -205.5 108t-68.5 181q0 91 47 159t130 106.5
t190 38.5q142 0 231 -66.5t129 -189.5z" />
    <glyph glyph-name="uni0240" unicode="&#x240;" horiz-adv-x="1033" 
d="M232 84h42q119 0 199 -42t136.5 -104t101.5 -124.5t90 -104.5t105 -42q15 0 30.5 3t31.5 9t35 16l22 -67q-26 -18 -59.5 -32t-70.5 -14q-60 0 -105.5 30.5t-85 78t-80 101t-89.5 101t-114 77.5t-154 30h-38zM245 84v-84h-110v79l658 954h-634v85h744v-78z" />
    <glyph glyph-name="uni0241" unicode="&#x241;" horiz-adv-x="1025" 
d="M461 415h20q128 0 210 49t121.5 139t39.5 212v210q0 88 -21 160.5t-63 125t-106.5 81t-151.5 28.5q-150 0 -242 -80t-99 -214h-96q7 115 62.5 201.5t151.5 134.5t223 48q143 0 241.5 -61t149.5 -170t50 -254v-210q1 -147 -52.5 -257t-156.5 -170.5t-255 -60.5h-26v88z
M539 415v-415h-101v415h101z" />
    <glyph glyph-name="uni0242" unicode="&#x242;" horiz-adv-x="1005" 
d="M132 709q2 139 49.5 233.5t131.5 143t197 47.5q171 1 267.5 -106t96.5 -301q0 -117 -38.5 -204.5t-116 -136t-194.5 -48.5h-28v72h20q132 0 196 84t64 230q0 150 -67.5 238t-200.5 88q-128 0 -202.5 -87t-77.5 -253h-97zM475 409h98v-409h-98v409z" />
    <glyph glyph-name="uni0243" unicode="&#x243;" horiz-adv-x="1403" 
d="M316 0v1490h484q135 0 228 -48t141.5 -135t48.5 -201q0 -91 -29 -160.5t-81 -115t-122 -63.5v-8q77 -6 143 -54t106.5 -129t40.5 -189q0 -114 -49 -201.5t-146.5 -136.5t-241.5 -49h-523zM408 84h431q168 0 258.5 84.5t90.5 218.5q0 94 -43.5 168t-121.5 117t-181 43
h-434v-631zM408 798h424q95 0 161.5 41.5t101.5 111.5t35 155q0 138 -86 218.5t-244 80.5h-392v-607zM74 392v76h583v-76h-583z" />
    <glyph glyph-name="uni0244" unicode="&#x244;" horiz-adv-x="1461" 
d="M1481 872v-71h-1500v71h1500zM1182 1490h92v-986q0 -152 -70.5 -271.5t-195 -188.5t-284.5 -69t-284.5 69t-195.5 188.5t-71 271.5v986h92v-981q0 -129 58.5 -229.5t162 -158.5t238.5 -58t238 58t161.5 158.5t58.5 229.5v981z" />
    <glyph glyph-name="uni0245" unicode="&#x245;" horiz-adv-x="1374" 
d="M1165 0l-487 1389l-28 101h89l535 -1490h-109zM695 1391l-485 -1391h-109l535 1490h85z" />
    <glyph glyph-name="uni0246" unicode="&#x246;" horiz-adv-x="1173" 
d="M958 1678l-539 -1868h-84l539 1868h84zM199 0v1490h829v-85h-737v-616h693v-84h-693v-621h755v-84h-847z" />
    <glyph glyph-name="uni0247" unicode="&#x247;" horiz-adv-x="1167" 
d="M1032 1490l-834 -1908h-83l839 1908h78zM625 -24q-151 0 -263.5 75t-173.5 206t-61 297q0 167 61 298t168.5 206t246.5 75q94 0 178 -37t149 -108.5t101.5 -174t36.5 -232.5v-42h-885v80h837l-39 -32q0 130 -47.5 235.5t-132.5 167t-198 61.5q-111 0 -199 -62.5
t-138.5 -167.5t-50.5 -235v-37q0 -140 49 -251t141 -175.5t220 -64.5q91 0 156 31t107 76t63 86l80 -33q-25 -56 -78.5 -112t-135.5 -93t-192 -37z" />
    <glyph glyph-name="uni0248" unicode="&#x248;" horiz-adv-x="1047" 
d="M467 -20q-109 0 -195.5 41t-136.5 114t-50 168v17h90v-17q0 -69 38.5 -123.5t104.5 -85t149 -30.5q80 0 146.5 34t105.5 109.5t39 197.5v1085h91v-1085q0 -148 -51 -242t-137.5 -138.5t-193.5 -44.5zM512 845v76h583v-76h-583z" />
    <glyph glyph-name="uni0249" unicode="&#x249;" horiz-adv-x="433" 
d="M157 1118h87v-1253q0 -87 -35.5 -150.5t-97.5 -98t-144 -34.5h-24v84h23q82 0 136 52.5t55 146.5v1253zM-92 596v76h583v-76h-583zM200 1315q-30 0 -51 21t-21 49q0 29 21 49.5t50 20.5q30 0 51 -20.5t21 -49.5q0 -28 -21 -49t-50 -21z" />
    <glyph glyph-name="Q_rthook" unicode="&#x24a;" horiz-adv-x="1521" 
d="M1305 1490v-1663q0 -91 36 -127t110 -37q17 1 35 2t32 3v-79q-18 -4 -39.5 -5t-41.5 -1q-53 0 -94 15t-69 45.5t-42.5 76t-14.5 107.5v506h-8q-61 -173 -182 -263.5t-286 -90.5q-137 0 -250.5 55.5t-195.5 158t-127 243t-45 310.5q0 169 45 309t128 242t197 157.5
t253 55.5q165 0 284 -89.5t179 -263.5h10v333h86zM746 67q155 0 261 84t160 236.5t54 357.5q0 204 -56 356.5t-161.5 238t-256.5 85.5q-160 0 -280 -86.5t-186.5 -239.5t-67.5 -354q1 -204 68 -356.5t187.5 -237t277.5 -84.5z" />
    <glyph glyph-name="qrthook" unicode="&#x24b;" horiz-adv-x="1209" 
d="M1141 -417q-53 0 -94 15t-69 45.5t-42.5 76t-14.5 107.5v167h88v-167q0 -91 36 -127t110 -37q15 1 33 2t34 3v-79q-19 -4 -40.5 -5t-40.5 -1zM551 -24q-133 1 -233.5 75t-156 205.5t-56.5 299.5q1 169 56.5 299.5t156 204.5t235.5 73q96 1 167 -35.5t118.5 -97
t73.5 -132.5h47l4 -624h-51q-25 -72 -74 -133t-120 -97.5t-167 -37.5zM1009 -101h-88v376l29 279l-27 303v261h86v-1219zM559 59q114 1 194.5 65t124.5 177t44 256q0 142 -43.5 254t-124 176t-195.5 64t-197 -65t-124.5 -177t-42.5 -252q0 -141 43 -254t125 -178t196 -66z
" />
    <glyph glyph-name="uni024C" unicode="&#x24c;" horiz-adv-x="1257" 
d="M251 622h-238v86h238v-86zM206 0v1490h460q142 0 243 -55t155.5 -153.5t54.5 -228.5q0 -127 -54.5 -224.5t-155.5 -152t-242 -54.5h-412v86h410q114 0 195 42.5t125 120t44 182.5q0 107 -44 185.5t-125.5 122.5t-195.5 44h-366v-1405h-92zM1080 0l-364 675h103l366 -675
h-105z" />
    <glyph glyph-name="uni024D" unicode="&#x24d;" horiz-adv-x="666" 
d="M169 0v1118h85v-175h8q37 85 123.5 137.5t196.5 52.5q12 0 23.5 -0.5t22.5 -0.5v-89q-6 1 -20 2.5t-31 1.5q-93 0 -165.5 -40.5t-114 -110.5t-41.5 -161v-735h-87zM-78 497v76h583v-76h-583z" />
    <glyph glyph-name="uni024E" unicode="&#x24e;" horiz-adv-x="1256" 
d="M1275 1177v-70h-1293v70h1293zM48 1490h107l470 -719h10l468 719h108l-536 -815v-675h-90v675z" />
    <glyph glyph-name="uni024F" unicode="&#x24f;" horiz-adv-x="1061" 
d="M972 805v-76h-874v76h874zM239 -418q-34 -1 -66.5 6.5t-58.5 18.5l27 77l12 -4q98 -34 168 4.5t114 160.5l51 140l-409 1133h95l355 -1004h8l354 1004h96l-472 -1308q-27 -76 -67.5 -127t-92.5 -76t-114 -25z" />
    <glyph glyph-name="aturn" unicode="&#x250;" horiz-adv-x="1088" 
d="M623 1143q97 0 178 -39t129.5 -113t48.5 -180q0 -70 -25 -123.5t-76.5 -92t-132 -63.5t-192.5 -39q-86 -9 -153 -19.5t-105 -31.5t-38 -64v-46q0 -122 77 -194t212 -72q120 0 202 52.5t115 135.5l84 -31q-32 -80 -93.5 -133t-140 -79t-165.5 -26q-75 0 -143 20.5
t-121.5 64t-84 110t-30.5 158.5v780h88v-201h6q30 62 80.5 113.5t121 82t158.5 30.5zM615 1061q-104 0 -185 -52t-127 -141t-46 -203v-165q17 14 48.5 25.5t71 20.5t82.5 15t84 11q123 15 199.5 45t112.5 79t36 118q0 114 -79.5 180.5t-196.5 66.5z" />
    <glyph glyph-name="ascript" unicode="&#x251;" horiz-adv-x="1265" 
d="M571 -24q-143 1 -248 75t-162 204.5t-57 301.5q0 168 60.5 297.5t166.5 203.5t243 74q171 0 278.5 -106.5t144.5 -294.5h31l22 -169l113 -562h-84l-117 601q-17 96 -48 178t-77.5 142.5t-112 94.5t-150.5 34q-112 0 -198 -63.5t-134.5 -174.5t-49.5 -256
q1 -146 47.5 -258t131.5 -175t200 -64q75 0 139 29.5t114 87t85 142t52 193.5l102 607h85l-98 -562l-21 -173h-27q-29 -146 -93 -235.5t-151 -130t-187 -41.5z" />
    <glyph glyph-name="ascriptturn" unicode="&#x252;" horiz-adv-x="1212" 
d="M1111 586v-43q1 -167 -51 -294.5t-150.5 -199t-238.5 -72.5q-113 1 -193.5 48t-130 134t-70.5 203l2 354q19 127 71.5 221t139 145.5t203.5 50.5q134 1 228 -68t142.5 -192t47.5 -287zM1013 545v41q1 137 -36 241.5t-113 163t-192 58.5q-99 0 -169 -46.5t-115.5 -130
t-71.5 -197.5l1 -270q23 -101 65 -178.5t109 -120.5t162 -43q120 0 200 61.5t120.5 170.5t39.5 250zM329 0h-83v919q0 68 -21.5 96t-58.5 28q-13 0 -24.5 -2.5t-21.5 -7.5l-17 75q20 15 41.5 20.5t45.5 4.5q72 1 113 -52.5t40 -161.5v-687z" />
    <glyph glyph-name="uni0253" unicode="&#x253;" horiz-adv-x="1177" 
d="M627 -24q-96 0 -167.5 37t-120 98t-74.5 133h-11v-244h-85v1279q0 109 54.5 163.5t162.5 54.5q21 0 42.5 -1.5t38.5 -3.5v-79q-17 2 -35 3t-31 1q-77 0 -111 -32.5t-34 -105.5v-411h9q25 72 73.5 132.5t120 96.5t167.5 36q134 0 234 -74t155.5 -204.5t55.5 -298.5
q0 -169 -55 -300t-155 -205.5t-234 -74.5zM619 58q115 0 196 66t124.5 179t43.5 254q0 140 -43 252t-124.5 177t-196.5 65q-113 0 -194.5 -64t-125.5 -176t-44 -254q0 -143 44 -256t125.5 -178t194.5 -65z" />
    <glyph glyph-name="uni0254" unicode="&#x254;" horiz-adv-x="1026" 
d="M74 320h95q14 -74 62 -131.5t118.5 -91t153.5 -33.5q112 0 191 61.5t120 166t40 232.5v43q1 145 -40.5 253.5t-122.5 168.5t-198 60q-134 0 -216 -80t-108 -236h-95q18 128 72.5 217.5t142.5 136.5t204 46q144 1 246.5 -69.5t157.5 -198t55 -298.5v-43q0 -154 -55 -277.5
t-155.5 -195t-238.5 -71.5q-110 0 -201.5 45t-151.5 122t-76 173z" />
    <glyph glyph-name="uni0255" unicode="&#x255;" horiz-adv-x="1097" 
d="M589 -24q-145 1 -254.5 75t-170.5 205.5t-61 300.5q0 166 61 296.5t169.5 205.5t249.5 74q106 1 193.5 -43t145 -122t73.5 -179h-90q-21 114 -107.5 188t-214.5 74q-114 0 -202.5 -63.5t-139 -174.5t-50.5 -256q0 -147 50 -259t140.5 -175t207.5 -64v-83zM80 -29l-67 51
q36 53 84.5 119t108.5 132t131 121.5t152 89t172 33.5q89 1 153 -33t99 -91.5t35 -129.5q0 -84 -47.5 -149t-128.5 -101t-183 -37v83q116 0 192.5 58t77.5 144q-1 77 -58 126t-140 50q-73 0 -144 -32.5t-136 -85.5t-121.5 -115.5t-102.5 -123.5t-77 -109z" />
    <glyph glyph-name="drthook" unicode="&#x256;" horiz-adv-x="1184" 
d="M1141 -417q-53 0 -94 15t-69 45.5t-42.5 76t-14.5 107.5v253h88v-253q0 -91 36 -127t110 -37q15 1 33 2t34 3v-79q-19 -4 -41 -5t-40 -1zM550 -24q-134 0 -234.5 74.5t-155.5 205.5t-55 300q0 168 55.5 298.5t156 204.5t234.5 74q96 0 167.5 -36t120 -96.5t73.5 -132.5h9
v622h87v-1490h-85v244h-11q-26 -72 -74.5 -133t-120 -98t-167.5 -37zM557 58q114 0 195.5 65t125 178t43.5 256q0 142 -43.5 254t-125 176t-195.5 64t-195.5 -65t-125 -177t-43.5 -252q0 -141 43.5 -254t125 -179t195.5 -66z" />
    <glyph glyph-name="uni0257" unicode="&#x257;" horiz-adv-x="1159" 
d="M551 -24q-134 1 -234 75t-155.5 205t-56.5 300q1 168 56.5 298.5t156 205t235.5 73.5q95 1 166 -35.5t119.5 -97t73.5 -132.5h9v250h88v-1118h-86v244h-11q-26 -71 -74.5 -132.5t-119.5 -98t-167 -37.5zM559 59q114 1 195 65t124.5 177t43.5 256q0 142 -43.5 254
t-124.5 176t-195 64q-115 0 -196.5 -65t-124.5 -177t-43 -252q0 -141 42.5 -254t124.5 -178t197 -66zM921 1118v161q0 109 55 164t163 54q21 0 42.5 -1.5t38.5 -3.5v-79q-17 2 -35 3t-32 1q-76 0 -110 -32.5t-34 -105.5v-161h-88z" />
    <glyph glyph-name="erev" unicode="&#x258;" horiz-adv-x="1027" 
d="M479 -20q-131 0 -232.5 59t-159.5 165l73 38q50 -84 132 -131t186 -47q171 0 270 124.5t99 348.5v17q0 110 -25.5 201.5t-72.5 157t-112 101t-143 35.5q-144 0 -227.5 -113.5t-87.5 -316.5v-8h710v-84h-807v60q0 169 49.5 291.5t141.5 189t217 65.5q134 1 237 -73.5
t160.5 -207t57.5 -305.5v-16q0 -171 -58 -295t-163 -190t-245 -66z" />
    <glyph glyph-name="uni0259" unicode="&#x259;" horiz-adv-x="1145" 
d="M542 1142q151 0 263 -75t173.5 -205.5t61.5 -297.5q0 -166 -61.5 -297.5t-168.5 -206.5t-246 -75q-94 0 -178 37t-149 108.5t-101.5 174t-36.5 232.5v42h884v-80h-837l40 32q0 -130 47.5 -235.5t132.5 -167t198 -61.5q111 0 199 62.5t138.5 168t50.5 234.5v37
q0 140 -49 251.5t-140.5 175.5t-220.5 64q-91 0 -156.5 -31t-107 -75.5t-62.5 -86.5l-81 33q26 57 79.5 112.5t135.5 92.5t192 37z" />
    <glyph glyph-name="uni025A" unicode="&#x25a;" horiz-adv-x="1253" 
d="M429 1123q137 1 238.5 -69.5t157.5 -196.5t56 -292v-18q0 -169 -58.5 -297t-155 -200t-213.5 -73q-135 1 -233 69.5t-150.5 187t-52.5 271.5v53l781 137v-86l-683 -120v-13q0 -117 41.5 -210.5t117 -148t179.5 -54.5q70 0 130 34.5t104.5 98.5t69.5 152t25 194v19
q0 141 -43.5 249t-123.5 169t-190 60q-100 1 -175 -45.5t-132 -135.5l-66 48q41 67 95.5 116t124 75.5t156.5 25.5zM829 613v88l174 31q9 -81 27 -138t48.5 -86t77.5 -31q19 -1 34 1.5t29 6.5l15 -68q-24 -9 -49 -15t-50 -6q-59 1 -100 31t-64.5 83t-33.5 124z" />
    <glyph glyph-name="epsilon1" unicode="&#x25b;" horiz-adv-x="1061" 
d="M512 594h103v-58h-118q-85 0 -153 -30.5t-107 -85.5t-39 -128q0 -102 88.5 -165.5t237.5 -63.5q152 0 236 70.5t111 193.5h88q-11 -78 -45 -141.5t-90 -109.5t-132 -71t-171 -25q-126 0 -219.5 40t-144.5 110.5t-52 160.5q0 65 26 119.5t77 96t127 64.5t177 23zM615 548
h-103q-103 0 -176 20t-119 56.5t-67 86.5t-21 110q0 95 48.5 165t136.5 108t205 38q108 0 191.5 -36.5t136.5 -107t69 -172.5h-92q-23 117 -102 175t-203 59q-137 -1 -218.5 -62t-83.5 -165q0 -96 72 -151t208 -56h118v-68z" />
    <glyph glyph-name="epsilon1rev" unicode="&#x25c;" horiz-adv-x="1132" 
d="M557 594q101 0 177 -23t127 -64.5t76.5 -96t25.5 -119.5q1 -90 -50 -160.5t-144.5 -110.5t-219.5 -40q-95 0 -171.5 25t-132.5 71t-90.5 109.5t-45.5 141.5h90q27 -123 111.5 -193.5t235.5 -70.5q149 0 237.5 63.5t88.5 165.5q1 73 -38.5 128t-107.5 85.5t-154 30.5h-118
v58h103zM454 548v68h118q136 1 208.5 56t70.5 151q0 104 -81.5 165t-218.5 62q-124 -1 -203 -59t-103 -175h-91q16 102 68.5 172.5t136.5 107t192 36.5q117 0 205 -38t137 -108t48 -165q0 -60 -21.5 -110t-67 -86.5t-119 -56.5t-176.5 -20h-103z" />
    <glyph glyph-name="epsilon1revhook" unicode="&#x25d;" horiz-adv-x="1294" 
d="M878 791v84l172 32q11 -82 29.5 -138.5t49 -85.5t76.5 -30q20 0 35.5 2.5t26.5 6.5l16 -67q-22 -10 -46.5 -16.5t-51.5 -5.5q-59 1 -100 30t-65 82t-34 124zM555 594q102 0 178 -23t127 -64.5t76.5 -96t25.5 -119.5q1 -90 -50 -160.5t-144.5 -110.5t-220.5 -40
q-95 0 -171 25t-132 71t-90.5 109.5t-45.5 141.5h90q26 -123 110.5 -193.5t236.5 -70.5q148 0 236.5 63.5t89.5 165.5q1 73 -38.5 128t-108 85.5t-153.5 30.5h-118v58h102zM453 548v68h118q136 1 208 56t71 151q-1 104 -82 165t-218 62q-124 -1 -203 -59t-104 -175h-90
q16 102 68.5 172.5t136.5 107t192 36.5q117 0 204.5 -38t136.5 -108t49 -165q0 -60 -21.5 -110t-67.5 -86.5t-119 -56.5t-177 -20h-102z" />
    <glyph glyph-name="epsilon1revclosed" unicode="&#x25e;" horiz-adv-x="1025" 
d="M524 -20q-112 0 -196.5 38t-141.5 112.5t-85 184t-28 252.5h87q0 -248 90.5 -376t273.5 -128q146 0 234.5 63t88.5 166q1 70 -37.5 125t-106 87t-156.5 32h-117v58h102q104 0 180.5 -24t127 -65.5t75 -96t24.5 -117.5q0 -93 -52.5 -163t-146 -109t-216.5 -39zM532 548
h-102v68h117q136 1 208.5 56t71.5 151q-1 104 -81.5 165t-216.5 62q-123 0 -205.5 -55.5t-123 -163t-40.5 -267.5h-87q0 137 28.5 243t86 178.5t142.5 109.5t197 37q175 0 282 -84t108 -227q0 -60 -21.5 -110t-67.5 -86.5t-119.5 -56.5t-176.5 -20z" />
    <glyph glyph-name="jdotlessbar" unicode="&#x25f;" horiz-adv-x="429" 
d="M173 1118h87v-1253q0 -87 -35.5 -150.5t-97.5 -98t-144 -34.5h-24v84h23q82 0 136 52.5t55 146.5v1253zM-76 596v76h583v-76h-583z" />
    <glyph glyph-name="uni0260" unicode="&#x260;" horiz-adv-x="1177" 
d="M923 1118v161q0 109 55 162.5t163 53.5q20 0 42.5 -1t38.5 -2v-79q-17 1 -35.5 1.5t-31.5 0.5q-76 -1 -111 -32t-35 -104v-161h-86zM571 -442q-157 0 -263.5 60t-152.5 164l74 44q25 -54 71 -96.5t113.5 -66.5t157.5 -24q161 0 255.5 83.5t94.5 254.5v278h-9
q-25 -72 -75.5 -128.5t-122 -88.5t-163.5 -32q-132 0 -232.5 68.5t-157 192.5t-56.5 292t55.5 297.5t156.5 203t236 73.5q96 0 167 -36t119 -96.5t74 -132.5h10v250h86v-1145q0 -139 -55 -231.5t-154 -138t-229 -45.5zM559 88q168 0 265.5 126.5t97.5 345.5q0 141 -43 252
t-124 175t-196 64t-197 -65t-125.5 -176.5t-43.5 -249.5q0 -139 44 -245.5t126 -166.5t196 -60z" />
    <glyph glyph-name="gcursive" unicode="&#x261;" horiz-adv-x="1177" 
d="M571 -442q-157 0 -263.5 60t-152.5 164l74 44q25 -54 71 -96.5t113.5 -66.5t157.5 -24q161 0 255.5 83.5t94.5 254.5v278h-9q-25 -72 -75.5 -128.5t-122 -88.5t-163.5 -32q-132 0 -232.5 68.5t-157 192.5t-56.5 292t55.5 297.5t156.5 203t236 73.5q96 0 167 -36
t119 -96.5t74 -132.5h10v250h86v-1145q0 -139 -55 -231.5t-154 -138t-229 -45.5zM559 88q168 0 265.5 126.5t97.5 345.5q0 141 -43 252t-124 175t-196 64t-197 -65t-125.5 -176.5t-43.5 -249.5q0 -139 44 -245.5t126 -166.5t196 -60z" />
    <glyph glyph-name="Gsmallcap" unicode="&#x262;" horiz-adv-x="1204" 
d="M1055 508v-354q-24 -41 -90 -81.5t-157 -67.5t-192 -28q-148 1 -260 62.5t-175 170.5t-63 252v164q0 140 64.5 247.5t177.5 168.5t258 60q131 1 225 -43.5t148 -124.5t63 -186h-91q-18 132 -107 201.5t-238 69.5q-118 0 -210.5 -50.5t-145.5 -139.5t-53 -203v-164
q0 -117 51.5 -207.5t143.5 -141t212 -50.5q71 -1 144 18.5t130 49t76 56.5v237h-329v84h418z" />
    <glyph glyph-name="gamma1" unicode="&#x263;" horiz-adv-x="1095" 
d="M545 -442q-89 0 -146.5 48t-57.5 126q0 26 10 61t33 91t63 143l513 1091h98l-483 -1036q-74 -160 -107.5 -237t-34.5 -113q1 -38 33.5 -63t78.5 -25q47 0 79 25.5t32 62.5q0 38 -34.5 124t-106.5 238l-478 1024h96l509 -1081q61 -130 83 -197.5t22 -103.5
q0 -81 -56 -129.5t-146 -48.5z" />
    <glyph glyph-name="babygamma" unicode="&#x264;" horiz-adv-x="1463" 
d="M197 937l-63 64q42 61 98.5 97t126.5 35q56 0 102.5 -27t93.5 -85t101.5 -152.5t125.5 -228.5q68 -130 107.5 -218t56.5 -146.5t17 -100.5q0 -88 -62.5 -141.5t-169.5 -53.5v86q64 0 99.5 31.5t34.5 80.5q1 29 -16.5 82t-61.5 148.5t-127 253.5q-75 145 -126 226.5
t-93.5 115.5t-93.5 33q-45 1 -82.5 -25t-67.5 -75zM1331 1001l-64 -64q-30 49 -67.5 75t-82.5 25q-51 1 -94.5 -34.5t-98.5 -125.5t-141 -253q-72 -139 -112.5 -227t-56.5 -139t-16 -80q0 -49 35.5 -80.5t97.5 -31.5v-86q-104 0 -167.5 53.5t-63.5 141.5q0 42 17.5 100.5
t57.5 146.5t106 217q71 135 125.5 229.5t102 153t94.5 85t102 26.5q71 1 127.5 -35t98.5 -97z" />
    <glyph glyph-name="hturn" unicode="&#x265;" horiz-adv-x="1148" 
d="M892 394v724h87v-1490h-87v549h-9q-40 -87 -126 -139t-206 -52q-113 0 -199.5 47.5t-134.5 136.5t-48 211v737h88v-733q0 -143 85.5 -230t224.5 -87q95 0 168 41t115 114.5t42 170.5z" />
    <glyph glyph-name="uni0266" unicode="&#x266;" horiz-adv-x="1144" 
d="M169 1118v161q-1 109 54 162.5t163 53.5q21 0 43.5 -1t37.5 -2v-79q-17 1 -35.5 1.5t-30.5 0.5q-77 -1 -112 -32t-35 -104v-161h-85zM256 724v-724h-87v1118h85v-177h9q40 86 126.5 138.5t205.5 52.5q113 0 198.5 -47.5t133.5 -136t48 -211.5v-737h-87v733
q0 143 -85.5 230t-224.5 87q-92 0 -165 -41t-115 -114t-42 -171z" />
    <glyph glyph-name="uni0267" unicode="&#x267;" horiz-adv-x="1144" 
d="M888 0h87v-152q0 -65 -16 -114t-46 -82.5t-72 -51t-94 -17.5q-23 0 -44.5 2.5t-36.5 9.5v77q13 -4 29.5 -6t33.5 -3q75 1 116.5 44t42.5 141v152zM256 724v-724h-87v1118h85v-177h9q40 86 126.5 138.5t205.5 52.5q113 0 198.5 -47.5t133.5 -136t48 -211.5v-737h-87v733
q0 143 -85.5 230t-224.5 87q-92 0 -165 -41t-115 -114t-42 -171zM169 1118v161q-1 109 54 162.5t163 53.5q21 0 43.5 -1t37.5 -2v-79q-17 1 -35.5 1.5t-30.5 0.5q-77 -1 -112 -32t-35 -104v-161h-85z" />
    <glyph glyph-name="ibar" unicode="&#x268;" horiz-adv-x="425" 
d="M169 0v1118h87v-1118h-87zM213 1315q-30 0 -51 21t-21 49q0 29 21 49.5t50 20.5q30 0 51 -20.5t21 -49.5q0 -28 -21 -49t-50 -21zM-79 547v76h583v-76h-583z" />
    <glyph glyph-name="iota" unicode="&#x3b9;" horiz-adv-x="444" 
d="M167 1118h87v-910q0 -69 33 -102t76 -33q31 0 53.5 3t27.5 5l5 -84q-8 -3 -35.5 -7.5t-70.5 -3.5q-77 -1 -127 56.5t-49 165.5v910z" />
    </font>
</defs>
</svg>
